<?xml version="1.0" standalone="no"?>
<!DOCTYPE svg PUBLIC "-//W3C//DTD SVG 20010904//EN"
 "http://www.w3.org/TR/2001/REC-SVG-20010904/DTD/svg10.dtd">
<svg version="1.0" xmlns="http://www.w3.org/2000/svg"
 width="260.000000pt" height="260.000000pt" viewBox="0 0 260.000000 260.000000"
 preserveAspectRatio="xMidYMid meet">
<metadata>
Created by potrace 1.11, written by Peter Selinger 2001-2013
</metadata>
<g transform="translate(0.000000,260.000000) scale(0.100000,-0.100000)"
fill="#000000" stroke="none">
<path d="M2130 1715 c0 -8 -6 -15 -14 -15 -8 0 -28 -11 -43 -24 -23 -20 -28
-32 -28 -71 0 -39 5 -51 28 -71 15 -13 35 -24 43 -24 8 0 14 -7 14 -15 0 -8 7
-15 15 -15 8 0 15 7 15 15 0 8 7 15 16 15 8 0 29 13 45 29 21 22 29 39 29 66
0 27 -8 44 -29 66 -16 16 -37 29 -45 29 -9 0 -16 7 -16 15 0 8 -7 15 -15 15
-8 0 -15 -7 -15 -15z m0 -110 c0 -41 -4 -75 -9 -75 -15 0 -51 51 -51 72 0 34
30 77 53 78 4 0 7 -34 7 -75z m70 55 c12 -12 20 -33 20 -55 0 -34 -27 -75 -50
-75 -6 0 -10 32 -10 75 0 79 7 88 40 55z"/>
<path d="M334 1700 c-35 -14 -54 -50 -54 -101 0 -41 4 -51 31 -74 25 -20 40
-25 72 -23 22 2 42 8 44 13 2 7 -12 9 -36 7 -33 -3 -45 1 -67 23 -23 23 -26
32 -21 68 8 56 38 81 90 74 26 -4 37 -2 34 6 -4 15 -65 19 -93 7z"/>
<path d="M450 1700 c0 -5 16 -10 35 -10 l35 0 0 -95 c0 -78 3 -95 15 -95 12 0
15 17 15 95 l0 95 35 0 c19 0 35 5 35 10 0 6 -35 10 -85 10 -50 0 -85 -4 -85
-10z"/>
<path d="M686 1678 c-42 -102 -66 -162 -66 -170 0 -21 21 -4 34 27 14 32 19
35 55 35 37 0 42 -3 55 -35 13 -31 36 -48 36 -27 0 20 -79 197 -89 200 -6 2
-18 -11 -25 -30z m40 -43 c19 -45 19 -45 -16 -45 -16 0 -30 3 -30 7 0 10 24
73 28 73 1 0 10 -16 18 -35z"/>
<path d="M840 1605 c0 -63 4 -105 10 -105 6 0 10 20 10 45 0 44 1 45 31 45 53
0 89 26 89 67 0 32 -37 53 -92 53 l-48 0 0 -105z m98 73 c30 -30 1 -68 -52
-68 -24 0 -26 4 -26 40 0 39 1 40 33 40 18 0 38 -5 45 -12z"/>
<path d="M1000 1700 c0 -5 16 -10 35 -10 l35 0 0 -95 c0 -78 3 -95 15 -95 12
0 15 17 15 95 l0 95 35 0 c19 0 35 5 35 10 0 6 -35 10 -85 10 -50 0 -85 -4
-85 -10z"/>
<path d="M1205 1618 c-21 -51 -39 -99 -42 -105 -3 -7 2 -13 10 -13 9 0 20 15
27 35 11 33 14 35 54 35 39 0 43 -3 55 -35 7 -19 19 -35 27 -35 11 0 10 10 -7
53 -12 28 -30 76 -41 105 -12 28 -26 52 -33 52 -7 0 -30 -42 -50 -92z m68 10
l16 -38 -34 0 c-23 0 -33 4 -30 13 28 80 26 79 48 25z"/>
<path d="M1380 1605 c0 -87 3 -105 15 -105 12 0 15 17 15 95 l0 95 55 0 55 0
0 -95 c0 -57 4 -95 10 -95 6 0 10 42 10 105 l0 105 -80 0 -80 0 0 -105z"/>
<path d="M1660 1605 c0 -87 3 -105 15 -105 11 0 15 12 15 47 l0 47 49 -48 c27
-27 54 -47 60 -45 7 3 -11 26 -38 53 l-50 49 46 54 c56 66 45 69 -19 6 l-48
-47 0 47 c0 35 -4 47 -15 47 -12 0 -15 -18 -15 -105z"/>
<path d="M1894 1657 c-12 -28 -31 -76 -42 -104 -17 -43 -19 -53 -8 -53 8 0 20
16 27 35 12 32 16 35 55 35 40 0 44 -3 55 -35 7 -19 19 -35 27 -35 8 0 12 6 9
13 -58 147 -81 197 -91 197 -6 0 -21 -24 -32 -53z m54 -34 c11 -33 11 -33 -23
-33 l-33 0 15 40 c18 44 24 43 41 -7z"/>
<path d="M2290 1605 l0 -105 70 0 c40 0 70 4 70 10 0 6 -25 10 -55 10 l-55 0
0 40 0 40 45 0 c25 0 45 5 45 10 0 6 -20 10 -45 10 -45 0 -45 0 -45 35 l0 35
50 0 c28 0 50 5 50 10 0 6 -28 10 -65 10 l-65 0 0 -105z"/>
<path d="M640 1150 l0 -40 40 0 40 0 0 40 0 40 -40 0 -40 0 0 -40z"/>
<path d="M2100 965 l0 -225 35 0 35 0 0 110 0 109 30 16 c77 40 100 9 100
-132 l0 -103 36 0 36 0 -4 130 c-3 116 -5 132 -24 151 -32 31 -95 36 -139 11
l-35 -21 0 89 0 90 -35 0 -35 0 0 -225z"/>
<path d="M320 950 l0 -210 40 0 40 0 0 95 0 95 80 0 80 0 0 30 0 30 -80 0 -80
0 0 55 0 55 95 0 95 0 0 30 0 30 -135 0 -135 0 0 -210z"/>
<path d="M1130 1130 l0 -30 65 0 65 0 0 -180 0 -180 40 0 40 0 0 180 0 180 65
0 65 0 0 30 0 30 -170 0 -170 0 0 -30z"/>
<path d="M930 1043 c-8 -3 -25 -15 -37 -26 l-23 -20 0 21 c0 18 -6 22 -35 22
l-35 0 0 -150 0 -150 40 0 40 0 0 110 0 109 30 16 c16 8 37 15 48 15 36 0 42
-20 42 -137 l0 -113 40 0 40 0 0 109 c0 59 -5 122 -11 140 -17 48 -84 74 -139
54z"/>
<path d="M1540 1028 c-45 -30 -70 -81 -70 -141 0 -69 23 -112 74 -137 45 -21
118 -26 160 -10 20 7 26 17 26 40 0 28 -2 29 -26 20 -65 -25 -144 0 -157 50
-5 19 -1 20 95 20 l100 0 -4 56 c-4 45 -10 61 -35 86 -43 43 -113 50 -163 16z
m107 -50 c31 -40 25 -48 -37 -48 -46 0 -60 3 -60 14 0 34 76 60 97 34z"/>
<path d="M1880 1032 c-54 -27 -80 -74 -80 -145 0 -42 6 -69 20 -92 31 -51 117
-78 188 -59 17 5 22 14 22 41 0 30 -2 33 -19 23 -33 -17 -78 -11 -108 14 -24
21 -28 32 -28 76 0 45 4 55 29 77 26 22 36 24 78 19 46 -6 48 -6 48 18 0 15
-8 30 -19 36 -30 15 -92 12 -131 -8z"/>
<path d="M650 890 l0 -150 35 0 35 0 0 150 0 150 -35 0 -35 0 0 -150z"/>
</g>
</svg>
