<svg xmlns="http://www.w3.org/2000/svg" width="400" height="145"><path d="M37.43 128.5c-.98 1.2-2.47 1.6-3.35.9-.78-.63-.8-1.9-.12-3.03-.56.14-1.06.44-1.38.92-.84 1.2-.35 2.98 1.1 3.98 1.43 1 3.28.85 4.12-.35.58-.83.5-1.95-.07-2.9-.08.16-.2.3-.3.46zM86.8 43.26c-1.73-1.66-1.22-4.94-1.22-4.94-.73.6-1.67 4.9-.12 7.07 1.8 2.52 3.4 2.87 4.82 5.6.17-.38-.05-1.36-.42-2.1-.55-1.1-.77-2.04.54-2.42 3.72-1.08 7.18 4.28 9.2 4.2 2.85-.13 3.5-2.68 3.6-2.8.13-.13-1.48 1.1-3.32.88-2.9-.35-4.23-3.6-7.5-4.26-2.07-.42-3.83.44-5.58-1.23zm-1.98 59.68c-.96 1.4-.23 3.4 2.34 4.16 2.3.68 3.83 1.38 4.96 2.5 1.66 1.67 2.43 1.88 2.83 1.87L24.07 13.3l-.94.68 59.1 81.86c.68.94 3.45 5.85 2.6 7.1zm-.27 4.47c-2.7.07-5.8 1.03-8.9-1.85-4.04-3.73-8.25-1.34-8.25-1.34s2.66 2.64 1.18 3.73c-2.4 1.78-.63 3.87-.85 4.7-.22.8-2.64.96-6.7-.9-2.3-1.05-4.4-1-5.8-.8-1.05.2-.7.94-.47 1.16 0 0 1.7 1.56 2.37 2 .53.33 1.9 1.46 2.4 1.1.5-.36-.58-2.36-.58-2.36s8 2.67 10.8 2.67c3.24 0 .2-5.4 2.76-5.65 1.3-.14 2.9 1.87 5.56 2.25 1.85.27 3.63-.52 5.45-.97 1.95-.48 2.68 1.9 2.95 4.03.05.33.12 1.2.5 1.84.63-3.04 1.48-9.7-2.4-9.62zm20.24 6.25c-1.06-2.84-3.08-1.6-3.98-1.93-.9-.3-2.06-1.43-2.44-4.44-.38-3.02-2.94-1.4-2.94-1.4s2.96 5.95 4.16 9.12c1.2 3.16 2.2.7 3.66 2.44 1.47 1.74 1.3 10.65.47 13.52-1.1 3.8-3.33 6.48-5.6 8.3 2.07-.25 5.92-4.3 7-6.95 1.24-3.04.53-5.85.53-5.85l1.74-.15-1.06-2.77 1.67-.25s-2.16-6.8-3.2-9.63zm-68.92 5.64c-2.13-.57-4.4-.68-6.67-.38-2.33.35-4.2 1-6.17.9-1.95-.03-3.77-.8-4.96-2.2-.54-.62-.92-1.34-1.2-2.1.94-1.96 2.76-3.92 6.02-5.74 11.38-6.32 7.6-13.46 6.9-21.72-.36-4.2.5-8.02 2.65-9.96 3.05-2.75 8.17-2.4 8.17-2.4-.58-.76-7.44-3.2-12.68-1.7-5.6 1.64-6.65 5.7-7.62 8.6-.83 2.5-1.92 5.43-6.88 7.5-8.34 3.5-7.78 10.07-7.78 10.07S2.64 93.7 10.74 88.2c10.3-6.94 6.34-12.27 9.78-15.46 2.7-2.48 5.9-2.1 10.8-.75-.87-1.05-13.92-6.5-15.43 5.1-1.3 9.87-10.73 8.5-12.36 17.78-1.16 6.6 5.08 12.1 5.08 12.1s-4.98-9.97 4.82-14c6.8-2.8 10.65-6 11.66-9.18-.06 1-.05 2.1-.02 3.27.1 4.47 2.24 7.96 1.58 14.24-.36 3.47-6.68 6.92-10.2 10.47.1-1.6.54-3.14 1.34-4.42.9-1.36 2.35-2.82 2.98-4.43.73-1.6.83-3.28.6-4.65-.2-1.1-.6-2-1-2.74-.16.07-.3.13-.46.18.72 1.68 1.1 4.22-.27 6.7-.68 1.4-1.9 2.4-3.2 4.06-1.16 1.64-1.98 3.7-2.08 5.95-.04.72.03 1.46.16 2.2-1.44 3.76.2 8.64 1.5 10.9 1.6 2.67 3.07 4.64 2.3 7.76-.78 3.1 1.94 2.03 3.86 2.07h1.8c1.26 0 1.78-.9 1-2.15-1.34-2.14-3.47-5.3-5.17-6.66-1.52-1.2-4-4.4-3.76-8.08 2.24 2.65 4.75 3.5 6.84 3.68 2.45.2 4.76-.7 6.64-1 1.97-.3 4-.26 5.82.2 1.83.44 3.5 1.28 4.77 2.4 1.3 1.1 2 2.58 2.4 4 .7 2.8-1.23 5.44-2.8 6.82.1.1.22.2.33.3 2.73-1.63 4.2-4.5 3.66-7.92-.52-3.36-3.56-6.58-7.84-7.6zm-2.23-52.53c3.35 3.53 6.95 2.1 8.55 2.3 1.6.2 3.46 4.3 2.48 8.3-.97 3.98-1.36 3.3-2.03 5.8-.83 3.15 3.07 5.4 2.17 8.32-.25.8-.82 1.96-.14 2.86 1.06 1.42 2.77-.45 4.93-.13 1.7.24 3.2-.33 3.93-.77-.26-1.23-5.13-.48-6.22-2.47-.47-.9-1.75-9.96 1.08-14 2.6-3.73.18-4.9-1.6-7.9 2.44-1.34 8.17-4.18 8.17-4.18 1.88 2.16 3.2 4.03 4.35 6.63.6 1.3 1 2.68.97 4.08.04 1.42-.5 2.82-1.4 4.08 1.2-.17 2.28-2.3 2.6-3.93.32-1.64.1-3.33-.36-4.9-1.64-5.05-5.5-8.67-5.5-8.67s-5.2 1.8-10.03 4.4c-1.53-2.85-3.06-2.34-4.96-2.18-1.88.16-3.02-1.83-3.02-1.83 1.47.46 3.5.54 6.23-.54 6.13-2.42 3.8-7.47 3.8-7.47s.14 3.66-3.53 4.18c-2.27.32-8.24-1.16-8.24-1.16s4.78-.56 5.75-3.3C42.9 50.53 46.7 52 46.7 52s-2.02-2.38-5.14-.52c-1.9 1.15-5.07 1.5-8.95-.44-3.86-1.96-5.26 1.28-6.05 1.36-.78.1-1.4-1.2-.95-2.52.44-1.34 4.9-2.6 11.6-2.85 4.4-.17 6.58.7 7.54 1.3 0-.36-1.18-2-4.82-2.9-3.64-.9-3.4-2.37-3.24-4.94.17-2.56-3.56-1.53-4.47-1.85-.9-.33-.05-2.34-.05-2.34-1.3.38-2.3 1.44-2.25 3 .02 1.06 1.03 1.8 2.03 2.3 1 .5 1.17 1.4-.63 2.45-1.46.85-3.55 1.95-6.35 3.15-6.23 2.67 1.55 7.27-1.2 8.67-2.73 1.4-3.4 3.25-3.56 4.26-.35 2.28 1.18 3.98 1.18 3.98 5.36-2.9 8.93-.86 12.27 2.67zm31.72-8.16c0-2.28.58-3.38 1.22-3.4 1.92-.1 2.33 2.65 2.36 3.38.08 2.18-1.53 3.22-1.53 3.22 1.38.12 2.46-1.8 2.64-3 .27-1.8-.06-2.4-.7-3.6 0 0 4.05 3.9 3.62 8.22-.5 4.9-6.04 7.48-6.04 7.48 1.64.58 6.4.1 9.42-3.75 1.68-2.14 2.4-5.38.38-10.5-1.84-4.64-5.36-8.57-1.62-17.48 3.63-8.68 13.26-9.8 19.06-5.7.37.28.6.6.72.94.38 1.03-2.33 2.38-1.15 3 .82.43 1.9.54 2.8 1.24.85.64 1.02 1.18 1.45 1.58.32.3.46.36.78.36-2.62-3.06-3.05-6.56-3.48-10.25-2.06-.53-5.32-2.2-8.54-2.57-2.02-.24-6.92-.56-11.82 1.85-5.53 2.72-11.38 8-11.38 20.23 0 5.27 1.8 9.08 1.8 8.78zM3.87 87.1c2.83-.77 2.83-2.88 2.87-3.32.46.6.6 1.26.63 2.12 1.26-1.63.95-4.47-2.13-6.17 0 0 .18 3.74-2.2 5.05C.53 86.12.13 87 0 88.35c-.05.65.1 1.34.44 1.87.32.54.87.9 1.4 1.04-.76-1-.9-3.38 2.02-4.18zM63.42 35c-6.98.4-9.42-2.1-14.2-4.4-4.78-2.3-8.9-.6-9.6.47 2.22.14 4.74 1.02 9.53 4.02 9.66 6.06 14.27-.1 14.27-.1zM60.3 20.2c-1 .28-3.47.67-2.32 6.33 1.15 5.67 4.2 4.3 5.03 3.57 0 0-4.15-.43-4.27-5.34-.12-4.92 5.56-4 5.56-4-.35-.4-2.4-.98-4-.55zm62.2 71.97c-1.38-4.88-5.76-14.84-8.76-19.4-3-4.54-4.55-1.27-5.75-.25-1.2 1.03-4.73 6.95-6.27-.68-1.55-7.63-9.44-14.25-9.44-14.25 1.62 5.74 1.2 9.95.76 13.64-.42 3.68.5 4.97.5 7.2 0 2.23-6.67 3.7-7.02 5.4-.34 1.72 9.95 8.77 19.75 1.7 2.94-2.12 4.78 6.12 5.72 8.35.95 2.22-.94 2.9 1.28 5.48 2.24 2.57.52 4.74.52 6.35 0 1.5 4.43 5.28 5.24 4.46 1.42-1.43-1.8-9.88-3.1-12.8-1.28-2.9-3.34-12.35-4.8-14.92-.83-1.47-5.14-.43-5.14-.43l-.3-1.14s.6-.76 1.15-1.34c4.47-4.63 4.12-2.75 8.76 2.92 4.62 5.66-.95 7.9 3.08 10.8 4.04 2.92 5.16 3.78 3.8-1.1zM49 16.27s.86.28 2.5.32c1.65.02 2.47-1.5 2.47-1.5-4.02-.4-5.2-1.82-5.2-1.82s3.83-.2 5.76-.45c1.93-.26 5.45-1.2 5.45-1.2s-.12 3.15-.15 5c-.02 1.82 2.34 1.42 3.12 1.17 1-.3 1.15-3.97 1.3-7.1.13-2.35-1.62-2.37-2.62-1.95-1.47.6-4.28 2.05-7.3 2.97-3.03.92-7.77.25-7.77.25l-.26 1 4 2.44-1.3.86zm6.57 14.97l1.06-.46s-.82-2.42-.88-4.56c-.05-2.15.83-6.9.83-6.9h-1s-.48 3.5-1.1 6.54c-.6 3.06-2.2 2.46-2.98 2.4-.78-.06-7-.95-7-.95v.93s.4.05 3.54.5c3.16.46 7.53 2.5 7.53 2.5zm3.87 13.44c-2.57 1.65-6.8.84-6.8.84.58.8 3.64 1.73 5.18 1.7 1.34-.02 2.52-.56 3.57-1.7 2.3-2.5 1.36-6.68.8-7.2 0 0-.25 4.76-2.75 6.36zm-5.94 74.26c-5.9-5.9-3.75-5.3 0-10.54 2.77-3.9 16.3-7.32 23.13-8.84l-.13-.62c-3.45.15-8.64.33-13.84.33-8.93 0-12.53-3.4-14.83-2.97-8.87 1.66-2.56 11.82-12.96 10.38-10.4-1.44-10.05 9.33-10.05 9.33 2.95-5.98 6-5.14 8.35-5.24 2.72-.12 5.38 1.9 9.2-1.32.83-.7 4.63-6.84 4.08-3.77-.32 1.8-1.87 3.84-3.1 5.25-.9 1-1.4 1.77.4 2.8.63.36 1.48.84 2.57 1.47 4.2 2.4 3.5 5.16.77 5.02-1.95-.1-4.26-1.07-6.2-1.27-.78-.08-1.68.25-.43.84.64.3 1.38.75 2.02 1.4 3.1 3.08-.6 1.86 8.24 1.4 1.88-.12 3.22-.3 4.17-.5 3.5-.76-.63-2.4-1.4-3.16zm45.5 5.14c-.7-1.1-1.3-2.66-1.95-4.05-1.4-2.95-.02-2.38-.9-4.07-.97-1.88-1.46-.04-3.92-3.8-.48-.75-1.45-.42-1.57 1.38-.13 1.8 2.88 3.48 4.26 7.84 1.38 4.36 2.52 4.86 1.4 7.54-1.1 2.67-6.58 2.5-6.58 2.5 4.26 4.45 12.95-1.6 9.26-7.34zM196.2.32l-52.44 144m-.89-.32L195.3 0l1.78.65-52.43 144zM224.6 21h7l-2.96-8.72h-1.08l-2.96 8.7zm7.75 2.2h-8.48l-2 5.95h-2.5l6.7-19.36h4.12l6.7 19.35h-2.54l-2-5.94zM242.36 12v17.15h-2.44V9.8h13.23V12h-10.8m28.37 14.92v2.23h-13.9V9.8h13.47V12h-11.05v6h8.9v2.23h-8.9v6.7h11.47M290.2 9.8v19.35h-2.45V20.3h-10.82v8.85h-2.44V9.8h2.43v8.23h10.82V9.8h2.44m18.15 2.16H302v17.2h-2.46v-17.2h-6.4V9.8h15.2v2.16m18.18 11.69c-.76 3.44-3.44 5.85-7.67 5.85-5.75 0-8.95-4.28-8.95-10.03 0-5.75 3.23-10.03 8.98-10.03 3.9 0 6.67 2.1 7.42 5.42h-2.57c-.73-2.06-2.2-3.2-4.85-3.2-4.5 0-6.5 3.72-6.5 7.8 0 4.13 1.97 7.82 6.47 7.82 2.7 0 4.47-1.4 5.1-3.63h2.57m17.03-11.69h-6.34v17.2h-2.43v-17.2h-6.4V9.8h15.18v2.16m15.72 11.54c0-2.5-1.95-3.35-4.23-3.35h-6.07v6.83h6.04c2.2 0 4.26-.82 4.26-3.47zm-10.3-5.5h5.93c2.15 0 3.78-.68 3.78-3.1 0-2.18-1.87-2.94-3.82-2.94h-5.88V18zm12.76 5.7c0 3.1-2.16 5.45-6.56 5.45h-8.65V9.8h8.44c4.12 0 6.18 2.24 6.18 4.9 0 1.73-.74 3.2-2.14 3.95v.55c1.63.76 2.74 2.52 2.74 4.5zm18.42-4.23c0-4.07-1.96-7.8-6.56-7.8-4.62 0-6.57 3.73-6.57 7.8s1.95 7.8 6.57 7.8c4.6 0 6.56-3.73 6.56-7.8zm2.46 0c0 5.58-3.14 10.03-9.02 10.03-5.92 0-9.03-4.45-9.03-10.03 0-5.6 3.1-10.03 9.03-10.03 5.88 0 9.02 4.44 9.02 10.03zM223.7 44.88v16.4h.54l9.1-16.4h3.78v19.36h-2.4v-16.4h-.53l-9.12 16.4h-3.77V44.88h2.4m34.05 0v19.36h-2.44V55.4h-10.8v8.84h-2.45V44.88h2.44v8.24h10.8v-8.24h2.45m20.63 0v19.36h-2.44V55.4h-10.8v8.84h-2.46V44.88h2.45v8.24h10.8v-8.24h2.45m19.55 9.68c0-4.07-1.95-7.8-6.56-7.8-4.6 0-6.56 3.73-6.56 7.8s1.96 7.8 6.57 7.8c4.6 0 6.56-3.73 6.56-7.8zm2.47 0c0 5.58-3.15 10.03-9.03 10.03-5.9 0-9.03-4.46-9.03-10.04 0-5.6 3.12-10.03 9.03-10.03 5.88 0 9.03 4.44 9.03 10.03zm16.7 4.04c0-2.52-1.95-3.36-4.22-3.36h-6.08v6.83h6.05c2.2 0 4.25-.82 4.25-3.47zm-10.3-5.5h5.94c2.14 0 3.77-.68 3.77-3.1 0-2.2-1.86-2.95-3.8-2.95h-5.9v6.05zm12.77 5.7c0 3.08-2.17 5.44-6.56 5.44h-8.64V44.88h8.43c4.1 0 6.18 2.25 6.18 4.9 0 1.74-.74 3.2-2.15 3.97v.54c1.63.75 2.74 2.5 2.74 4.5zm7.11-2.72h7l-2.96-8.7h-1.1l-2.94 8.7zm7.75 2.22h-8.48l-2 5.94h-2.5l6.7-19.36h4.1L339 64.24h-2.57l-2-5.94zm23.32 5.94H342V44.88h2.44V62h10.5V44.9h2.43V62h2.8v7h-2.42v-4.74m8-19.38v16.4h.54l9.1-16.4h3.77v19.36h-2.4v-16.4h-.53l-9.1 16.4h-3.78V44.88h2.4m30.99-5.15c-.06 2.68-2.06 4.2-4.75 4.2-2.63 0-4.64-1.52-4.7-4.2h1.98c.03 1.5 1.14 2.44 2.7 2.44 1.6 0 2.75-.95 2.78-2.44h1.98zm-10.25 5.15v16.4h.53l9.1-16.4h3.78v19.36h-2.37v-16.4h-.55l-9.1 16.4h-3.78V44.88h2.4zM223.75 82.2v17.13h-2.44V79.97h13.24v2.22h-10.8m27.78 7.46c0-4.07-1.95-7.8-6.56-7.8-4.6 0-6.57 3.73-6.57 7.8s1.96 7.8 6.57 7.8c4.6 0 6.56-3.73 6.56-7.8zm2.46 0c0 5.6-3.15 10.03-9.03 10.03-5.9 0-9.03-4.44-9.03-10.03 0-5.6 3.12-10.03 9.03-10.03 5.88 0 9.02 4.44 9.02 10.03zm16.25-3.88c0-2.25-1.2-3.63-4.5-3.63h-5.34v7.27h5.34c3.3 0 4.5-1.38 4.5-3.63zm2.46-.03c0 3.64-2.35 5.83-6.56 5.83h-5.74v7.76h-2.44V79.97h8.18c4.2 0 6.56 2.2 6.56 5.77zm18.5 3.91c0-4.07-1.95-7.8-6.56-7.8-4.6 0-6.57 3.73-6.57 7.8s1.96 7.8 6.57 7.8c4.6 0 6.56-3.73 6.56-7.8zm2.46 0c0 5.6-3.14 10.03-9.02 10.03-5.9 0-9.03-4.44-9.03-10.03 0-5.6 3.13-10.03 9.04-10.03 5.88 0 9.02 4.44 9.02 10.03zm15.64-7.45h-7.5v2.08c0 6-1.06 10.28-2.17 12.83h9.68V82.2zm5.22 14.9v6.97h-2.42v-4.74h-14.67v4.74h-2.4V97.1h2c1.25-2.63 2.44-6.77 2.44-13.23v-3.9h12.25V97.1h2.8zm6.51-5.93h7l-2.97-8.7h-1.08l-2.95 8.7zm7.75 2.22h-8.5l-2 5.93h-2.5l6.7-19.36h4.13l6.73 19.36h-2.55l-2-5.94zM221.3 115.06h6.33l3.14 7.73h.54l3.16-7.74h6.2v19.36h-3.76v-15.1h-.55l-3.52 8.62h-3.7l-3.5-8.62h-.55v15.1h-3.77v-19.36m37.62 9.69c0-3.58-1.65-6.42-5.3-6.42-3.6 0-5.27 2.84-5.27 6.42s1.68 6.43 5.28 6.43c3.64 0 5.3-2.85 5.3-6.43zm4.15 0c0 5.7-3.32 10.03-9.45 10.03-6.12 0-9.43-4.34-9.43-10.03 0-5.7 3.3-10.03 9.43-10.03s9.44 4.35 9.44 10.04zm20.01 3.49c-.6 3.86-3.55 6.54-8.08 6.54-5.9 0-9.27-4.12-9.27-10.03 0-5.9 3.4-10.03 9.27-10.03 4.3 0 7.2 2.45 7.9 6h-4.24c-.46-1.55-1.73-2.38-3.66-2.38-3.47 0-5.12 2.82-5.12 6.42 0 3.58 1.65 6.43 5.12 6.43 2.1 0 3.5-1.1 3.88-2.94h4.2m3.55-13.18h4.04v7.57h4.47l3.66-7.57H303l-4.44 9.4 4.7 9.96h-4.2l-3.86-8.13h-4.5v8.12h-4.05v-19.36m31.25 13.55c0-1.64-1-2.48-3.05-2.48h-4.74v4.85h4.7c2 0 3.1-.76 3.1-2.38zm-.53-8.04c0-1.43-.92-2.14-2.73-2.14h-4.53v4.3h4.56c1.82 0 2.7-.7 2.7-2.16zm4.7 8.25c0 3.23-2.1 5.62-6.67 5.62h-9.33v-19.36h9.08c4.3 0 6.37 2.36 6.37 5.13 0 1.75-.78 3.26-2.03 3.9v.53c1.37.57 2.56 2.25 2.56 4.18zm21.03 5.61h4.04v-19.36h-4.04v19.36zm-6.3-6.4c0-1.8-.96-2.85-3.65-2.85h-3.4v5.7h3.4c2.7 0 3.66-1 3.66-2.85zm-11.1 6.4v-19.36h4.04v6.56h4.04c4.53 0 7.18 2.4 7.18 6.37 0 4-2.65 6.42-7.18 6.42h-8.08z" fill="#757575"/></svg>