<svg width="213" height="58" fill="none" xmlns="http://www.w3.org/2000/svg"><path d="M31.348 10.576c-.22.24-.36.54-.36.86V26.73H52.88v5.618c0 .24.18.46.44.46h6.378c.26 0 .44-.22.44-.46V20.492c0-.24-.2-.44-.44-.44h-3.219V0H41.505c-.32 0-.62.14-.86.36l-9.297 10.216zm17.874 9.476H38.286V6.078h10.936v13.974zm12.755 6.218c0 .26.2.46.46.46h6.377c.26 0 .44-.22.44-.46V6.078H80.19V26.29c0 .24.18.46.44.46h6.398c.26 0 .46-.2.46-.46V.44c0-.24-.2-.44-.44-.44H68.015c-.32 0-.64.12-.86.36l-4.798 4.758c-.24.22-.36.54-.36.86V26.27h-.02zm-40.185-6.218l3.359-3.358c.24-.22.36-.54.36-.86V.44c0-.24-.2-.44-.44-.44h-6.378c-.26 0-.46.2-.46.44v19.593H3.64l3.279-3.28c.24-.22.36-.54.36-.859V.44c0-.24-.2-.44-.44-.44H.46C.22 0 0 .2 0 .44v25.81c0 .26.2.46.46.46h21.432v5.638c0 .26.2.46.44.46h6.377c.26 0 .46-.2.46-.46V20.512c0-.26-.2-.46-.46-.46h-6.917zm80.05 21.532h-1.619v-2.159h-5.438v-6.617h1.879v5.198h2.08v-5.198h1.878v5.198h1.22v3.578zm2.719-8.776v4.158l2.759-4.158h1.579v6.617h-1.679v-4.118l-2.739 4.118h-1.599v-6.617h1.679zm11.236-2.84v2.7c.56.02 1.119.12 1.679.28.42.1.82.32 1.16.58.3.26.519.6.639.979.14.46.2.92.2 1.4v.36c0 .48-.06.959-.2 1.399-.14.38-.359.72-.639.98-.34.28-.72.5-1.16.62-.54.16-1.099.24-1.679.26v2.818h-1.68v-2.799a8.146 8.146 0 01-1.679-.26c-.42-.12-.82-.32-1.16-.62-.299-.26-.519-.6-.639-.98-.14-.459-.2-.939-.2-1.399v-.36c0-.46.06-.92.2-1.339.14-.38.36-.7.639-.96.34-.28.72-.5 1.16-.62.54-.16 1.1-.28 1.659-.32V29.97h1.7zm-1.68 4.1c-.3.02-.599.08-.879.18-.22.08-.42.18-.58.339-.16.16-.26.36-.32.58a2.2 2.2 0 00-.1.8v.32c0 .28.02.56.1.839.04.22.16.42.32.58.16.16.38.28.6.34.3.1.599.14.899.16v-4.139h-.04zm1.7 4.138c.3-.02.6-.08.899-.18.22-.08.42-.18.58-.34.16-.16.26-.36.32-.58.06-.28.1-.56.1-.84v-.32c0-.28-.02-.56-.1-.84-.06-.22-.16-.419-.32-.559a1.85 1.85 0 00-.58-.34c-.299-.1-.599-.14-.899-.18v4.179zm11.335-1.88c.06.86-.179 1.72-.699 2.42-.5.56-1.22.86-1.98.82a2.975 2.975 0 01-1.639-.44v3.258h-1.819v-9.576h1.619l.12.66c.22-.26.5-.48.8-.6.36-.16.76-.22 1.159-.22.72-.04 1.42.24 1.9.8.479.74.699 1.599.619 2.459l-.08.42zm-1.899-.46c.04-.46-.06-.92-.26-1.319-.22-.3-.579-.46-.939-.42-.34-.02-.68.1-.92.36-.22.34-.32.74-.28 1.16v2.199c.18.1.36.16.54.22.18.04.36.06.54.06.38.02.759-.12 1.019-.4.24-.38.36-.84.32-1.3v-.56h-.02zm9.517.52c0 .44-.06.88-.16 1.3-.1.38-.26.72-.52 1-.26.3-.6.52-.96.66-.48.16-.979.24-1.479.24a3.68 3.68 0 01-1.54-.26 2.22 2.22 0 01-.959-.7c-.24-.3-.4-.64-.5-1.02-.1-.4-.14-.82-.14-1.22v-.54c0-.44.06-.86.16-1.279.08-.38.26-.72.5-1.02.26-.3.599-.52.959-.66.48-.18.98-.26 1.5-.26.52-.02 1.019.08 1.519.26.38.14.7.38.96.68.24.3.4.66.5 1.02.1.4.16.82.14 1.24v.56h.02zm-4.359.16c-.04.44.06.86.28 1.24.24.26.58.4.94.36.34.02.7-.1.939-.36.22-.38.32-.82.28-1.26v-.8c.02-.44-.08-.88-.3-1.259-.239-.26-.579-.4-.939-.36-.36-.02-.7.1-.94.36-.22.38-.32.8-.28 1.24l.02.84zm5.878-3.738h3.239c1.639 0 2.459.58 2.459 1.759v.06c0 .28-.06.54-.2.78-.14.22-.34.42-.58.54.28.14.5.34.66.58.18.26.26.56.26.879v.1c.04.56-.2 1.12-.64 1.46-.62.36-1.319.52-2.019.46h-3.179v-6.618zm1.679 5.358h1.48c.62 0 .92-.24.92-.72s-.28-.72-.88-.72h-1.54l.02 1.44zm0-2.72h1.48c.52 0 .78-.2.78-.62v-.06c0-.439-.26-.659-.82-.659h-1.38l-.06 1.34zm11.676.94c0 .44-.06.88-.16 1.3-.1.38-.26.72-.52 1-.26.3-.599.52-.959.66-.98.32-2.04.32-3.039 0-.36-.16-.7-.4-.94-.7-.24-.3-.4-.64-.5-1.02-.1-.4-.14-.82-.14-1.22v-.54c0-.44.06-.86.16-1.279.08-.38.26-.72.5-1.02.26-.3.6-.52.96-.66.48-.18.999-.26 1.519-.26.52-.02 1.04.08 1.52.26.379.14.699.38.959.68.24.3.42.64.5 1.02.1.4.16.82.14 1.24v.54zm-4.338.16c-.04.44.06.86.26 1.24.239.26.599.4.939.36.34.02.7-.1.94-.36.22-.38.32-.82.28-1.26v-.8c.04-.44-.06-.86-.26-1.239-.24-.26-.6-.4-.94-.36-.36-.02-.7.1-.939.36-.22.38-.32.8-.28 1.24v.82zm7.577.14c0 .24.04.48.12.7.06.18.16.32.32.44.16.14.36.22.579.26.3.06.6.08.92.06.34.02.66.02 1 0l.839-.12-.24 1.3c-.319.1-.659.16-.999.2-.4.06-.8.08-1.22.08-.5.02-1.019-.06-1.499-.2-.38-.12-.72-.34-1-.62a2.32 2.32 0 01-.54-1 5.26 5.26 0 01-.179-1.38v-.48c0-.44.04-.86.139-1.279.1-.38.26-.74.5-1.04.26-.32.58-.56.94-.72.48-.2.98-.28 1.479-.26.48-.02.94.06 1.38.24.34.14.64.34.88.62.219.26.379.56.459.88.1.34.14.68.14 1.02v.5a.86.86 0 01-.16.62c-.2.1-.419.16-.639.14h-3.219v.04zm1.159-2.679a1.09 1.09 0 00-.879.34c-.22.34-.32.74-.3 1.16h2.279v-.24c.02-.34-.06-.68-.26-.96-.22-.22-.52-.34-.84-.32v.02zm13.415 4.039h1.08v3.558h-1.619v-2.159h-4.459v2.14h-1.579v-3.54h.5c.1-.18.2-.36.28-.56.079-.199.159-.419.239-.639.08-.26.16-.54.22-.8s.12-.54.18-.86c.06-.32.08-.639.12-1.019.04-.38.08-.84.12-1.34h4.898l.02 5.219zm-1.779-3.799h-1.639c0 .64-.12 1.16-.2 1.68-.08.42-.18.86-.32 1.259-.08.3-.2.58-.36.84h2.519v-3.779zm5.478 2.44c.02.24.06.479.12.699.06.18.16.34.32.44.16.14.36.22.58.26.299.06.599.08.919.06.34.02.66.02 1 0l.86-.12-.24 1.3c-.32.1-.66.16-1 .2-.4.06-.82.08-1.22.08-.499.02-.999-.06-1.479-.2a2.287 2.287 0 01-1.559-1.68c-.12-.44-.18-.9-.18-1.38v-.42c0-.44.04-.86.14-1.279.1-.38.28-.74.499-1.04.26-.32.58-.56.94-.72.48-.18.98-.28 1.48-.26.479-.02.939.06 1.379.24.66.26 1.16.82 1.339 1.5.1.34.14.68.14 1.02v.5c.02.22-.02.44-.159.62-.2.12-.42.16-.64.14l-3.239.04zm1.16-2.68c-.34-.04-.66.1-.88.34-.22.34-.32.74-.32 1.16h2.299v-.24c.02-.34-.06-.68-.26-.96-.2-.22-.52-.32-.839-.3zm10.755 5.418h-1.879v-5.218h-1.559c0 .36 0 .7-.08.98s-.06.56-.1.82c-.04.26-.06.48-.12.68-.04.2-.1.4-.14.579-.14.64-.48 1.24-.96 1.7-.46.38-1.039.56-1.619.54h-.3l-.42-.06.18-1.42h.22c.26.02.52-.08.7-.26.24-.24.42-.56.52-.88 0-.2.12-.42.179-.66.06-.24.1-.54.16-.88.06-.34.08-.699.12-1.159.04-.44.08-.88.12-1.4h5.038l-.06 6.638zm7.798-3.039c0 .44-.04.88-.16 1.3-.1.38-.26.72-.52 1-.26.3-.58.52-.96.66-.48.16-.979.24-1.479.24a3.68 3.68 0 01-1.54-.26c-.38-.14-.699-.38-.959-.7-.24-.3-.4-.64-.48-1.02-.1-.4-.14-.82-.14-1.22v-.54c0-.44.04-.86.14-1.279.1-.38.28-.72.52-1.02.26-.3.579-.52.959-.66.48-.18.98-.26 1.5-.26.52-.02 1.039.08 1.519.26.38.14.7.38.96.68.24.3.42.66.5 1.02.1.4.14.82.14 1.24v.56zm-4.359.16c-.04.44.06.86.28 1.24.24.26.58.4.94.36.34.02.699-.1.939-.36.24-.38.34-.82.3-1.26v-.8c.04-.44-.06-.86-.28-1.239-.24-.26-.579-.4-.939-.36-.36-.02-.7.1-.94.36-.24.38-.34.8-.3 1.24v.82zm5.878-3.738h3.239c1.639 0 2.459.58 2.459 1.759v.06c0 .56-.3 1.06-.78 1.32.56.28.92.84.94 1.459v.1c.04.56-.2 1.1-.64 1.46-.62.36-1.319.52-2.019.46h-3.179l-.02-6.618zm1.679 5.358h1.5c.62 0 .939-.24.939-.72s-.299-.72-.899-.72h-1.54v1.44zm0-2.72h1.42c.52 0 .78-.2.78-.62v-.06c0-.439-.28-.659-.84-.659h-1.38v1.34h.02zm11.676.94c0 .44-.04.88-.16 1.3-.1.38-.26.72-.52 1-.26.3-.6.52-.959.66-.48.18-.98.24-1.48.24-.52.02-1.059-.06-1.539-.26-.38-.14-.7-.38-.96-.7-.24-.3-.4-.64-.48-1.02-.1-.4-.14-.82-.14-1.22v-.54c0-.44.04-.86.14-1.279.1-.38.26-.72.52-1.02.26-.3.58-.52.96-.66.48-.18.979-.26 1.499-.26.52-.02 1.04.08 1.52.26.379.14.699.38.959.68.24.3.42.66.5 1.02.1.4.14.82.14 1.24v.56zm-4.358.16c-.04.44.06.86.279 1.24.24.28.58.4.94.36.34.02.7-.1.94-.36.24-.38.34-.82.3-1.26v-.8c.04-.44-.06-.86-.28-1.239-.24-.26-.58-.4-.94-.36-.36-.02-.7.1-.94.36-.219.38-.319.8-.279 1.24l-.02.82zm7.597.14c.02.24.06.48.12.7.06.18.16.34.32.44.16.14.359.22.559.26.3.06.62.08.92.06.34.02.66.02 1 0l.859-.12-.24 1.3c-.319.1-.659.16-.999.2-.4.06-.8.08-1.22.08-.5.02-.999-.06-1.479-.2-.38-.12-.72-.34-1-.62-.26-.28-.44-.64-.56-1-.12-.44-.18-.9-.18-1.38v-.48c0-.44.04-.86.14-1.279.1-.38.28-.74.5-1.04.26-.32.58-.56.94-.72.48-.2.979-.28 1.479-.26.48-.02.94.06 1.38.24a2.191 2.191 0 011.339 1.5c.1.34.14.68.14 1.02v.5c0 .32-.06.54-.18.62-.18.12-.4.16-.619.14h-3.219v.04zm1.139-2.679c-.34-.04-.659.1-.879.34-.22.34-.34.74-.32 1.16h2.299v-.24c.02-.34-.06-.68-.24-.96-.22-.22-.52-.34-.84-.32l-.02.02zM100.682 48.062v6.617h-1.879v-5.198h-2.16v5.198h-1.878v-6.617h5.917zm7.917 3.499c.06.86-.179 1.719-.699 2.419-.5.56-1.24.86-1.98.82a2.975 2.975 0 01-1.639-.44v3.278h-1.879v-9.576h1.639l.1.66c.22-.26.5-.46.8-.6.36-.14.76-.22 1.159-.2.72-.04 1.4.24 1.88.78.479.74.699 1.6.639 2.479l-.02.38zm-1.899-.44c.04-.46-.06-.92-.26-1.32-.22-.3-.58-.46-.939-.42-.34-.02-.68.1-.92.36-.22.34-.34.74-.3 1.16V53.1c.18.08.36.14.56.2.18.06.36.08.54.08.38.04.739-.12.999-.4.24-.38.36-.84.32-1.3v-.56zm9.497.52c0 .44-.06.88-.16 1.3-.1.379-.26.719-.52.999-.26.3-.6.52-.96.66-.48.16-.979.26-1.479.24-.52.02-1.06-.08-1.54-.26-.38-.14-.699-.38-.959-.7-.24-.3-.4-.64-.48-1.02-.1-.4-.14-.82-.14-1.22v-.54c0-.439.04-.859.14-1.279.1-.38.26-.72.52-1.02.26-.3.579-.52.959-.66a3.83 3.83 0 011.5-.239c.52-.02 1.039.06 1.519.26.38.14.7.38.96.68.24.3.4.64.5 1.02.1.4.16.819.14 1.239v.54zm-4.399.14c-.02.44.1.86.32 1.24.22.259.58.399.92.359.36.02.7-.1.939-.36.24-.38.34-.8.3-1.24v-.84c.04-.439-.06-.859-.28-1.239a1.38 1.38 0 00-1.859 0c-.26.36-.38.82-.34 1.26v.82zm10.496 2.779a5 5 0 01-.739.18c-.32.04-.64.08-.96.06-.48.02-.98-.06-1.44-.22a2.143 2.143 0 01-.939-.64c-.24-.28-.4-.62-.5-1-.1-.42-.16-.86-.14-1.3v-.62c0-.439.06-.859.18-1.279.12-.36.32-.7.58-.98.28-.28.62-.5.999-.62.46-.159.96-.239 1.46-.219.34 0 .68.02.999.08.28.04.56.12.84.2l-.32 1.34c-.18-.06-.36-.1-.559-.12-.22-.02-.44-.02-.66 0-.46-.06-.9.08-1.26.36-.28.36-.42.819-.36 1.279v.58c0 .28.02.58.1.86.06.2.18.36.32.5.16.139.34.239.54.279.26.06.52.1.78.1.22.02.44.02.659 0l.68-.1-.26 1.28zm7.178-6.498l-.2 1.42h-1.92v5.178h-1.879v-5.18h-2.059l.2-1.42h5.858zm7.217 3.499c.06.86-.18 1.719-.7 2.419-.5.56-1.219.86-1.979.82-.58.02-1.16-.14-1.639-.44v3.278h-1.86v-9.576h1.64l.1.66c.219-.26.499-.46.799-.6.36-.14.76-.22 1.16-.2.72-.06 1.419.24 1.899.78.48.74.7 1.6.62 2.479l-.04.38zm-1.839-.44c.02-.46-.06-.92-.26-1.32-.22-.3-.58-.46-.94-.42-.34-.02-.68.1-.92.36-.22.34-.339.74-.3 1.16V53.1c.18.08.36.14.56.2.18.06.36.08.54.08.38.02.76-.12 1.02-.4.24-.38.36-.84.32-1.3l-.02-.56zm3.018 1.54c-.02-.34.04-.66.18-.98.1-.26.28-.48.48-.64.22-.16.48-.3.74-.36.32-.08.64-.1.96-.1.319 0 .639.04.959.12.26.06.48.18.66.36v-.34c.04-.4-.1-.78-.4-1.04-.36-.24-.8-.34-1.239-.32a5.34 5.34 0 00-.8 0l-1.02.18.24-1.4c.32-.1.64-.159.98-.199.36-.04.72-.06 1.079-.06.78-.06 1.58.16 2.2.64.519.48.799 1.18.739 1.88v4.237h-1.599l-.12-.64c-.2.28-.46.48-.78.58-.34.12-.719.18-1.079.18-.3 0-.58-.04-.88-.1-.26-.06-.5-.18-.7-.36-.22-.16-.38-.38-.48-.64-.12-.3-.16-.639-.16-.959v-.04h.04zm1.74 0c-.02.24.08.459.26.619.24.16.54.24.839.22.32.02.64-.06.9-.24.2-.16.3-.38.28-.64v-.1c0-.5-.36-.74-1.06-.74h-.2c-.659 0-.999.28-.999.84l-.02.04zm7.537-4.6v2.44h2.239v-2.44h1.879v6.618h-1.879V51.92h-2.239v2.76h-1.899v-6.618h1.899zm10.396 6.498c-.24.06-.48.12-.76.18-.32.04-.639.08-.959.06-.5.02-.98-.06-1.46-.22-.36-.12-.679-.34-.939-.64-.24-.28-.4-.619-.5-.999-.1-.42-.16-.86-.14-1.3v-.62c0-.439.06-.859.18-1.279.12-.36.32-.7.58-.98.279-.28.619-.5.999-.62.46-.159.96-.239 1.46-.219.34 0 .679.02 1.019.08.28.04.56.12.84.2l-.32 1.34c-.18-.06-.36-.1-.56-.12-.22-.02-.44-.02-.659 0-.46-.06-.9.08-1.26.36-.28.36-.4.819-.36 1.279v.58c-.02.28.02.58.1.86.06.2.16.4.32.54.16.139.34.239.54.279.26.06.52.1.779.1.22.02.44.02.66 0l.66-.1-.22 1.24zm7.177-6.497l-.2 1.42h-1.919v5.178h-1.879v-5.18h-2.059l.2-1.42h5.857zm1.04 0h3.239c1.639 0 2.459.58 2.459 1.76v.06c0 .28-.06.54-.2.779-.14.24-.34.42-.58.54.28.12.5.34.66.58.18.26.28.56.26.88v.1c.04.559-.2 1.099-.64 1.459-.62.36-1.319.52-2.039.46h-3.179v-6.618h.02zm1.679 5.358h1.5c.62 0 .939-.24.939-.72v-.06c0-.48-.299-.72-.879-.72h-1.54v1.5h-.02zm0-2.72h1.42c.52 0 .78-.199.78-.619 0-.44-.28-.66-.84-.66h-1.38v1.28h.02zm11.676.94c0 .44-.04.88-.16 1.3-.1.38-.26.72-.52 1-.26.3-.6.52-.959.66-.48.16-.98.26-1.48.24-.52.02-1.059-.08-1.539-.26a2.2 2.2 0 01-.94-.7c-.24-.3-.42-.64-.5-1.02-.08-.4-.12-.82-.1-1.22v-.54c0-.439.04-.859.14-1.279.1-.38.28-.72.52-1.02.26-.3.58-.52.96-.66a3.822 3.822 0 011.499-.239c.52-.02 1.04.06 1.52.26.379.14.699.38.959.68.24.3.42.64.5 1.02.1.4.14.819.14 1.239l-.04.54zm-4.358.14c-.04.44.06.86.28 1.24.239.26.579.4.939.36.36.02.7-.1.94-.36.22-.38.32-.82.28-1.24v-.84c.04-.439-.06-.859-.28-1.239-.24-.26-.58-.4-.94-.36-.36-.02-.7.1-.939.36-.24.38-.34.8-.3 1.24l.02.84z" fill="#757575"/></svg>
