<svg xmlns="http://www.w3.org/2000/svg" width="561" height="357"><g fill="none"><g><path fill="#FFBE02" d="M1 114h560v4H1zM1 353h560v4H1z"/><path fill="#fff" fill-rule="nonzero" d="M6.8 10.46c-.8 0-1.5-.14-2.1-.43-.6-.28-1.1-.67-1.5-1.15-.4-.5-.7-1.04-.9-1.67C2.1 6.6 2 5.94 2 5.25c0-.7.1-1.34.3-1.97.2-.63.5-1.2.9-1.67.4-.5.9-.88 1.5-1.17C5.3.13 6 0 6.8 0c.78 0 1.48.14 2.07.43.6.3 1.1.68 1.5 1.17.4.48.7 1.04.9 1.67.2.63.3 1.28.3 1.97 0 .7-.1 1.34-.3 1.97-.2.64-.5 1.2-.9 1.68s-.9.87-1.5 1.15c-.6.3-1.3.43-2.08.43zm0-1.1c.6 0 1.12-.13 1.56-.37.43-.24.8-.56 1.07-.95.28-.4.5-.83.62-1.32.13-.5.2-1 .2-1.5s-.07-1-.2-1.5c-.13-.48-.34-.92-.62-1.3-.28-.4-.64-.7-1.07-.95-.44-.24-.97-.36-1.57-.36-.62 0-1.14.12-1.58.36-.44.24-.8.55-1.08.94-.28.4-.48.83-.6 1.33-.14.5-.2.98-.2 1.5 0 .5.06 1 .2 1.48.12.5.32.93.6 1.32.28.4.64.7 1.08.94.44.23.96.35 1.57.35zm9.2 1.03c-.55 0-1.04-.1-1.46-.28-.43-.18-.78-.43-1.07-.75-.28-.33-.5-.72-.64-1.17-.15-.44-.22-.94-.22-1.5 0-.54.08-1.04.22-1.5.14-.48.35-.9.64-1.25.28-.35.64-.62 1.06-.82.43-.2.93-.3 1.5-.3.42 0 .8.05 1.16.15.36.1.68.24.96.45.27.2.5.46.67.78.2.32.3.7.35 1.12h-1.23c-.1-.46-.3-.8-.6-1.06s-.7-.38-1.2-.38c-.42 0-.78.08-1.07.24-.3.15-.52.36-.7.63-.17.26-.3.56-.37.9-.07.34-.1.7-.1 1.06 0 .34.03.67.1 1 .1.3.2.6.38.83.17.25.4.45.65.6.28.15.6.22 1 .22.57 0 1.03-.15 1.36-.46.34-.32.54-.75.6-1.3h1.23c-.14.9-.47 1.6-1 2.07-.53.48-1.27.72-2.2.72zM20.52 3h1.2v2.88h3.66V3h1.2v7.23h-1.2V6.9H21.7v3.33h-1.18V3zm10.96 7.4c-.57 0-1.08-.1-1.52-.3-.43-.2-.8-.46-1.1-.8-.3-.34-.52-.74-.67-1.2-.16-.45-.23-.95-.23-1.48s.07-1.03.22-1.5c.14-.45.37-.85.67-1.2.3-.33.66-.6 1.1-.8.43-.2.94-.3 1.5-.3.58 0 1.1.1 1.53.3.43.2.8.47 1.1.8.3.35.52.75.67 1.2.15.47.23.97.23 1.5s-.08 1.03-.23 1.5c-.15.44-.37.84-.67 1.18-.3.34-.67.6-1.1.8-.44.2-.95.3-1.52.3zm0-1.05c.3 0 .6-.06.88-.18.27-.12.5-.3.72-.53.2-.22.37-.5.48-.85.12-.35.18-.74.18-1.18 0-.44-.06-.83-.18-1.17-.1-.34-.27-.62-.48-.86-.2-.24-.45-.42-.72-.54-.28-.12-.57-.18-.88-.18-.3 0-.6.06-.87.18s-.5.3-.7.53c-.22.23-.38.5-.5.85-.1.34-.17.73-.17 1.17 0 .44.06.83.18 1.17.12.33.28.62.5.84.2.23.43.4.7.53.28.12.58.18.88.18zM36.4 3h3.34c.32 0 .63.02.92.07.3.04.56.13.8.26.23.12.4.3.55.53.15.24.22.54.22.9 0 .4-.1.7-.28.95-.18.25-.45.46-.78.6v.03c.42.08.75.28 1 .6.25.3.37.7.37 1.18 0 .3-.05.6-.16.86-.1.26-.26.5-.46.67-.18.2-.42.34-.7.44-.26.1-.55.16-.87.16H36.4V3zm3.7 6.23c.4 0 .7-.12.9-.35.2-.23.3-.5.3-.86 0-.32-.1-.6-.32-.78-.22-.2-.58-.3-1.08-.3h-2.33v2.3h2.54zm-.48-3.27c.5 0 .87-.1 1.07-.28.2-.18.3-.43.3-.74 0-.3-.1-.53-.3-.7-.2-.15-.56-.24-1.08-.24h-2.05v1.96h2.05zM43.96 3h1.2v2.88h3.66V3h1.2v7.23h-1.2V6.9h-3.67v3.33h-1.2V3zm8.58 10.12c-.14 0-.28 0-.42-.03-.14-.03-.28-.06-.4-.1v-1.1c.1.04.22.07.34.1.1.05.23.07.35.07.26 0 .45-.06.6-.17.15-.1.28-.28.4-.5l.48-1.2L51 3h1.36l2.1 5.92h.04L56.53 3h1.26l-3.16 8.2c-.14.34-.28.64-.4.88-.15.24-.3.44-.46.6-.16.15-.35.26-.55.33-.2.08-.43.12-.7.12zm12.32-2.73c-.5 0-.97-.1-1.37-.27-.4-.17-.76-.4-1.05-.72-.3-.3-.5-.65-.68-1.06-.16-.42-.26-.87-.28-1.37H60v3.26h-1.2V3H60v2.95h1.53c.05-.45.17-.86.34-1.25.17-.38.4-.7.68-.98s.6-.5 1-.65c.4-.16.82-.24 1.3-.24.55 0 1.03.1 1.45.3.4.2.76.46 1.05.8.3.34.5.74.66 1.2.16.46.23.96.23 1.5 0 .52-.07 1.02-.22 1.48-.14.46-.36.86-.65 1.2-.3.34-.64.6-1.05.8-.42.2-.9.3-1.44.3zm0-1.05c.3 0 .56-.06.83-.18.25-.12.47-.3.66-.53.18-.22.33-.5.45-.85s.17-.74.17-1.18c0-.44-.05-.83-.16-1.17-.1-.34-.26-.62-.44-.86-.2-.24-.4-.42-.67-.54-.28-.12-.55-.18-.84-.18-.3 0-.58.06-.83.18-.26.12-.48.3-.67.53-.18.23-.33.5-.45.85-.1.34-.15.73-.15 1.17 0 .88.2 1.55.58 2.02.4.48.9.7 1.53.7zm7.8-.17h.87c.1-.2.2-.46.3-.8.12-.34.22-.72.3-1.14.1-.4.17-.85.22-1.32.06-.46.1-.92.1-1.37V3h5.22v6.18h.98v3.25h-1.13v-2.2h-5.7v2.2h-1.15V9.18zm5.82 0V4.05H75.6v.6c0 .47-.03.92-.08 1.38-.05.45-.12.88-.2 1.28-.1.4-.18.77-.27 1.1-.1.33-.2.6-.3.78h3.73zm6.4 1.2c-.56 0-1.07-.1-1.5-.28-.44-.2-.8-.46-1.1-.8-.3-.34-.53-.74-.68-1.2-.15-.45-.22-.95-.22-1.48s.07-1.03.22-1.5c.15-.45.38-.85.68-1.2.3-.33.66-.6 1.1-.8.43-.2.94-.3 1.5-.3.58 0 1.1.1 1.53.3.44.2.8.47 1.1.8.3.35.53.75.68 1.2.15.47.23.97.23 1.5s-.07 1.03-.22 1.5c-.15.44-.37.84-.67 1.18-.3.34-.66.6-1.1.8-.43.2-.94.3-1.5.3zm0-1.03c.32 0 .6-.06.9-.18.26-.12.5-.3.7-.53.22-.22.38-.5.5-.85.1-.35.17-.74.17-1.18 0-.44-.06-.83-.18-1.17-.1-.34-.27-.62-.48-.86-.22-.24-.46-.42-.73-.54-.28-.12-.57-.18-.88-.18-.3 0-.6.06-.88.18s-.52.3-.72.53c-.2.23-.37.5-.48.85-.12.34-.18.73-.18 1.17 0 .44.06.83.17 1.17.13.33.3.62.5.84.2.23.44.4.72.53.27.12.57.18.87.18zm4.87.97c-.12 0-.25 0-.38-.04-.13-.02-.23-.04-.32-.06V9.17c.1.03.18.05.26.06.1 0 .17 0 .24 0 .3 0 .55-.1.7-.35.17-.25.3-.62.37-1.12.1-.5.14-1.15.16-1.94.02-.8.04-1.73.06-2.82h5.08v7.23h-1.2V4.05h-2.74c-.02.85-.05 1.65-.1 2.4-.02.77-.1 1.44-.23 2-.13.58-.34 1.03-.63 1.36-.3.35-.7.52-1.25.52zm14 .07c-.5 0-.97-.1-1.37-.27-.4-.17-.75-.4-1.04-.72-.3-.3-.5-.65-.67-1.06-.17-.42-.26-.87-.3-1.37h-1.5v3.26H97.7V3h1.18v2.95h1.54c.06-.45.17-.86.34-1.25.18-.38.4-.7.68-.98s.62-.5 1-.65c.4-.16.83-.24 1.3-.24.55 0 1.03.1 1.45.3.4.2.75.46 1.04.8.3.34.5.74.66 1.2.15.46.23.96.23 1.5 0 .52-.08 1.02-.23 1.48-.15.46-.37.86-.66 1.2-.3.34-.64.6-1.05.8-.43.2-.9.3-1.45.3zm0-1.05c.3 0 .57-.06.83-.18s.48-.3.67-.53c.2-.22.34-.5.45-.85.1-.35.17-.74.17-1.18 0-.44-.06-.83-.17-1.17-.1-.34-.26-.62-.45-.86-.2-.24-.4-.42-.67-.54-.26-.12-.54-.18-.83-.18-.3 0-.57.06-.83.18s-.48.3-.67.53c-.18.23-.33.5-.44.85-.1.34-.16.73-.16 1.17 0 .88.2 1.55.6 2.02.38.48.9.7 1.5.7zm11.66 1.04c-.54 0-1.02-.1-1.45-.28-.42-.18-.78-.43-1.06-.75-.3-.33-.5-.72-.66-1.17-.14-.44-.2-.94-.2-1.5 0-.54.06-1.04.2-1.5.14-.48.35-.9.63-1.25.3-.35.64-.62 1.07-.82.42-.2.92-.3 1.5-.3.4 0 .8.05 1.16.15.36.1.67.24.95.45.27.2.5.46.68.78.18.32.3.7.33 1.12h-1.23c-.1-.46-.3-.8-.6-1.06-.28-.26-.7-.38-1.2-.38-.42 0-.78.08-1.07.24-.3.15-.52.36-.7.63-.16.26-.3.56-.36.9-.08.34-.1.7-.1 1.06 0 .34.03.67.1 1 .08.3.2.6.38.83.16.25.38.45.65.6.26.15.6.22.97.22.6 0 1.05-.15 1.38-.46.33-.32.53-.75.6-1.3h1.23c-.12.9-.46 1.6-1 2.07-.52.48-1.25.72-2.2.72zM120 3h1.2v.98h.02c.2-.4.5-.7.92-.88.42-.18.88-.27 1.4-.27.55 0 1.03.1 1.45.3.4.2.76.5 1.03.84.28.35.5.75.63 1.2.14.47.2.95.2 1.47s-.06 1-.2 1.46c-.13.45-.34.85-.6 1.2-.3.33-.63.6-1.05.8-.4.2-.9.3-1.45.3-.18 0-.38-.03-.6-.07-.2-.04-.43-.1-.64-.18-.23-.08-.43-.2-.62-.34-.2-.14-.35-.32-.48-.53h-.03V13h-1.2V3zm3.43 6.35c.4 0 .75-.08 1.03-.24.28-.14.5-.35.67-.62.17-.26.3-.56.37-.9.07-.33.1-.67.1-1.03 0-.33-.04-.66-.13-.98-.08-.33-.22-.6-.4-.87-.18-.25-.42-.45-.7-.6-.3-.15-.62-.22-1-.22-.4 0-.74.08-1.02.24-.28.15-.5.36-.7.62-.17.26-.3.55-.38.87-.07.34-.1.67-.1 1 0 .36.03.7.1 1.04.1.33.23.62.4.87.2.26.43.47.72.62.3.16.64.23 1.05.23zm7.92 1.04c-.58 0-1.1-.1-1.52-.3-.44-.18-.8-.44-1.1-.78-.28-.33-.5-.73-.64-1.2s-.2-.98-.2-1.53.07-1.05.24-1.5c.17-.47.4-.87.7-1.2.3-.34.67-.6 1.08-.8.42-.18.87-.27 1.37-.27.64 0 1.18.13 1.6.4.43.26.77.6 1.02 1 .26.42.44.87.53 1.36.1.47.14.93.12 1.37h-5.4c-.02.32 0 .62.1.9.08.3.22.54.4.76.2.22.43.4.72.53.3.13.63.2 1.02.2.5 0 .92-.12 1.24-.36.32-.23.53-.6.64-1.06h1.17c-.15.82-.5 1.43-1.04 1.84-.54.4-1.22.6-2.04.6zm1.94-4.48c0-.28-.08-.54-.2-.8-.1-.25-.24-.46-.42-.65-.18-.18-.4-.32-.64-.43-.25-.1-.52-.16-.82-.16-.3 0-.6.05-.84.16-.24.1-.45.25-.63.44-.17.2-.3.4-.4.65-.1.25-.18.5-.2.8h4.16zm1.64 3.26h.86c.1-.2.2-.46.3-.8.12-.34.22-.72.3-1.14.1-.4.17-.85.22-1.32.06-.46.1-.92.1-1.37V3h5.22v6.18h.98v3.25h-1.13v-2.2h-5.7v2.2h-1.15V9.18zm5.8 0V4.05h-2.87v.6c0 .47-.03.92-.08 1.38-.05.45-.12.88-.2 1.28-.1.4-.18.77-.28 1.1-.1.33-.2.6-.28.78h3.7zM144 3h1.2v5.9l3.4-5.9h1.53v7.23h-1.2v-5.9l-3.4 5.9H144V3zm11.86 0h1.2v.98h.02c.2-.4.5-.7.92-.88.42-.18.88-.27 1.4-.27.55 0 1.04.1 1.45.3.42.2.76.5 1.04.84.26.35.47.75.6 1.2.15.47.22.95.22 1.47s-.07 1-.2 1.46c-.14.45-.34.85-.62 1.2-.27.33-.62.6-1.03.8-.42.2-.9.3-1.45.3-.2 0-.4-.03-.6-.07-.22-.04-.44-.1-.65-.18-.2-.08-.42-.2-.6-.34-.2-.14-.36-.32-.5-.53h-.02V13h-1.2V3zm3.43 6.35c.4 0 .73-.08 1-.24.3-.14.52-.35.68-.62.17-.26.3-.56.37-.9.07-.33.1-.67.1-1.03 0-.33-.03-.66-.12-.98-.1-.33-.23-.6-.4-.87-.2-.25-.42-.45-.7-.6-.3-.15-.63-.22-1-.22-.4 0-.75.08-1.03.24-.28.15-.5.36-.7.62-.17.26-.3.55-.37.87-.08.34-.12.67-.12 1 0 .36.05.7.13 1.04.1.33.22.62.4.87.2.26.42.47.7.62.3.16.65.23 1.06.23zm7.9 1.04c-.58 0-1.08-.1-1.52-.3-.43-.18-.8-.44-1.08-.78-.3-.33-.5-.73-.66-1.2-.14-.47-.2-.98-.2-1.53s.07-1.05.24-1.5c.17-.47.4-.87.7-1.2.3-.34.67-.6 1.08-.8.42-.18.88-.27 1.37-.27.64 0 1.18.13 1.6.4.43.26.77.6 1.03 1 .25.42.43.87.53 1.36.08.47.12.93.1 1.37H165c-.02.32.02.62.1.9.08.3.22.54.4.76.2.22.43.4.72.53.3.13.63.2 1.02.2.5 0 .92-.12 1.24-.36.32-.23.54-.6.64-1.06h1.17c-.16.82-.5 1.43-1.06 1.84-.54.4-1.22.6-2.04.6zm1.95-4.48c-.02-.28-.1-.54-.2-.8-.1-.25-.24-.46-.43-.65-.18-.18-.4-.32-.64-.43-.25-.1-.52-.16-.82-.16-.3 0-.6.05-.83.16-.25.1-.46.25-.64.44-.2.2-.33.4-.43.65-.1.25-.16.5-.18.8h4.15zm5.15 4.47c-.96 0-1.7-.23-2.26-.66-.54-.43-.83-1.04-.88-1.83h1.2c.04.54.24.92.6 1.16.35.23.8.35 1.32.35.57 0 1-.1 1.32-.36.3-.24.46-.55.46-.92 0-.36-.1-.65-.35-.85-.22-.2-.62-.3-1.18-.3h-.96v-.98h.77c.42 0 .78-.1 1.07-.27.3-.17.45-.47.45-.9 0-.27-.13-.5-.38-.7-.26-.22-.64-.32-1.14-.32-.22 0-.43.03-.64.08-.22.04-.4.12-.58.22-.17.1-.3.24-.42.4-.1.18-.18.38-.2.62h-1.2c.02-.44.12-.8.3-1.1.2-.3.43-.54.7-.7.3-.18.6-.3.96-.38.36-.07.72-.1 1.08-.1.37 0 .72.03 1.05.1.32.07.6.2.85.36.25.16.44.36.6.6.13.25.2.54.2.87 0 .42-.1.76-.35 1.03-.24.26-.5.42-.8.5.16.04.33.1.5.18.17.1.32.2.45.34.13.15.23.33.32.54.08.2.12.45.12.73 0 .38-.1.72-.26 1-.17.3-.4.54-.67.73-.28.18-.6.32-.96.42-.35.1-.72.14-1.1.14zm4.42-7.4h1.2v5.9l3.4-5.9h1.53v7.23h-1.2v-5.9l-3.4 5.9h-1.53V3zm7.07 6.18h.85c.1-.2.2-.46.3-.8.12-.34.22-.72.3-1.14.1-.4.17-.85.22-1.32.06-.46.1-.92.1-1.37V3h5.22v6.18h.97v3.25h-1.13v-2.2h-5.7v2.2h-1.15V9.18zm5.8 0V4.05h-2.88v.6c0 .47-.03.92-.08 1.38-.05.45-.12.88-.2 1.28-.1.4-.18.77-.28 1.1-.1.33-.2.6-.28.78h3.72zm6.37 1.2c-.58 0-1.08-.1-1.52-.27-.43-.18-.8-.44-1.08-.78-.3-.33-.5-.73-.65-1.2-.15-.47-.22-.98-.22-1.53s.08-1.05.25-1.5c.17-.47.4-.87.7-1.2.3-.34.67-.6 1.1-.8.4-.18.86-.27 1.35-.27.65 0 1.18.13 1.6.4.43.26.77.6 1.03 1 .25.42.43.87.53 1.36.1.47.14.93.12 1.37h-5.42c0 .32.03.62.1.9.1.3.23.54.42.76.18.22.42.4.7.53.3.13.64.2 1.03.2.52 0 .93-.12 1.25-.36.33-.23.54-.6.64-1.06h1.17c-.16.82-.5 1.43-1.05 1.84-.55.4-1.23.6-2.05.6zm1.95-4.46c-.02-.28-.08-.54-.2-.8-.1-.25-.24-.46-.43-.65-.2-.18-.4-.32-.65-.43-.25-.1-.52-.16-.82-.16-.3 0-.58.05-.83.16-.25.1-.46.25-.64.44-.18.2-.32.4-.42.65-.1.25-.16.5-.18.8h4.16zm2.5-2.92h1.18v2.88h3.67V3h1.2v7.23h-1.2V6.9h-3.67v3.33h-1.2V3zM212 4.05h-2.6V3h6.38v1.05h-2.6v6.18H212V4.05zm7.85 6.34c-.57 0-1.08-.1-1.5-.3-.45-.2-.82-.46-1.1-.8-.3-.34-.54-.74-.7-1.2-.14-.45-.2-.95-.2-1.48s.06-1.03.2-1.5c.16-.45.4-.85.7-1.2.28-.33.65-.6 1.1-.8.42-.2.93-.3 1.5-.3s1.08.1 1.52.3c.43.2.8.47 1.1.8.3.35.52.75.67 1.2.15.47.23.97.23 1.5s-.08 1.03-.23 1.5c-.15.44-.37.84-.67 1.18-.3.34-.67.6-1.1.8-.44.2-.95.3-1.52.3zm0-1.05c.3 0 .6-.06.88-.18.27-.12.5-.3.72-.53.2-.22.37-.5.48-.85.12-.35.18-.74.18-1.18 0-.44-.05-.83-.17-1.17-.1-.34-.27-.62-.48-.86-.2-.24-.45-.42-.72-.54-.28-.12-.57-.18-.88-.18-.3 0-.6.06-.87.18-.28.12-.52.3-.72.53-.2.23-.37.5-.48.85-.12.34-.18.73-.18 1.17 0 .44.06.83.18 1.17.1.33.27.62.48.84.2.23.44.4.72.53.27.12.57.18.87.18zM224.77 3h3.34c.33 0 .64.02.93.07.3.04.56.13.8.26.23.12.4.3.55.53.14.24.2.54.2.9 0 .4-.08.7-.27.95-.17.25-.44.46-.77.6v.03c.42.08.75.28 1 .6.25.3.37.7.37 1.18 0 .3-.05.6-.16.86-.1.26-.26.5-.46.67-.2.2-.43.34-.7.44-.27.1-.56.16-.88.16h-3.93V3zm3.7 6.23c.4 0 .7-.12.9-.35.2-.23.3-.5.3-.86 0-.32-.1-.6-.32-.78-.22-.2-.58-.3-1.08-.3h-2.33v2.3h2.54zM228 5.96c.5 0 .86-.1 1.06-.28.2-.18.3-.43.3-.74 0-.3-.1-.53-.3-.7-.2-.15-.55-.24-1.07-.24h-2.06v1.96H228zM236.2 3h1.2v3.45L240.7 3h1.6l-3.22 3.13 3.6 4.1h-1.54l-3.02-3.44-.73.7v2.73h-1.18V3zm10.5 7.4c-.6 0-1.1-.1-1.53-.3-.45-.2-.8-.46-1.1-.8-.3-.34-.53-.74-.68-1.2-.15-.45-.23-.95-.23-1.48s.07-1.03.22-1.5c.15-.45.37-.85.67-1.2.3-.33.65-.6 1.1-.8.42-.2.93-.3 1.5-.3.58 0 1.08.1 1.52.3.44.2.8.47 1.1.8.3.35.53.75.68 1.2.15.47.22.97.22 1.5s-.07 1.03-.22 1.5c-.15.44-.38.84-.68 1.18-.3.34-.66.6-1.1.8-.44.2-.94.3-1.5.3zm0-1.05c.3 0 .6-.06.86-.18.28-.12.52-.3.72-.53.2-.22.37-.5.48-.85.12-.35.18-.74.18-1.18 0-.44-.06-.83-.18-1.17-.1-.34-.27-.62-.48-.86-.2-.24-.44-.42-.72-.54-.27-.12-.57-.18-.87-.18-.3 0-.6.06-.87.18s-.5.3-.72.53c-.2.23-.36.5-.47.85-.12.34-.18.73-.18 1.17 0 .44.06.83.18 1.17.1.33.27.62.48.84.22.23.46.4.73.53.28.12.57.18.88.18zM251.6 3h3.35c.3 0 .62.02.9.07.3.04.57.13.8.26.24.12.42.3.56.53.14.24.2.54.2.9 0 .4-.08.7-.27.95-.18.25-.44.46-.78.6v.03c.42.08.75.28 1 .6.25.3.37.7.37 1.18 0 .3-.05.6-.16.86-.12.26-.27.5-.46.67-.2.2-.43.34-.7.44-.27.1-.57.16-.9.16h-3.92V3zm3.7 6.23c.4 0 .7-.12.9-.35.2-.23.3-.5.3-.86 0-.32-.1-.6-.32-.78-.22-.2-.58-.3-1.08-.3h-2.32v2.3h2.53zm-.48-3.27c.5 0 .87-.1 1.07-.28.2-.18.3-.43.3-.74 0-.3-.1-.53-.28-.7-.2-.15-.56-.24-1.08-.24h-2.04v1.96h2.04zm7.46 4.43c-.58 0-1.08-.1-1.52-.3-.43-.2-.8-.46-1.1-.8-.3-.34-.52-.74-.67-1.2-.14-.45-.2-.95-.2-1.48s.06-1.03.2-1.5c.16-.45.4-.85.68-1.2.3-.33.67-.6 1.1-.8.44-.2.94-.3 1.52-.3.57 0 1.08.1 1.5.3.45.2.82.47 1.12.8.3.35.52.75.67 1.2.14.47.22.97.22 1.5s-.08 1.03-.23 1.5c-.16.44-.38.84-.68 1.18-.3.34-.67.6-1.1.8-.44.2-.95.3-1.52.3zm0-1.05c.3 0 .6-.06.88-.18.27-.12.5-.3.72-.53.2-.22.36-.5.48-.85s.18-.74.18-1.18c0-.44-.06-.83-.18-1.17-.12-.34-.28-.62-.48-.86-.2-.24-.45-.42-.72-.54-.28-.12-.57-.18-.88-.18-.3 0-.6.06-.87.18-.28.12-.52.3-.72.53-.2.23-.36.5-.48.85-.1.34-.17.73-.17 1.17 0 .44.06.83.17 1.17.12.33.28.62.5.84.2.23.43.4.7.53.28.12.57.18.88.18zM267.26 3h1.2v.98h.02c.2-.4.5-.7.92-.88.42-.18.88-.27 1.4-.27.55 0 1.03.1 1.45.3.4.2.76.5 1.04.84.26.35.47.75.6 1.2.15.47.22.95.22 1.47s-.07 1-.2 1.46c-.14.45-.35.85-.62 1.2-.28.33-.62.6-1.04.8-.4.2-.9.3-1.45.3-.17 0-.37-.03-.6-.07-.2-.04-.42-.1-.63-.18-.22-.08-.42-.2-.6-.34-.2-.14-.36-.32-.5-.53h-.02V13h-1.2V3zm3.43 6.35c.4 0 .73-.08 1-.24.3-.14.5-.35.68-.62.17-.26.3-.56.37-.9.07-.33.1-.67.1-1.03 0-.33-.04-.66-.13-.98-.08-.33-.22-.6-.4-.87-.18-.25-.42-.45-.7-.6-.3-.15-.62-.22-1-.22-.4 0-.74.08-1.02.24-.28.15-.5.36-.7.62-.17.26-.3.55-.38.87-.07.34-.1.67-.1 1 0 .36.03.7.1 1.04.1.33.23.62.4.87.2.26.43.47.72.62.3.16.64.23 1.05.23zM275.5 3h1.2v3.45L280 3h1.6l-3.22 3.13 3.6 4.1h-1.54l-3.02-3.44-.73.7v2.73h-1.18V3zm7.36 0h1.2v5.9l3.4-5.9h1.53v7.23h-1.18v-5.9l-3.4 5.9h-1.54V3zm7.93 0h1.2v2.88h3.66V3h1.2v7.23h-1.2V6.9H292v3.33h-1.2V3zm7.87 0h4.96v1.05h-3.77v6.18h-1.2V3zm9.03 7.4c-.57 0-1.08-.1-1.5-.3-.45-.2-.82-.46-1.1-.8-.3-.34-.54-.74-.7-1.2-.14-.45-.2-.95-.2-1.48s.06-1.03.2-1.5c.16-.45.4-.85.7-1.2.28-.33.65-.6 1.08-.8.44-.2.95-.3 1.52-.3.57 0 1.08.1 1.52.3.43.2.8.47 1.1.8.3.35.52.75.67 1.2.14.47.22.97.22 1.5s-.08 1.03-.23 1.5c-.16.44-.38.84-.68 1.18-.3.34-.67.6-1.1.8-.44.2-.95.3-1.52.3zm0-1.05c.3 0 .6-.06.88-.18.27-.12.5-.3.72-.53.2-.22.37-.5.48-.85.12-.35.18-.74.18-1.18 0-.44-.06-.83-.18-1.17-.1-.34-.27-.62-.48-.86-.2-.24-.45-.42-.72-.54-.28-.12-.57-.18-.88-.18-.3 0-.6.06-.87.18-.28.12-.52.3-.72.53-.2.23-.36.5-.48.85-.1.34-.17.73-.17 1.17 0 .44.06.83.18 1.17.1.33.27.62.48.84.2.23.45.4.73.53.27.12.57.18.87.18zM312.62 3h3.34c.32 0 .63.02.92.07.3.04.56.13.8.26.23.12.4.3.55.53.14.24.2.54.2.9 0 .4-.08.7-.27.95-.18.25-.45.46-.78.6v.03c.42.08.75.28 1 .6.25.3.37.7.37 1.18 0 .3-.05.6-.16.86-.12.26-.27.5-.47.67-.2.2-.43.34-.7.44-.27.1-.56.16-.88.16h-3.93V3zm3.7 6.23c.4 0 .7-.12.9-.35.2-.23.3-.5.3-.86 0-.32-.1-.6-.32-.78-.22-.2-.58-.3-1.08-.3h-2.33v2.3h2.53zm-.48-3.27c.5 0 .87-.1 1.07-.28.2-.18.3-.43.3-.74 0-.3-.1-.53-.28-.7-.2-.15-.56-.24-1.08-.24h-2.05v1.96h2.04zm10.9 4.43c-.97 0-1.72-.23-2.26-.66-.55-.43-.84-1.04-.9-1.83h1.22c.04.54.23.92.6 1.16.34.23.78.35 1.32.35.57 0 1-.1 1.3-.36.32-.24.47-.55.47-.92 0-.36-.12-.65-.36-.85-.23-.2-.63-.3-1.2-.3H326v-.98h.76c.42 0 .78-.1 1.08-.27.3-.17.44-.47.44-.9 0-.27-.12-.5-.38-.7-.26-.22-.64-.32-1.14-.32-.22 0-.43.03-.64.08-.2.04-.4.12-.57.22-.16.1-.3.24-.42.4-.1.18-.18.38-.2.62h-1.2c.02-.44.13-.8.3-1.1.2-.3.43-.54.7-.7.3-.18.6-.3.96-.38.35-.07.7-.1 1.07-.1.38 0 .73.03 1.05.1.33.07.62.2.86.36.25.16.45.36.6.6.14.25.2.54.2.87 0 .42-.1.76-.35 1.03-.24.26-.5.42-.8.5.16.04.33.1.5.18.17.1.32.2.45.34.13.15.24.33.32.54.08.2.13.45.13.73 0 .38-.1.72-.26 1-.16.3-.4.54-.67.73-.28.18-.6.32-.96.42-.36.1-.73.14-1.1.14zm6.42 0c-.33 0-.64-.05-.93-.12-.3-.07-.54-.18-.76-.35-.22-.16-.4-.37-.52-.63-.13-.25-.2-.56-.2-.93 0-.4.08-.74.22-1 .14-.27.33-.48.55-.64.23-.17.5-.3.8-.37.28-.1.58-.16.9-.2.32-.08.63-.13.92-.16.3-.03.56-.08.78-.14.22-.06.4-.15.53-.27.13-.12.2-.3.2-.52 0-.26-.05-.47-.15-.63-.1-.16-.22-.28-.38-.36-.15-.1-.32-.15-.5-.18-.2-.03-.4-.04-.58-.04-.5 0-.93.1-1.26.3-.34.18-.52.54-.55 1.07h-1.2c.03-.45.12-.83.3-1.13.16-.3.38-.56.66-.75.27-.2.6-.33.95-.42.36-.08.75-.12 1.16-.12.33 0 .66.02.98.07.32.04.6.14.88.3.26.13.47.33.63.6.14.26.22.6.22 1.02v3.72c0 .28.02.5.05.62.04.13.15.2.33.2.1 0 .2-.03.37-.08v.93c-.2.13-.5.2-.86.2-.3 0-.54-.1-.72-.27-.2-.17-.28-.46-.28-.85-.32.4-.7.68-1.14.85-.43.17-.9.26-1.4.26zm.26-1.05c.4 0 .73-.05 1-.16.3-.12.52-.25.7-.4.17-.18.3-.36.4-.55.07-.2.1-.37.1-.54V6.5c-.14.12-.33.2-.57.25-.25.04-.5.1-.77.12-.26.04-.53.08-.8.12-.27.02-.52.1-.73.18-.2.1-.4.23-.52.4-.14.17-.2.4-.2.7 0 .2.03.37.1.5.1.14.2.25.32.33.13.1.27.16.44.2.16.03.34.05.52.05zM338.67 3h1.2v2.88h3.66V3h1.2v7.23h-1.2V6.9h-3.67v3.33h-1.2V3zm7.84 0h1.2v5.9l3.42-5.9h1.52v7.23h-1.2v-5.9l-3.4 5.9h-1.53V3zm7.94 0h1.7l2.2 5.86h.03l2.2-5.86h1.7v7.23h-1.18V4.5l-2.2 5.73h-1.1l-2.17-5.74v5.73h-1.2V3zm11.63 7.4c-.33 0-.63-.05-.92-.12-.3-.07-.55-.18-.77-.35-.22-.16-.4-.37-.5-.63-.14-.25-.2-.56-.2-.93 0-.4.07-.74.2-1 .15-.27.33-.48.56-.64.23-.17.5-.3.78-.37.3-.1.6-.16.9-.2.33-.08.64-.13.94-.16.3-.03.55-.08.77-.14.23-.06.4-.15.54-.27.13-.12.2-.3.2-.52 0-.26-.06-.47-.15-.63-.1-.16-.23-.28-.38-.36-.16-.1-.33-.15-.52-.18-.2-.03-.38-.04-.57-.04-.5 0-.92.1-1.26.3-.34.18-.53.54-.55 1.07h-1.2c.02-.45.12-.83.3-1.13.15-.3.38-.56.66-.75.3-.2.6-.33.97-.42.36-.08.74-.12 1.15-.12.33 0 .65.02.98.07.32.04.6.14.87.3.26.13.47.33.63.6.16.26.24.6.24 1.02v3.72c0 .28 0 .5.05.62.02.13.13.2.32.2.08 0 .2-.03.36-.08v.93c-.2.13-.5.2-.85.2-.3 0-.56-.1-.74-.27-.2-.17-.28-.46-.28-.85-.33.4-.7.68-1.14.85-.44.17-.9.26-1.4.26zm.27-1.05c.4 0 .72-.05 1-.16.28-.12.5-.25.7-.4.17-.18.3-.36.38-.55.1-.2.13-.37.13-.54V6.5c-.15.12-.35.2-.6.25-.23.04-.5.1-.75.12-.27.04-.54.08-.8.12-.28.02-.52.1-.74.18-.2.1-.4.23-.52.4-.14.17-.2.4-.2.7 0 .2.04.37.12.5.07.14.18.25.3.33.13.1.28.16.44.2.17.03.35.05.54.05zm11.3 1.04c-.5 0-.96-.1-1.36-.27-.4-.17-.75-.4-1.04-.72-.3-.3-.52-.65-.68-1.06-.16-.42-.26-.87-.3-1.37h-1.48v3.26h-1.2V3h1.2v2.95h1.54c.05-.45.17-.86.34-1.25.17-.38.4-.7.68-.98s.6-.5 1-.65c.4-.16.82-.24 1.3-.24.55 0 1.03.1 1.44.3.42.2.77.46 1.06.8.3.34.5.74.66 1.2.15.46.22.96.22 1.5 0 .52-.07 1.02-.22 1.48-.15.46-.37.86-.66 1.2-.3.34-.64.6-1.06.8-.4.2-.9.3-1.43.3zm0-1.05c.3 0 .57-.06.83-.18.27-.12.5-.3.68-.53.18-.22.33-.5.44-.85.1-.35.16-.74.16-1.18 0-.44-.05-.83-.17-1.17-.12-.34-.27-.62-.45-.86-.2-.24-.4-.42-.68-.54-.26-.12-.53-.18-.82-.18-.3 0-.58.06-.83.18-.26.12-.48.3-.67.53-.2.23-.34.5-.45.85-.1.34-.17.73-.17 1.17 0 .88.2 1.55.6 2.02.38.48.9.7 1.52.7zm6.53-5.3h-2.6V3h6.38v1.05h-2.6v6.18h-1.18V4.05zM2.37 23h1.18v2.88h3.67V23h1.2v7.23H7.2V26.9H3.55v3.33h-1.2V23zm10.9 7.4c-.56 0-1.07-.1-1.5-.3-.44-.18-.8-.44-1.1-.78-.28-.33-.5-.73-.64-1.2-.15-.47-.22-.98-.22-1.53s.1-1.05.26-1.5c.17-.47.4-.87.7-1.2.3-.34.67-.6 1.1-.8.4-.18.86-.27 1.35-.27.66 0 1.2.13 1.62.4.42.26.76.6 1.02 1 .26.42.43.87.53 1.36.1.47.14.93.12 1.37h-5.43c0 .32.03.62.1.9.1.3.23.54.42.76.18.22.4.4.7.53.3.13.63.2 1.03.2.5 0 .9-.12 1.24-.36.32-.23.53-.6.63-1.06h1.18c-.16.82-.5 1.43-1.05 1.84-.54.4-1.22.6-2.05.6zm1.96-4.48c-.02-.28-.08-.54-.2-.8-.1-.25-.24-.46-.42-.65-.18-.18-.4-.32-.64-.43-.24-.1-.52-.16-.82-.16-.3 0-.58.05-.83.16-.24.1-.45.25-.63.44-.17.2-.3.4-.42.65-.1.25-.16.5-.18.8h4.16zm10.5 3.77c-.08.07-.2.16-.3.24-.13.08-.26.16-.4.22-.13.07-.27.12-.4.16-.16.05-.3.07-.44.07-.55 0-1-.12-1.38-.33-.36-.22-.66-.5-.9-.87-.22-.35-.4-.77-.5-1.23-.1-.47-.14-.96-.14-1.46 0-1.15.25-2.05.75-2.7.5-.65 1.2-.97 2.06-.97.14 0 .3.02.46.07.16.04.32.1.46.18.15.07.28.16.4.25.14.1.24.2.3.28v-3.36h1.2v3.37c.06-.08.16-.17.28-.27.12-.1.26-.18.4-.25.16-.07.3-.14.47-.18.16-.05.32-.07.47-.07.87 0 1.56.32 2.06.97.5.65.76 1.55.76 2.7 0 .5-.05 1-.16 1.47-.1.46-.26.88-.5 1.23-.22.36-.52.65-.9.87-.36.2-.8.32-1.35.32-.27 0-.56-.08-.86-.23-.32-.14-.54-.3-.7-.48V33h-1.17v-3.3zm-1.4-.3c.36 0 .68-.08.94-.26.26-.2.4-.4.46-.67v-3.64c-.06-.2-.14-.36-.25-.48-.1-.13-.24-.23-.37-.3-.13-.1-.27-.15-.42-.18-.15-.03-.3-.05-.42-.05-.3 0-.57.07-.8.2-.2.14-.4.33-.54.57-.14.22-.25.5-.3.85-.08.33-.1.7-.1 1.1 0 .32.02.66.07 1 .05.34.15.65.28.93.14.27.32.5.55.67.24.17.54.26.9.26zm3.98 0c.37 0 .67-.08.9-.25.24-.17.42-.4.55-.67.14-.28.24-.6.3-.93.05-.34.08-.68.08-1 0-.4-.04-.77-.1-1.1-.07-.34-.17-.63-.32-.86-.13-.25-.3-.44-.53-.58-.22-.13-.5-.2-.8-.2-.12 0-.26.02-.4.05-.16.03-.3.1-.44.17-.14.08-.26.18-.37.3-.1.13-.2.3-.25.5v3.63c.05.26.2.48.47.67.26.18.57.27.94.27zm4.56-6.4h1.2v.98c.2-.4.52-.7.94-.88.42-.18.88-.27 1.38-.27.56 0 1.05.1 1.47.3.4.2.76.5 1.03.84.28.35.5.75.63 1.2.15.47.22.95.22 1.47s-.07 1-.2 1.46c-.14.45-.35.85-.62 1.2-.28.33-.62.6-1.04.8-.4.2-.9.3-1.45.3-.17 0-.38-.03-.6-.07-.2-.04-.42-.1-.63-.18-.22-.08-.42-.2-.6-.34-.2-.14-.37-.32-.5-.53h-.02V33h-1.2V23zm3.43 6.35c.4 0 .73-.08 1-.24.3-.14.5-.35.68-.62.17-.26.3-.56.36-.9.08-.33.12-.67.12-1.03 0-.33-.05-.66-.14-.98-.1-.33-.22-.6-.4-.87-.2-.25-.42-.45-.7-.6-.3-.15-.62-.22-1-.22-.4 0-.75.08-1.03.24-.3.15-.5.36-.7.62-.17.26-.3.55-.38.87-.08.34-.12.67-.12 1 0 .36.05.7.13 1.04.08.33.22.62.4.87.18.26.42.47.7.62.3.16.65.23 1.06.23zM41.1 23h1.2v5.9l3.4-5.9h1.53v7.23h-1.2v-5.9l-3.4 5.9H41.1V23zm7.86 7.32c-.12 0-.24 0-.37-.04-.12-.02-.23-.04-.32-.06v-1.05c.1.03.18.05.26.06.08 0 .16 0 .23 0 .3 0 .55-.1.7-.35.17-.25.3-.62.38-1.12.07-.5.12-1.15.14-1.94 0-.8.03-1.73.05-2.82h5.08v7.23h-1.2v-6.18H51.2c-.03.85-.06 1.65-.1 2.4-.03.77-.1 1.44-.24 2-.13.58-.34 1.03-.63 1.36-.3.35-.7.52-1.25.52zm9.94.07c-.32 0-.63-.05-.92-.12-.3-.07-.54-.18-.76-.35-.22-.16-.4-.37-.52-.63-.13-.25-.2-.56-.2-.93 0-.4.08-.74.22-1 .14-.27.32-.48.55-.64.22-.17.48-.3.78-.37.3-.1.6-.16.9-.2.33-.08.64-.13.93-.16.3-.03.56-.08.8-.14.2-.06.4-.15.52-.27.13-.12.2-.3.2-.52 0-.26-.05-.47-.15-.63-.1-.16-.22-.28-.38-.36-.16-.1-.34-.15-.53-.18-.2-.03-.38-.04-.56-.04-.5 0-.92.1-1.25.3-.34.18-.52.54-.55 1.07h-1.2c.03-.45.12-.83.3-1.13.16-.3.38-.56.66-.75.28-.2.6-.33.96-.42.36-.08.75-.12 1.16-.12.32 0 .65.02.97.07.32.04.6.14.87.3.27.13.48.33.63.6.16.26.24.6.24 1.02v3.72c0 .28 0 .5.04.62.03.13.14.2.33.2.08 0 .2-.03.36-.08v.93c-.2.13-.5.2-.85.2-.3 0-.55-.1-.73-.27-.2-.17-.28-.46-.28-.85-.32.4-.7.68-1.14.85-.43.17-.9.26-1.4.26zm.27-1.05c.38 0 .72-.05 1-.16.28-.12.5-.25.68-.4.18-.18.3-.36.4-.55.08-.2.12-.37.12-.54v-1.2c-.15.12-.34.2-.6.25-.23.04-.48.1-.75.12-.27.04-.53.08-.8.12-.27.02-.52.1-.73.18-.22.1-.4.23-.53.4-.14.17-.2.4-.2.7 0 .2.03.37.1.5.1.14.2.25.32.33.12.1.27.16.44.2.17.03.34.05.53.05zM64.43 23h1.2v2.88h3.66V23h1.2v7.23h-1.2V26.9h-3.67v3.33h-1.2V23zm10.84 7.4c-.55 0-1.04-.1-1.47-.28-.4-.18-.77-.43-1.05-.75-.3-.33-.5-.72-.64-1.17-.14-.44-.2-.94-.2-1.5 0-.54.06-1.04.2-1.5.14-.48.35-.9.64-1.25.28-.35.63-.62 1.06-.82.42-.2.93-.3 1.5-.3.4 0 .8.05 1.16.15.36.1.68.24.95.45.3.2.5.46.7.78.17.32.28.7.33 1.12H77.2c-.1-.46-.3-.8-.6-1.06s-.7-.38-1.2-.38c-.43 0-.8.08-1.08.24-.3.15-.52.36-.7.63-.16.26-.3.56-.36.9-.07.34-.1.7-.1 1.06 0 .34.03.67.1 1 .1.3.2.6.38.83.17.25.38.45.65.6.26.15.58.22.96.22.6 0 1.05-.15 1.38-.46.33-.32.54-.75.6-1.3h1.23c-.13.9-.46 1.6-1 2.07-.53.48-1.26.72-2.2.72zm7.6 0c-.58 0-1.1-.1-1.52-.3-.44-.18-.8-.44-1.1-.78-.28-.33-.5-.73-.64-1.2s-.2-.98-.2-1.53.07-1.05.24-1.5c.17-.47.4-.87.7-1.2.3-.34.67-.6 1.08-.8.42-.18.87-.27 1.37-.27.65 0 1.2.13 1.6.4.44.26.78.6 1.03 1 .26.42.44.87.53 1.36.1.47.14.93.12 1.37h-5.4c-.02.32 0 .62.1.9.08.3.22.54.4.76.2.22.43.4.72.53.3.13.63.2 1.02.2.5 0 .92-.12 1.24-.36.32-.23.53-.6.64-1.06h1.17c-.16.82-.5 1.43-1.05 1.84-.54.4-1.22.6-2.04.6zm1.94-4.48c0-.28-.08-.54-.18-.8-.1-.25-.26-.46-.44-.65-.18-.18-.4-.32-.64-.43-.25-.1-.52-.16-.82-.16-.3 0-.6.05-.83.16-.24.1-.45.25-.63.44-.18.2-.32.4-.42.65-.1.25-.17.5-.18.8h4.15zM87.36 23h1.2v.98h.02c.2-.4.5-.7.92-.88.42-.18.88-.27 1.4-.27.55 0 1.03.1 1.45.3.4.2.76.5 1.04.84.26.35.47.75.6 1.2.15.47.22.95.22 1.47s-.07 1-.2 1.46c-.14.45-.35.85-.62 1.2-.28.33-.62.6-1.04.8-.4.2-.9.3-1.45.3-.17 0-.37-.03-.6-.07-.2-.04-.42-.1-.63-.18-.22-.08-.42-.2-.6-.34-.2-.14-.36-.32-.5-.53h-.02V33h-1.2V23zm3.43 6.35c.4 0 .73-.08 1-.24.3-.14.5-.35.68-.62.17-.26.3-.56.37-.9.07-.33.1-.67.1-1.03 0-.33-.04-.66-.13-.98-.08-.33-.22-.6-.4-.87-.18-.25-.42-.45-.7-.6-.3-.15-.62-.22-1-.22-.4 0-.74.08-1.02.24-.28.15-.5.36-.7.62-.17.26-.3.55-.38.87-.07.34-.1.67-.1 1 0 .36.03.7.1 1.04.1.33.23.62.4.87.2.26.43.47.72.62.3.16.64.23 1.05.23zM95.6 23h1.2v2.77h2.23c.7 0 1.28.2 1.7.58.44.4.65.93.65 1.63 0 .68-.2 1.23-.62 1.64-.4.4-.97.6-1.68.6h-3.48V23zm3.05 6.18c1 0 1.5-.4 1.5-1.2 0-.8-.5-1.2-1.5-1.2H96.8v2.4h1.87zm3.88-6.18h1.2v7.23h-1.2V23zm6.87 0h1.2v5.9L114 23h1.53v7.23h-1.2v-5.9l-3.4 5.9h-1.53V23zm11.82 0h1.2v5.9l3.4-5.9h1.53v7.23h-1.2v-5.9l-3.4 5.9h-1.53V23zm7.92 0h1.2v2.88H134V23h1.2v7.23H134V26.9h-3.67v3.33h-1.2V23zm7 6.18h.84c.1-.2.2-.46.32-.8.1-.34.2-.72.3-1.13.08-.42.15-.86.2-1.33.06-.46.1-.92.1-1.37V23h5.23v6.18h.98v3.25H143v-2.2h-5.72v2.2h-1.13v-3.25zm5.8 0v-5.13h-2.9v.6c0 .47 0 .92-.06 1.38-.05.45-.12.88-.2 1.28-.1.4-.18.77-.28 1.1-.1.33-.2.6-.3.78h3.74zm3.3-6.18h1.18v5.9l3.4-5.9h1.54v7.23h-1.2v-5.9l-3.4 5.9h-1.53V23zm7.9 0h3.36c.32 0 .62.02.9.07.3.04.57.13.8.25.24.13.43.3.57.54.13.24.2.54.2.9 0 .4-.1.7-.28.95-.2.25-.45.46-.8.6v.03c.43.08.77.28 1 .6.26.3.38.7.38 1.18 0 .3-.05.6-.16.86-.1.26-.26.5-.45.67-.2.2-.44.34-.7.44-.28.1-.58.16-.9.16h-3.93V23zm3.72 6.23c.4 0 .7-.12.9-.35.2-.23.3-.5.3-.86 0-.32-.12-.6-.33-.78-.2-.2-.57-.3-1.08-.3h-2.32v2.3h2.53zm-.5-3.27c.53 0 .88-.1 1.08-.28.2-.18.3-.43.3-.74 0-.3-.1-.53-.3-.7-.2-.15-.55-.24-1.07-.24h-2.05v1.96h2.04zm4.35-2.96h1.2v5.9l3.4-5.9h1.53v7.23h-1.2v-5.9l-3.4 5.9h-1.53V23zm7.07 6.18h.86c.1-.2.2-.46.3-.8.12-.34.22-.72.3-1.13.1-.42.17-.86.22-1.33.06-.46.1-.92.1-1.37V23h5.22v6.18h.98v3.25h-1.13v-2.2h-5.7v2.2h-1.15v-3.25zm5.8 0v-5.13h-2.87v.6c0 .47-.03.92-.08 1.38-.05.45-.12.88-.2 1.28-.1.4-.18.77-.27 1.1-.1.33-.2.6-.3.78h3.73zm4.04 3.94c-.14 0-.28 0-.42-.03-.14-.03-.27-.06-.4-.1v-1.1c.1.04.22.07.34.1.12.05.24.07.36.07.24 0 .44-.06.6-.17.14-.1.27-.28.38-.5l.5-1.2-2.88-7.2h1.34l2.12 5.92h.02l2.03-5.92h1.26l-3.16 8.2c-.14.34-.27.64-.4.88-.14.24-.3.44-.46.6-.16.15-.34.26-.54.33-.2.08-.43.12-.7.12zm8.26-2.73c-.32 0-.63-.05-.92-.12-.3-.07-.54-.18-.76-.35-.22-.16-.4-.37-.52-.63-.13-.25-.2-.56-.2-.93 0-.4.08-.74.22-1 .14-.27.32-.48.55-.64.23-.17.5-.3.8-.37.28-.1.58-.16.9-.2.32-.08.63-.13.92-.16.3-.03.54-.08.77-.14.22-.06.4-.15.53-.27.13-.12.2-.3.2-.52 0-.26-.05-.47-.15-.63-.1-.16-.22-.28-.38-.36-.15-.1-.33-.15-.52-.18-.2-.03-.38-.04-.56-.04-.52 0-.94.1-1.27.3-.34.18-.52.54-.55 1.07h-1.2c.03-.45.12-.83.3-1.13.16-.3.38-.56.66-.75.28-.2.6-.33.96-.42.36-.08.75-.12 1.16-.12.32 0 .65.02.97.07.32.04.6.14.87.3.27.13.48.33.63.6.16.26.24.6.24 1.02v3.72c0 .28.02.5.05.62.03.13.14.2.33.2.08 0 .2-.03.36-.08v.93c-.2.13-.48.2-.84.2-.3 0-.55-.1-.74-.27-.18-.17-.27-.46-.27-.85-.32.4-.7.68-1.14.85-.42.17-.9.26-1.4.26zm.27-1.05c.4 0 .73-.05 1-.16.3-.12.52-.25.7-.4.17-.18.3-.36.4-.55.07-.2.1-.37.1-.54v-1.2c-.14.12-.33.2-.58.25-.25.04-.5.1-.77.12-.27.04-.53.08-.8.12-.27.02-.52.1-.73.18-.22.1-.4.23-.53.4s-.2.4-.2.7c0 .2.04.37.12.5.07.14.17.25.3.33.12.1.27.16.44.2.17.03.34.05.53.05zm5.2.97c-.13 0-.25 0-.38-.04-.14-.02-.25-.04-.34-.06v-1.05c.1.03.18.05.26.06.08 0 .16 0 .23 0 .3 0 .55-.1.7-.35.17-.25.3-.62.38-1.12.07-.5.12-1.15.14-1.94.02-.8.04-1.73.06-2.82h5.08v7.23h-1.18v-6.18h-2.74c-.03.85-.06 1.65-.1 2.4-.03.77-.1 1.44-.24 2-.13.58-.34 1.03-.63 1.36-.28.35-.7.52-1.24.52zm8-7.32h1.2v2.77h2.57c.7 0 1.28.2 1.7.58.44.4.65.93.65 1.63 0 .68-.22 1.23-.63 1.64-.4.4-.97.6-1.68.6h-3.83V23zm3.4 6.18c1 0 1.5-.4 1.5-1.2 0-.8-.5-1.2-1.5-1.2h-2.2v2.4h2.2zm4-6.18h1.2v2.88h3.67V23h1.2v7.23h-1.2V26.9h-3.67v3.33h-1.2V23zm7.85 0h1.2v2.77h2.23c.7 0 1.28.2 1.7.58.44.4.65.93.65 1.63 0 .68-.2 1.23-.62 1.64-.4.4-.97.6-1.68.6h-3.48V23zm3.05 6.18c1 0 1.5-.4 1.5-1.2 0-.8-.5-1.2-1.5-1.2h-1.86v2.4h1.87zm3.88-6.18h1.2v7.23h-1.2V23zm6.06 7.4c-.57 0-1.07-.1-1.5-.3-.44-.18-.8-.44-1.1-.78-.28-.33-.5-.73-.65-1.2-.14-.47-.2-.98-.2-1.53s.07-1.05.24-1.5c.16-.47.4-.87.7-1.2.3-.34.66-.6 1.08-.8.4-.18.87-.27 1.36-.27.64 0 1.18.13 1.6.4.43.26.77.6 1.03 1 .25.42.43.87.53 1.36.1.47.13.93.12 1.37h-5.42c0 .32.03.62.1.9.1.3.23.54.42.76.18.22.42.4.7.53.3.13.64.2 1.03.2.5 0 .92-.12 1.24-.36.3-.23.53-.6.63-1.06h1.17c-.15.82-.5 1.43-1.05 1.84-.54.4-1.22.6-2.04.6zm1.96-4.48c-.02-.28-.1-.54-.2-.8-.1-.25-.24-.46-.43-.65-.18-.18-.4-.32-.64-.43-.26-.1-.53-.16-.83-.16-.3 0-.6.05-.83.16-.25.1-.46.25-.64.44-.18.2-.32.4-.42.65-.1.25-.16.5-.18.8h4.16zm6.42-2.92h1.2v.98h.02c.2-.4.5-.7.92-.88.42-.18.9-.27 1.4-.27.55 0 1.04.1 1.45.3.42.2.76.5 1.04.84.28.35.5.75.63 1.2.14.47.2.95.2 1.47s-.06 1-.2 1.46c-.13.45-.33.85-.6 1.2-.28.33-.63.6-1.04.8-.43.2-.9.3-1.46.3-.2 0-.4-.03-.6-.07-.22-.04-.43-.1-.65-.18-.22-.08-.43-.2-.62-.34-.2-.14-.35-.32-.48-.53h-.03V33h-1.2V23zm3.43 6.35c.4 0 .75-.08 1.03-.24.28-.14.5-.35.68-.62.17-.26.3-.56.37-.9.07-.33.1-.67.1-1.03 0-.33-.03-.66-.12-.98-.1-.33-.22-.6-.4-.87-.2-.25-.42-.45-.7-.6-.3-.15-.63-.22-1-.22-.4 0-.75.08-1.03.24-.28.15-.5.36-.7.62-.16.26-.3.55-.37.87-.08.34-.12.67-.12 1 0 .36.04.7.13 1.04.08.33.2.62.4.87.18.26.4.47.7.62.3.16.64.23 1.05.23zm6.84 1.04c-.32 0-.63-.05-.92-.12-.3-.07-.54-.18-.76-.35-.22-.16-.4-.37-.52-.63-.13-.25-.2-.56-.2-.93 0-.4.08-.74.22-1 .14-.27.32-.48.55-.64.24-.17.5-.3.8-.37.3-.1.6-.16.9-.2.33-.08.64-.13.93-.16.3-.03.55-.08.78-.14.23-.06.4-.15.54-.27.13-.12.2-.3.2-.52 0-.26-.05-.47-.15-.63-.1-.16-.23-.28-.4-.36-.14-.1-.32-.15-.5-.18-.2-.03-.4-.04-.57-.04-.5 0-.93.1-1.26.3-.34.18-.52.54-.55 1.07h-1.2c.03-.45.12-.83.3-1.13.16-.3.38-.56.66-.75.28-.2.6-.33.96-.42.36-.08.75-.12 1.16-.12.32 0 .65.02.97.07.32.04.6.14.87.3.27.13.48.33.63.6.16.26.24.6.24 1.02v3.72c0 .28.03.5.06.62.03.13.14.2.33.2.07 0 .2-.03.35-.08v.93c-.2.13-.5.2-.85.2-.3 0-.55-.1-.74-.27-.18-.17-.27-.46-.27-.85-.33.4-.7.68-1.15.85-.43.17-.9.26-1.4.26zm.27-1.05c.4 0 .74-.05 1.02-.16.28-.12.5-.25.68-.4.18-.18.3-.36.4-.55.08-.2.12-.37.12-.54v-1.2c-.15.12-.34.2-.6.25-.23.04-.48.1-.75.12-.27.04-.53.08-.8.12-.27.02-.52.1-.73.18-.22.1-.4.23-.53.4-.12.17-.2.4-.2.7 0 .2.05.37.13.5.08.14.18.25.3.33.13.1.28.16.45.2.17.03.34.05.53.05zm8.5 1.04c-.94 0-1.7-.25-2.27-.73-.57-.47-.93-1.2-1.08-2.2-.06-.4-.1-.84-.1-1.32 0-.35.03-.7.05-1.08.02-.38.06-.74.13-1.1.06-.37.14-.72.25-1.06.1-.32.25-.63.42-.9.32-.5.7-.86 1.17-1.1.45-.24 1.03-.38 1.72-.42.45-.04.83-.08 1.14-.13.3-.05.48-.16.5-.35h1.2c0 .36-.1.64-.23.84-.13.2-.33.34-.58.44-.25.1-.56.16-.93.2-.37.03-.8.06-1.28.1-.4.03-.75.12-1.05.28-.3.16-.55.37-.76.64-.2.27-.37.58-.5.94s-.23.75-.28 1.18h.04c.2-.48.52-.87.96-1.18.43-.3.96-.46 1.57-.46 1 0 1.8.32 2.4.95.6.64.88 1.55.88 2.75 0 .6-.08 1.14-.24 1.6-.17.46-.4.85-.7 1.16-.3.32-.65.55-1.07.7-.4.17-.87.25-1.38.25zm0-1.02c.3 0 .56-.06.82-.18.26-.1.5-.28.7-.5.18-.23.34-.5.46-.84.12-.33.18-.72.18-1.15 0-.84-.2-1.5-.58-2-.4-.48-.93-.72-1.6-.72s-1.2.24-1.6.73c-.4.5-.6 1.17-.6 2.02 0 .82.2 1.47.6 1.95.38.47.93.7 1.63.7zm7.9 1c-.57 0-1.08-.1-1.5-.28-.45-.2-.82-.46-1.1-.8-.3-.34-.54-.74-.7-1.2-.14-.45-.2-.95-.2-1.48s.06-1.03.2-1.5c.16-.45.4-.85.7-1.2.28-.33.65-.6 1.08-.8.44-.2.95-.3 1.52-.3.57 0 1.08.1 1.52.3.43.2.8.47 1.1.8.3.35.52.75.67 1.2.14.47.22.97.22 1.5s-.08 1.03-.23 1.5c-.16.44-.38.84-.68 1.18-.3.34-.67.6-1.1.8-.44.2-.95.3-1.52.3zm0-1.03c.3 0 .6-.06.88-.18.27-.12.5-.3.72-.53.2-.22.37-.5.48-.85.12-.35.18-.74.18-1.18 0-.44-.06-.83-.18-1.17-.1-.34-.27-.62-.48-.86-.2-.24-.45-.42-.72-.54-.28-.12-.57-.18-.88-.18-.3 0-.6.06-.87.18-.28.12-.52.3-.72.53-.2.23-.36.5-.48.85-.1.34-.17.73-.17 1.17 0 .44.06.83.18 1.17.1.33.27.62.48.84.2.23.45.4.73.53.27.12.57.18.87.18zm6.67-5.3h-2.6V23h6.38v1.05h-2.6v6.18h-1.18v-6.18zM274.3 23h1.2v2.88h3.66V23h1.2v7.23h-1.2V26.9h-3.67v3.33h-1.2V23zm7.84 0h1.2v5.9l3.4-5.9h1.53v7.23h-1.2v-5.9l-3.4 5.9h-1.53V23zm7.92 0h1.2v3.45l3.3-3.45h1.6l-3.2 3.13 3.57 4.1H295L292 26.8l-.73.7v2.73h-1.2V23zm7.37 0h1.2v5.9l3.4-5.9h1.53v7.23h-1.2v-5.9l-3.4 5.9h-1.53V23zm8.2 5.68h1.54v1.4c0 .55-.12 1-.36 1.4-.23.37-.63.64-1.17.8v-.7c.16-.06.3-.14.4-.25.1-.1.2-.22.26-.35.06-.12.1-.25.12-.38.03-.13.03-.25.02-.37h-.82v-1.55zm9.5 1.7c-.32 0-.63-.03-.92-.1-.28-.07-.53-.18-.75-.35-.22-.16-.4-.37-.52-.63-.12-.25-.2-.56-.2-.93 0-.4.08-.74.22-1 .14-.27.33-.48.56-.64.24-.17.5-.3.8-.37.3-.1.6-.16.9-.2.32-.08.63-.13.93-.16.3-.03.55-.08.77-.14.23-.06.4-.15.53-.27.13-.12.2-.3.2-.52 0-.26-.05-.47-.15-.63-.1-.16-.22-.28-.38-.36-.15-.1-.32-.15-.5-.18-.2-.03-.4-.04-.58-.04-.5 0-.92.1-1.26.3-.34.18-.52.54-.55 1.07h-1.18c.02-.45.12-.83.28-1.13.17-.3.4-.56.68-.75.28-.2.6-.33.95-.42.36-.08.75-.12 1.16-.12.32 0 .64.02.96.07.33.04.62.14.88.3.26.13.47.33.63.6.16.26.24.6.24 1.02v3.72c0 .28.02.5.06.62.03.13.14.2.32.2.1 0 .2-.03.37-.08v.93c-.2.13-.5.2-.86.2-.3 0-.56-.1-.74-.27-.18-.17-.27-.46-.27-.85-.34.4-.72.68-1.15.85-.44.17-.9.26-1.4.26zm.27-1.03c.4 0 .73-.05 1-.16.3-.12.52-.25.7-.4.18-.18.3-.36.4-.55.07-.2.12-.37.12-.54v-1.2c-.15.12-.35.2-.6.25-.23.04-.5.1-.75.12-.27.04-.54.08-.8.12-.28.02-.52.1-.74.18-.2.1-.4.23-.52.4-.13.17-.2.4-.2.7 0 .2.04.37.12.5.08.14.18.25.3.33.14.1.28.16.45.2.17.03.35.05.53.05zm9.15-6.35h1.2v2.88h3.65V23h1.2v7.23h-1.2V26.9h-3.66v3.33h-1.2V23zm10.92 7.4c-.58 0-1.1-.1-1.52-.3-.44-.18-.8-.44-1.1-.78-.28-.33-.5-.73-.64-1.2-.13-.47-.2-.98-.2-1.53s.08-1.05.25-1.5c.16-.47.4-.87.7-1.2.3-.34.67-.6 1.08-.8.42-.18.87-.27 1.37-.27.64 0 1.17.13 1.6.4.42.26.76.6 1.02 1 .26.42.44.87.53 1.36.1.47.14.93.12 1.37h-5.42c0 .32.03.62.12.9.08.3.22.54.4.76.2.22.43.4.72.53.28.13.62.2 1 .2.5 0 .92-.12 1.25-.36.32-.23.53-.6.63-1.06h1.18c-.16.82-.5 1.43-1.05 1.84-.53.4-1.2.6-2.03.6zm1.94-4.48c0-.28-.07-.54-.18-.8-.1-.25-.25-.46-.43-.65-.2-.18-.4-.32-.66-.43-.24-.1-.52-.16-.8-.16-.32 0-.6.05-.85.16-.25.1-.47.25-.64.44-.18.2-.32.4-.42.65-.1.25-.17.5-.2.8h4.17zm5.74 4.47c-.94 0-1.7-.25-2.26-.73-.58-.47-.94-1.2-1.1-2.2-.04-.4-.07-.84-.07-1.32 0-.35.02-.7.04-1.08.03-.38.07-.74.13-1.1.06-.37.14-.72.25-1.06.1-.32.25-.63.43-.9.32-.5.7-.86 1.16-1.1.47-.24 1.04-.38 1.73-.42.46-.04.84-.08 1.15-.13.3-.05.48-.16.52-.35h1.2c-.03.36-.1.64-.25.84-.14.2-.34.34-.6.44-.24.1-.55.16-.9.2-.38.03-.8.06-1.3.1-.4.03-.74.12-1.04.28-.28.16-.54.37-.75.64-.2.27-.38.58-.5.94-.14.36-.23.75-.3 1.18h.05c.2-.48.53-.87.96-1.18.44-.3.96-.46 1.58-.46 1 0 1.82.32 2.4.95.6.64.9 1.55.9 2.75 0 .6-.1 1.14-.26 1.6-.16.46-.4.85-.7 1.16-.3.32-.65.55-1.06.7-.42.17-.88.25-1.38.25zm0-1.02c.3 0 .56-.06.82-.18.27-.1.5-.28.7-.5.2-.23.34-.5.47-.84.12-.33.18-.72.18-1.15 0-.84-.2-1.5-.58-2-.4-.48-.92-.72-1.6-.72-.67 0-1.2.24-1.6.73-.4.5-.6 1.17-.6 2.02 0 .82.2 1.47.6 1.95.4.47.93.7 1.63.7zm7.9 1c-.57 0-1.08-.1-1.5-.28-.45-.2-.8-.46-1.1-.8-.3-.34-.53-.74-.68-1.2-.15-.45-.23-.95-.23-1.48s.08-1.03.23-1.5c.15-.45.37-.85.67-1.2.3-.33.66-.6 1.1-.8.43-.2.94-.3 1.52-.3.57 0 1.07.1 1.5.3.45.2.82.47 1.12.8.3.35.52.75.67 1.2.15.47.22.97.22 1.5s-.07 1.03-.22 1.5c-.15.44-.38.84-.67 1.18-.3.34-.67.6-1.1.8-.45.2-.95.3-1.52.3zm0-1.03c.32 0 .6-.06.88-.18s.52-.3.72-.53c.2-.22.37-.5.5-.85.1-.35.16-.74.16-1.18 0-.44-.06-.83-.17-1.17-.12-.34-.28-.62-.5-.86-.2-.24-.43-.42-.7-.54-.28-.12-.57-.18-.88-.18-.3 0-.6.06-.88.18-.27.12-.5.3-.72.53-.2.23-.36.5-.48.85-.12.34-.18.73-.18 1.17 0 .44.05.83.17 1.17.12.33.28.62.48.84.2.23.45.4.72.53.28.12.57.18.88.18zm4.87.97c-.12 0-.24 0-.37-.04-.13-.02-.24-.04-.32-.06v-1.05c.1.03.2.05.26.06.08 0 .16 0 .24 0 .3 0 .54-.1.7-.35.17-.25.3-.62.37-1.12.08-.5.13-1.15.14-1.94.03-.8.05-1.73.07-2.82h5.08v7.23h-1.2v-6.18h-2.73c-.03.85-.06 1.65-.1 2.4-.03.77-.1 1.44-.24 2-.13.58-.34 1.03-.63 1.36-.3.35-.7.52-1.24.52zm8-7.32h1.2v2.77h2.58c.7 0 1.28.2 1.7.58.44.4.65.93.65 1.63 0 .68-.2 1.23-.6 1.64-.42.4-.98.6-1.7.6h-3.82V23zm3.4 6.18c1 0 1.5-.4 1.5-1.2 0-.8-.5-1.2-1.5-1.2h-2.2v2.4h2.2zm4.02-6.18h1.2v6.18h2.7V23h1.18v6.18h2.7V23h1.2v7.23h-8.98V23zm10.77 0h1.18v5.9l3.4-5.9h1.54v7.23h-1.2v-5.9l-3.4 5.9h-1.53V23zm11 7.4c-.6 0-1.1-.1-1.53-.3-.43-.18-.8-.44-1.08-.78-.3-.33-.52-.73-.67-1.2-.14-.47-.2-.98-.2-1.53s.07-1.05.24-1.5c.17-.47.4-.87.7-1.2.3-.34.67-.6 1.08-.8.42-.18.88-.27 1.37-.27.64 0 1.18.13 1.6.4.43.26.77.6 1.02 1 .26.42.44.87.54 1.36.1.47.13.93.12 1.37h-5.42c0 .32.03.62.1.9.1.3.23.54.42.76.18.22.42.4.7.53.3.13.64.2 1.03.2.5 0 .92-.12 1.24-.36.32-.23.54-.6.64-1.06h1.18c-.15.82-.5 1.43-1.05 1.84-.54.4-1.22.6-2.04.6zm1.94-4.48c-.02-.28-.1-.54-.2-.8-.1-.25-.24-.46-.43-.65-.17-.18-.38-.32-.63-.43-.25-.1-.52-.16-.82-.16-.3 0-.6.05-.83.16-.25.1-.46.25-.64.44-.18.2-.32.4-.42.65-.1.25-.16.5-.18.8h4.16zM2.36 43h1.2v3.45L6.85 43h1.6l-3.2 3.13 3.57 4.1H7.3L4.3 46.8l-.73.7v2.73h-1.2V43zm10.5 7.4c-.6 0-1.1-.1-1.53-.3-.43-.2-.8-.46-1.1-.8-.3-.34-.52-.74-.67-1.2-.15-.45-.22-.95-.22-1.48s.07-1.03.22-1.5c.15-.45.37-.85.67-1.2.3-.33.67-.6 1.1-.8.44-.2.94-.3 1.52-.3.57 0 1.07.1 1.5.3.45.2.82.47 1.12.8.3.35.52.75.67 1.2.15.47.22.97.22 1.5s-.07 1.03-.22 1.5c-.15.44-.37.84-.67 1.18-.3.34-.67.6-1.1.8-.45.2-.95.3-1.52.3zm0-1.05c.3 0 .6-.06.87-.18s.5-.3.72-.52c.2-.23.36-.52.48-.86.12-.35.17-.74.17-1.18 0-.44-.05-.83-.17-1.17-.12-.34-.28-.62-.48-.86-.2-.24-.45-.42-.72-.54-.28-.12-.57-.18-.88-.18-.3 0-.6.06-.88.18-.27.12-.5.3-.72.53-.2.23-.36.5-.48.85-.12.34-.17.73-.17 1.17 0 .44.05.83.17 1.17.12.33.28.62.48.85.2.22.45.4.72.52.28.12.57.18.88.18zm4.9-6.35h1.7l2.2 5.86h.04L23.9 43h1.7v7.23h-1.2V44.5l-2.17 5.73h-1.1l-2.18-5.74v5.73h-1.2V43zm11.64 7.4c-.33 0-.64-.05-.93-.12-.3-.07-.54-.18-.76-.35-.2-.16-.38-.37-.5-.63-.13-.25-.2-.56-.2-.93 0-.4.07-.74.2-1 .15-.27.34-.48.57-.64.23-.17.5-.3.78-.37.3-.1.6-.16.9-.2.33-.08.64-.13.94-.16.28-.03.54-.08.76-.14.23-.06.4-.15.53-.27.12-.12.2-.3.2-.52 0-.26-.06-.47-.16-.63-.1-.16-.22-.28-.38-.36-.15-.1-.32-.15-.5-.18-.2-.03-.4-.04-.58-.04-.5 0-.92.1-1.26.28-.34.2-.52.56-.55 1.1h-1.2c.03-.46.13-.84.3-1.14.16-.3.4-.56.67-.75.28-.2.6-.33.96-.42.35-.08.74-.12 1.15-.12.33 0 .65.02.97.07.33.04.62.14.88.3.26.13.47.33.63.6.16.26.24.6.24 1.02v3.72c0 .28 0 .5.05.62.03.13.14.2.32.2.1 0 .2-.03.37-.08v.93c-.2.13-.48.2-.85.2-.3 0-.55-.1-.73-.27-.18-.17-.27-.46-.27-.85-.33.4-.7.68-1.14.85-.43.17-.9.26-1.4.26zm.26-1.05c.4 0 .73-.05 1-.16.3-.12.52-.25.7-.42.18-.16.3-.34.4-.53.07-.2.12-.37.12-.54v-1.2c-.15.12-.35.2-.6.25-.23.04-.5.1-.76.12-.26.04-.53.08-.8.12-.27.02-.5.1-.73.18-.22.1-.4.23-.53.4-.14.17-.2.4-.2.7 0 .2.03.37.1.5.1.14.2.25.32.33.12.1.26.16.43.2.17.03.35.05.53.05zM34.9 43h1.2v2.88h3.67V43h1.2v7.23h-1.2V46.9H36.1v3.33h-1.2V43zm7 6.18h.85c.1-.2.2-.46.32-.8.1-.34.2-.72.3-1.14.08-.4.15-.85.2-1.32.07-.46.1-.92.1-1.37V43h5.23v6.18h.98v3.25h-1.13v-2.2h-5.72v2.2H41.9v-3.25zm5.8 0v-5.13h-2.87v.6c0 .47-.03.92-.08 1.38-.05.45-.12.88-.2 1.28-.1.4-.18.77-.28 1.1-.1.33-.2.6-.28.78h3.7zM51 43h1.2v2.77h2.23c.7 0 1.28.2 1.7.58.44.4.65.93.65 1.63 0 .68-.2 1.23-.6 1.64-.42.4-.98.6-1.7.6H51V43zm3.05 6.18c1 0 1.5-.4 1.5-1.2 0-.8-.5-1.2-1.5-1.2H52.2v2.4h1.85zM57.93 43h1.2v7.23h-1.2V43zm8.83 10c-.33-.53-.64-1.05-.9-1.57-.28-.52-.5-1.04-.7-1.57-.2-.54-.34-1.08-.44-1.64-.1-.56-.15-1.15-.15-1.77 0-1.1.18-2.2.55-3.33.37-1.12.92-2.16 1.64-3.12h.9c-.66 1.06-1.13 2.12-1.4 3.16-.3 1.05-.43 2.15-.43 3.3 0 1.17.14 2.3.42 3.34.3 1.05.76 2.12 1.42 3.2h-.9zm.82-3.82h.85c.1-.2.2-.46.3-.8.12-.34.22-.72.3-1.14.1-.4.17-.85.23-1.32.05-.46.08-.92.08-1.37V43h5.24v6.18h.98v3.25h-1.14v-2.2h-5.7v2.2h-1.14v-3.25zm5.8 0v-5.13H70.5v.6c0 .47-.02.92-.08 1.38-.05.45-.1.88-.2 1.28-.08.4-.17.77-.27 1.1-.1.33-.2.6-.3.78h3.74zm6.42 1.2c-.58 0-1.1-.1-1.52-.28-.44-.2-.8-.46-1.1-.8-.3-.34-.52-.74-.67-1.2-.14-.45-.22-.95-.22-1.48s.08-1.03.23-1.5c.16-.45.38-.85.68-1.2.3-.33.66-.6 1.1-.8.43-.2.94-.3 1.52-.3.57 0 1.07.1 1.5.3.45.2.82.47 1.12.8.3.35.52.75.67 1.2.14.47.2.97.2 1.5s-.06 1.03-.2 1.5c-.16.44-.4.84-.68 1.18-.3.34-.67.6-1.1.8-.45.2-.95.3-1.52.3zm0-1.03c.3 0 .6-.06.87-.18.28-.12.52-.3.72-.52.2-.23.36-.52.48-.86.1-.35.17-.74.17-1.18 0-.44-.06-.83-.17-1.17-.12-.34-.28-.62-.5-.86-.2-.24-.43-.42-.7-.54-.28-.12-.57-.18-.88-.18-.3 0-.6.06-.88.18-.27.12-.5.3-.72.53-.2.23-.36.5-.48.85-.12.34-.18.73-.18 1.17 0 .44.06.83.18 1.17.12.33.28.62.48.85.2.22.45.4.72.52.28.12.57.18.88.18zm12.9.88h-1.2v-7.1h-2.57v-.96c.33 0 .66-.03.98-.08.32-.06.6-.15.87-.3.25-.13.47-.33.65-.57.18-.24.3-.55.36-.92h.9v9.93zm9.37-8.7h-4l-.53 2.85.02.03c.22-.23.5-.4.84-.53.34-.12.68-.17 1-.17.45 0 .87.07 1.26.2.4.15.73.36 1.02.64.3.3.52.64.7 1.07.15.43.24.93.24 1.5 0 .42-.07.83-.22 1.22-.14.4-.36.75-.65 1.06-.3.3-.65.55-1.08.73-.44.2-.95.3-1.52.3-.43 0-.84-.07-1.22-.2-.37-.13-.7-.3-1-.55-.3-.24-.5-.53-.68-.9-.17-.34-.26-.74-.27-1.2h1.2c0 .26.07.5.18.72.1.22.25.4.44.57.18.16.4.3.64.38.25.1.52.13.82.13.28 0 .55-.05.8-.15.26-.1.48-.24.67-.44.2-.2.35-.44.46-.73.1-.3.16-.64.16-1.03 0-.33-.06-.63-.16-.9-.1-.28-.26-.52-.46-.72-.2-.2-.43-.35-.7-.47-.28-.1-.6-.15-.92-.15-.4 0-.74.08-1.05.26-.3.18-.57.4-.8.68l-1.02-.05.92-5.15h4.9v1.05zm10.33 5.76c-.2.1-.5.18-.9.26-.37.08-.78.13-1.2.13-.9 0-1.53-.2-1.9-.6-.4-.38-.6-.93-.6-1.63V43h1.2v2.28c0 .47.1.83.33 1.05.22.23.62.35 1.2.35.35 0 .7-.04 1.05-.1.34-.1.62-.17.82-.27V43h1.2v7.23h-1.2V47.3zm6.07 3.1c-.58 0-1.1-.1-1.52-.3-.44-.18-.8-.44-1.1-.78-.28-.33-.5-.73-.64-1.2-.13-.47-.2-.98-.2-1.53s.08-1.05.25-1.5c.16-.47.4-.87.7-1.2.3-.34.67-.6 1.08-.8.42-.18.87-.27 1.37-.27.64 0 1.17.13 1.6.4.42.26.76.6 1.02 1 .26.42.44.87.53 1.36.1.47.14.93.12 1.37h-5.42c0 .32.03.62.12.9.08.3.22.54.4.76.2.22.43.4.72.53.28.13.62.2 1 .2.5 0 .92-.12 1.25-.36.32-.23.53-.6.63-1.06h1.18c-.16.82-.5 1.43-1.05 1.84-.53.4-1.2.6-2.03.6zm1.94-4.48c0-.28-.07-.54-.18-.8-.1-.25-.25-.46-.43-.65-.2-.18-.4-.32-.66-.43-.24-.1-.52-.16-.8-.16-.32 0-.6.05-.85.16-.25.1-.47.25-.64.44-.18.2-.32.4-.42.65-.1.25-.17.5-.2.8h4.17zm2.45 4.4c-.12 0-.25 0-.38-.04-.13-.02-.24-.04-.32-.06v-1.05c.1.03.18.05.26.06.1 0 .16 0 .24 0 .3 0 .54-.1.7-.35.17-.25.3-.62.37-1.12.1-.5.14-1.15.16-1.94 0-.8.03-1.73.05-2.82h5.1v7.23h-1.2v-6.18h-2.74c-.03.85-.06 1.65-.1 2.4-.02.77-.1 1.44-.24 2-.13.58-.34 1.03-.63 1.36-.3.35-.7.52-1.25.52zm11.06.07c-.57 0-1.08-.1-1.5-.3-.45-.2-.8-.46-1.1-.8-.3-.34-.53-.74-.68-1.2-.15-.45-.23-.95-.23-1.48s.07-1.03.22-1.5c.15-.45.37-.85.67-1.2.3-.33.65-.6 1.1-.8.42-.2.93-.3 1.5-.3.58 0 1.08.1 1.52.3.44.2.8.47 1.1.8.3.35.53.75.68 1.2.15.47.22.97.22 1.5s-.07 1.03-.22 1.5c-.15.44-.38.84-.67 1.18-.3.34-.67.6-1.1.8-.45.2-.95.3-1.52.3zm0-1.05c.32 0 .6-.06.88-.18s.52-.3.72-.52c.2-.23.37-.52.5-.86.1-.35.16-.74.16-1.18 0-.44-.06-.83-.17-1.17-.13-.34-.3-.62-.5-.86s-.44-.42-.72-.54c-.27-.12-.56-.18-.87-.18-.3 0-.6.06-.87.18s-.5.3-.72.53c-.2.23-.35.5-.47.85-.12.34-.18.73-.18 1.17 0 .44.06.83.18 1.17.12.33.28.62.48.85.22.22.46.4.73.52.28.12.57.18.88.18zm4.92-6.35h3.35c.32 0 .62.02.92.07.28.04.54.13.78.26.23.12.42.3.56.53.14.24.2.54.2.9 0 .4-.1.7-.27.95-.2.25-.45.46-.8.6v.03c.43.08.77.28 1 .6.26.3.38.7.38 1.18 0 .3-.05.6-.16.86-.1.26-.27.5-.46.67-.2.2-.43.34-.7.44-.27.1-.57.16-.88.16h-3.94V43zm3.7 6.23c.4 0 .7-.12.9-.35.2-.23.3-.5.3-.86 0-.32-.1-.6-.32-.78-.2-.2-.57-.3-1.08-.3H140v2.3h2.53zm-.48-3.27c.52 0 .87-.1 1.07-.28.2-.18.3-.43.3-.74 0-.3-.08-.53-.28-.7-.2-.15-.56-.24-1.08-.24H140v1.96h2.04zm7.42 4.43c-.58 0-1.08-.1-1.52-.3-.43-.18-.8-.44-1.08-.78-.3-.33-.5-.73-.65-1.2-.14-.47-.2-.98-.2-1.53s.07-1.05.24-1.5c.17-.47.4-.87.7-1.2.3-.34.67-.6 1.1-.8.4-.18.86-.27 1.35-.27.64 0 1.17.13 1.6.4.42.26.76.6 1.02 1 .25.42.43.87.53 1.36.1.47.14.93.12 1.37h-5.42c0 .32.03.62.1.9.1.3.23.54.42.76.18.22.42.4.7.53.3.13.64.2 1.03.2.5 0 .92-.12 1.24-.36.33-.23.54-.6.64-1.06h1.18c-.16.82-.5 1.43-1.05 1.84-.54.4-1.22.6-2.04.6zm1.95-4.48c0-.28-.07-.54-.18-.8-.1-.25-.25-.46-.44-.65-.18-.18-.4-.32-.64-.43-.25-.1-.52-.16-.82-.16-.3 0-.58.05-.83.16-.26.1-.47.25-.65.44-.18.2-.32.4-.42.65-.1.25-.16.5-.18.8h4.16zm2.5-2.92h1.2v3.45l3.3-3.45h1.6l-3.22 3.13 3.6 4.1h-1.54l-3.02-3.44-.73.7v2.73h-1.2V43zm6.34 10c.66-1.06 1.14-2.1 1.42-3.16s.42-2.15.42-3.3c0-1.16-.15-2.28-.43-3.34-.3-1.06-.75-2.13-1.4-3.2h.9c.32.52.63 1.04.9 1.56s.5 1.05.7 1.58c.18.54.33 1.1.43 1.65.1.55.16 1.14.16 1.75 0 1.1-.2 2.2-.56 3.33-.37 1.1-.9 2.15-1.64 3.1h-.9zm4.92-4.32h1.55v1.4c0 .55-.1 1-.35 1.4-.25.37-.64.64-1.18.8v-.7c.16-.06.3-.14.4-.25.1-.1.2-.22.26-.35.06-.12.1-.25.13-.38.02-.13.03-.25.02-.37h-.82v-1.55zm11.85-1.4c-.2.1-.5.2-.88.28-.38.08-.8.13-1.2.13-.9 0-1.54-.2-1.92-.6-.4-.38-.58-.93-.58-1.63V43h1.2v2.28c0 .47.1.83.32 1.05.22.23.62.35 1.2.35.35 0 .7-.04 1.05-.1.33-.1.6-.17.8-.27V43h1.2v7.23H177V47.3zm5 3.1c-.33 0-.64-.03-.93-.1-.3-.07-.54-.18-.76-.35-.2-.16-.38-.37-.5-.63-.13-.25-.2-.56-.2-.93 0-.4.07-.74.2-1 .15-.27.34-.48.57-.64.23-.17.5-.3.78-.37.3-.1.6-.16.9-.2.33-.08.64-.13.94-.16.28-.03.54-.08.76-.14.23-.06.4-.15.53-.27.12-.12.2-.3.2-.52 0-.26-.06-.47-.16-.63-.1-.16-.22-.28-.38-.36-.15-.1-.32-.15-.5-.18-.2-.03-.4-.04-.58-.04-.5 0-.92.1-1.26.28-.34.2-.52.56-.55 1.1h-1.2c.03-.46.13-.84.3-1.14.16-.3.4-.56.67-.75.28-.2.6-.33.95-.42.35-.08.74-.12 1.15-.12.33 0 .65.02.97.07.33.04.62.14.88.3.26.13.47.33.63.6.16.26.24.6.24 1.02v3.72c0 .28 0 .5.05.62.03.13.14.2.32.2.1 0 .2-.03.37-.08v.93c-.2.13-.48.2-.85.2-.3 0-.55-.1-.73-.27-.18-.17-.27-.46-.27-.85-.33.4-.7.68-1.15.85-.43.17-.9.26-1.4.26zm.26-1.03c.4 0 .73-.05 1-.16.3-.12.52-.25.7-.42.18-.16.3-.34.4-.53.07-.2.12-.37.12-.54v-1.2c-.15.12-.35.2-.6.25-.23.04-.5.1-.75.12-.27.04-.54.08-.8.12-.28.02-.52.1-.74.18-.22.1-.4.23-.53.4-.14.17-.2.4-.2.7 0 .2.03.37.1.5.1.14.2.25.32.33.12.1.26.16.43.2.17.03.35.05.53.05zm14.63.88h-9.4V43h1.2v6.18h3V43h1.18v6.18h2.98V43h1.2v6.18h.97v3.25h-1.14v-2.2zm5.33.16c-.58 0-1.1-.1-1.52-.3-.43-.18-.8-.44-1.08-.78-.3-.33-.5-.73-.65-1.2-.14-.47-.2-.98-.2-1.53s.07-1.05.24-1.5c.18-.47.4-.87.72-1.2.3-.34.66-.6 1.07-.8.4-.18.86-.27 1.36-.27.64 0 1.18.13 1.6.4.43.26.77.6 1.02 1 .26.42.44.87.53 1.36.1.47.15.93.13 1.37h-5.4c-.02.32 0 .62.1.9.08.3.22.54.4.76.2.22.43.4.72.53.3.13.63.2 1.02.2.5 0 .92-.12 1.24-.36.33-.23.54-.6.65-1.06h1.17c-.16.82-.5 1.43-1.05 1.84-.54.4-1.22.6-2.04.6zm1.94-4.48c0-.28-.08-.54-.18-.8-.12-.25-.27-.46-.45-.65-.18-.18-.4-.32-.64-.43-.24-.1-.5-.16-.8-.16-.32 0-.6.05-.84.16-.25.1-.46.25-.64.44-.18.2-.32.4-.42.65-.1.25-.17.5-.18.8h4.15zm6.4-2.92h3.33c.32 0 .63.02.92.07.3.04.56.13.8.26.23.12.4.3.55.53.14.24.2.54.2.9 0 .4-.08.7-.27.95-.18.25-.45.46-.78.6v.03c.42.08.75.28 1 .6.25.3.37.7.37 1.18 0 .3-.06.6-.17.86-.1.26-.26.5-.46.67-.2.2-.43.34-.7.44-.27.1-.56.16-.88.16h-3.94V43zm3.7 6.23c.4 0 .7-.12.9-.35.2-.23.3-.5.3-.86 0-.32-.12-.6-.33-.78-.22-.2-.58-.3-1.08-.3h-2.33v2.3h2.54zm-.5-3.27c.52 0 .88-.1 1.08-.28.2-.18.3-.43.3-.74 0-.3-.1-.53-.3-.7-.2-.15-.55-.24-1.07-.24h-2.05v1.96h2.05zm7.34 4.43c-.54 0-1.02-.1-1.45-.28-.42-.18-.78-.43-1.06-.75-.3-.33-.5-.72-.66-1.17-.14-.44-.2-.94-.2-1.5 0-.54.06-1.04.2-1.5.14-.48.35-.9.63-1.25.3-.35.64-.62 1.07-.82.42-.2.92-.3 1.5-.3.4 0 .8.05 1.16.15.36.1.67.24.95.45.27.2.5.46.68.78.18.32.3.7.33 1.12h-1.23c-.1-.46-.3-.8-.6-1.06-.28-.26-.7-.38-1.2-.38-.42 0-.78.08-1.07.24-.3.15-.52.36-.7.63-.16.26-.3.56-.36.9-.08.34-.1.7-.1 1.06 0 .34.03.67.1 1 .08.3.2.6.38.83.16.25.38.45.65.6.26.15.6.22.97.22.6 0 1.05-.15 1.38-.46.33-.32.53-.75.6-1.3h1.23c-.12.9-.46 1.6-1 2.07-.52.48-1.25.72-2.2.72zm7.62 0c-.58 0-1.1-.1-1.52-.3-.44-.18-.8-.44-1.1-.78-.28-.33-.5-.73-.64-1.2s-.22-.98-.22-1.53.1-1.05.26-1.5c.16-.47.4-.87.7-1.2.3-.34.67-.6 1.08-.8.42-.18.87-.27 1.37-.27.64 0 1.17.13 1.6.4.42.26.76.6 1.02 1 .26.42.44.87.53 1.36.1.47.14.93.12 1.37h-5.42c0 .32.03.62.12.9.08.3.22.54.4.76.2.22.43.4.72.53.3.13.63.2 1.02.2.5 0 .9-.12 1.24-.36.32-.23.53-.6.63-1.06h1.18c-.15.82-.5 1.43-1.04 1.84-.54.4-1.22.6-2.04.6zm1.94-4.48c-.02-.28-.08-.54-.2-.8-.1-.25-.24-.46-.42-.65-.18-.18-.4-.32-.64-.43-.25-.1-.53-.16-.82-.16-.3 0-.6.05-.84.16-.24.1-.46.25-.63.44-.17.2-.3.4-.4.65-.12.25-.18.5-.2.8h4.16zm2.52-2.92h4.96v1.05h-3.77v6.18h-1.2V43zm9.03 7.4c-.57 0-1.07-.1-1.5-.3-.44-.2-.8-.46-1.1-.8-.3-.34-.53-.74-.68-1.2-.15-.45-.22-.95-.22-1.48s.07-1.03.22-1.5c.15-.45.38-.85.67-1.2.3-.33.66-.6 1.1-.8.43-.2.93-.3 1.5-.3.58 0 1.1.1 1.52.3.44.2.8.47 1.1.8.3.35.53.75.68 1.2.15.47.23.97.23 1.5s-.08 1.03-.23 1.5c-.15.44-.37.84-.67 1.18-.3.34-.67.6-1.1.8-.44.2-.95.3-1.52.3zm0-1.05c.32 0 .6-.06.9-.18.26-.12.5-.3.7-.52.2-.23.37-.52.5-.86.1-.35.17-.74.17-1.18 0-.44-.06-.83-.18-1.17-.13-.34-.3-.62-.5-.86s-.44-.42-.7-.54c-.3-.12-.58-.18-.9-.18-.3 0-.6.06-.86.18-.28.12-.52.3-.72.53-.2.23-.37.5-.5.85-.1.34-.16.73-.16 1.17 0 .44.06.83.17 1.17.12.33.28.62.5.85.2.22.43.4.7.52.28.12.57.18.88.18zm11.48 1.04c-.96 0-1.7-.23-2.26-.66-.54-.43-.83-1.04-.88-1.83h1.2c.04.54.24.92.6 1.16.35.23.8.35 1.32.35.57 0 1-.1 1.32-.36.3-.24.46-.55.46-.92 0-.36-.1-.65-.35-.85-.24-.2-.64-.3-1.2-.3h-.96v-.98h.77c.43 0 .8-.1 1.08-.27.3-.17.45-.47.45-.9 0-.27-.13-.5-.38-.7-.26-.22-.64-.32-1.14-.32-.2 0-.42.03-.63.08-.2.04-.4.12-.57.22-.17.1-.3.24-.42.4-.1.18-.18.38-.2.62h-1.2c.02-.44.12-.8.3-1.1.2-.3.43-.54.7-.7.3-.18.6-.3.96-.38.36-.07.72-.1 1.08-.1.37 0 .72.03 1.05.1.33.07.6.2.86.36.25.16.44.36.6.6.13.25.2.54.2.87 0 .42-.1.76-.35 1.03-.24.26-.5.42-.8.5.16.04.33.1.5.18.17.1.32.2.45.35.13.14.23.32.32.53.08.2.12.45.12.73 0 .38-.08.72-.25 1-.17.3-.4.54-.67.73-.28.18-.6.32-.96.42-.37.1-.74.14-1.12.14zm6.42 0c-.32 0-.63-.05-.92-.12-.3-.07-.54-.18-.76-.35-.22-.16-.4-.37-.52-.63-.13-.25-.2-.56-.2-.93 0-.4.08-.74.22-1 .14-.27.32-.48.55-.64.23-.17.5-.3.8-.37.28-.1.58-.16.9-.2.32-.08.63-.13.92-.16.3-.03.54-.08.77-.14.22-.06.4-.15.53-.27.13-.12.2-.3.2-.52 0-.26-.05-.47-.15-.63-.1-.16-.22-.28-.38-.36-.15-.1-.33-.15-.52-.18-.2-.03-.38-.04-.56-.04-.52 0-.94.1-1.27.28-.34.2-.52.56-.55 1.1h-1.2c.03-.46.12-.84.3-1.14.16-.3.38-.56.66-.75.28-.2.6-.33.96-.42.36-.08.75-.12 1.16-.12.32 0 .65.02.97.07.32.04.6.14.87.3.27.13.48.33.63.6.16.26.24.6.24 1.02v3.72c0 .28.02.5.05.62.03.13.14.2.33.2.08 0 .2-.03.36-.08v.93c-.2.13-.48.2-.84.2-.3 0-.55-.1-.74-.27-.18-.17-.27-.46-.27-.85-.32.4-.7.68-1.14.85-.42.17-.9.26-1.4.26zm.27-1.05c.4 0 .73-.05 1-.16.3-.12.52-.25.7-.42.17-.16.3-.34.4-.53.07-.2.1-.37.1-.54v-1.2c-.14.12-.33.2-.58.25-.25.04-.5.1-.77.12-.27.04-.53.08-.8.12-.27.02-.52.1-.73.18-.22.1-.4.23-.53.4s-.2.4-.2.7c0 .2.04.37.12.5.07.14.17.25.3.33.12.1.27.16.44.2.17.03.34.05.53.05zm5.25-6.35h1.2v2.88h3.66V43h1.2v7.23h-1.2V46.9h-3.67v3.33h-1.18V43zm9.37 4.4c-.53-.07-.95-.3-1.27-.7-.33-.4-.5-.88-.5-1.48 0-.68.2-1.22.62-1.62.4-.4.95-.6 1.65-.6h3.67v7.23h-1.2v-2.78h-1.57l-2.2 2.78h-1.6l2.4-2.82zm2.98-.97v-2.38h-2.1c-.5 0-.87.1-1.1.32-.2.2-.33.5-.33.87s.12.66.34.87c.2.22.58.33 1.08.33h2.1zm4.73-2.38h-2.58V43h6.37v1.05h-2.6v6.18h-1.2v-6.18zm4.75-1.05h1.2v2.77h2.23c.7 0 1.27.2 1.7.58.43.4.65.93.65 1.63 0 .68-.2 1.23-.62 1.64-.4.4-.96.6-1.67.6h-3.48V43zm3.05 6.18c1 0 1.5-.4 1.5-1.2 0-.8-.5-1.2-1.5-1.2h-1.86v2.4h1.86zm3.88-6.18h1.2v7.23h-1.2V43zm6.06 7.4c-.58 0-1.1-.1-1.52-.3-.44-.18-.8-.44-1.1-.78-.28-.33-.5-.73-.64-1.2s-.2-.98-.2-1.53.07-1.05.24-1.5c.17-.47.4-.87.7-1.2.3-.34.67-.6 1.08-.8.42-.18.87-.27 1.37-.27.64 0 1.18.13 1.6.4.43.26.77.6 1.02 1 .25.42.43.87.52 1.36.1.47.14.93.12 1.37h-5.4c-.02.32 0 .62.1.9.08.3.22.54.4.76.2.22.43.4.72.53.3.13.63.2 1.02.2.5 0 .92-.12 1.24-.36.32-.23.53-.6.64-1.06h1.17c-.16.82-.5 1.43-1.05 1.84-.54.4-1.22.6-2.04.6zm1.94-4.48c0-.28-.08-.54-.2-.8-.1-.25-.24-.46-.42-.65-.18-.18-.4-.32-.64-.43-.25-.1-.52-.16-.82-.16-.3 0-.6.05-.84.16-.24.1-.45.25-.63.44-.18.2-.32.4-.42.65-.1.25-.16.5-.17.8h4.15zm6.4-2.92h3.33c.33 0 .64.02.93.07.3.04.56.13.8.26.23.12.4.3.55.53.14.24.2.54.2.9 0 .4-.08.7-.27.95-.17.25-.44.46-.77.6v.03c.42.08.75.28 1 .6.25.3.37.7.37 1.18 0 .3-.05.6-.16.86-.1.26-.26.5-.46.67-.2.2-.43.34-.7.44-.27.1-.56.16-.88.16h-3.93V43zm3.7 6.23c.4 0 .7-.12.9-.35.2-.23.3-.5.3-.86 0-.32-.12-.6-.33-.78-.22-.2-.58-.3-1.08-.3h-2.33v2.3h2.54zm-.5-3.27c.52 0 .88-.1 1.08-.28.2-.18.3-.43.3-.74 0-.3-.1-.53-.3-.7-.2-.15-.55-.24-1.07-.24h-2.06v1.96H312zm11.24 4.43c-.55 0-1.04-.1-1.47-.28-.42-.18-.78-.43-1.06-.75-.3-.33-.5-.72-.65-1.17-.15-.44-.22-.94-.22-1.5 0-.54.07-1.04.2-1.5.15-.48.36-.9.65-1.25.28-.35.63-.62 1.06-.82.42-.2.93-.3 1.5-.3.4 0 .8.05 1.16.15.36.1.68.24.95.45.28.2.5.46.68.78.18.32.3.7.34 1.12h-1.24c-.1-.46-.3-.8-.58-1.06-.3-.26-.7-.38-1.2-.38-.44 0-.8.08-1.1.24-.28.15-.5.36-.68.63-.17.26-.3.56-.37.9-.07.34-.1.7-.1 1.06 0 .34.03.67.1 1 .1.3.2.6.38.83.17.25.38.45.65.6.27.15.6.22.97.22.6 0 1.05-.15 1.38-.46.33-.32.54-.75.6-1.3h1.23c-.12.9-.45 1.6-1 2.07-.52.48-1.25.72-2.18.72zm8.63-.7c-.08.07-.18.16-.3.24-.13.08-.25.16-.4.22-.12.07-.26.12-.4.17-.15.04-.3.06-.44.06-.53 0-.98-.12-1.35-.33-.37-.22-.67-.5-.9-.87-.23-.35-.4-.77-.5-1.23-.1-.47-.15-.96-.15-1.46 0-1.15.25-2.05.76-2.7.5-.65 1.2-.97 2.06-.97.15 0 .3.02.46.07.17.04.32.1.47.18.14.07.28.16.4.25.13.1.23.2.3.28v-3.36h1.18v3.37c.07-.08.17-.17.3-.27.12-.1.25-.18.4-.25.15-.07.3-.14.46-.18.15-.05.3-.07.47-.07.87 0 1.55.32 2.06.97.5.65.75 1.55.75 2.7 0 .5-.05 1-.15 1.47-.1.46-.27.88-.5 1.23-.23.36-.53.65-.9.87-.36.2-.82.32-1.36.32-.27 0-.56-.08-.86-.23-.3-.14-.52-.3-.67-.48V53h-1.18v-3.3zm-1.4-.3c.37 0 .68-.08.94-.27.25-.18.4-.4.45-.66v-3.64c-.05-.2-.14-.36-.25-.48-.1-.13-.23-.23-.37-.3-.13-.1-.28-.15-.43-.18-.15-.03-.3-.05-.42-.05-.3 0-.57.07-.8.2-.2.14-.4.33-.53.56-.15.24-.25.53-.32.87-.06.33-.1.7-.1 1.1 0 .32.03.66.1 1 .04.34.14.65.27.93.14.27.32.5.56.67.23.17.53.26.9.26zm3.98 0c.36 0 .66-.08.9-.25.23-.17.4-.4.55-.67.13-.28.23-.6.3-.93.04-.34.07-.68.07-1 0-.4-.03-.77-.1-1.1-.06-.34-.17-.63-.3-.87-.16-.23-.34-.42-.56-.55-.23-.14-.5-.2-.8-.2-.13 0-.27 0-.42.04-.15.03-.3.1-.43.17-.13.08-.26.18-.37.3-.1.13-.2.3-.25.5v3.63c.05.26.2.48.46.66.25.2.57.28.93.28zm7.6 1c-.6 0-1.1-.1-1.53-.3-.44-.18-.8-.44-1.1-.78-.28-.33-.5-.73-.64-1.2s-.2-.98-.2-1.53.07-1.05.24-1.5c.17-.47.4-.87.7-1.2.3-.34.67-.6 1.08-.8.42-.18.87-.27 1.37-.27.64 0 1.18.13 1.6.4.43.26.77.6 1.02 1 .26.42.44.87.54 1.36.1.47.14.93.12 1.37h-5.4c-.02.32 0 .62.1.9.08.3.22.54.4.76.2.22.43.4.72.53.3.13.63.2 1.02.2.5 0 .92-.12 1.24-.36.32-.23.53-.6.64-1.06h1.17c-.15.82-.5 1.43-1.04 1.84-.54.4-1.22.6-2.04.6zm1.93-4.48c0-.28-.08-.54-.2-.8-.1-.25-.24-.46-.42-.65-.18-.18-.4-.32-.64-.43-.25-.1-.52-.16-.82-.16-.3 0-.6.05-.83.16-.25.1-.46.25-.64.44-.17.2-.3.4-.4.65-.1.25-.18.5-.2.8h4.16zM346.5 43h1.2v.98h.02c.2-.4.5-.7.92-.88.42-.18.88-.27 1.4-.27.55 0 1.03.1 1.45.3.4.2.75.5 1.02.84.28.35.5.75.63 1.2.14.47.2.95.2 1.47s-.06 1-.2 1.46c-.13.45-.34.85-.6 1.2-.3.33-.63.6-1.05.8-.4.2-.9.3-1.45.3-.18 0-.38-.03-.6-.07-.2-.04-.43-.1-.64-.18-.2-.08-.4-.2-.6-.34-.2-.14-.35-.32-.48-.53h-.03V53h-1.2V43zm3.43 6.35c.4 0 .74-.08 1.02-.24.28-.14.5-.35.67-.62.17-.26.3-.56.37-.9.06-.33.1-.67.1-1.03 0-.33-.05-.66-.14-.98-.08-.33-.22-.6-.4-.87-.18-.25-.42-.45-.7-.6-.3-.15-.62-.22-1-.22-.4 0-.74.08-1.02.24-.28.15-.5.36-.7.62-.17.26-.3.55-.38.87-.07.34-.1.67-.1 1 0 .36.03.7.1 1.04.1.33.23.62.4.87.2.26.43.47.72.62.3.16.64.23 1.05.23zm7.9 1.04c-.57 0-1.08-.1-1.5-.3-.45-.18-.8-.44-1.1-.78-.3-.33-.5-.73-.65-1.2-.14-.47-.2-.98-.2-1.53s.07-1.05.24-1.5c.17-.47.4-.87.7-1.2.3-.34.67-.6 1.08-.8.42-.18.87-.27 1.37-.27.64 0 1.18.13 1.6.4.43.26.77.6 1.02 1 .25.42.43.87.53 1.36.1.47.13.93.1 1.37h-5.4c0 .32.02.62.1.9.1.3.23.54.4.76.2.22.44.4.73.53.3.13.63.2 1.02.2.5 0 .92-.12 1.24-.36.32-.23.53-.6.64-1.06h1.17c-.16.82-.5 1.43-1.05 1.84-.54.4-1.22.6-2.04.6zm1.95-4.48c0-.28-.08-.54-.18-.8-.1-.25-.26-.46-.44-.65-.18-.18-.4-.32-.64-.43-.25-.1-.52-.16-.82-.16-.3 0-.6.05-.83.16-.25.1-.46.25-.64.44-.18.2-.32.4-.42.65-.1.25-.16.5-.17.8h4.15zm6.64-5.68h1.33v10h-1.33v-10zm5.84 1.12h-3.33v-1.12h8v1.12h-3.34v8.87h-1.34v-8.87zm4.28 7.32h1.56v1.55h-1.56v-1.55z"/><text fill="#fff" font-family="HelveticaNeue, Helvetica Neue" font-size="14" transform="translate(1)"><tspan x="0" y="215"></tspan><tspan x="0" y="235">( 15 )</tspan></text><text fill="#fff" font-family="HelveticaNeue, Helvetica Neue" font-size="14" transform="translate(1)"><tspan x="212" y="215"> </tspan><tspan x="212" y="235"> </tspan></text><text fill="#fff" font-family="HelveticaNeue, Helvetica Neue" font-size="14" transform="translate(1)"><tspan x="0" y="302"> </tspan><tspan x="0" y="322">  </tspan></text><text fill="#fff" font-family="HelveticaNeue, Helvetica Neue" font-size="14" transform="translate(1)"><tspan x="212" y="302"> </tspan><tspan x="212" y="322">  2</tspan></text><text fill="#FFBE02" font-family="HelveticaNeue-Bold, Helvetica Neue" font-size="18" font-weight="bold" transform="translate(1)"><tspan x="0" y="197">85%</tspan></text><text fill="#FFBE02" font-family="HelveticaNeue-Bold, Helvetica Neue" font-size="18" font-weight="bold" transform="translate(1)"><tspan x="212" y="197">3 </tspan></text><text fill="#FFBE02" font-family="HelveticaNeue-Bold, Helvetica Neue" font-size="18" font-weight="bold" transform="translate(1)"><tspan x="0" y="284">57%</tspan></text><text fill="#FFBE02" font-family="HelveticaNeue-Bold, Helvetica Neue" font-size="18" font-weight="bold" transform="translate(1)"><tspan x="212" y="284">50%</tspan></text><text fill="#fff" font-family="HelveticaNeue-Bold, Helvetica Neue" font-size="14" font-weight="bold" transform="translate(1)"><tspan x="0" y="154"> </tspan></text></g></g></svg>