<?xml version="1.0" ?><svg enable-background="new 0 0 500 500" id="Layer_1" version="1.1" viewBox="0 0 500 500" xml:space="preserve" xmlns="http://www.w3.org/2000/svg" xmlns:xlink="http://www.w3.org/1999/xlink"><g><g><path fill="#2ECC71" d="M154.2,366.8c-30.2,0-54.8-24.6-54.8-54.8c0-30.2,24.6-54.8,54.8-54.8s54.8,24.6,54.8,54.8    C208.9,342.3,184.4,366.8,154.2,366.8z M154.2,284.7c-15.1,0-27.4,12.3-27.4,27.4c0,15.1,12.3,27.4,27.4,27.4s27.4-12.3,27.4-27.4    C181.6,297,169.3,284.7,154.2,284.7z"/></g><g><path fill="#2ECC71" d="M222.6,407.9h-27.4c0-22.6-18.4-41.1-41.1-41.1s-41.1,18.4-41.1,41.1H85.7c0-37.7,30.7-68.4,68.4-68.4    S222.6,370.2,222.6,407.9z"/></g><g><path fill="#2ECC71" d="M345.8,366.8c-30.2,0-54.8-24.6-54.8-54.8c0-30.2,24.6-54.8,54.8-54.8c30.2,0,54.8,24.6,54.8,54.8    C400.6,342.3,376,366.8,345.8,366.8z M345.8,284.7c-15.1,0-27.4,12.3-27.4,27.4c0,15.1,12.3,27.4,27.4,27.4    c15.1,0,27.4-12.3,27.4-27.4C373.2,297,360.9,284.7,345.8,284.7z"/></g><g><path fill="#2ECC71" d="M414.3,407.9h-27.4c0-22.6-18.4-41.1-41.1-41.1c-22.6,0-41.1,18.4-41.1,41.1h-27.4c0-37.7,30.7-68.4,68.4-68.4    S414.3,370.2,414.3,407.9z"/></g><g><path fill="#2ECC71" d="M113.1,241.9v-39.3H85.7V93.1h205.3v109.5H172L113.1,241.9z M113.1,175.2h27.4v15.5l23.2-15.5h100v-54.8H113.1V175.2z"/></g><g><polygon fill="#2ECC71" points="386.9,304.1 326.5,243.7 222.6,243.7 222.6,188.9 250,188.9 250,216.3 337.8,216.3 359.5,238 359.5,216.3     386.9,216.3 386.9,147.8 277.4,147.8 277.4,120.5 414.3,120.5 414.3,243.7 386.9,243.7"/></g></g></svg>
