<svg xmlns="http://www.w3.org/2000/svg" width="30" height="29"><g fill="none"><g fill="#067BC6"><g><path d="M6.7 5.1h9.6c0-.66.05-1.32 0-1.97-.1-1.77 1.3-2.85 2.8-2.8 2.7.1 5.4.02 8.1.03 1.57 0 2.6 1 2.6 2.57 0 6.34 0 12.67 0 19 0 1.3-.76 2.04-1.88 2.44-.06.62-.07 1.23-.2 1.8-.28 1.16-1.2 1.9-2.37 2.05-.28.03-.56.05-.84.05-6.73 0-13.47 0-20.22 0-1.3 0-2.44-.33-3.04-1.6-.2-.46-.3-1-.3-1.5C.9 18.23.9 11.3.9 4.37c0-1.77 1.17-3 2.83-3.04C5.38 1.3 6.6 2.5 6.7 4.25c0 .28 0 .55 0 .86zm0 1.08V7c0 5.3 0 10.6 0 15.9 0 .23.03.46-.04.65-.06.15-.25.33-.4.34-.14 0-.35-.14-.45-.27-.08-.12-.1-.32-.1-.48-.16-.92-.98-1.63-1.9-1.62-.98 0-1.78.7-1.87 1.7-.05.58-.04 1.2-.04 1.8 0 1.57.7 2.27 2.27 2.27 6.8 0 13.62 0 20.42 0 1.76 0 2.6-1.08 2.17-2.9-.23 0-.5 0-.74 0-2.34 0-4.68.02-7.02 0-1.76 0-2.67-.94-2.7-2.7 0-.53 0-1.06 0-1.62-2.16 0-4.22 0-6.28 0-.47 0-.95.04-1.4-.02-.18-.03-.44-.27-.45-.43 0-.16.22-.38.4-.48.14-.1.37-.04.56-.04 2.15 0 4.3 0 6.44 0 .23 0 .46-.02.7-.03v-1.42c-.97 0-1.87.02-2.76-.02-.18 0-.43-.2-.5-.36-.05-.1.12-.4.26-.5.14-.1.37-.06.56-.06.8 0 1.62 0 2.45 0v-1.37c-.2 0-.37-.03-.53-.03-1.98 0-3.95 0-5.93 0-1.1-.02-1.66-.6-1.66-1.68 0-1.5 0-2.97 0-4.45 0-1 .6-1.6 1.6-1.6 1.95 0 3.9 0 5.86 0h.67v-1.4H6.7zM17.33 18.1h11.45V5.2H17.33v12.9zM5.7 21.26v-2.62c0-4.8 0-9.57 0-14.36 0-1.44-1.23-2.3-2.54-1.86-.85.3-1.27 1-1.27 2.16 0 5.34 0 10.7 0 16.03 0 .17.02.35.04.6 1.25-.83 2.46-.85 3.76.05zm11.6-2.1c0 1.06-.03 2.1.03 3.1.03.67.63 1.18 1.32 1.18 2.94.02 5.88.02 8.82 0 .64 0 1.2-.4 1.25-1 .1-1.07.03-2.16.03-3.27H17.3zm0-14.98h11.5c0-.48.03-.93 0-1.37-.04-.93-.5-1.4-1.45-1.45-.72-.04-1.46-.02-2.18-.02-2.1 0-4.17 0-6.25 0-1.17.02-1.62.5-1.63 1.68 0 .38 0 .74 0 1.17zm-8.14 9.88c2.15-.9 4.2-1.74 6.36-2.64-2.18-.88-4.23-1.72-6.36-2.6v5.25zm7.1-1.87c-1.63.67-3.2 1.33-4.8 1.98.02.03.03.07.05.1h4.77v-2.08zm-4.75-3.6c0 .05 0 .1 0 .14 1.57.64 3.15 1.3 4.77 1.95V8.6H11.5z"/><path d="M9.77 17.66c-.4 0-.78.04-1.16-.02-.16-.03-.3-.27-.46-.42.16-.16.3-.46.48-.47.8-.05 1.63-.05 2.44 0 .15 0 .4.3.4.45 0 .15-.25.4-.4.43-.43.07-.87.02-1.3.02"/><path d="M23 12.37c-1.2 0-2.4 0-3.6 0-.8 0-1.13-.3-1.15-1.13-.02-1.37 0-2.75 0-4.12 0-.6.35-.97.96-.97 2.57-.02 5.12-.02 7.67 0 .67 0 .98.34.98 1 .02 1.4.02 2.8 0 4.2 0 .68-.34 1-1.05 1-1.26.03-2.53.02-3.8.02zm-3.75-4.85v3.46c.97-.6 1.87-1.13 2.85-1.73-1-.6-1.88-1.14-2.85-1.73zm7.58 3.46V7.52c-.97.6-1.85 1.14-2.83 1.74 1 .6 1.87 1.14 2.83 1.72zM20.7 7.1c0 .04-.02.08-.03.1.72.46 1.44.92 2.17 1.36.1.06.26.1.35.04.76-.46 1.53-.93 2.45-1.5H20.7zm4.93 4.3c-.9-.54-1.62-1-2.35-1.42-.1-.06-.3-.08-.4-.02-.76.44-1.5.9-2.38 1.44h5.13z"/><path d="M23.22 16.22c-1.26 0-2.53 0-3.8 0-.35 0-.7-.05-.7-.48.02-.42.37-.46.7-.46 2.6 0 5.17 0 7.75 0 .34 0 .7.03.68.48 0 .44-.35.47-.7.46-1.3 0-2.62 0-3.93 0"/><path d="M25.2 14.3c-.67 0-1.33.03-2-.03-.2-.02-.4-.3-.62-.45.2-.16.42-.44.64-.45 1.35-.04 2.7-.03 4.04 0 .2 0 .4.28.6.43-.2.16-.4.45-.6.47-.7.06-1.38.02-2.06.02"/><path d="M20.1 14.3c-.3 0-.62.04-.9-.03-.18-.05-.43-.26-.44-.42-.02-.15.23-.45.4-.46.67-.06 1.36-.06 2.04 0 .14 0 .4.27.37.4-.02.17-.22.43-.4.46-.34.07-.7.02-1.07.02"/><path d="M24.5 21.06c0 1.16-.28 1.45-1.42 1.46-1.2 0-1.48-.28-1.47-1.5 0-1.15.3-1.44 1.44-1.44 1.2 0 1.47.28 1.47 1.48zm-1.9.4h.88v-.82h-.88v.83z"/><path d="M23.02 3.22c-.32 0-.65.05-.96-.03-.17-.05-.4-.3-.4-.45 0-.16.25-.43.4-.44.67-.04 1.34-.04 2 0 .15.02.4.3.4.46 0 .15-.24.4-.42.44-.32.06-.68.02-1.02.02"/></g></g></g></svg>