<svg xmlns="http://www.w3.org/2000/svg" width="31" height="29"><g fill="none"><g fill="#067BC6"><g><path d="M28.38 22.92c1.08 0 1.96-.87 1.96-1.95v-8.94c0-1.08-.88-1.96-1.96-1.96H16.14v-.23c0-.3-.1-.58-.3-.8.14-.15.23-.35.27-.56.5-.3.83-.83.83-1.42 0-.28-.07-.55-.2-.8.13-.24.2-.5.2-.8 0-.58-.32-1.1-.8-1.4 0-.06 0-.12 0-.18 0-.83-.62-1.53-1.43-1.64-.3-.5-.83-.8-1.4-.8-.1 0-.17 0-.24 0-.33-.26-.74-.4-1.17-.4-.06 0-.12 0-.18 0-.35-.26-.78-.4-1.22-.4-.44 0-.86.14-1.22.4-.05 0-.1 0-.17 0-.4 0-.8.14-1.14.4-.53.05-1 .35-1.26.8-.8.1-1.43.8-1.43 1.64 0 .06 0 .12 0 .18-.48.3-.8.82-.8 1.4 0 .3.08.56.2.8-.12.25-.2.52-.2.8 0 .6.32 1.13.82 1.42 0 .12.05.23.1.33-.32.24-.53.62-.53 1.04v.8c0 .7.57 1.26 1.26 1.26h.2l.04.2c.08.5.34.94.72 1.26l.16.14v1.32c0 .14-.1.27-.23.3l-3.5 1.08c-.86.27-1.44 1.06-1.44 1.97v5.78c0 .57.2 1.1.52 1.52H1.56c-.53 0-.96.43-.96.96v1c0 .52.43.96.96.96h27.82c.53 0 .96-.45.96-.98v-1c0-.52-.43-.95-.96-.95h-5.06l-.34-2.55h4.4zm1.03-10.9v8.95c0 .56-.45 1.02-1.02 1.02H23.9s-.02 0-.04 0l-.36-2.72c-.1-.72-.72-1.26-1.45-1.26h-2.23c-.73 0-1.35.54-1.45 1.26l-.36 2.7s-.03 0-.05 0h-4.47c-.56 0-1.02-.45-1.02-1v-8.95c0-.57.46-1.03 1.02-1.03h14.9c.57 0 1.03.46 1.03 1.03zM16.44 25.48s0-.02 0-.03v-2.52h1.46l-.35 2.55h-1.12zm-1.47-15.4l.08-.5c.1.05.16.15.16.27v.23h-.24zM5.6 5.95c-.1-.1-.2-.25-.2-.48 0-.32.23-.6.54-.7.13-.03.24-.12.3-.24s.06-.25 0-.38c-.02-.1-.04-.18-.04-.27 0-.4.32-.7.7-.72.03 0 .05 0 .07 0 .2 0 .4-.1.47-.3.1-.3.36-.5.66-.5 0 0 .02 0 .03 0 .13 0 .25-.04.34-.13.17-.17.4-.27.64-.27.08 0 .14 0 .22.03.15.02.3-.02.42-.13.2-.2.48-.3.76-.3.3 0 .56.1.77.3.1.1.27.15.42.12.06-.03.13-.04.2-.04.25 0 .5.1.68.3.12.15.3.2.5.14.07-.03.14-.04.2-.04.3 0 .58.2.7.5.05.2.25.3.45.3.02 0 .04 0 .06 0 .4 0 .7.33.7.72 0 .1-.02.18-.05.27-.05.13-.04.26 0 .38.07.12.18.2.3.25.33.08.55.37.55.7 0 .22-.1.38-.2.47-.15.18-.15.45 0 .63.1.1.2.26.2.48 0 .3-.2.58-.5.68-.2.07-.32.27-.3.48 0 .02 0 .03 0 .05 0 .14-.1.26-.24.3-.02 0-.46 0-.46 0l-.27-1.6c-.04-.23-.25-.4-.5-.38-.02 0-.04 0-.06 0-.24 0-.46-.13-.6-.33-.08-.13-.23-.2-.38-.2-.17 0-.3.07-.4.2-.13.2-.36.33-.6.33-.25 0-.47-.13-.6-.33-.1-.13-.24-.2-.4-.2-.15 0-.3.07-.4.2-.12.2-.35.33-.6.33-.23 0-.46-.13-.6-.33-.08-.13-.23-.2-.38-.2-.16 0-.3.07-.4.2-.13.2-.35.32-.6.33 0 0-.03 0-.05 0-.24-.03-.46.14-.5.38l-.26 1.6s-.44 0-.45 0c-.14-.05-.24-.17-.25-.3 0-.03 0-.04 0-.06.03-.2-.1-.4-.3-.48-.3-.1-.5-.37-.5-.68 0-.22.1-.4.2-.48.16-.18.16-.45 0-.63zm.53 5.02c-.18 0-.33-.15-.33-.33v-.8c0-.12.07-.22.17-.28l.22 1.4h-.07zM6.9 9.5h.06c.43 0 .8-.3.86-.7l.2-1.3c.26-.05.5-.15.7-.3.28.2.62.33 1 .33.35 0 .7-.12.98-.33.28.2.63.33 1 .33.36 0 .7-.12 1-.33.2.15.42.25.67.3l.22 1.3c.04.3.24.54.52.65l-.1.62h-.54c-1.08 0-1.95.88-1.95 1.96v2.06c-.1.03-.18.04-.27.04H9.74c-.17 0-.33-.05-.46-.16l-1.6-1.33c-.2-.18-.34-.42-.4-.7L6.9 9.52zm.4 6.52c.53-.16.9-.64.9-1.2v-.54l.48.4c.3.26.68.4 1.06.4h1.52c.1 0 .18 0 .27-.03v3c-.28.05-.55.07-.83.07-1.56 0-3.02-.7-3.98-1.92l.58-.18zm-4.28 7.93v-5.78c0-.5.32-.93.8-1.08l1.95-.6c1.13 1.6 2.97 2.55 4.93 2.55.28 0 .55-.02.83-.06v1.97c0 1.08.87 1.95 1.95 1.95h2.02v2.52s0 .02 0 .03h-2.54v-.53c0-1.08-.88-1.95-1.96-1.95H6.03S6 22.96 6 22.94v-2.98c0-.25-.2-.46-.46-.46s-.47.22-.47.47v2.98c0 .54.43.97.96.97h3v1.55h-4.5c-.83 0-1.5-.68-1.5-1.52zm6.96 1.52v-1.55H11c.56 0 1.02.46 1.02 1.02v.53H9.98zm19.43.96v1s0 .03-.02.03H1.56s-.03-.02-.03-.04v-1s.02-.02.03-.02h27.82s.03 0 .03.03zm-10.9-.96l.8-6.06c.03-.25.25-.45.52-.45h2.23c.26 0 .5.2.52.46l.8 6.07H18.5z"/></g></g></g></svg>