<svg xmlns="http://www.w3.org/2000/svg" width="29" height="28"><g fill="none"><g fill="#067BC6"><g><path d="M1.23 18.82h2.1V8.32c-.27 0-.52.03-.77 0-.5-.05-.66-.4-.3-.75.82-.82 1.66-1.63 2.54-2.4.14-.13.6-.12.75 0 .87.76 1.7 1.57 2.5 2.38.13.1.2.37.15.52-.04.12-.28.22-.45.25-.22.04-.46 0-.77 0v6.3h-.9c0-.22-.03-.43-.03-.64 0-1.9-.02-3.8 0-5.7 0-.33.22-.64.38-1.08-.3-.28-.76-.7-1.26-1.17-.46.47-.9.93-1.24 1.27.13.36.34.7.35 1.03.02 3.14 0 6.28 0 9.43v1.04h20.36c0-.6 0-1.17 0-1.75 0-1.66 0-3.32 0-4.98 0-.42 0-.82.5-.83-.44-.46-.88-.94-1.38-1.46-.48.5-.92.98-1.32 1.42.1.13.4.3.42.5.04 1.53.02 3.04.02 4.6H22v-4.2c-.33 0-.6.04-.86 0-.46-.04-.63-.4-.3-.7.83-.85 1.7-1.67 2.6-2.47.12-.1.55-.1.68 0 .88.8 1.72 1.6 2.55 2.42.1.1.2.36.14.47-.07.14-.3.24-.48.28-.2.05-.45.02-.73.02v6.7h2.12V3.74h-2.17v4.98h-.9V2.87h-4.83v-.84h2.13c0-.3.02-.52.03-.83h-3.5V.4c.15-.03.3-.06.47-.06 1.94 0 3.88 0 5.82 0 .58-.02.8.18.78.73-.02.57 0 1.15 0 1.8.84 0 1.6 0 2.4 0 .5-.03.7.18.7.67 0 6-.02 12 0 18.02 0 .5-.23.66-.73.65-2.85 0-5.7 0-8.54 0h-.8c.24.87.45 1.67.68 2.53.32 0 .63 0 .94 0 .54.03.86.3.9.82.03.28.04.56.02.84-.04.53-.36.85-.94.85-3.82 0-7.63 0-11.45 0-.54 0-.85-.3-.9-.82-.03-.24-.02-.48 0-.72 0-.68.32-.96 1.05-.97.25 0 .5 0 .8 0 .22-.83.43-1.64.67-2.52H9.6c-2.8 0-5.62 0-8.42 0-.86 0-.88 0-.88-.85C.3 15.47.3 9.58.3 3.7c0-.8.05-.84.85-.84.7 0 1.43 0 2.23 0 0-.65 0-1.26 0-1.87 0-.4.12-.67.6-.66 2.1 0 4.18 0 6.27 0 .06 0 .12.03.2.06v.77H7V2H9.1v.85H4.3c0 .52 0 1 0 1.46 0 .72 0 .72-.87.63-.02-.38-.05-.77-.08-1.2H1.23v15.1zm0 2.5h26.5v-1.6H1.22v1.6zm9.4 3.38h7.7c-.24-.85-.46-1.66-.68-2.5-2.04 0-4.04 0-6.03.02-.13 0-.35.1-.38.2-.22.74-.4 1.5-.62 2.28zm-1.9 1.66h11.44v-.74H8.74v.74zM4.34 2H6v-.8H4.34V2zm18.6 0h1.68V1.2h-1.68V2z"/><path d="M14.96 11.32v1.44c.77-.86 1.63-1.3 2.66-1.44.23-.02.46-.04.7-.05.4 0 .6.18.57.55-.17 1.76-1.03 3.5-3.2 3.93-.7.14-.87.43-.78 1.02 0 .1.02.2.03.37h3.47v.82h-7.9v-.8h3.45c.02-.2.02-.35.05-.5.1-.55-.1-.77-.73-.9-2.14-.4-3.1-2.1-3.26-3.93-.03-.4.22-.57.63-.56 1.26.04 2.35.42 3.27 1.46V11.3c-2.06-.3-3.7-1.27-4.67-3.16-.6-1.16-.73-2.38-.4-3.62.7-2.64 3.22-4.37 6.06-4.17 2.68.2 4.95 2.24 5.25 4.74.37 3.07-1.3 5.07-5.22 6.22M9.6 5.8c0 2.54 2.17 4.62 4.85 4.63 2.68 0 4.86-2.05 4.88-4.6 0-2.55-2.17-4.64-4.84-4.65-2.68 0-4.88 2.06-4.9 4.6m5.45 9.16c1.44.08 2.9-1.34 2.8-2.74-1.6.13-2.8 1.33-2.8 2.74m-1.14 0c-.17-1.6-1.48-2.8-2.85-2.68.14 1.52 1.36 2.68 2.86 2.7"/><path d="M6.1 16.3h.82v-.78H6.1z"/><path d="M22.02 17.97h.82v-.8h-.82z"/></g></g></g></svg>