<svg xmlns="http://www.w3.org/2000/svg" width="31" height="31"><g fill="none"><g fill="#067BC6"><g><path d="M1.17 11.1C.95 11.07.8 11.04.6 11V.6h2.83V10h.86c.94-1.8.44-3.76.55-5.66.04-.76 0-1.53 0-2.32h2.8c.04.17.07.35.1.56.78-.34 1.5-.7 2.25-1 3.5-1.37 7-1.4 10.52-.1.57.23 1.07.48 1.43-.22 1.35.74 1.4.72 1.74-.7.67 0 1.37-.03 2.06.02.14 0 .33.3.38.47.18.74.54.92 1.14.5.35-.26.56-.26.82.07.2.24.42.45.65.65.46.4.76.74.24 1.33-.3.33 0 .84.5.88.52.04.64.28.6.76-.03.56 0 1.13 0 1.7-1.38.4-1.38.4-.74 1.78-.62.35-.44.8-.22 1.37 2.53 6.66 0 14.05-6.12 17.8-.4.25-.58.5-.56 1 .03.86-.3 1.18-1.17 1.18-4 0-7.96 0-11.93 0-.82 0-1.18-.34-1.15-1.16.02-.5-.16-.77-.58-1.04C2.74 24.72.44 20.2.6 14.4c.02-.54.13-1.1.22-1.62.1-.54.22-1.08.35-1.67zm8-1.86V4.87h2.86v5.15h.9c.25-1.36.92-2.1 2.06-2.3.9-.16 1.82.27 2.35 1.1.66 1.04.52 2.9-.3 3.83-.47.55-.38.85.28 1.05.8.25 1.57.5 2.36.75.62-.2 1.36-.48 2.1-.7.82-.27.86-.5.35-1.17-.3-.38-.62-.9-.57-1.34.1-1.1-.33-1.84-1.13-2.47-.05-.03-.06-.1-.08-.15.74-1.2.72-1.24-.75-1.7 0-.65-.03-1.33.02-2 0-.15.28-.35.47-.4.78-.2.9-.5.5-1.2-.12-.2-.12-.5-.2-.86C16.2.9 12.04 1.22 8.07 3.63c-.18.1-.33.4-.33.63-.04 1.07-.03 2.15 0 3.22 0 .17.07.38.18.5.4.44.84.85 1.26 1.26zm0 19.85H21.5v-3.34h-4.2c-.04.4-.08.7-.1.97h-3.72c-.04-.32-.07-.6-.12-.98h-4.2v3.34zm8.13-4.3c1.14 0 2.26.07 3.37-.02.3-.03.77-.47.8-.77.12-.8.05-1.63.05-2.44H9.15c0 .8-.02 1.54 0 2.28.02.5.27.94.8.96 1.14.04 2.28 0 3.43 0 .04-.32.07-.6.1-.9h3.72c.03.32.07.6.1.9zm-7.65-8.5v4.2h.94v-3.4c0-1.94-.02-1.93-1.93-2.44-.36-.1-.6-.1-.9.22-.5.6-1.5.66-1.93.1-.38-.5-.73-.42-1.18-.27-.23.1-.46.15-.7.2-.8.24-1 .48-1 1.3 0 1.52.03 3.04-.02 4.55-.02.84.4 1.4.96 2V16.3h1v3.25h3.76V16.3h1zm17.13 6.43c.58-.6 1-1.2.96-2.08-.06-1.13-.02-2.28 0-3.42 0-2.13.14-2.02-2-2.6-.34-.08-.54-.05-.78.22-.55.6-1.52.7-2 .1-.35-.42-.67-.4-1.1-.25-.3.1-.6.16-.9.24-.58.16-.87.54-.87 1.15 0 1.35 0 2.7 0 4.08 0 .12.05.24.07.35h.88V16.3h.98v3.23h3.8V16.3h.95v6.43zm-7.8-2.12c.05-.02.1-.05.18-.08 0-1.1 0-2.18 0-3.27 0-2.18.14-2.05-2.03-2.62-.32-.1-.5-.05-.73.2-.64.7-1.53.66-2.2-.02-.1-.1-.3-.24-.45-.2-.53.1-1.08.2-1.56.45-.3.13-.62.48-.63.75-.06 1.57-.03 3.15-.03 4.74.14 0 .3.02.3 0 .38-1.4.84-2.76.6-4.24h1v2.3h3.8v-2.3h.98c0 .4 0 .74 0 1.1 0 .45-.14 1 .07 1.34.3.5.35.96.38 1.48 0 .13.2.26.3.4zM24.5 1.55c-.33 1.1-1.4 1.54-2.4.97-.17.2-.48.38-.47.53.03.4.52.62.2 1.07-.2.32-.3.72-.45 1.08-.03.06-.15.1-.22.1-.65.02-.6.42-.52.86.98.3 1.4 1.22 1.04 2.23-.04.12.08.3.1.38.56-.4 1.05-.74 1.53-1.08-1.13-1.46-1.05-3.02.23-3.84 1.23-.8 2.75-.4 3.43.88.7 1.36.1 2.73-1.56 3.46.24.3.47.57.74.9.5-.4 1-.46 1.48.06.2-.23.36-.4.5-.58-.54-.98-.08-2.07 1-2.4.1-.46.1-.82-.52-.85-.1-.02-.3-.12-.3-.2-.13-.7-.98-1.32-.12-2.05-.24-.22-.4-.38-.6-.56-.44.45-.87.46-1.34.1-.15-.1-.38-.1-.55-.2-.14-.1-.3-.23-.32-.36-.03-.6-.4-.6-.87-.5zM9.36 11.07c-.33.6-.55 1.13-.87 1.57-.43.58-.38.86.28 1.07.8.25 1.57.5 2.36.75.84-.3 1.78-.62 2.8-.97-.05-.2-.03-.46-.13-.65-.33-.57-.7-1.12-1.1-1.76H9.35zm18.8-.93c-.05.04-.1.08-.14.12-.25-.08-.5-.17-.76-.24-.23-.06-.5-.16-.7-.1-.13.06-.25.38-.24.57.04.88-.15 1.66-.8 2.33-.28.26-.32.68.24.82.5.12 1 .28 1.5.44.96.3 1.4.9 1.42 1.88 0 .8 0 1.6 0 2.42.8-2.82.53-5.57-.5-8.26zm-26.3 8.28c.06 0 .1 0 .17-.02 0-.8 0-1.57 0-2.36 0-1.04.5-1.67 1.5-1.98.45-.14.92-.26 1.38-.4.48-.15.56-.46.3-.87-.35-.54-.67-1.1-1.07-1.75-.37 0-.92.02-1.46 0-.36-.03-.54.12-.58.45-.2 1.47-.44 2.94-.53 4.42-.04.83.18 1.67.3 2.5zm14.93-7.86c0-1.04-.36-1.67-1.05-1.83-.87-.2-1.6.25-1.8 1.1-.28 1.27.2 2.4 1.08 2.58.05 0 .1 0 .14.02 1.06.1 1.64-.55 1.64-1.86zm-11.45-.02c0 1.17.45 1.82 1.3 1.88.8.06 1.4-.4 1.55-1.18.23-1.2-.17-2.26-.94-2.5-.06 0-.13-.02-.2-.02-1.1-.17-1.7.48-1.7 1.82zm20.02.02c0-1.04-.36-1.68-1.05-1.83-.87-.2-1.6.25-1.8 1.1-.27 1.28.2 2.4 1.08 2.58.05 0 .1 0 .14.02 1.05.1 1.63-.55 1.63-1.86zM1.57 10h.85V1.54h-.85V10zM24.9 7.2c.8-.02 1.4-.64 1.38-1.44-.02-.75-.65-1.37-1.4-1.38-.8 0-1.43.63-1.43 1.42 0 .8.63 1.4 1.44 1.4zM7.25 20.6c0 1.82.03 3.57 0 5.32-.03.72.35.93.95 1.12 0-1.68 0-3.3.02-4.92 0-.5.13-1 .2-1.5H7.27zm15.2 6.45c.72-.22 1.02-.56.97-1.26-.06-1 0-1.98 0-2.97V20.6h-1.18c.07.53.2 1.02.2 1.52.04 1.62.02 3.24.02 4.93zm1.98-1.54c.05.05.1.08.15.12.4-.46 1.05-.87 1.12-1.36.17-1.2.06-2.43.06-3.64h-1.34v4.9zM4.88 20.6c0 .9.1 1.75-.03 2.56-.17 1.2.56 1.77 1.38 2.46v-5H4.88zM6.73 7.66V2.98h-.85v4.87c.3-.07.56-.13.85-.2zM13 20.52h4.68v-.87H13v.87zm-2.86-10.5H11V5.83h-.86V10zm4.3 15.72h1.8v-.87h-1.8v.87zm1.35-12.27h-.94c.03.43-.06.9.5.87.5-.04.5-.46.43-.87zm7.57-.03c.1.32.17.6.3.83.04.07.4.07.46 0 .15-.23.22-.5.35-.83h-1.1zm-17.17 0c.13.33.2.6.35.84.04.07.4.06.45-.03.14-.22.2-.5.3-.8H6.2z"/></g></g></g></svg>