<svg xmlns="http://www.w3.org/2000/svg" width="28" height="28"><g fill="none"><g fill="#067BC6"><g><path d="M12.5 20.8c-.77-.63-1.68-.92-2.76-1.1.62-.73.93-1.48.92-2.35 0-1.54 0-3.1 0-4.63 0-.5-.2-.7-.68-.7-1.18 0-2.35-.03-3.53 0-1.3.04-2.47 1.06-2.58 2.33-.1 1.17-.1 2.35.03 3.53.07.53.25 1.03.6 1.44.3.37.17.42-.22.5-2.47.46-4.08 2.4-4.1 4.92-.02.64 0 1.3-.02 1.94-.03.58.2.8.8.8 4.2-.02 8.43-.02 12.65 0 .55 0 .76-.24.76-.72 0-.7.02-1.4 0-2.08-.07-1.55-.64-2.86-1.86-3.87m-7.6-6.07c.1-.92.73-1.6 1.64-1.63.9-.02 1.78 0 2.68 0 .27 0 .4.04.38.35-.03.24 0 .5 0 .73-.05.9-.42 1.25-1.34 1.28-.46 0-.93 0-1.4 0-.42 0-.85-.05-1.27 0-.65.1-.74-.2-.7-.73m0 2.04c.06-.3.23-.24.4-.24.9 0 1.8 0 2.68 0 .52 0 1.06.03 1.6-.34.05 1.12.1 2.12-.74 2.88-.78.7-1.87.8-2.75.3-.88-.5-1.36-1.6-1.2-2.6m3.4 4.1c-1 1.17-1 1.17-2.13-.1h2.1c.02.06.04.08.03.1m4.52 5.5c-1.87 0-3.73 0-5.6 0-1.82 0-3.65 0-5.47 0-.38.02-.54-.05-.5-.47 0-.35 0-.6.48-.56.5.05.98 0 1.46 0 .37 0 .76-.03.75-.55 0-.5-.37-.52-.73-.52-.55 0-1.1 0-1.65 0-.22 0-.3-.03-.28-.3.2-1.45 1.56-2.85 3.03-3.1.25-.06.37 0 .52.17.58.6 1.17 1.18 1.76 1.76.58.57.7.57 1.26.03.53-.52 1.1-1.03 1.58-1.6.36-.42.7-.42 1.17-.26 1.64.58 2.64 1.98 2.7 3.8 0 .4-.03.8 0 1.17.05.4-.13.46-.48.45"/><path d="M13.75 10.73c-.68 1.42-.5 2.93-.47 4.42 0 .4.35.5.7.5 1.3 0 2.6 0 3.9 0 .4 0 .73-.1.73-.55.02-.44-.32-.55-.7-.54-.68 0-1.35 0-2.02 0-1.6 0-1.6 0-1.56-1.6.05-1.82 1.02-3.2 2.65-3.8.47-.16.85-.17 1.22.26.5.6 1.08 1.1 1.6 1.65.4.42.75.4 1.14 0 .6-.62 1.2-1.2 1.8-1.82.2-.2.36-.25.63-.2.88.23 1.6.7 2.16 1.4.92 1.08.86 2.38.85 3.68 0 .36-.1.44-.44.43-1.12 0-2.24 0-3.35 0-.4 0-.66.14-.64.56 0 .4.27.52.6.52 1.43 0 2.86 0 4.28 0 .4 0 .63-.2.62-.65-.02-.8.03-1.6-.02-2.38-.12-1.9-1.04-3.3-2.7-4.2-.56-.3-1.2-.42-1.88-.57.52-.63.86-1.26.88-2 .03-1.7.04-3.4.04-5.1 0-.38-.23-.57-.64-.57-1.2 0-2.4-.02-3.6.02-1.42.04-2.5 1.12-2.57 2.56-.03.76 0 1.54-.02 2.3-.03 1 .15 1.94.9 2.77-.2.06-.34.1-.48.14-1.66.32-2.88 1.22-3.62 2.76M19.25 9h2.2c-1.1 1.16-1.1 1.16-2.2 0m.64-7.73c.8 0 1.6 0 2.42 0 .28-.02.42.04.4.35-.04.3 0 .6-.03.9-.1.68-.5 1.06-1.2 1.08-.5.02-1 0-1.5 0-.53 0-1.06-.02-1.6.02-.33 0-.38-.13-.38-.42-.02-1.28.6-1.93 1.87-1.93m-1.43 3.4c.8.04 1.58 0 2.37.02.6 0 1.22 0 1.86-.3-.03.67.1 1.26-.12 1.83-.4 1.1-1.46 1.8-2.55 1.62-1.13-.18-1.93-1.08-2-2.27 0-.14 0-.28 0-.42-.06-.36.05-.5.44-.48"/><path d="M2.84 10.18c2.25.03 4.5 0 6.75 0 .74 0 1.47-.23 1.84-.86.46-.78 1.1-.8 1.83-.75.17 0 .33 0 .5 0 .3 0 .6-.04.75-.37.13-.32-.07-.53-.28-.74-.6-.6-1.17-1.18-1.77-1.76-.2-.18-.27-.37-.26-.64.02-.67.02-1.33 0-2C12.2 1.3 11.07.2 9.3.18c-1.04 0-2.08 0-3.1 0-1.1 0-2.2 0-3.3 0C1.32.22.2 1.34.17 2.92.15 4.44.15 5.96.17 7.48c0 1.56 1.1 2.7 2.67 2.7M1.24 3c.02-1.13.6-1.73 1.74-1.73 2.13 0 4.26 0 6.4 0 1.12 0 1.74.63 1.75 1.78 0 .67.04 1.34 0 2-.06.6.12 1.02.56 1.38.34.28.65.6 1 .9-.04.05-.07.1-.1.16-.16 0-.32 0-.47 0-.64-.1-1 .13-1.23.77-.18.54-.66.8-1.24.82-1.25.02-2.5.02-3.77.03-.98 0-1.96 0-2.93 0-1.15-.03-1.72-.6-1.72-1.75 0-1.46 0-2.92 0-4.4"/><path d="M27.44 20c-.03-1.4-1.14-2.5-2.53-2.52-2.32-.03-4.66 0-7 0-.72 0-1.43.3-1.77.88-.42.74-.98.77-1.66.72-.12 0-.24 0-.36 0-.37 0-.8-.1-1 .37-.18.45.23.68.5.95.48.5.98 1.02 1.5 1.5.22.2.32.43.3.74 0 .67 0 1.34 0 2 .05 1.7 1.17 2.82 2.86 2.83 1.03 0 2.07 0 3.1 0 1.12 0 2.23 0 3.35 0 .05 0 .1 0 .13 0 1.42-.05 2.57-1.14 2.6-2.54.05-1.64.05-3.28 0-4.92m-1.07 4.87c0 .87-.64 1.5-1.5 1.5-2.27.02-4.55.02-6.82 0-.88 0-1.52-.66-1.54-1.55-.03-.8-.03-1.62 0-2.43 0-.43-.1-.75-.42-1.02-.4-.34-.77-.7-1.16-1.06.04-.05.07-.1.1-.16.25 0 .5-.02.74 0 .45.04.72-.15.86-.58.22-.68.73-1.02 1.42-1.03 2.3 0 4.6-.03 6.88 0 .86.02 1.43.65 1.44 1.5.02 1.6.02 3.2 0 4.82"/><path d="M19.83 15.1c0 .3.2.53.53.53.32 0 .5-.2.53-.6-.06-.25-.2-.47-.54-.47-.35 0-.52.23-.53.53"/><path d="M5.55 24.3c-.32 0-.5.2-.5.5 0 .33.2.5.52.54.34-.03.55-.23.53-.55 0-.32-.2-.53-.55-.5"/><path d="M5.3 4.33c.5.12.65-.22.7-.62.06-.3.24-.52.54-.58.4-.08.8 0 .93.45.12.43.02.8-.45 1-.7.3-.9.7-.77 1.3.05.26.2.4.45.4.24.04.5-.05.53-.28.02-.37.28-.45.5-.6.72-.47 1.03-1.28.8-2.05C8.32 2.55 7.6 2 6.8 2c-.9 0-1.6.52-1.83 1.4-.1.37-.18.8.34.93"/><path d="M6.74 7.27c-.32 0-.5.22-.5.56 0 .33.2.52.53.5.34 0 .48-.23.52-.53-.05-.34-.24-.54-.56-.53"/><path d="M23 21.13c-.4.45-.8.9-1.25 1.4-.32-.32-.53-.53-.76-.73-.24-.2-.5-.22-.7 0-.26.22-.27.5-.05.74.33.36.67.7 1.02 1.03.3.27.6.2.86-.06.54-.53 1.1-1.07 1.63-1.62.26-.26.33-.56.03-.85-.3-.27-.56-.15-.8.1"/></g></g></g></svg>