<svg id="Layer_1" data-name="Layer 1" xmlns="http://www.w3.org/2000/svg" viewBox="0 0 500 500"><defs><style>.cls-1{fill:#2ecc71;}</style></defs><title>cup</title><path class="cls-1" d="M347.9,237.8H329.1v-29H97.17V321.15a115.94,115.94,0,0,0,227.2,32.61H347.9c33.65,0,60.93-24.33,60.93-58S381.55,237.8,347.9,237.8ZM213.14,408.12a87.08,87.08,0,0,1-87-87V237.8h166.7v116h.84A87,87,0,0,1,213.14,408.12ZM347.9,324.77h-19c0-1.22.18-2.4.18-3.62V266.79h18.8c15.87,0,31.94,9.95,31.94,29S363.77,324.77,347.9,324.77Z"/><path class="cls-1" d="M159.84,180.93c.63,1.81,1.2,3.43,1.82,4.87a51.63,51.63,0,0,0,4.37,8.51s2.44-3,5.77-7.34c.77-1.06,1.64-2.22,2.57-3.48s2.26-2.38,3.46-3.61c2.48-2.41,4.53-5.08,7.79-7.24,1.49-1.14,2.85-2.33,4.24-3.47l5-3.24a27.42,27.42,0,0,0,2.34-1.69l2.8-1.62c2-1,3.51-2.31,5.44-3.44,4.16-2.31,7.9-4.82,12.5-7.57,4.17-2.72,9.09-5.88,13.58-9.13a164.69,164.69,0,0,0,14.2-11.39,123.89,123.89,0,0,0,13.17-13.86c2-2.62,3.94-5.34,5.62-8.07q1.26-2,2.52-4c.74-1.47,1.45-2.94,2.08-4.42,1.26-3,2.53-5.74,3.49-8.5.7-3,1.37-5.88,1.82-8.62,1.17-5.19.8-11,.35-15.48-.34-2.23-.38-4.37-1.05-6s-1.24-3.06-1.88-4.39a89.94,89.94,0,0,0-4.33-8.4,91,91,0,0,0-5.76,7.46c-.85,1.19-1.69,2.52-2.62,4a28.14,28.14,0,0,1-3.5,3.57c-2.51,2.28-4.34,4.37-7.66,6.71-1.5,1.13-2.83,2.33-4.24,3.49-1.74,1-3.33,2.17-5,3.24a28.23,28.23,0,0,0-2.35,1.69l-2.81,1.63c-2,1-3.52,2.29-5.44,3.44-4.19,2.28-7.89,4.83-12.52,7.55-4.18,2.72-9.11,5.84-13.61,9.1a164,164,0,0,0-14.23,11.35,124.63,124.63,0,0,0-13.18,13.84c-2,2.64-4,5.34-5.63,8.07l-2.52,4c-.74,1.49-1.47,2.94-2.09,4.42-1.26,3-2.52,5.74-3.49,8.5-.7,3.05-1.37,5.91-1.82,8.65-1.22,5.36-.63,10.62-.21,15A36,36,0,0,0,159.84,180.93Z"/></svg>