<svg id="Слой_1" data-name="Слой 1" xmlns="http://www.w3.org/2000/svg" width="213" height="58" viewBox="0 0 143.66 47.22"><defs><style>.cls-1,.cls-3{fill:#757575;fill-rule:evenodd}.cls-3{fill:#fff}</style></defs><path class="cls-1" d="M5.71 6.63H34.1V33.2l-.02.26-.01.27-.03.26-.03.26-.06.25-.07.25-.06.23-.08.24-.09.23-.11.22-.12.2-.12.21-.15.2-.14.19-.16.17-.18.17-.17.17-.2.15-.2.15-.21.13-.23.12-.22.12-.24.11-.27.09-.25.08-.28.08-.28.07-.31.04-.29.05-.32.03-.31.01-.34.01h-3.52l-.23.02h-.23l-.21.03-.21.01-.2.02-.2.04-.2.03-.18.04-.19.04-.19.05-.18.06-.18.05-.16.05-.17.07-.16.07-.16.06-.14.08-.16.07-.15.08-.13.08-.15.08-.13.09-.13.1-.14.09-.13.09-.12.09-.12.11-.12.11-.12.09-.11.11-.24.22-.22-.22-.12-.11-.12-.09-.12-.11-.12-.11-.12-.09-.13-.09-.14-.09-.13-.1-.13-.09-.13-.08-.15-.08-.16-.08-.15-.07-.14-.08-.16-.06-.16-.07-.17-.07-.16-.05-.19-.05-.17-.06-.18-.05-.18-.04-.2-.04-.2-.03-.2-.04-.2-.02-.21-.01-.22-.03h-.22l-.23-.02h-3.52l-.34-.01-.31-.01-.32-.03-.31-.05-.29-.04-.28-.07-.28-.08-.27-.08-.24-.09-.25-.11-.24-.12-.21-.12-.21-.13-.2-.15-.2-.15-.17-.17-.18-.17-.16-.17-.14-.19-.15-.2-.12-.21-.12-.2-.11-.22-.09-.23-.08-.24-.08-.23-.05-.25-.06-.25-.03-.26-.03-.26-.01-.27V6.63z"/><path d="M5.87 6.8h28v26.4c0 2.84-1.82 4.85-5.36 4.85h-3.3a7.17 7.17 0 00-5.36 2.06 7.16 7.16 0 00-5.35-2.06h-3.3c-3.54 0-5.37-2-5.37-4.85V6.8z" fill="#cee0f5" fill-rule="evenodd"/><path class="cls-1" d="M12 30.62a1.71 1.71 0 011.52-1.35 11.15 11.15 0 002.59-1c.4-.29.45-.16.16.42l-.45.51a.5.5 0 000 .82c.45.22.64.43.57.62a1.35 1.35 0 00-1.33.29 1.49 1.49 0 00-1.08.19 1 1 0 00-.82-.05c-.08-.2-.31-.26-.69-.19a.94.94 0 00-.51-.25zm5.44 0c-.48-.49-.53-.93 0-1.31a7 7 0 001.32-1.44c.37 0 .71-.11 1.08-.16a11.29 11.29 0 004-1.14.36.36 0 01.46.14l.88 1.16L25 28l.66.5c-.12.1 0 .16.11.22-.08.12 0 .23.09.22.06.16.17.4-.17.07-.21-.11-.24 0-.07.33l.36.52a.93.93 0 00.31.61l.29.6a.84.84 0 00.08.27c0 .22.09.34.28.37a2 2 0 01-.82.9c-.79.43-1.41.25-1.35-.78 0-.56.15-1 .16-1.6.23-.89 0-1.34-.76-1.39a1.69 1.69 0 00-.93.17c-.21.15-.52.09-.93-.15a3.71 3.71 0 00-1.79-.92 1 1 0 01.18 1.32c.32.15.31.29 0 .44a8.28 8.28 0 01-2.54-.39c-.29-.05-.35 0-.15.16.67.27 1 .67 1 1.23a6.6 6.6 0 00-1 .08.4.4 0 01-.57-.12zM25 34.91c-.22.12-.28.26-.06.39s.22.1.25 0c.26-.06-.11-.2-.19-.43zm-7-.58c-.15.11-.22.22-.14.38l.3.26a.24.24 0 000-.38.34.34 0 01-.12-.26zm-3.41-1.4c.22.1.22.29 0 .41-.2-.08-.19-.25 0-.41zM10.72 25a3.09 3.09 0 01.35 3.81c-.3.7-.26 1.15.13 1.37a4.28 4.28 0 00.25-1c.08-.6.47-.53 1-1.05s.39-1.15.33-2.08c-.09-2 .32-3.15.91-3.8-1.49-.41-2.4.69-2.94 2.75zm.94-16.5c-.17 0-.24.15-.21.34l1.18 1.68c0 .08.12.16.11.23-.09.22-.13.37.07.57l.4.38a1.16 1.16 0 00.18.59c-.09.19 0 .36.19.53s.05.12.12.17l.06.58a2.79 2.79 0 00-.89 1v.28l.78-.08c.07 0 .15 0 .18.11a.57.57 0 01-.47.77c-1 .24-1.67.57-1.39 1.22.36.47.17.88-.44 1.25a.57.57 0 00-.19.53 1.87 1.87 0 00-.42.63c-.1.26-.1.38.09.36 1.35-.46 2.68-.64 3.63.14.46.39.38.59 1.12.63-.08.3 0 .48.26.53v.35c-.29.06-.62.06-.92.14a4.46 4.46 0 01-.94.21c-.25-.19-.55-.31-.78-.46-1.23-.76-2.25-.8-3.14.24a6.5 6.5 0 00-1.17 2.48c-.07.2-.23.28-.54.09-.64-.51-.76-1-.44-1.28s.62-.18.38.05c.35 0 .48.24.62.49a1.44 1.44 0 00-.28-1.69h-.1v.65a1 1 0 00-1.14.91 1.35 1.35 0 00.83 1.3c.35.12.46.53.18.94-.69 1-.58 2.09 0 3.48h.08c.13-1.52.45-2.29 1-2.44a1 1 0 00.44-.33c.14-.23.22-.2.33 0a1.88 1.88 0 01-.08 1.93c-.88 1.42-.92 2.51.33 3.38v.1l-.33.43c-.11.17 0 .39.26.63a2.27 2.27 0 01.39 1.15.65.65 0 000 .58 1.32 1.32 0 001.27.35c.07 0 .05-.07.05-.13.06-.3-.14-.51-.35-.87A1.38 1.38 0 0111.4 32l.09-.14a9.49 9.49 0 001.69.45 1.66 1.66 0 000 1.46 1.54 1.54 0 001.64.95c1.07-.1 1.6-1 1.21-2.2.38-.21.63-.2.77 0 0 .55.22.37.24.91-.64.56-.88 1-.19 1.34.36.36.16.49-.31.52-.49-.12-.85-.09-.91.3-.46 0-.59.3-.58.72.14-.32.39-.34.52-.26a2.37 2.37 0 00.71 0 .77.77 0 01.68 0 .32.32 0 01.29.16c.32.33.28 0 1 .39.18 0 .47 0 .52.27l.07-.25a.23.23 0 00-.08-.29c-.23-.27.13-.28.76-.16a1.56 1.56 0 00.87.17c.28-.28.35-.1.4.27.2-.55.07-.84-.48-.87.1-.29.14.15.34-.21.17-.08.34 0 .51.17 0-.26-.11-.42-.46-.5-.08-.23-.25-.24-.49 0-1-.27-1.12-.88-.55-1 .31-.08.43.24.67.33a1.94 1.94 0 00.53.07 1.32 1.32 0 01.7.18l.2.07c.11-.08.22-.07.35 0s.29.24.42.07c.4-.32 1-.32 1-.12s0 .4.15.37.13.13.13.35c-.38 0-.65.05-.65.33-.36.11-.35.36-.19.69 0-.64.51-.12 1-.46h.37c0 .18.22.26.55.25a3.1 3.1 0 01.42-.08 1.3 1.3 0 011.56.4.46.46 0 000-.49c.45-.31.94-.19.65.3.27-.13.53-.81.19-.8.14-.4.74-.06.57.23.25-.13.29-.33 0-.58 0-.23-.23-.3-.56-.2-.19-.32-.43-.34-.75-.06s-.57.16-.73 0-.13-.41.11-.32.17-.11.32-.39c0-.12.16-.21.24-.37.34 0 .62-.36 1-1 .25-.12.37-.61.39-1.38.1.05.23 0 .41-.09-.12 0-.18-.06-.18-.36h.34c.13-.06.18-.11.17-.18s-.13 0-.23-.18a1 1 0 00-.34-.56l-.32-.52c-.23-.72-.49-1.13-.82-.86l-.1-.06a3.09 3.09 0 01-.58-1.06c0-.51-.52-.53-.8 0l-.08-.4-.13.21-.84-1.21c.09 0 .25-.11.35-.12a7.55 7.55 0 003.09-1l.66-.2a.46.46 0 01.61.15l.76.78a.38.38 0 01.06.47c-.08.16.11.37.38.6a.91.91 0 01.05 1c-.12.3-.09.48.08.58l.52.37c.34.28.52.19.5-.31a1.67 1.67 0 00-.25-.74 2 2 0 01-.3-.91c0-.61-.1-.93-.35-1.14a4.49 4.49 0 01-.75-.94.62.62 0 00-.22-.38c0-.63-.49-.95-.79-.78a2.14 2.14 0 01-.76 0v-.15a7.77 7.77 0 001.48-1.41c.21-.26.32-.16.53.06l.83.86c0 .43 0 .71.33.68.2.34.29.68.11.82s-.34.27-.34.5.43.67.86.83a.11.11 0 00.13-.06 1.4 1.4 0 000-1l-.14-.49a2 2 0 010-.5.78.78 0 00-.36-.9 9.89 9.89 0 01-1.32-1.64c0-.76-.64-1-1.05-.14l-.8.56c-.19.13-.33-.08-.33-.29A4.43 4.43 0 0026.89 19c-.4-1.21-.94-2.22-1.14-3.15a3 3 0 011.55.45c.33.36.76.55.87.3 0-.09-.2-.23-.32-.35a.89.89 0 01.49.3c.33 0 .44-.25.34-.59s0-.5-.09-.59l-.28-.16a8.65 8.65 0 01-1.17-1.57.3.3 0 01-.05-.17.79.79 0 00-.29-.63l.1-.05v-.08l.24.05-.24-.39c-.13-.5-.59-.58-1.26-.38-.1 0-.22-.08-.34-.21-.42-.41-.87-.64-.71-.33 0 .05.16.2 0 .18l-.73-.12c-.16 0-.19 0-.15.11A1.41 1.41 0 0124 12l-.93.05a2.53 2.53 0 01-.52.08c-.5-.42-1.13-.1-1.78.39h-.09v-.76h.08l-.06-.49h.05a2.1 2.1 0 00-.37-1.56c-.06-.22.17-.2.22-.26a1.06 1.06 0 00.2-.73c0-.32-.14-.43-.3-.32h-.19a.75.75 0 01-.44-.19.48.48 0 00-.61 0c-1 .24-1.13 1-2.3.48-.13 0-.16 0-.11.14a1.81 1.81 0 00.79.57 1.08 1.08 0 01-.67.07 1.37 1.37 0 001.19.39.87.87 0 00.78 0c.16-.1.17 0 .07.17a2.12 2.12 0 00-.56 1.63 1.66 1.66 0 00-.23.62c-.44-.12-.82-.2-1-.07h-.17a.87.87 0 00-1.05-.14l-.68.52c-.25.17-.46.18-.5 0l-.28-.6c0-.43-.15-.63-.44-.65a.74.74 0 01-.25-.43l-.2-.25c.06-.23 0-.31-.19-.31a.73.73 0 01-.42-.09l-1.39-1.7z"/><path class="cls-3" d="M30.85 28.22l.14-.28c.06-.09.12-.09.16 0l.31.29c-.06.07-.21.07-.31.1l.1.17-.1.05v.15c-.2-.16-.32-.31-.26-.47zm.28-.95s.08.12.08.25 0 .25-.08.25-.08-.12-.08-.25 0-.25.08-.25zM31 26.19s.09 0 .13.09.07.16 0 .18-.09 0-.13-.11-.07-.15 0-.16zm.8-1.3h-.12c-.04 0-.18.31-.1.43l.3.22c.09.08.2 0 .14 0l-.1-.15c.06 0 .12.1.18.1s.07-.08 0-.13-.13-.15-.06-.22 0-.05 0-.08l-.22-.14zm0-1.24c-.14-.16-.11-.25.06-.24-.16-.25 0-.31.18 0a1.1 1.1 0 01.06.64c0 .08-.1.1-.13 0a1.35 1.35 0 00-.17-.36zm.1 1.05l.07-.31c0-.08 0-.06.08 0a.93.93 0 01.23.5c0 .09 0 .14-.06.16A.25.25 0 0132 25a.31.31 0 01-.11-.25zm-4.7-3.4c0-.56.08-1 .08-1.43 0-.17.12-.17.12 0a9.09 9.09 0 01-.08 1.36c0 .06-.12.18-.12 0zm.8 2.22a.05.05 0 010 .1v-.1zm-1.32-2h.11l.2.25a.06.06 0 010 .06h-.06l-.21-.25v-.05zM28.57 23l.08-.52-.1.19c-.08 0-.09-.08-.11-.24s0-.25.11-.21l.07.17.05-.12c.1 0 .11 0 .07.16V23c-.05.08-.09.23-.14 0zM30 21.34a.26.26 0 010-.34.23.23 0 01.3 0 .16.16 0 01.1.14h-.16l.2.05c.11.1 0 .27-.08.12a.2.2 0 00-.26 0c0 .12 0 .15-.1.06zm-1.92.93s.08 0 .12.1 0 .14 0 .15-.08 0-.11-.09 0-.15 0-.16zm-1.23-.11s.08 0 .12.09 0 .15 0 .16-.08 0-.12-.1 0-.14 0-.15zm.36-.65a.26.26 0 01.24.24c0 .16 0 .29-.12.32s-.21-.08-.25-.24 0-.3.13-.32zm.17.88c-.05-.26 0-.3.12-.06a3.2 3.2 0 01.22 1.32c0 .2-.16.21-.18 0a9.27 9.27 0 00-.16-1.29zm1.55.41a2.36 2.36 0 01.16-.77c0-.12.09-.14.16-.07.24-.39.18-.17.08.12h.06c.3-.55.18-.11.15.13-.21.27-.36.32-.43.14l-.06.34c-.06.16-.1.19-.12.07zm-18.12 9.25c-.09.36-.49.18-.29-.14a5.91 5.91 0 001.06-2.68c0-.38.27-.55.58-.73a1.72 1.72 0 00.84-1.66c-.15-3 .69-4.32 2-4.84v.12c-1.16.7-1.63 2.06-1.65 3.91a9.25 9.25 0 000 1.29v-.09a19.69 19.69 0 01.17-2.66 3.66 3.66 0 01.6-1.44 3 3 0 01.23-.32c.11-.1.23-.13.32-.22v.09a3.56 3.56 0 00-1 1.73 10 10 0 00-.13 2.82 1.34 1.34 0 01-.09.37h.05a1.23 1.23 0 00.12-.57 6.5 6.5 0 01.44-3.32 2.54 2.54 0 011.34-1.31v.1c-.71.49-1.39 1.06-1.53 3 .14-1.47.67-2.57 1.65-3a3.12 3.12 0 011.21-.12l-.08.06a2.12 2.12 0 00-1.8.72h.07a1.83 1.83 0 011.79-.63l-.06.11a1.72 1.72 0 00-1.33.41v.05a1.73 1.73 0 011.27-.37c.13 0 .17.12.13.28l-.08.73a7.72 7.72 0 01-.23 2l-.06.06.06-1.23-.28 1.52c0 .17-.14.15-.11 0 .06-.32.17-.76.23-1.23a.17.17 0 00-.13.15 3.6 3.6 0 01-.33 1.37 6.58 6.58 0 00.21-1.23l-.08.07-.2 1.16c.15.08 0 .19-.09.05l.06-.64h-.09l-.28 1 .09-.7-.24.7h-.09l.12-.6-.4 1.09c-.12 0-.13 0 0-.2l.25-.74h-.08c-.15.55-.27.93-.47 1.05h-.07a2 2 0 00.33-1 2.48 2.48 0 01-.56 1.07s0-.16.18-.45l.14-.38c-.06-.08-.1-.06-.14.06a2.12 2.12 0 01-.36.77l.17-.65v-.08a2.07 2.07 0 01-.5.92l.1.05c.36-.24.86-.16 1.36-.38.11-.06.21-.08.28 0l-.09.25-.1-.14a.84.84 0 01-.24.46v-.29c-.21.46-.35.72-.37.49v-.28a1.06 1.06 0 00-.3.57c-.08 0-.1-.17-.07-.4l-.13.5c-.12 0-.15-.11-.08-.4a2.13 2.13 0 01-.24.48.49.49 0 010-.39l-.13.25c0 .19-.06.26-.13.24v-.32l-.16.43c-.09.05-.12 0-.1-.29-.15.08-.11.37-.22.49-.08-.05-.09-.19-.08-.33-.06.22-.13.36-.22.37v-.44a1.48 1.48 0 01-.17.49l-.12-.32-.06.31c-.09.05-.17 0-.22-.23 0 .41-.05.76-.32.93a1.63 1.63 0 01-.25.71l.42-.63c.1 0 .14 0 .1.23l-.44.72c-.07.08-.15.05-.23 0a2.59 2.59 0 01-.41.85 1.62 1.62 0 00.45-.72c0-.11.15 0 .11.24l-.11.09v.16h-.13v.22h-.12c.12.29 0 .48-.32.33zm2.5-10.01l.52-.09-.03.1-.49-.01zM8.47 26.1a3.62 3.62 0 01.41-.71c.11-.17.15-.05.14.11a2.21 2.21 0 01-.55.6z"/><path class="cls-3" d="M13.91 21.8a3 3 0 00-2.31-1 3.14 3.14 0 00-2.1 2.39c.2-.35.37-.57.58-.64a6 6 0 00-1 3 .75.75 0 01-.21.34 1 1 0 00-.42.73 2.31 2.31 0 00.3-.37 1.78 1.78 0 00.42-.76c.12-.46.18-.93.27-1.27A4.14 4.14 0 0110 23a3.91 3.91 0 011.59-1.61v.06A4.17 4.17 0 0010 23.08a4.1 4.1 0 00-.31.66 3.14 3.14 0 00-.24.88A3.12 3.12 0 019 26.08c-.21.28-.35.4-.38.54a.53.53 0 00-.07.31c.46-.87.68-.79.88-1.42.27-1 .09-1.94 1.37-3.34h.09A4.88 4.88 0 009.68 25a3.1 3.1 0 01-.18.77c-.16.3-.5.54-.59.85h.07a3.49 3.49 0 00.6-.78c.38-.74.25-1.74.74-2.54a3.9 3.9 0 011.91-1.9h.1A4 4 0 0010.6 23a2.49 2.49 0 00-.41.82 9.46 9.46 0 00-.27 1.29 2.24 2.24 0 01-.49 1.12c-.12.15-.21.21-.31.34a2.08 2.08 0 00-.2.51L9 27c.29-.78.47-.61.68-.87a1.93 1.93 0 00.36-.85 5 5 0 011.71-3.45 1.74 1.74 0 01.71-.38h.06a5 5 0 00-.87.57 4.75 4.75 0 00-1.11 1.61 6.1 6.1 0 00-.41 1.67c0-.08.05 0 .08 0a5.35 5.35 0 011.36-3 2.42 2.42 0 011.14-.72h.25a2.56 2.56 0 00-1.57 1.1h.08a3 3 0 011.53-.96h.08a2.62 2.62 0 00-.87.44v.08a3.87 3.87 0 011.66-.45zm-5.32 5.81a.66.66 0 01-.09-.33c0-.16.13-.15.16 0s-.07.21-.07.37zM10.13 29l.14-.15a.24.24 0 01.2 0c0 .07-.16.13-.34.18zm-.13.45l.18-.19a.27.27 0 01.28 0c0 .08-.22.17-.46.23zm0 .21l.2-.17a.28.28 0 01.29 0c0 .07-.25.15-.49.19zm.08.19l.19-.16a.28.28 0 01.28 0c0 .08-.24.15-.47.18zm.09.2l.12-.14a.21.21 0 01.2 0c0 .05-.16.12-.32.16zm.68-2.13l.11-.07a.13.13 0 01.14 0s-.13.05-.25.05zm-.17.22l.23-.1a.28.28 0 01.26.06c-.05.07-.25.08-.49 0zm.13-.54l.18-.13a.23.23 0 01.23 0 .77.77 0 01-.41.13zm.19-.32h.17a.2.2 0 01.18.09H11zm-.43 3.58l.12-.07a.34.34 0 01.15 0s-.13.07-.27.06zm.43-.42h-.3a.37.37 0 00-.22.26c.09 0 .3-.11.52-.3zm-.19-.13h-.22c-.11 0-.19.09-.2.17s.25-.05.42-.17zm1.04 1.09l.13-.28a.38.38 0 01.29-.14c0 .09-.18.28-.42.42zm.6-.28l.24-.09a.36.36 0 01.28.11c0 .08-.17.22-.37.33l.12-.23.09-.08h-.08a1.33 1.33 0 01-.27.23l.09-.19.05-.05h-.13zm1.15.04c.08 0 .36 0 .32.12 0 .08-.18.23-.37.36l.11-.24s.05 0 .08-.08h-.1a1 1 0 01-.26.23l.08-.2h-.06a.86.86 0 01-.2.15l.05-.13c.09-.12.16-.1.3-.16zm1.72-.04c0-.22.17-.36.51-.4s.85 0 .71.2l-.06.16-.15.27.09-.29v-.15a1.22 1.22 0 00-.17-.05l-.12.12-.2.22.16-.26.07-.11h-.08l-.12.12-.2.22.16-.25.08-.12h-.11l-.08.12-.19.24.14-.28v-.06h-.15l-.09.22v-.21a.42.42 0 00-.27.25zm-1.25.19l.33-.21c.23-.11.5-.15.46 0l-.07.05c-.07.05 0 .15 0 .23l-.09-.2h-.06a1.72 1.72 0 000 .32l-.14-.29v.46l-.19-.38-.06.26v-.27c0 .11-.1.24-.14.37v-.35z"/><path class="cls-3" d="M10.27 22.32c.18-.19.38-.39.57-.57a1.09 1.09 0 00-.57.57zm3.14 10.4a.58.58 0 010-.56c.1-.28.23-.36.31-.35s0 .32 0 .59l-.21-.19.06.36-.15-.17v.32zm1.88.35c0-.06-.06-.08-.08-.08s0 .06 0 .11.08.08.09.08 0-.06 0-.11zm0 .23c0-.08-.1-.12-.13-.1s0 .08.05.16.11.12.14.1 0-.08-.06-.16zm-.12.23a.28.28 0 00-.09-.11v.15c0 .07.08.11.1.09s0-.06 0-.13zm-.12.23c0-.11-.09-.19-.12-.18a.29.29 0 000 .22c0 .09.08.17.1.17s0-.11 0-.21zm-1.55-.1c.08 0 .13 0 .13.07a.21.21 0 01-.15 0c-.06 0-.13 0-.11-.05s.06 0 .13 0zm-.07-.17c.09 0 .16 0 .16.08s-.08 0-.17 0-.16-.06-.16-.08.08 0 .17 0zm-.04-.21c.11 0 .19.06.19.09s-.11.05-.21 0-.2-.06-.19-.1.09 0 .21 0zM16.85 31c-.08-.27.21-.36.52-.23a1.6 1.6 0 00.92.05 1.61 1.61 0 01.58 0c.2.11.19.2 0 .24a2.37 2.37 0 00-.8 1.21c-.14-.2.16-.7.64-1.33a4.71 4.71 0 00-.81.85 2.66 2.66 0 01.47-.82 2.13 2.13 0 00-.83 2 2 2 0 01.35-1.85l-.57.6.51-.8-.32.11v-.12l-.2.09v-.1l-.26.21.05-.23c-.09-.05-.16 0-.24.14zm.24 1.52a.67.67 0 00.12.53s.09 0 .07-.11a.69.69 0 01-.19-.42z"/><path class="cls-3" d="M17.75 32.6s.06.07.06.16 0 .17-.06.17-.05-.08-.05-.17 0-.16.05-.16zm.62-.68a.22.22 0 010 .15c0 .08-.08.13-.1.12s0-.08 0-.15.08-.13.11-.12zm.14-.32v.13c0 .05-.09.11-.1.1s0-.08 0-.14a.22.22 0 01.1-.09zm4.99.52c.22.08.25.4.13.78a1.68 1.68 0 00-.13-.78zm-1.16 1.64a.5.5 0 00-.08-.2 2 2 0 010 .24zm-2.6-4.02h.1l.11.18a.53.53 0 01-.12 0l-.09-.16zm-.22 1.16a.21.21 0 01.08.14v.1a.21.21 0 01-.1-.14v-.1zm.2-.02s.06 0 .07.11 0 .12 0 .13 0 0-.07-.1 0-.14 0-.14zm.28-.04s.08.08.09.18 0 .12 0 .12l-.05-.12a.48.48 0 010-.18zm.19-.08a.44.44 0 01.1.18v.18s-.07-.05-.11-.16 0-.18 0-.2zm.24 0s.08.08.1.19 0 .21 0 .23-.08-.1-.09-.2 0-.22 0-.22zm.26.04s.11.12.12.23 0 .16 0 .17-.06 0-.09-.16 0-.24 0-.24zm.18-.05s.08.08.12.2 0 .23 0 .23-.08-.08-.11-.2 0-.23 0-.23zm.27-.07s.07.12.07.27 0 .27-.07.27a.43.43 0 01-.06-.27c0-.15 0-.27.06-.27zm.23.08s.05.11.05.23 0 .23-.05.23-.05-.1-.05-.23 0-.23.05-.23zm.23-.06v.26a.46.46 0 010 .27s-.06-.12-.06-.27 0-.26.06-.26zm.24-.07s.05.13 0 .31-.06.28-.1.28a.52.52 0 010-.3c0-.16 0-.29.08-.29zm.32-.01v.29c0 .16-.07.28-.11.28s0-.13 0-.29.08-.28.11-.28zm.25-.15s.1.2.08.39-.1.36-.14.34 0-.17 0-.36v-.37zM21.05 32l.07.1a.48.48 0 010 .13s-.05 0-.06-.09 0-.14 0-.14zm.19-.09s.06.06.09.14 0 .12 0 .14 0 0-.07-.11 0-.16 0-.17zm1.76-.56v.09l.12-.08a3.66 3.66 0 000-.65 4.73 4.73 0 01-.14.64z"/><path class="cls-3" d="M22.9 31.64c-.07.35-.08.45-.21.57a1.22 1.22 0 000-.41h-.09a.71.71 0 01-.15.52c0-.19.07-.36.07-.55h-.1v.19a2 2 0 01-.11.29 1.37 1.37 0 000-.47h-.09v-.04a.12.12 0 00-.07 0v.08c0 .01 0 0-.06-.08H22v.12c0 .02-.07 0-.08-.1h-.12v.1l-.07-.08h-.11v.09c0 .01 0 0-.06-.08s0 0 0-.07a.28.28 0 010-.17s.07 0 .11.13a.36.36 0 010 .1.19.19 0 01.1 0v-.05a.37.37 0 010-.22s.07.07.1.18 0 0 0 .06h.11a.34.34 0 010-.13v-.08s.08.08.1.19h.07a.34.34 0 010-.16v-.06c0-.01.08.09.11.18h.07v-.29.06a1.06 1.06 0 010 .19.19.19 0 00.08 0v-.17s0 .07.05.13h.11v-.23.06a.5.5 0 010 .13.2.2 0 00.08 0v-.3.06a1.21 1.21 0 010 .2h.08a6.07 6.07 0 00.21-1.33.71.71 0 00-.08-.15 2.81 2.81 0 01-.22 1.21 3.3 3.3 0 000-1.36 3 3 0 01-.13 1.31 3.28 3.28 0 00-.13-1.43h-.08c.12.1.09.53 0 .59-.08-.25 0-.33-.24-.5h.04a.58.58 0 01.11.49 1.54 1.54 0 00-.28-.42h-.12c.17.2.17.24.15.4-.07-.18-.34-.3-.44-.38h-.12c.13.06.32.3.25.38-.09-.1-.29-.21-.37-.36h-.08a1.62 1.62 0 010 .23.52.52 0 01-.33-.2h-.08s.07.13.08.17-.31-.19-.33-.23.05 0-.11 0c0 0 .11.25.12.29l-.24-.24h-.19l-.12-.2a8 8 0 002.06-.13l.75-.15c.25-.08.42.06.48.44v.43a.88.88 0 01.06.89 1.36 1.36 0 00.47.72c.21.2.24.48 0 .87a5.29 5.29 0 01-.82 1.29v.06a.25.25 0 000-.07 1.77 1.77 0 000-.2.4.4 0 01.07.15l.12-.2v-.21l.08.14a.83.83 0 00.09-.16c0-.06 0-.14-.06-.22a.83.83 0 01.09.16l.11-.2-.06-.2a.57.57 0 01.08.13 1.63 1.63 0 00.08-.29l-1.37.85.37-.31v-.26a1 1 0 01.09.22l.1-.08v-.32a1.06 1.06 0 01.1.26l.12-.09a3.56 3.56 0 000-.43 1.12 1.12 0 01.13.36l.11-.09c0-.18 0-.4-.07-.6a1.15 1.15 0 01.16.51s.06 0 .08-.07a5 5 0 00-.08-.65 1.43 1.43 0 01.19.56 5.76 5.76 0 00-.08-.77 1.15 1.15 0 01.17.66l.08-.08a3.77 3.77 0 00-.26-1.09c-.06.19-.06.25-.11.24v-.33a.92.92 0 01-.18.57l.05-.48z"/><path class="cls-3" d="M21.7 32.48c0 .08 0 .15-.05.15s0-.08 0-.15zm.15-.15v.14c0 .14 0 .16-.07.16s-.06-.1 0-.18 0-.12.07-.12zm.15.03c0 .15 0 .25-.06.24s-.05-.12 0-.24zm0-.19zm.2-.02v.17c0 .12 0 .23-.1.21s-.06-.12 0-.24.06-.14.1-.14zm-.92-3.82a2.86 2.86 0 011 .65c.05.1 0 .12-.05.08a9.36 9.36 0 01-1-.73zm1.27.86c.07 0 .1.08.08.1s-.06 0-.13 0-.09-.09-.08-.1.07 0 .13 0zm-3.35.5h.36l.08.13s.12.42-.09 0c0-.05-.11 0-.18-.07s0 0-.16-.06zm-1.66 5.74c.07 0 .13 0 .13.06a.11.11 0 01-.1 0h-.14s0-.06.11-.06zm.17.33h.24c.01 0-.05.07-.16.11a.47.47 0 01-.24 0s.06-.07.16-.1z"/><path class="cls-3" d="M17.82 35.87h.27c.03 0-.07.08-.19.1a.44.44 0 01-.27 0s.06-.08.19-.11zM18 36h.17c.01 0 0 0-.12.08s-.17 0-.18 0 0-.06.13-.07zm.09.1h.02-.13.11zm1.42-.54h.23c.02 0-.06.12-.16.16s-.22 0-.23 0 0-.1.16-.16zm-.19-.11c.08-.05.16-.05.18 0s0 .09-.12.11a.14.14 0 01-.18 0s0-.09.12-.11zm-.17-.24h.13c.01 0 0 .07-.09.09s-.12 0-.13 0 0-.07.09-.09zm-1.93-1.11a.05.05 0 00-.1 0 .24.24 0 00.1.26c.11.06.14-.05.08-.09a.3.3 0 01-.08-.16zM17 34c0-.08-.06-.12-.11 0a.27.27 0 000 .33c.09.12.17 0 .14 0A.27.27 0 0117 34zm9.32-6c-.08.12-.11.57.29 1.12.15.18 0 .31.19.34s.13-.08.14-.2l-.13-.07H27l-.2-.13h.21c-.01 0-.2-.09-.29-.13l.22-.05c0-.07-.12-.12-.33-.19l.21-.05-.24-.15h.19l-.29-.15.16-.08-.18-.05.16-.08c-.13-.06-.18-.18-.3 0zm-.32.38a.57.57 0 01-.05-.45c.09-.24.18-.3.26-.3.16.17-.1.27-.16.41s-.05.12-.05.34zm-.07-.82c.07-.07.15-.11.18-.08s0 .09-.08.17-.15.12-.18.1 0-.11.08-.19zm-.06.85a.1.1 0 01.08.09.1.1 0 01-.08.08.09.09 0 110-.17zm.13.27c.05 0 .07.08 0 .14s-.09.11-.12.08-.07-.08 0-.14.08-.11.12-.08zm.23.32c.06 0 .07.09 0 .17a.22.22 0 01-.2.09c-.07 0-.08-.1 0-.17a.2.2 0 01.22-.09zm.19.26s0 .11-.05.13a.13.13 0 01-.17 0s0-.09.05-.12a.17.17 0 01.17 0zm.96.16v-.12c0-.01-.1 0-.14-.08s0-.24.15-.28.15 0 .12.11l-.06.05a.4.4 0 01.24.15c-.07 0-.11 0-.12.06.22 0 .21.32 0 .26s-.2 0-.13.24.24.33.22.05c0-.13.43-.16.48.13l-.17-.06c0 .21.21.12.24.3h-.15a.92.92 0 01.38.43c-.19 0-.2-.22-.38-.22.23.3.5.24.63.54a1.25 1.25 0 01-.67-.4c.23.32.38.59.32.72-.33-.14-.4-.64-.53-.78 0 .25.19.4.12.68a1.29 1.29 0 01-.2-.82c.13 0 .19-.06.19-.29s-.15-.22-.12 0-.12.23-.48 0c-.05.05 0 .12.22.23v.21l.11-.18v.56c0 .15 0 .12-.09 0v-.28c0 .2 0 .3-.09.28l-.05-.52-.15.19v-.29l-.13.1v-.35c-.09.05-.2 0-.31-.15a.45.45 0 00.36 0c-.06-.27.06-.4.28-.43zM24.22 31a.33.33 0 00-.08-.32c-.06 0-.1-.06-.08 0s.13.22.16.32zm-.22-.77c.18.1.26.11.35.36 0 .09 0 .16-.05.08s-.16-.32-.3-.44zm0-.52a.78.78 0 01.43.56c0 .15 0 .23-.1.11s-.17-.47-.33-.67zm.14-.37a.72.72 0 01.44.65c0 .15-.07.24-.11.11a1.94 1.94 0 00-.33-.76zm.1-.2a.75.75 0 01.46.49c0 .14 0 .2-.1.1a1.39 1.39 0 00-.36-.59zm1.57 6.58a.37.37 0 01.49-.16c.11 0 .1.16.1.26-.07-.07-.14-.15-.2-.07-.19-.14-.25-.07-.39 0zm-.71.06s.09 0 .09.08 0 .06-.09.06-.09 0-.09-.06a.08.08 0 01.09-.08zm-.47 0s.07 0 .09.1 0 .14 0 .14-.07 0-.09-.11 0-.13 0-.13zm.16-.03a.11.11 0 01.05.08v-.08zm.04-1.75s-.1.09-.12.06 0-.08 0-.13h.05s-.12.1-.15.08 0-.1 0-.16l.06-.06a.19.19 0 01-.15.08.16.16 0 010-.16h-.09c-.02 0 0-.06 0-.12v-.13c0-.03.12 0 .2.2s0 .11 0 .15.1.08.13.12a.37.37 0 01.07.28l-.07-.12z"/><path class="cls-3" d="M24.83 34.17v.18c0 .08-.14.13-.16.1s0-.11 0-.19.14-.12.17-.09zm1.63-.79v.16c0 .08-.08.14-.11.12a.31.31 0 010-.16c0-.08.08-.13.1-.12zm-.2-.08v.24c0 .12-.14.2-.18.19s0-.12 0-.24.14-.2.17-.19zm-.46-.18v.2c0 .11-.09.16-.12.14s0-.09 0-.18.09-.18.12-.16zM12.9 10.64a.34.34 0 01.29-.29l.29.05c.11.08.1.11 0 .12s-.37 0-.44.18-.13.14-.12-.06zm.93.56a.08.08 0 01.07.08.09.09 0 01-.07.08.08.08 0 01-.07-.08.07.07 0 01.07-.08z"/><path class="cls-3" d="M12.86 10.94c-.09.12-.07.25.09.41l.22.26c.18.14.28.11.25-.09s0-.19.13-.19a.23.23 0 00.17-.11c0-.11 0-.16-.08-.19a1.23 1.23 0 01-.43.2 1.38 1.38 0 00.31-.25.16.16 0 01.18 0 .16.16 0 00-.12-.16.82.82 0 00-.55.32.54.54 0 01.51-.36.15.15 0 00-.07-.17.53.53 0 00-.41.12l-.2.24zm1.08 1.65a5.54 5.54 0 011.1 1.5v.49l-.16-.58v.56l-.13-.8-.09.35-.08-.49c-.07-.06-.08.25-.07.67-.12-.12-.11-.46-.09-.85l-.14.38a1.46 1.46 0 010-.72c-.08-.07-.13.06-.16.46a1.39 1.39 0 010-.73l-.1.2v-.46zm3.26-3.76a.87.87 0 00.54.14v.1a1.79 1.79 0 001-.37.23.23 0 00-.15 0c-.24.12-.21 0 .24-.18h.23l.29-.07c-.24.22-.48.43-.74.63a1.25 1.25 0 01-1 .16 2.94 2.94 0 01-.5-.31c0-.07-.08-.11.11-.07zm1.8.07a.07.07 0 01.1.1.07.07 0 01-.1 0 .06.06 0 010-.1zm.43.8h.08v.08s-.07.06-.08 0 0 0 0-.09zm.94-.36a.11.11 0 01.1 0 .08.08 0 01-.06.1h-.09c-.01 0 0-.06.05-.09zm-.21-.15h.09c.01 0 0 .07 0 .09s-.08 0-.09 0 0-.06 0-.1zm-1.45.28h.09a.07.07 0 01-.06.07.09.09 0 01-.1 0l.07-.07zm.52.99h.13c.01 0 0 .06-.08.09s-.12 0-.13 0 0-.07.08-.08zm-1.7-.91a1.91 1.91 0 00.61-.18l.31-.15c.14-.07.17-.05.05.07a3.25 3.25 0 01-.43.29.63.63 0 01-.58.11c-.15 0-.1-.12 0-.14z"/><path class="cls-3" d="M18.46 9.42a1.56 1.56 0 01.54-.31 1.77 1.77 0 01.66-.11c.15-.15.3.05.13.21a.88.88 0 01-.19.12 1.72 1.72 0 01-.54.24c-.24.06-.27 0-.07-.1l.19-.13a.93.93 0 01.45-.13c-.23-.15-.67.08-1.1.29-.14.07-.18 0-.07-.08z"/><path class="cls-3" d="M19.66 8.73a.86.86 0 01.28 0c.17 0 .25.14.26.26s-.09.19-.17.21c0-.21-.12-.33-.24-.37h-.13v-.1zm-.2.05a.43.43 0 01.12 0v.08h-.11s-.11 0 0-.05zm-.24-.13a.68.68 0 01.41-.21 1.68 1.68 0 01.5 0c.34.12.2.23 0 .15a.54.54 0 00-.48 0c0 .13-.24 0-.37.12s-.11 0-.05-.07zm.97.04c.1 0 .18 0 .2.1a.27.27 0 01-.1.27c0-.25-.08-.23-.1-.37zm.29-.07a.46.46 0 010 .32l-.11.2c0 .09 0 .12.07.09a.31.31 0 00.16-.29c0-.2 0-.29.08-.36-.12-.2-.24-.17-.2 0zm-.85 1.17c0 .14.31.16.35 0s-.06-.28 0-.44a.41.41 0 00-.33.42zm-.08.35a.31.31 0 01.33-.15c.12 0 .19 0 .19.15a1.43 1.43 0 010 .36c0 .1-.05.09-.18.1s-.2-.06-.36 0c.09-.23 0-.32 0-.49zm.57-.52c-.07-.11 0-.15.08-.07a.35.35 0 01.13.26.09.09 0 01-.16.09c-.06-.08 0-.16-.05-.28zm.07.5c0-.13 0-.14.17-.07s.12.15.07.21a.34.34 0 010 .42c-.07 0-.15 0-.2-.1a.32.32 0 010-.23.31.31 0 000-.23zm.18 1.1c.07 0 .11 0 .11.08s-.05.06-.11 0a.09.09 0 01-.1-.08h.1zm-.82-.12c.07 0 .12 0 .11.08s-.06.07-.12.06-.12 0-.11-.08.05-.08.12-.06z"/><path class="cls-3" d="M20.56 11a.78.78 0 00-.57-.27 2.19 2.19 0 00-.71.1.92.92 0 00-.17.71h.12l-.11.08h.15l-.09.13h.08l-.07.17.08.06v.1h.11v.1h.08v.1h.08a.8.8 0 00.26.21.42.42 0 00.25 0 2.3 2.3 0 00.33-.37v-.22a.19.19 0 00.11-.2l.07-.09v-.21a.38.38 0 01-.2 0l-.19-.08-.05.41c0 .08 0 .2-.13.16l-.23-.11c-.05 0 0-.1 0-.13h.07v-.36a.46.46 0 01-.41 0 .29.29 0 00-.16 0 .55.55 0 01.15-.18l-.08-.12h.45a.33.33 0 00.15.12V11c0-.11.12-.13.24-.09v.26l.43-.13V11zm-1 1.09A.77.77 0 0120 12c.21.05.22.13 0 .25a1.29 1.29 0 01-.39 0c0-.06.08-.09 0-.21zm.16.09a.2.2 0 01.21 0v.1h-.15s0-.07-.05-.1zm.06-.46z"/><path class="cls-3" d="M20 11.11v-.09c0-.09.09-.11.09 0a.53.53 0 010 .13zm-.09.65c0-.17 0-.32.07-.53h.09c0 .15 0 .3-.08.56 0 .05 0 0-.08 0zm-1.03-.92c0-.1.1-.09.11 0a.49.49 0 01-.09.43c-.07 0-.16 0-.11-.08a.4.4 0 00.09-.35zm-.08.76c0-.12.06-.16.08 0a2.08 2.08 0 00.62 1c.14.12 0 .23-.15.11a1.86 1.86 0 01-.55-1.12zm1.33 1.09a.33.33 0 01.15-.3c.08-.06.11 0 .07.09s-.15.09-.22.21zm-3.47 1.48a.52.52 0 01.08-.23l-.09-.06a2.71 2.71 0 01-.29.43 1.65 1.65 0 01.38-.7 1.35 1.35 0 01-.08.24l.1.08.06-.08a.49.49 0 010 .12.55.55 0 01-.14.18zm-.16.24a.32.32 0 01.1-.19.3.3 0 01-.1.19zm.71.1v-.14a.11.11 0 010-.05l.08-.1a.37.37 0 01-.17.32zm-.03.39c0-.13 0-.23.16-.31 0 .2 0 .26-.16.31zm.32-.12a1.44 1.44 0 00.11-.86c.14.37.12.47-.11.86zM19.67 16a2.93 2.93 0 00.08-.83h-.07a1.84 1.84 0 01-.13.53 1.51 1.51 0 00.05-.52.11.11 0 01-.08 0 2.53 2.53 0 01-.1.43 3.13 3.13 0 000-.42h-.12c0 .17 0 .36-.08.6v-.59h-.13a4.89 4.89 0 01-.09.8v-.69a.49.49 0 00-.14 0 5.21 5.21 0 01-.06.72v-.73h-.12a4.84 4.84 0 01-.1.66v-.69h-.12c0 .27 0 .51-.05.79a3.54 3.54 0 010-.83.22.22 0 01-.11-.05 3.18 3.18 0 00-.07.92 1.7 1.7 0 010-.95l-.08-.05a2.57 2.57 0 01-.19.36 2.66 2.66 0 00.14-.39l-.14-.08a1.52 1.52 0 01-.24.59 3.41 3.41 0 00.2-1.33 2.7 2.7 0 01.07.5l.15.07v-.69a1.76 1.76 0 01.05.7.28.28 0 00.12 0l.07-.1a.56.56 0 000 .12h.09c0-.08 0-.17.08-.28v.31h.1v-.23.24h.14v-.39c0 .12 0 .21.06.31H19a1.77 1.77 0 010-.32c0 .12 0 .23.06.32h.14v-.48a2.54 2.54 0 01.09.47h.12v-.34a1.6 1.6 0 01.11.33h.08c0-.12 0-.24-.06-.38a1.62 1.62 0 01.12.35h.08c0-.19 0-.39-.08-.62a2.11 2.11 0 010 1.88z"/><path class="cls-3" d="M20 15.11l.05.12.19-.17c0-.07.11-.05.15 0v-.21h.17a.23.23 0 000-.2v-.27c-.1-.17-.18-.28-.3-.32a.51.51 0 010 .38.39.39 0 00-.22-.36.45.45 0 01.05.32.51.51 0 00-.13-.12v.16l-.08.05v.53zm1.26-.94v.06s-.06 0-.1-.06zm-.08-.23a.54.54 0 01.06.16h-.15L21 14zm-.18-.25s.13.08.19.2H21c0-.11-.06-.2 0-.2zm-.13.46s.06 0 .12.12a.26.26 0 010 .16s-.07 0-.11-.12-.07-.16-.05-.16zm-.26-.05s.08.05.15.15.08.18 0 .2-.08-.06-.14-.15-.08-.19-.06-.2zm-4.29-.52s.06.06.09.07l.07-.07a.29.29 0 01-.11.19v-.11l-.09-.08zm-1.19 13.34l-.05.17-.05-.02.02-.15h.08zM11 32.79c.17-.07.21 0 .27.21s.24.24.24.34c.3.26.25.36-.16.32a.29.29 0 01-.22-.32l-.13-.55zm.08 1.02a.43.43 0 00.05.52.34.34 0 00.27.12l-.06-.15.16.11c0-.08-.06-.17-.21-.28h.2c0-.1-.09-.2-.25-.28h.13c-.07-.18-.19-.24-.29-.09zm.52.09c.05 0 .09.06.1.14s0 .14-.06.15-.1 0-.11-.13 0-.16.07-.16zm2.7-9.11a2.59 2.59 0 01.42-1.25 9.67 9.67 0 00-.42 1.25zm.95-2.47c-.16.07-.17-.07-.05-.16a1.26 1.26 0 01.85-.29h.56c.21 0 .19.21 0 .2h-.4a1.73 1.73 0 00-.95.25z"/><path class="cls-3" d="M16.46 22.12a.46.46 0 01.27.05s-.12.06-.27.06-.26 0-.26-.06.12-.05.26-.05zm1.09-2.82s-.09.07-.18.19a.58.58 0 00-.12.21s.09-.07.17-.19.15-.21.13-.21zm-.93.92c-.06.12 0 .18.1.24a2 2 0 001.57-.31l.65-.3c.12-.15.09-.19-.07-.14l-.32.16.08-.26a1.24 1.24 0 00-.36.41l-.05-.13a.45.45 0 00-.17.27L18 20a.38.38 0 00-.16.17v-.18c-.06 0-.14 0-.24.26l.05-.2s-.11 0-.2.24l.21-.64c-.1 0-.25.26-.41.68-.06 0-.09 0-.08-.06l.24-.47c-.12 0-.25.16-.41.47l.19-.54-.35.45V20a.5.5 0 00-.23.19zm.07 8.66c-.05-.06 0-.11.07-.08l.16.14s-.06.11-.1.08l-.13-.14zm.12-.11s0-.09.07-.07l.13.14s0 .09-.07.06l-.13-.13zm.08-.12c-.05 0 0-.12.08-.08l.16.16s-.07.11-.09.07l-.15-.15zm.11-.2c-.06-.07.06-.16.13-.12l.24.24c.06.07-.09.17-.13.12l-.24-.24zm.21-.21c-.08-.08 0-.19.09-.12l.29.25c.08.07 0 .19-.1.13l-.28-.26zm.17-.14a.06.06 0 11.08-.1l.25.21c.07.07 0 .16-.09.12l-.24-.23zm.23-.1c-.06-.05 0-.13.06-.09l.22.19c.05.05 0 .14-.08.1l-.2-.2zm-1.07-1.48c0-.06-.1 0-.12 0v.24c0 .06.12 0 .12 0v-.24zm-.34.33c0-.1-.12-.05-.12 0v.18c0 .1.14 0 .12 0v-.19zm-.4.26c0-.1-.08-.07-.08 0v.17c0 .09.09 0 .09 0v-.17zm.5-.34a.07.07 0 010 .14.08.08 0 010-.14zm-.37.23a.08.08 0 01.07.08c0 .06 0 .08-.07.08s-.06 0-.06-.08 0-.08.06-.08zm-.33.25c0-.08-.11-.08-.11 0v.16c0 .08.12.07.12 0v-.16zm2.89-10.05s.06 0 .06.09 0 .11-.06.11-.06 0-.06-.11 0-.09.06-.09zm.15.25v-.3s.06.06.06.16 0 .14-.06.14zm.26-.06c.06 0 .12 0 .12.05a.17.17 0 01-.12 0 .14.14 0 01-.11 0s.05-.05.11-.05zm.1.22a.05.05 0 010 .05v.07a.08.08 0 010-.07.07.07 0 010-.05zm.24-.01h.5c.15 0 .18.08.07.23.06.26-.27.43-.26 0 0-.08-.12-.12-.31-.12s-.08-.11 0-.12zm-.77 3.12a.07.07 0 01.07.07.08.08 0 01-.07.08v-.08a.07.07 0 010-.07zm-.21.07a.09.09 0 01.08.09.09.09 0 01-.08.08.08.08 0 01-.08-.08.08.08 0 01.08-.09zm.27.15c.17-.12.34-.2.37-.16s-.1.17-.28.3-.35.19-.39.15.11-.17.3-.29zm.63-.42a.53.53 0 01.23-.13s-.05.12-.16.21-.21.15-.23.12.06-.12.16-.2zm-.41 1.01a2.1 2.1 0 01.13-.26.49.49 0 01.3-.36.77.77 0 01.2-.13c0 .06-.07.13-.11.18a1 1 0 01.35-.21 2.06 2.06 0 01-.25.26l.08.06a1.33 1.33 0 01.38-.24 4 4 0 01-.29.29l.09.05a1 1 0 01.4-.18l-.19.16a1.59 1.59 0 01.34 0c-.18.08-.28.1-.42.16l.11.06a.8.8 0 01.4-.12l-.31.18h.1a.66.66 0 01.38-.08l-.29.13h.05a.94.94 0 01.36-.08l-.28.13h.08a.56.56 0 01.31 0 1.13 1.13 0 00-.24.08l.28.17h-.05l-.43-.15h-.15a1.11 1.11 0 01-.19.09.65.65 0 01.11-.12h-.11l-.18.1a.61.61 0 01.1-.14h-.1a1.5 1.5 0 01-.23.15.76.76 0 01.13-.17l-.14-.05-.2.17a.38.38 0 01.1-.2h-.13l-.23.19a1 1 0 01.14-.22l-.15-.12a1.07 1.07 0 01-.25.22zm-1.49.47a5.74 5.74 0 00-.46 1.95 4.41 4.41 0 000 1.45c.06.27.18.36.3.35l2-.32c.14 0 .29-.15.22-.28l-.08-.16-.06.23L19 25l-.08.21-.12-.26-.09.32-.09-.27-.07.27-.06-.27-.08.28-.1-.25-.08.3-.1-.29-.08.22-.1-.18-.06.16-.1-.13a.34.34 0 00-.28 0v.07-.07a3.26 3.26 0 00-.45-.09l.19-.1c0-.06-.07-.09-.19-.08l.2-.14h-.21l.2-.12c0-.06-.06-.11-.22-.18l.22-.06v-.06h-.22l.23-.11c0-.05 0-.09-.19-.15h.19c0-.05 0-.12-.16-.17l.16-.05-.26-.2.2-.08c0-.07 0-.1-.15-.15l.22-.09a.31.31 0 00-.2-.15l.2-.07-.16-.1.18-.08-.14-.06.17-.1s0-.08-.17-.09l.2-.08v-.08h-.19l.1-.08-.12-.09.27-.07v-.05l-.2-.05.16-.1a.14.14 0 00-.16-.1zm.31.28a7.83 7.83 0 00-.12 2.66 6 6 0 01.37-2.94v.09a5.47 5.47 0 00-.12 2.73 4.92 4.92 0 01.3-2.57v.14a5.36 5.36 0 000 2.39 7.7 7.7 0 01.11-2.58h.09a7.19 7.19 0 00-.05 2.56l.05-.06a7.28 7.28 0 01.07-2.44h.08a7.28 7.28 0 000 2.46h.06a7.25 7.25 0 01.09-2.48l.05.06a10 10 0 000 2.38h.06a10.76 10.76 0 010-2.27l.06-.08a9 9 0 000 2.36h.05a9.68 9.68 0 010-2.46h.05a16.56 16.56 0 000 2.44h.05a9.14 9.14 0 01.18-2.43c.1 0 .1.09 0 .24a9.57 9.57 0 000 2.14h.08a8.23 8.23 0 01.11-2.36c.06-.07.13 0 .05.17a9.27 9.27 0 00-.07 2.19h.1c.1 0 .12.08 0 .12a13.3 13.3 0 01-1.88.3c-.12 0-.15-.06-.15-.23a8 8 0 01.29-2.59zm2.19.54l.08-.4c.1-.05.14 0 .12.08l-.17.34zm-.14-.42c-.1.66-.1 1.06-.16 1.75l.05.12a9.52 9.52 0 01.23-1.85c0-.1-.07-.13-.12 0zm-.2 0c0-.05.1 0 .09 0a12.62 12.62 0 00-.19 2 7.17 7.17 0 01.14-2.05zm-2.77 4.35a1.77 1.77 0 01.09-.67c0-.09.12-.14.28-.16l1.78-.26c.1 0 .11 0 .1.16a1.31 1.31 0 01-.14.46c-.06.06-.08-.17-.06-.52-.13.32-.08.66-.29.71-.1-.15.05-.43.08-.64-.2.19-.14.41-.31.65-.07 0-.05-.21 0-.57a1.89 1.89 0 01-.27.57 1.12 1.12 0 010-.49c-.08.35-.17.58-.25.62a1.82 1.82 0 010-.57 1.35 1.35 0 01-.19.63.77.77 0 010-.61h-.08c-.05.17-.08.32-.16.37S17 26.18 17 26a1.19 1.19 0 01-.37.69z"/><path class="cls-3" d="M20 22.9c-.1.08-.14.18.07.16-.14.14-.16.23 0 .27-.26.33-.26.43 0 .28-.29.37-.25.42-.05.36-.26.3-.22.34-.14.36-.17.24-.17.36 0 .34a.41.41 0 00-.25.38c-.06.21-.63.45-.15.65a.94.94 0 01.36.62c0 .19.12.2.28.14a1.76 1.76 0 01.4-.07c.25 0 .26-.25 0-.29 0-.11-.06-.16-.21-.1.12-.2 0-.14-.08-.17s.07-.13-.15 0v-.07a.22.22 0 00.17-.19l-.36.12c.11-.09.16-.16.15-.22l-.25.05c.26-.18.37-.32.35-.38l-.27.08c.2-.16.33-.3.31-.38l-.24.1c0-.08.11-.16.31-.22s.24-.18.21-.33l-.36.17a2.33 2.33 0 00.6-.66c0-.09-.32.1-.7.42v-.06a3.12 3.12 0 00.86-.88l-.7.55.64-.76c0-.1-.23 0-.59.38v-.08l.33-.36a1.25 1.25 0 00.52-.55c.06-.18-.16.05-.51.35-.08.08-.17.12-.26.22l.81-.85v-.11c-.08-.08-.6.53-1 .74zm-1 3.29c-.15-.09 0-.31.12-.21l.4.29c.12.09 0 .25-.1.19l-.42-.27zm.16-.25a.12.12 0 01.12-.2l.21.21c.12.11 0 .2-.07.15l-.26-.16zm.85.79c-.11-.05-.16 0-.09.08a2.17 2.17 0 00.55.36 1.23 1.23 0 00.61.12c.15 0 .22-.09 0-.13a4.43 4.43 0 01-1.1-.43zm.1 0a.12.12 0 010-.2h.48a.32.32 0 01.26.16l.22.25c.09.12 0 .22-.08.19a5.16 5.16 0 01-.92-.36z"/><path class="cls-3" d="M20.65 25.46a.68.68 0 01.38-.32 6.52 6.52 0 001.32-.32c.14-.09.19-.07.18.08a1.66 1.66 0 01-.21.86v-.71h-.06a1.67 1.67 0 01-.18.73v-.66H22l-.15.65v-.57c0-.08 0-.1-.07-.06-.09.67-.21 1-.34 1a2.23 2.23 0 00.1-1 3 3 0 01-.21.93c-.13-.2.12-.54.07-.87l-.24.82c-.08 0-.05-.11 0-.32v-.46a2.3 2.3 0 01-.22.6v-.61l-.17.44v-.36l-.19.08zm2-.51c0-.14.17-.1.11 0l-.08.19V25zm0 .55zm.07-.2v.05a.06.06 0 01-.06 0s0-.05.06-.05zm0-.81s.07.05.08.12 0 .13 0 .13-.06 0-.07-.11a.27.27 0 010-.14zm-.19-.39a.35.35 0 01.11.32c0 .13-.11.23-.11.13a.87.87 0 00-.1-.41c-.05-.07 0-.09.1 0zm-1-.24c0-.13.12 0 .12.06v.21s-.05 0-.09-.07v-.2zm-.46.69c-.11.07-.11.12 0 .16 0 .06 0 .1.06.1s.05 0 .05-.1h.12v.26a.5.5 0 01-.13 0 .06.06 0 00-.06.05l.05.05.89-.2c.27 0 .33-.2.27-.52 0-.1 0-.14-.08-.13h-.2l.12-.08c.16-.08.16-.11 0-.11h-.28.22c.07 0 .1-.1 0-.14h-.24.19c.12-.1.05-.16-.18-.19.08-.09.07-.16 0-.16s-.16-.16-.12 0l.05.88c0 .09 0 .16-.12.2l-.65.13zm.5-.34s.07 0 .07.06a.06.06 0 11-.12 0 .06.06 0 01.05-.06zm.54.28zm-.11-.18h.11c.01 0 0 .07-.08.08a.09.09 0 01-.11 0s0-.05.08-.07zm-.61.58v-.27h-.07v.24zm.15 0h.06v-.25h-.12l.06.24zm.16-.06v-.22h-.06v.22zm.12-.05c.09-.11.09-.16 0-.19v.2zm2.04-12.61a2 2 0 00-1.93.64 1.87 1.87 0 00-.41 1.08c0 .06.14-.08.32-.31h-.11a1.19 1.19 0 01.12-.22s0-.11.09-.15a.27.27 0 00.14-.15H22a1.41 1.41 0 011.21-.45h.38a.2.2 0 00.17 0s.05-.06 0-.06a3.34 3.34 0 00-1.26.05 2.44 2.44 0 011.37-.19c.25 0 .27-.17 0-.2zm-1.93 7.1a.21.21 0 010 .2c0 .08-.1.15-.14.14s-.06-.11 0-.19.1-.16.15-.15zm-1 .39zm.08.46a.92.92 0 01.37-.62c.19-.13.23-.09.08.09s-.21.39-.32.57-.15.18-.13 0zm.56-1a.8.8 0 00-.43.36c-.06.16 0 .18.08.06a2.34 2.34 0 01.4-.32c.06 0 .11-.14-.05-.1zm-1.14.9c-.1.11-.08.15.08.09a2.34 2.34 0 01.57-.72l.45-.4c.35-.08.55-.45.61-1.08v-.07a2.06 2.06 0 01-.64.93 2.89 2.89 0 00-.63.63c-.08.08-.08.18-.14.28a3 3 0 00-.28.34zm-.11-.28c-.08.14 0 .2.07.08a5 5 0 01.83-1 2.57 2.57 0 00.9-1.18c.1-.32 0-.41-.1-.21a2.52 2.52 0 01-.69 1.15 3.7 3.7 0 00-1 1.15zm0-.44c-.07.12-.08.21 0 .28.26-.1.18-.5.8-.81.08-.11.05-.15-.08-.11l-.58.42c.2-.31.4-.57.69-.63a.9.9 0 00.52-.28c.06-.15 0-.19-.07-.12-.36.24-.66.33-.94.54a1.43 1.43 0 00-.5.79l.19-.08zm0-.77a1.27 1.27 0 01.81-.51 1.59 1.59 0 00.71-.53c.21-.13.17 0 .1.13a.57.57 0 01-.26.25 2.32 2.32 0 01-.59.34 1.45 1.45 0 00-.64.45c-.12.09-.17.05-.13-.13zm.63-.76a1.5 1.5 0 00.5-.44c.19-.27.27-.28.21 0a.78.78 0 01-.54.58c-.28.11-.36 0-.17-.14zm.83-.61l.1-.48a.88.88 0 01.2-.51l.14-.4c0-.16.11-.14.11.06l-.09.25c.08 0 0 .12 0 .2s0 .2-.1.22a1.36 1.36 0 01-.18.75c-.16.2-.21.17-.16-.09zm-.64-.07l.22-.52c.05-.18.14-.29.26-.3l.3-.28c.06-.08.1 0 .06.09l-.21.35a1.56 1.56 0 01-.4.82c0 .05-.15.05-.09 0l.25-.5-.32.44c-.09.12-.11 0-.07-.07zm-.37.21a1.59 1.59 0 01.28-.6c.15-.14.19-.13.09 0a1.45 1.45 0 00-.15.66c0 .26-.34.21-.22-.1zm0-.42c0 .1 0 .08.08 0l.12-.34a3.85 3.85 0 00.49-.46c.08.12.22 0 .45-.29a.92.92 0 00.49-.62c.07-.22 0-.26-.12-.11a3 3 0 00-.45.58c-.25.08-.45.36-.74.49a.28.28 0 00-.11.24c-.12.08-.2.22-.21.51zm0-.65s.08-.06.11 0 0 .08 0 .12a.09.09 0 01-.12 0 .1.1 0 010-.12zm1.48-2.28a1.71 1.71 0 01.62-.48c.26-.1.24.1.07.1s-.32.12-.62.5c-.08.11-.18 0-.07-.12zm-1.76 2.71a.91.91 0 01.3-.91c.61-.37.82-.92 1-.91a5 5 0 01.86-1c.27-.19.32-.15.18.14a5.16 5.16 0 01-1.12 1.38.49.49 0 00-.37.26l.24-.12c.12 0 .13 0 .05.1s-.53.63-.61.3c-.13.25-.36.21-.37.46v.33c-.05.1-.09.1-.15 0zm2.37-3.48c.12 0 .17.05.08.16a2.37 2.37 0 00-.84.66.27.27 0 01-.16.31c0 .2-.12.29-.32.32l-.29.37c.07.1 0 .24-.25.45s-.19.11-.16-.13c.16-.44.46-1.08.61-1.08s.08 0 .11-.17.12-.08.09 0 0 .12.08 0a2 2 0 011.05-.93zm-.89.13a1.71 1.71 0 011.42-.45c.16 0 .13.17 0 .16a1.21 1.21 0 00-.37.07 1.6 1.6 0 00-.44.13 2.06 2.06 0 00-.72.72c-.08 0-.09 0 0-.08a1.25 1.25 0 01.91-.76c-.19 0-.41 0-.75.35 0 0-.05 0 0-.11zm.29-.41a1.46 1.46 0 011-.24c.24 0 .24.17.11.16a1.87 1.87 0 00-1.09.13c-.13.07-.11 0 0 0zm1.81-1.1c-.09-.12 0-.19.13-.17a2.27 2.27 0 011 .32c.13.09 0 .18-.07.12l-.27-.15c0 .12-.1.07-.26-.07-.1.11-.24.06-.38-.1l.09.26c0 .06 0 .06-.07 0l-.17-.23zm.57.21c-.05 0 0 .14.06.18s.12 0 .09-.06-.09-.13-.15-.13zm.85.34s-.13-.07 0-.1c-.13-.08-.08-.18 0-.2.36 0 .64-.21 1.05 0l.19.21c.12.28 0 .41-.15.21s0-.22-.21-.32a1.29 1.29 0 01.19.63c.3.29 0 .36-.06.17l-.12-.54v.46s0-.19-.08-.41-.05-.27-.1-.28a1.39 1.39 0 00-.61 0c.29 0 .49 0 .56.08a.47.47 0 01.06.41c-.06.11-.1.08-.1 0v-.17c0-.1-.12-.11-.27-.1a.42.42 0 01-.31 0zm-3.69 9.93a14 14 0 001.47 2c.07.08 0-.16.07-.07a2.73 2.73 0 00.38.58c.08-.07-.17-.3-.21-.56l.76.88c.07-.12-.37-.64-.73-1.1l.05-.05.87 1.13a9.16 9.16 0 00-.8-1.24v-.09c.16.2.38.5.55.76a3.48 3.48 0 00.55.7c.31.08-.76-1.05-1.25-2v-.06a7.43 7.43 0 001.67 2.08c.07 0 .12 0 .06-.12a18.84 18.84 0 01-1.51-1.88v-.05a6.74 6.74 0 001.92 2.06c.06 0 .1.11.17.06.24-.19-.92-.47-1.81-2v-.11a6.92 6.92 0 00.7.9c.42.47 1.08 1 1.19.93s-1-.82-1.53-1.71a5.85 5.85 0 002 1.87c.13.06.08.05.24.05.41 0-.92-.65-1.61-1.41v-.07l.73.63c.34.24.68.45 1 .61s.46.21.55.17-.92-.53-1.21-.84a5.23 5.23 0 00.49.23c.51.25.87.43.94.33s-.21-.21-.67-.38c-.06-.06 0-.07.12 0 .53.21.83.36.9.32s-.11-.18-.42-.38a1.79 1.79 0 00.93.28c.06 0-.23-.17-.48-.4.36.23 1.21.54.4 0h.05c.31.22.69.32.22-.06h.07c.27.22.41.38.21-.06.27.38.54.53.18 0l.41.32c-.15.07-.13.11 0 .19.34.22.37.18.31 0a.74.74 0 00-.34-.75c-.26-.17-.25 0 .06.51a1.14 1.14 0 01-.28-.31.37.37 0 00-.31-.17 15.11 15.11 0 00-1.82.21 1.45 1.45 0 01-1-.11c-.16-.13-.21-.18-.13-.33a.18.18 0 00-.08-.25l-.43-.85c.06.09.12.13.18.21.17.28.29.51.33.49-.07-.18-.29-.59-.47-1.06.34.59.63 1.09.71 1a5.55 5.55 0 00-.57-1.11 1.07 1.07 0 01.15.17c.11.13.21.25.26.23a1.44 1.44 0 00-.68-.8c-.37-.14-.6-.19-.55.05l-.18-.21h-.2c-.07 0 0 .13.16.36l-.23-.36c-.06 0-.16-.08-.17 0l.12.24-.25-.28c-.12-.07-.26-.09-.26 0l.38.61c-.07-.09-.18-.19-.27-.32s-.27-.34-.44-.37.17.26.41.84l-.57-.83c-.05 0-.28-.08-.29 0l.66 1a5.81 5.81 0 01-.78-1 .15.15 0 00-.12 0h-.08l.81 1.05a4.67 4.67 0 01-.44-.46c-.17-.24-.33-.4-.46-.61a.14.14 0 00-.18 0c-.06.09.62.78.91 1.2a7.2 7.2 0 01-1-1.2c-.13-.07-.22-.07-.26 0s.82.9 1.16 1.42A13.39 13.39 0 0122 21.35c-.06-.07-.22-.07-.22 0s.75.81 1.35 1.63A12.65 12.65 0 0022 21.73c-.11 0 .27.46 1.12 1.43a11.38 11.38 0 01-1.17-1.24c-.11.09.36.68 1 1.42l-1.06-1.11c-.15-.1-.17-.08-.09.05zm4.52-.28c-.09-.14 0-.2.14 0a6.83 6.83 0 01.54 1c.07.16 0 .2-.09.05a6.88 6.88 0 00-.61-1zm-.42-.14c-.06-.1.11-.17.25 0a8.69 8.69 0 01.78 1.29c.12.26 0 .33-.12.09a8 8 0 00-.91-1.4z"/><path class="cls-3" d="M24 12.9a1 1 0 00.38.75 3.67 3.67 0 00-.2-.39c-.08-.18-.12-.33-.18-.36zm.83 8.3a1.34 1.34 0 00-.67-1c0 .09.28.32.44.6s.16.33.23.38zm0-.4c-.06 0-.1-.18-.23-.4s-.36-.45-.37-.51a1.43 1.43 0 01.6.91zm-.06-.5a2.78 2.78 0 01-.17-.31 4.72 4.72 0 01-.29-.4 1 1 0 01.46.71zm-.05-.52a.6.6 0 00-.32-.47s.12.15.2.27.09.17.12.2zm-.2-7.29a.93.93 0 00.21.81 1.61 1.61 0 00-.12-.44c0-.17-.05-.34-.09-.37zm-2.35 8.57c-.2 0-.24 0-.26-.23a1.94 1.94 0 01.26.23zm-.27-.35c.13.13.27.21.4.36a.17.17 0 00.2 0c-.21-.22-.41-.36-.64-.58v.25zm-.05-.37c.28.28.49.45.74.72h.17c-.3-.39-.58-.68-.89-1.07a2.11 2.11 0 000 .35zm.05-.43c.35.4.68.75 1 1.19h.22c-.34-.45-.78-.95-1.18-1.44 0 .07 0 .12-.07.18a.13.13 0 000 .06zm.09-.33c.46.52.87 1 1.35 1.56a.17.17 0 00.18 0c-.05 0-.37-.44-.42-.51-.39-.48-.62-.73-1.05-1.26a1.52 1.52 0 01-.06.2zm.08-.28c.48.53.65.77 1.17 1.38.06.08.34.36.39.43s.29.13.18 0 0 0-.13-.2c-.42-.52-1.13-1.37-1.55-1.9l-.06.25zm.07-.32v-.21l1.63 2c.24.29.23.28.36.42s-.05 0-.14 0a3.45 3.45 0 01-.23-.28c-.56-.65-1.17-1.41-1.66-2zm0-.28a1.45 1.45 0 000-.29 10.66 10.66 0 001.71 2 18.92 18.92 0 00-1.42-1.68 4.12 4.12 0 01-.26-.51v-.24A6.8 6.8 0 0024 20.07c-.09-.24-.92-.9-1.36-1.61a3.9 3.9 0 01-.34-.69v-.12a7.06 7.06 0 001.7 2.1c-.08-.24-.93-.93-1.35-1.61a5 5 0 01-.35-.7v-.13a8.24 8.24 0 001.82 2.23c-.08-.23-1-1.06-1.44-1.71a5.92 5.92 0 01-.36-.74v-.18a6.61 6.61 0 001.77 2.2c-.08-.22-1-1-1.37-1.6a4.55 4.55 0 01-.37-.78 1.34 1.34 0 010-.2 5.34 5.34 0 001.7 2.13c-.08-.2-.93-.89-1.27-1.47a6.37 6.37 0 01-.42-.83.82.82 0 010-.22A5 5 0 0024 18.25c-.05-.2-.85-.82-1.2-1.38a6.1 6.1 0 01-.41-.89 2.3 2.3 0 000-.26A4.38 4.38 0 0024 17.88c0-.18-.78-.8-1.09-1.32a8.83 8.83 0 01-.45-.94c.22-1.92 1-3 2.22-3.25a1.3 1.3 0 00.13.77 3.93 3.93 0 000-.55v-.2h.1c0 .26.11.52.23.54a.84.84 0 01-.11-.49h.15c0 .28.09.59.22.6a.75.75 0 01-.1-.54.7.7 0 00.12.26c.06-.06 0-.19 0-.34a.46.46 0 01.5.05c.07.08.05.12 0 .12h-.09l.21.09s.06.06-.07.07l-.07.07h.28c.09 0 .08.07.05.11l-.07.08a1.67 1.67 0 01.8.21c0 .11-.13.1-.36 0 0 .13.27.14.25.22s-.34 0-.49.2h.36c.08.05.05.09-.07.09.19.22.34.29.39.13s.11-.12.16 0c.22.13.27.15.13.17h-.21.25c.07 0 .07.08 0 .12s-.19.06.13.07c.14.07.19.13.14.19-.28 0-.27.05.06.08.08 0 .11.09.09.13-.17 0-.14.08.07.08 0 0 .05.07 0 .11-.2.05-.17.08.08.08 0 .09.16.07.22.19.21 0 .3.11.12.11.31 0 .44.09.4.28s-.44-.16-.26.48l.06.07c.12 0 0-.3.19-.27 0 0 .05.11 0 .27s-.13.21-.28.12-.21-.19-.2-.3v-.2c-.15 0-.18-.08-.19-.22s-.05 0 0-.06a.31.31 0 00-.41.22c0 .06-.07 0-.1-.06s-.08 0-.13 0 0-.09-.06-.08 0 0-.08 0 0-.11-.11 0-.07.06-.08 0 .07-.2-.08 0h-.09c-.02 0-.14-.23-.16 0s-.08.1-.08 0c-.08-.35-.1-.35-.07 0 0 .15 0 .14-.13 0s-.13 0-.2-.1 0-.39-.19-.45l.1.46c0 .07-.11.08-.12 0a2.23 2.23 0 00-.22-.67l.12.64c0 .05-.13 0-.16-.06l-.16-.79c0-.23 0 .42.06.7h-.1a3.53 3.53 0 00-.16-.79c-.09.1.16.85 0 .74 0 0-.09-.78-.12-.79s0 .73 0 .72c-.22-.27 0-1-.14-1s-.09.88-.11.86c.09.67.63.7.59.9l-.38-.2c.1.2.26.41.37.64-.12 0 0 .2.09.28-.12 0-.09.07.14.28a.11.11 0 01.05.12c-.28-.07-.31-.07.14.29-.27 0-.29 0 0 .2a.43.43 0 01.14.2h-.07l-.16-.09c-.08 0 0 .09.35.37.09.08.13.15.06.18-.45-.28-.42-.22.07.21.12.19.13.27.09.29-.4-.33-.66-.54 0 .15.12.12.14.2 0 .21-.69-.52-.32-.17.15.31v.05c-.66-.49-.69-.37 0 .36 0 .07.07.12 0 .17s-.06 0-.09 0c-.48-.45-.44-.36.11.38.08.13.12.23 0 .16-.59-.67-.78-.82 0 .22.08.13.09.2 0 .16-.55-.75-.56-.65 0 .14v.1c-.49-.6-.64-.75 0 .13.08.16.07.19 0 .11-.6-.75-.61-.66 0 .12.06.09.08.14 0 .1-.69-.78-.69-.76 0 .09 0 .22 0 .2-.12.1s-.06-.15-.13-.21c-.42-.52-.48-.48 0 .18h-.2c-.44-.57-.48-.57-.13 0h-.24a.47.47 0 00-.14-.17c-.41-.4-.56-.44-.14.08l-.57-.13a.24.24 0 01-.17-.09 2.84 2.84 0 00-.66-.8c0 .12.28.33.48.66s-.18.12-.26.08c-.15-.2-.2-.22-.42-.48-.59-.7-1.23-1.5-1.75-2.06zm1.61-5.58a3.34 3.34 0 01.2.4c.1.21.26.41.28.47a1.1 1.1 0 01-.48-.87zm-.2.21c.05.05.09.23.21.47a4.62 4.62 0 01.35.55 1.44 1.44 0 01-.56-1zm-.19.24c.07 0 .11.25.26.52s.39.54.41.62a1.6 1.6 0 01-.67-1.14zm-.16.24a1.93 1.93 0 00.8 1.28c0-.1-.32-.4-.48-.71s-.21-.5-.28-.57zm-.14.25a2.1 2.1 0 00.94 1.41c0-.1-.37-.45-.56-.78s-.24-.56-.3-.63zm-.14.25a2.37 2.37 0 001 1.53c0-.12-.43-.47-.62-.85s-.26-.6-.34-.68zm-.13.26a2.72 2.72 0 001.06 1.66c0-.13-.46-.53-.7-.93a8 8 0 00-.36-.73zm-.11.25a2.92 2.92 0 001.16 1.79c0-.14-.52-.57-.77-1s-.29-.69-.39-.8zm-.09.27A3.11 3.11 0 0023.87 17c-.05-.16-.57-.62-.85-1.09s-.31-.73-.4-.83zm-.11.25a3.85 3.85 0 001.4 2.11c-.05-.17-.66-.72-1-1.21s-.33-.77-.44-.9zm1.76-2.62s.09.16.15.3.13.28.13.32a.71.71 0 01-.28-.62zm3.47 3.51c-.14-.15-.24 0 0 .21s.36.11.31 0l-.27-.26zm-1.08-1.65v.24a.32.32 0 00.08.2c.05.07.08.08.07.05a1.38 1.38 0 01-.12-.4.09.09 0 00-.06-.09zm-.18-.2v.28a.46.46 0 00.08.24c.05.07.08.09.07.07a1.7 1.7 0 01-.11-.48.18.18 0 00-.05-.11zm-.2-.2v.31a.44.44 0 00.08.29c.05.08.08.11.07.07a3.14 3.14 0 01-.11-.55v-.12zm-.19-.2a1.84 1.84 0 000 .35.66.66 0 00.07.33c.07.09.09.12.08.08a4.14 4.14 0 01-.09-.63c0-.09 0-.12-.06-.13zm-.19-.21a3.58 3.58 0 000 .4.65.65 0 00.07.36c.05.12.09.14.08.1a3.76 3.76 0 01-.08-.7.2.2 0 00-.06-.16zm-.19-.2v.44a.73.73 0 00.07.4c0 .13.08.16.08.12a4.8 4.8 0 01-.08-.79c0-.1 0-.14-.05-.17zm-.18 0v.35a.54.54 0 000 .33c0 .11.07.13.07.09a3.69 3.69 0 01-.06-.62.13.13 0 000-.15zm-.14 0v.28a.37.37 0 000 .25c0 .1.06.11.06.08a2.07 2.07 0 010-.49.15.15 0 000-.12z"/><path d="M11.68 8.79c.4.5.77 1 1.19 1.52 0 .09 0 .15-.14.15-.44-.63-.77-1.13-1.11-1.61-.06-.09 0-.11.06-.06zm2 3.42c0 .11 0 .16-.12.06a.5.5 0 01.06-.68.46.46 0 01.68-.07c.13.11.09.12-.07.12-.45 0-.63.23-.55.57zm.47-.21c-.19-.07-.24 0-.2.21 2.66 3.79 6.69 9.23 11.44 15.69v.1l.4.22-.13-.53-.08.06c-3.66-5.11-7.9-11.12-11.4-15.75zm6.45 1c0-.09.35-.33.8-.63a.87.87 0 01.56-.22.54.54 0 00.24 0c.1.06.06.12-.06.14a.14.14 0 00-.16 0c-.12 0-.13.1-.21.13l-.05-.08c-.16.11-.27.4-.39.54v-.14c-.08 0-.13.18-.25.28 0-.11 0-.16-.05-.16-.2.13-.35.2-.4.14zm-5.28 7c.12 0 .23 0 .23.08s-.11.09-.23.09-.24 0-.24-.09.11-.08.24-.08zm.9-.18c.08-.12.18-.18.2-.15s0 .16-.08.27-.17.18-.2.14 0-.14.08-.26zm-.29.16c.06-.1.12-.15.15-.12s0 .12 0 .21-.14.14-.16.12 0-.12.06-.21zm-.26.05c.05-.08.1-.12.12-.11s0 .11 0 .19-.11.1-.14.09a.2.2 0 01.06-.17zM11.24 19l-.06.14c.07 0 .12-.08.19-.12v.24c.08 0 .26-.19.4-.28l-.1.24c.12 0 .2-.17.3-.27l-.06.26c.15 0 .24-.2.36-.31v.24c.11 0 .19-.16.3-.25v.17c.09 0 .15-.12.23-.17v.16l.2-.2v.17l.22-.08.07.09.18-.09v.2l.25-.11v.14l.28-.07v.17l.21-.05v.16l.32-.13-.1.24.28-.18v.19l.3-.13-.17.28c.2 0 .26-.14.4-.2l-.1.25a1 1 0 00.55-.41c0 .06 0 .17-.13.4a.82.82 0 00.4-.4l-.07.28a.59.59 0 00.38-.31v.27a.7.7 0 00.24-.32c.13.05.28 0 .33-.24s0-.27-.14-.2a2.71 2.71 0 01-2.45.17 9.6 9.6 0 00-2.25-.25c-.33 0-.61 0-.74.35zm1.69-2.86a.75.75 0 01.29-.26V16l.31-.1v.1l.35-.18c-.2.25-.24.36-.18.36s.31-.3.39-.22c-.17.27 0 .19.28-.05.08 0-.11.21-.08.24s.13-.05.35-.2c.05 0 .17-.17.19-.11s-.06.12-.1.18c-.21.25-.16.21.21 0 .05 0 .13-.09.19-.07-.26.34-.15.27.22 0 .06 0 .12-.12.19-.05-.47.41-.39.47.21.17-.28.32-.21.33.23.06h.14c-.19.2-.22.34-.13.29a1 1 0 01.43-.12c-.19.19-.18.27.06.23.08 0 0 .12-.24.28 0 .06-.08 0-.12-.16 0 .09-.06.09-.1 0v.34H16v-.2q-.06-.07-.12 0l-.07.27-.17-.06a.51.51 0 01-.19.25c-.08-.1-.13-.08-.16 0s-.08 0-.13 0-.08.15-.15.07a2 2 0 00-.3.24l-.05-.13c-.1.13-.18.21-.23.18l-.09-.09-.15.24-.24.06c0 .07.09.07.25 0a4.66 4.66 0 00.89-.2 6.32 6.32 0 00.88-.25c.25-.12.55-.33.84-.48.07.06 0 .19-.55.63H16l.14.2a.18.18 0 01-.18.08l-.24-.12.08.25c-.17 0-.25-.21-.41-.12l.06.2-.36-.11.07.24-.3-.13-.07.13c-.09 0-.15 0-.16.07a3.88 3.88 0 002.27-.52s.06 0 .06.08a1.46 1.46 0 01-.66.85l.11-.42c-.24.1-.5.62-.7.69l.21-.56-.63.52c0-.07 0-.21.16-.4-.18 0-.5.44-.56.41s.11-.2.16-.29c-.17 0-.29.15-.43.23 0-.08.08-.18.24-.32l-.52.24c0-.1.2-.18.24-.31a1.25 1.25 0 01-.51.25l.16-.25-.45.24.28-.29-.48.22.13-.25-.34.23.14-.28a.93.93 0 01-.42.24c.09-.12.16-.22.14-.28a1 1 0 01-.38.22l.06-.22a1.22 1.22 0 01-.44.28l.16-.27v-.05l-.36.29c.08-.15.13-.24.07-.28l-.25.13v-.14l-.3.32s0-.1.06-.24l-.31.2a1.22 1.22 0 01.78-.64 5.21 5.21 0 011-.19 3.29 3.29 0 001.13-.28 1.7 1.7 0 00.58-.32c.11-.08.07-.1-.05-.09h-.48v-.22l-.18.26v-.26l-.16.44-.07-.5-.12.54-.07-.53-.2.61v-.64l-.12.66-.12-.67-.08.67-.13-.63v.6l-.25-.58v.64l-.2-.62v.55l-.13-.53-.06.48-.1-.44-.07.48c-.2-.38-.28-.68-.15-.85a.78.78 0 01.74-.24zm1.51-1.45s.08 0 .11.14 0 .18 0 .18-.08-.06-.1-.15a.28.28 0 010-.17zm-1.35-.16c.2-.31.36-.4.46-.16.13-.43.28-.47.47-.1.25 0 .3.39.26 1l-.28-.64v.42c-.16-.71-1.18-.3-.95-.48zm4.41-2.32a2.26 2.26 0 01.87.3s0 .06 0 0a.5.5 0 00-.28-.12v.16c-.11-.19-.2-.22-.28-.18s0 0-.07 0c-.08-.18-.12-.18-.16-.11s-.08-.11 0-.11zm-1.5.08c-.07 0-.07.07 0 .08s.18-.09.3 0c0-.17.07-.16.21.05-.05-.21 0-.26.23.06 0-.18 0-.2.16.09h.09c-.08-.31 0-.3.14 0 .05.07.08.07.08 0 0-.21.08-.17.27.12.06.06.08.09.1 0s0-.16.21.06c.13 0 .32.09.56.3 0 0 .05.06.08 0-.13-.24 0-.14.24 0 .13-.06.14-.1.07-.13a4.18 4.18 0 01-1.1-.53c-.3-.24-.43-.17-.79-.4a.78.78 0 00-.84.13zm-.65.43c-.16.05-.16.12 0 .14a.28.28 0 00.18 0c.09 0 .13 0 .17.08s.15.19.21.15-.25-.25-.1-.25h.08c.22.21.43.33.42.29l-.09-.24c0-.08.09 0 .14 0l.31.27v-.21c0-.21 0-.06.1 0s.42.5.42.38v-.12h.1c.04 0 .25.26.24.2v-.1c0-.07 0-.07.12 0l.32.26c.07.06.12 0 .1 0l-.06-.08c0-.07 0-.08.07 0l.28.2v-.13h.16c0 .09.1.12.25.19s.06 0 .14-.06l.38-.12c.12 0 .11-.12 0-.09a2.5 2.5 0 01-1.9-.48 2.45 2.45 0 00-2-.25zm5.48.3v.12c0 .05-.1.06-.12 0s0-.08 0-.12a.13.13 0 01.12 0zm.42.11c-.09-.07-.13.09 0 0l.22-.2c.11-.19 0 .05.11 0a.45.45 0 00.17-.36l.25.03c.11-.09.08-.13-.07-.12a2.46 2.46 0 00-.49.48l-.16.21z" fill="#757575" fill-rule="evenodd"/><path d="M43.61 7.08v3.6h.43v1.87h-.76l-.05-1.11h-2.59l-.06 1.11h-.75v-1.87h.37a4.72 4.72 0 00.41-1 5.43 5.43 0 00.18-1.45V7.08zm-2 1.39a5.12 5.12 0 01-.19 1.44 3.58 3.58 0 01-.31.74h1.46V7.89h-1zm5.59 1.14h-1.61v1h1.8v.82H44.6V7.08h2.7v.81h-1.71v.91h1.61zm4.4-2.53v4.38h-1V7.89h-1.54v3.57h-1V7.08zm1.87 3.25l-.31 1.13h-1l1.33-4.38h1.3l1.36 4.38h-1.09l-.33-1.13zm1.11-.74l-.27-.92c-.08-.26-.15-.59-.22-.85-.07.26-.13.59-.2.85l-.26.92zm2.13-2.45a8.37 8.37 0 011.34-.09 2.15 2.15 0 011.34.35 1.29 1.29 0 01.46 1 1.4 1.4 0 01-.4 1 2 2 0 01-1.45.51 1.72 1.72 0 01-.34 0v1.57h-1zm1 2a1.57 1.57 0 00.33 0c.53 0 .85-.26.85-.71s-.28-.64-.77-.64a2.74 2.74 0 00-.41 0zm3.67-1.23h-1.17v-.83h3.36v.83h-1.19v3.55h-1zm3.25 2.42l-.32 1.13h-1l1.34-4.38h1.29l1.36 4.38h-1.08l-.34-1.13zm1.11-.74l-.28-.92c-.07-.26-.15-.59-.22-.85-.07.26-.13.59-.2.85l-.26.92zm5.82.19v-1.8c-.13.56-.31 1.19-.48 1.7l-.54 1.7h-.77l-.46-1.69A15.91 15.91 0 0168.85 8c0 .59 0 1.27-.08 1.81l-.08 1.67h-.91l.22-4.4h1.32l.43 1.46c.14.51.27 1.05.37 1.57.12-.51.27-1.09.41-1.57L71 7.08h1.29l.24 4.38h-1zM76 9.61h-1.66v1h1.8v.82h-2.79V7.08h2.7v.81h-1.71v.91H76zm1.81-2.53v1.68h1.63V7.08h1v4.38h-1V9.63h-1.63v1.83h-1V7.08zm4.32.83H81v-.83h3.37v.83h-1.2v3.55h-1zm-38.46 6.96v4.37h-1v-3.56h-1.54v3.56h-1v-4.37zm.86.06a7.07 7.07 0 011.34-.1 2.1 2.1 0 011.33.35 1.31 1.31 0 01.47 1 1.4 1.4 0 01-.4 1 2.07 2.07 0 01-1.42.46h-.34v1.56h-1zm1 2a1.42 1.42 0 00.33 0c.52 0 .85-.27.85-.72s-.28-.64-.77-.64a1.65 1.65 0 00-.41 0zm5.37.46h-1.61v1h1.8v.81H48.3v-4.33H51v.81h-1.71v.91h1.61zm4.4-2.52v3.59h.43v1.86h-.76v-1.11h-2.64l-.06 1.11h-.75v-1.86h.37a4.87 4.87 0 00.41-1 5.48 5.48 0 00.14-1.46v-1.13zm-1.95 1.39a5.22 5.22 0 01-.19 1.44 3.82 3.82 0 01-.31.74h1.46v-2.77h-1zm6.48-1.39v4.37h-1v-3.56h-1.55v3.56h-1v-4.37zm.85.06a7.22 7.22 0 011.34-.1 2.15 2.15 0 011.34.35 1.33 1.33 0 01.46 1 1.4 1.4 0 01-.4 1 2.07 2.07 0 01-1.42.52h-.34v1.56h-1zm1 2a1.48 1.48 0 00.33 0c.53 0 .85-.27.85-.72s-.28-.64-.77-.64a1.65 1.65 0 00-.41 0zm3.68-2.06v3.29c.23-.51.52-1.09.78-1.55l.94-1.72h1v4.37h-.91V18a17.6 17.6 0 01.07-1.84 12.31 12.31 0 01-.74 1.55l-.89 1.58h-1.16v-4.42zm4.56 0v1.68h1.63v-1.68h1v4.37h-1v-1.83h-1.63v1.83h-1v-4.37zm4.39 0v1.29c0 .71 0 1.4-.06 2 .23-.51.52-1.09.78-1.55l.97-1.74h1v4.37h-.9V18c0-.68 0-1.27.07-1.84a12.31 12.31 0 01-.74 1.55l-.88 1.58H73.4v-4.42zm7.26 2.7v-1.8c-.13.56-.31 1.18-.48 1.69l-.54 1.71h-.77l-.47-1.69c-.14-.52-.29-1.14-.39-1.71 0 .59 0 1.26-.08 1.81l-.08 1.66h-.91l.27-4.37h1.32l.43 1.46c.14.5.27 1.05.37 1.56.12-.51.27-1.08.41-1.57l.47-1.45h1.29l.24 4.37h-1zm2.81.55l-.31 1.12H83l1.34-4.37h1.3L87 19.24h-1l-.34-1.12zm1.11-.74l-.27-.93c-.08-.26-.16-.58-.22-.84-.06.26-.13.59-.2.84l-.26.93zM88 15.7h-1.14v-.83h3.37v.83H89v3.54h-1zm5.35 1.69h-1.61v1h1.8v.81h-2.79v-4.33h2.7v.81h-1.71v.91h1.61zm4.27-2.52v4.37h-1v-3.56h-1v1c0 1.12-.14 2-.8 2.37a1.83 1.83 0 01-.87.22l-.13-.8a.82.82 0 00.5-.24 2.24 2.24 0 00.34-1.49v-1.87zm1.85 0v1.52a4 4 0 01.53 0c.94 0 1.74.45 1.74 1.42a1.37 1.37 0 01-.35 1 2.62 2.62 0 01-1.84.56 7.91 7.91 0 01-1.07-.07v-4.43zm0 3.65a2.05 2.05 0 00.37 0c.48 0 .87-.24.87-.73s-.38-.71-.85-.71h-.39zm6.11.6a2.81 2.81 0 01-1.12.19 2.09 2.09 0 01-2.29-2.19 2.23 2.23 0 012.39-2.32 2.56 2.56 0 011.07.19l-.2.79a2 2 0 00-.83-.17 1.32 1.32 0 00-1.39 1.45 1.31 1.31 0 001.4 1.43 2.63 2.63 0 00.82-.14zm1.62-3.42H106v-.83h3.36v.83h-1.19v3.54h-1zm2.71-.77a6.88 6.88 0 011.28-.1 2.4 2.4 0 011.29.25 1 1 0 01.52.86 1 1 0 01-.72.93 1.09 1.09 0 01.87 1.07 1.17 1.17 0 01-.45.93 2.78 2.78 0 01-1.72.4 7.79 7.79 0 01-1.07-.07zm1 1.67h.32c.52 0 .8-.21.8-.54s-.25-.51-.7-.51a2.79 2.79 0 00-.42 0zm0 1.94h.38c.45 0 .84-.17.84-.63s-.39-.61-.89-.61h-.33zm3.91-.42l-.31 1.12h-1l1.33-4.37h1.3l1.36 4.37h-1.07l-.33-1.12zm1.11-.74l-.27-.93c-.08-.26-.15-.58-.22-.84-.07.26-.13.59-.2.84l-.26.93zm-74.88 5.27V24c0 .7 0 1.39-.06 2 .23-.51.52-1.09.78-1.56l.94-1.72h1V27h-.91v-1.3c0-.67 0-1.27.07-1.84a12.45 12.45 0 01-.74 1.56L41.27 27h-1.13v-4.35zm5.78 0V26c.22-.51.51-1.09.77-1.56l1-1.72h1V27h-.91v-1.3a17.71 17.71 0 01.07-1.84 12.45 12.45 0 01-.74 1.56L47.05 27h-1.13v-4.35zm4.56 0v1.68H53v-1.68h1V27h-1v-1.8h-1.61V27h-1v-4.35zm4.47 0v1.68h1.63v-1.68h1V27h-1v-1.8h-1.63V27h-1v-4.35zm7.48 2.14a2.09 2.09 0 01-2.15 2.31 2 2 0 01-2-2.23 2.11 2.11 0 012.13-2.29 2 2 0 012.02 2.21zm-3.16.06c0 .86.4 1.46 1.07 1.46s1-.63 1-1.48-.38-1.46-1.06-1.46-1.01.63-1.01 1.48zM64 22.71a8.18 8.18 0 011.28-.09 2.4 2.4 0 011.29.25 1 1 0 01.53.85 1 1 0 01-.72.94 1.1 1.1 0 01.86 1.08 1.16 1.16 0 01-.45.92 2.72 2.72 0 01-1.72.4A8.2 8.2 0 0164 27zm1 1.67h.32c.52 0 .8-.21.8-.53s-.25-.51-.7-.51a1.92 1.92 0 00-.42 0zm0 1.94a2 2 0 00.38 0c.45 0 .85-.17.85-.63s-.4-.62-.89-.62H65zm3.91-.42L68.6 27h-1l1.34-4.38h1.3L71.56 27H70.5l-.34-1.13zm1.09-.74l-.27-.92c-.08-.26-.16-.59-.23-.85-.06.26-.13.59-.2.85l-.26.92zm3.14-2.51v3.56h1.53v-3.56h1v3.6h.44v1.86h-.81v-1.1h-3.16v-4.36zm4.42 0V24c0 .7 0 1.39-.06 2 .23-.51.52-1.09.78-1.56l.94-1.72h1V27h-.91v-1.3c0-.67 0-1.27.07-1.84a14 14 0 01-.73 1.56L77.78 27h-1.13v-4.35zm7.57 2.14A2.09 2.09 0 0183 27.1a2 2 0 01-2.06-2.23 2.12 2.12 0 012.13-2.29 2 2 0 012.06 2.21zm-3.13.06c0 .86.4 1.46 1.06 1.46s1-.63 1-1.48-.37-1.46-1.06-1.46-1 .63-1 1.48zm4.77-2.2v1.68h1.63v-1.68h1V27h-1v-1.8h-1.63V27h-1v-4.35zm4.47 0v1.68h1.63v-1.68h1V27h-1v-1.8h-1.63V27h-1v-4.35zm7.48 2.14a2.09 2.09 0 01-2.15 2.31 2 2 0 01-2.06-2.23 2.12 2.12 0 012.13-2.29 2 2 0 012.08 2.21zm-3.16.06c0 .86.4 1.46 1.06 1.46s1-.63 1-1.48-.37-1.46-1-1.46-1.06.63-1.06 1.48zm6.44-2.2v.81h-1.65V27h-1v-4.35zm4.33 2.14a2.09 2.09 0 01-2.15 2.31 2 2 0 01-2.06-2.23 2.12 2.12 0 012.13-2.29 2 2 0 012.08 2.21zm-3.16.06c0 .86.4 1.46 1.06 1.46s1-.63 1-1.48-.37-1.46-1.06-1.46-1 .63-1 1.48zm5.12-2.14a8.22 8.22 0 011.33-.09A2.13 2.13 0 01111 23a1.27 1.27 0 01.47 1 1.41 1.41 0 01-.41 1 2 2 0 01-1.42.46h-.33V27h-1zm1 2a1.47 1.47 0 00.33 0c.52 0 .85-.26.85-.71s-.28-.64-.78-.64a1.71 1.71 0 00-.4 0zm3.39 1.19l-.31 1.1h-1l1.34-4.38H114l1.33 4.38h-1.06l-.34-1.13zm1.11-.74l-.28-.92c-.07-.26-.15-.59-.22-.85-.06.26-.13.59-.2.85l-.26.92zm1.99-2.23a2.64 2.64 0 011.36-.35c1 0 1.53.48 1.53 1.12a1 1 0 01-.88 1 1.09 1.09 0 011 1c0 1-1 1.31-1.81 1.31a2.72 2.72 0 01-1.31-.31l.21-.76a2.48 2.48 0 001.06.26c.5 0 .8-.21.8-.57s-.51-.58-.91-.58h-.42v-.73h.41c.45 0 .78-.21.78-.55s-.24-.48-.66-.48a2.24 2.24 0 00-1 .26zm3.69-.22a8.08 8.08 0 011.28-.09 2.4 2.4 0 011.29.25 1 1 0 01.53.85 1 1 0 01-.73.94 1.1 1.1 0 01.87 1.08 1.16 1.16 0 01-.45.92 2.72 2.72 0 01-1.72.4 8.2 8.2 0 01-1.07-.06zm1 1.67h.32c.52 0 .8-.21.8-.53s-.25-.51-.7-.51a1.92 1.92 0 00-.42 0zm0 1.94a2 2 0 00.38 0c.45 0 .85-.17.85-.63s-.4-.62-.89-.62h-.34zm3.83-3.67V24c0 .7 0 1.39-.06 2 .23-.51.52-1.09.78-1.56l.94-1.72h1V27h-.91v-1.3a17.57 17.57 0 01.08-1.84 14 14 0 01-.74 1.56l-.87 1.58h-1.13v-4.35zm4.41.83h-1.18v-.83h3.36v.83h-1.19V27h-1zm3.62-.83V24c0 .7 0 1.39-.05 2 .23-.51.52-1.09.78-1.56l.94-1.72h1V27h-.9v-1.3a17.71 17.71 0 01.07-1.84 12.45 12.45 0 01-.74 1.56l-.88 1.58h-1.13v-4.35zm3.19 4.35a2.52 2.52 0 00.22-.5 3.27 3.27 0 01.61-1.33 1.23 1.23 0 01.36-.23 1.06 1.06 0 01-.92-1.07 1.12 1.12 0 01.46-.93 2.38 2.38 0 011.42-.34 8.62 8.62 0 011.26.09V27h-1v-1.69h-.24a.63.63 0 00-.46.16 3.27 3.27 0 00-.52 1.19 2.3 2.3 0 01-.16.37zm2.48-3.61a2.22 2.22 0 00-.4 0c-.43 0-.77.18-.77.63s.37.62.82.62h.35zm-95.48 7.05v.47h-1.75v3.9h-.57v-4.37zm4 2.14a2 2 0 01-2 2.3 2 2 0 01-2-2.22 2.08 2.08 0 012-2.29 2 2 0 012 2.21zm-3.39.07c0 .93.5 1.77 1.39 1.77s1.4-.82 1.4-1.82-.45-1.77-1.39-1.77-1.4.86-1.4 1.82zm4.12-2.16a6.09 6.09 0 011.09-.09 1.74 1.74 0 011.22.37 1.17 1.17 0 01.39.91 1.3 1.3 0 01-.34.94 1.86 1.86 0 01-1.34.48 2 2 0 01-.45 0v1.75h-.57zm.57 2.11a2.05 2.05 0 00.47 0c.68 0 1.09-.33 1.09-.93s-.41-.86-1-.86a2.07 2.07 0 00-.53 0zm6.57-.02a2 2 0 01-2 2.3 2 2 0 01-2-2.22 2.07 2.07 0 012-2.29 2 2 0 012 2.21zm-3.39.07c0 .93.5 1.77 1.39 1.77s1.4-.82 1.4-1.82-.45-1.77-1.39-1.77-1.4.86-1.4 1.82zm7-2.21v3.91h.38v1.5h-.44v-1h-2.86v1h-.48v-1.5h.34a5.17 5.17 0 00.42-1 6.47 6.47 0 00.21-1.84v-1.07zm-1.92 1.29a6.13 6.13 0 01-.22 1.78 4 4 0 01-.36.83h1.93V30.9h-1.37zm3.72 1.7l-.45 1.38h-.59l1.49-4.37h.68l1.49 4.37h-.6l-.47-1.38zm1.43-.43l-.42-1.26a7.51 7.51 0 01-.23-.79c-.07.26-.14.52-.22.79L59.92 33zm6.89-.11c0-.61-.07-1.34-.06-1.89-.15.51-.33 1.06-.55 1.66l-.77 2.12h-.43l-.71-2.08c-.21-.62-.38-1.18-.51-1.7 0 .55 0 1.28-.08 1.93l-.12 1.88h-.54l.31-4.37h.72l.74 2.11c.18.54.33 1 .44 1.47.11-.44.27-.92.46-1.47l.78-2.11h.72l.28 4.37h-.56zm5.27-.31a2 2 0 01-2 2.3 2 2 0 01-2-2.22 2.08 2.08 0 012-2.29 2 2 0 012 2.21zm-3.39.07c0 .93.5 1.77 1.39 1.77s1.4-.82 1.4-1.82-.45-1.77-1.39-1.77-1.4.86-1.4 1.82zm7.18 2.02a2.9 2.9 0 01-1.16.2 2 2 0 01-2.16-2.21 2.17 2.17 0 012.29-2.29 2.36 2.36 0 011 .19l-.14.46a2.1 2.1 0 00-.88-.18 1.62 1.62 0 00-1.71 1.8 1.59 1.59 0 001.68 1.76 2.21 2.21 0 00.92-.18zm1.26-4.23v1.94h.18l1.5-1.94h.68l-1.65 2c.72.1 1 .54 1.22 1.13a11.87 11.87 0 00.48 1.24h-.61a7.85 7.85 0 01-.39-1c-.21-.58-.48-1-1.22-1h-.19v2h-.55v-4.37zm2.96.05a5.7 5.7 0 011-.09 1.79 1.79 0 011.2.32.92.92 0 01.37.77 1 1 0 01-.74 1 1.13 1.13 0 01.9 1.09 1.18 1.18 0 01-.37.88 2.18 2.18 0 01-1.51.41 8 8 0 01-.88-.05zm.57 1.8h.51c.6 0 1-.32 1-.74s-.39-.71-1-.71a2.35 2.35 0 00-.5 0zm0 2.09a2.83 2.83 0 00.47 0c.58 0 1.12-.22 1.12-.85s-.51-.85-1.13-.85H82zm3.51-3.94v1.63A4.41 4.41 0 0186 32c.9 0 1.69.4 1.69 1.37a1.32 1.32 0 01-.34.93 2.2 2.2 0 01-1.56.51 8 8 0 01-.87-.05v-4.32zm0 3.94a2.77 2.77 0 00.46 0c.62 0 1.16-.32 1.16-1s-.59-.94-1.17-.94a3.33 3.33 0 00-.45 0zm3.27-3.94v4.37h-.57v-4.37z" fill="#757575"/></svg>