<svg id="Слой_1" data-name="Слой 1" xmlns="http://www.w3.org/2000/svg" width="213" height="58" viewBox="0 0 143.66 47.22"><defs><style>.cls-1{fill:#757575;}.cls-1,.cls-2,.cls-3,.cls-4,.cls-5{fill-rule:evenodd;}.cls-2{fill:#cee0f5;}.cls-3{fill:#fff;}.cls-4{fill:#757575;}.cls-5{fill:#757575;}.cls-6{fill:#757575;}</style></defs><title>Монтажная область 16</title><polygon class="cls-1" points="5.71 6.63 34.1 6.63 34.1 33.2 34.08 33.46 34.07 33.73 34.04 33.99 34.01 34.25 33.95 34.5 33.88 34.75 33.82 34.98 33.74 35.22 33.65 35.45 33.54 35.67 33.42 35.87 33.3 36.08 33.15 36.28 33.01 36.47 32.85 36.64 32.67 36.81 32.5 36.98 32.3 37.13 32.1 37.28 31.89 37.41 31.66 37.53 31.44 37.65 31.2 37.76 30.93 37.85 30.68 37.93 30.4 38.01 30.12 38.08 29.81 38.12 29.52 38.17 29.2 38.2 28.89 38.21 28.55 38.22 25.25 38.22 25.03 38.22 24.8 38.24 24.57 38.24 24.36 38.27 24.15 38.28 23.95 38.3 23.75 38.34 23.55 38.37 23.37 38.41 23.18 38.45 22.99 38.5 22.81 38.56 22.63 38.61 22.47 38.66 22.3 38.73 22.14 38.8 21.98 38.86 21.84 38.94 21.68 39.01 21.53 39.09 21.4 39.17 21.25 39.25 21.12 39.34 20.99 39.44 20.85 39.53 20.72 39.62 20.6 39.71 20.48 39.82 20.36 39.93 20.24 40.02 20.13 40.13 19.89 40.35 19.67 40.13 19.55 40.02 19.43 39.93 19.31 39.82 19.19 39.71 19.07 39.62 18.94 39.53 18.8 39.44 18.67 39.34 18.54 39.25 18.41 39.17 18.26 39.09 18.1 39.01 17.95 38.94 17.81 38.86 17.65 38.8 17.49 38.73 17.32 38.66 17.16 38.61 16.97 38.56 16.8 38.5 16.62 38.45 16.44 38.41 16.24 38.37 16.04 38.34 15.84 38.3 15.64 38.28 15.43 38.27 15.21 38.24 14.99 38.24 14.76 38.22 14.52 38.22 11.24 38.22 10.9 38.21 10.59 38.2 10.27 38.17 9.96 38.12 9.67 38.08 9.39 38.01 9.11 37.93 8.84 37.85 8.6 37.76 8.35 37.65 8.11 37.53 7.9 37.41 7.69 37.28 7.49 37.13 7.29 36.98 7.12 36.81 6.94 36.64 6.78 36.47 6.64 36.28 6.49 36.08 6.37 35.87 6.25 35.67 6.14 35.45 6.05 35.22 5.97 34.98 5.89 34.75 5.84 34.5 5.78 34.25 5.75 33.99 5.72 33.73 5.71 33.46 5.71 33.2 5.71 6.63 5.71 6.63"/><path class="cls-2" d="M5.87,6.8h28V33.2c0,2.84-1.82,4.85-5.36,4.85h-3.3a7.17,7.17,0,0,0-5.36,2.06,7.16,7.16,0,0,0-5.35-2.06h-3.3c-3.54,0-5.37-2-5.37-4.85V6.8Z"/><path class="cls-1" d="M12,30.62a1.71,1.71,0,0,1,1.52-1.35,11.15,11.15,0,0,0,2.59-1c.4-.29.45-.16.16.42l-.45.51a.5.5,0,0,0,0,.82c.45.22.64.43.57.62a1.35,1.35,0,0,0-1.33.29,1.49,1.49,0,0,0-1.08.19,1,1,0,0,0-.82-.05c-.08-.2-.31-.26-.69-.19a.94.94,0,0,0-.51-.25Zm5.44,0c-.48-.49-.53-.93,0-1.31a7,7,0,0,0,1.32-1.44c.37,0,.71-.11,1.08-.16a11.29,11.29,0,0,0,4-1.14.36.36,0,0,1,.46.14l.88,1.16L25,28l.66.5c-.12.1,0,.16.11.22-.08.12,0,.23.09.22.06.16.17.4-.17.07-.21-.11-.24,0-.07.33l.36.52a.93.93,0,0,0,.31.61l.29.6a.84.84,0,0,0,.08.27c0,.22.09.34.28.37a2,2,0,0,1-.82.9c-.79.43-1.41.25-1.35-.78,0-.56.15-1,.16-1.6.23-.89,0-1.34-.76-1.39a1.69,1.69,0,0,0-.93.17c-.21.15-.52.09-.93-.15a3.71,3.71,0,0,0-1.79-.92,1,1,0,0,1,.18,1.32c.32.15.31.29,0,.44a8.28,8.28,0,0,1-2.54-.39c-.29-.05-.35,0-.15.16.67.27,1,.67,1,1.23a6.6,6.6,0,0,0-1,.08.4.4,0,0,1-.57-.12ZM25,34.91c-.22.12-.28.26-.06.39s.22.1.25,0c.26-.06-.11-.2-.19-.43ZM18,34.33c-.15.11-.22.22-.14.38l.3.26a.24.24,0,0,0,0-.38.34.34,0,0,1-.12-.26Zm-3.41-1.4c.22.1.22.29,0,.41-.2-.08-.19-.25,0-.41ZM10.72,25a3.09,3.09,0,0,1,.35,3.81c-.3.7-.26,1.15.13,1.37a4.28,4.28,0,0,0,.25-1c.08-.6.47-.53,1-1.05s.39-1.15.33-2.08c-.09-2,.32-3.15.91-3.8-1.49-.41-2.4.69-2.94,2.75Zm.94-16.5c-.17,0-.24.15-.21.34l1.18,1.68c0,.08.12.16.11.23-.09.22-.13.37.07.57l.4.38a1.16,1.16,0,0,0,.18.59c-.09.19,0,.36.19.53s.05.12.12.17l.06.58a2.79,2.79,0,0,0-.89,1c0,.12,0,.21,0,.28l.78-.08c.07,0,.15,0,.18.11a.57.57,0,0,1-.47.77c-1,.24-1.67.57-1.39,1.22.36.47.17.88-.44,1.25a.57.57,0,0,0-.19.53,1.87,1.87,0,0,0-.42.63c-.1.26-.1.38.09.36,1.35-.46,2.68-.64,3.63.14.46.39.38.59,1.12.63-.08.3,0,.48.26.53l0,.35c-.29.06-.62.06-.92.14a4.46,4.46,0,0,1-.94.21c-.25-.19-.55-.31-.78-.46-1.23-.76-2.25-.8-3.14.24A6.5,6.5,0,0,0,9.07,23.9c-.07.2-.23.28-.54.09-.64-.51-.76-1-.44-1.28s.62-.18.38.05v0c.35,0,.48.24.62.49a1.44,1.44,0,0,0-.28-1.69h-.1l0,.65a1,1,0,0,0-1.14.91,1.35,1.35,0,0,0,.83,1.3c.35.12.46.53.18.94-.69,1-.58,2.09,0,3.48l.08,0c.13-1.52.45-2.29,1-2.44a1,1,0,0,0,.44-.33c.14-.23.22-.2.33,0A1.88,1.88,0,0,1,10.35,28c-.88,1.42-.92,2.51.33,3.38l0,.1-.33.43c-.11.17,0,.39.26.63A2.27,2.27,0,0,1,11,33.69a.65.65,0,0,0,0,.58,1.32,1.32,0,0,0,1.27.35c.07,0,.05-.07.05-.13.06-.3-.14-.51-.35-.87A1.38,1.38,0,0,1,11.4,32l.09-.14a9.49,9.49,0,0,0,1.69.45,1.66,1.66,0,0,0,0,1.46,1.54,1.54,0,0,0,1.64.95c1.07-.1,1.6-1,1.21-2.2.38-.21.63-.2.77,0,0,.55.22.37.24.91-.64.56-.88,1-.19,1.34.36.36.16.49-.31.52-.49-.12-.85-.09-.91.3-.46,0-.59.3-.58.72.14-.32.39-.34.52-.26a2.37,2.37,0,0,0,.71,0,.77.77,0,0,1,.68,0,.32.32,0,0,1,.29.16c.32.33.28,0,1,.39.18,0,.47,0,.52.27l.07-.25a.23.23,0,0,0-.08-.29c-.23-.27.13-.28.76-.16a1.56,1.56,0,0,0,.87.17c.28-.28.35-.1.4.27.2-.55.07-.84-.48-.87.1-.29.14.15.34-.21.17-.08.34,0,.51.17,0-.26-.11-.42-.46-.5-.08-.23-.25-.24-.49,0-1-.27-1.12-.88-.55-1,.31-.08.43.24.67.33a1.94,1.94,0,0,0,.53.07,1.32,1.32,0,0,1,.7.18l.2.07c.11-.08.22-.07.35,0s.29.24.42.07c.4-.32,1-.32,1-.12s0,.4.15.37.13.13.13.35c-.38,0-.65.05-.65.33-.36.11-.35.36-.19.69,0-.64.51-.12,1-.46l.37,0c0,.18.22.26.55.25a3.1,3.1,0,0,1,.42-.08,1.3,1.3,0,0,1,1.56.4.46.46,0,0,0,0-.49c.45-.31.94-.19.65.3.27-.13.53-.81.19-.8.14-.4.74-.06.57.23.25-.13.29-.33,0-.58,0-.23-.23-.3-.56-.2-.19-.32-.43-.34-.75-.06s-.57.16-.73,0-.13-.41.11-.32.17-.11.32-.39c0-.12.16-.21.24-.37.34,0,.62-.36,1-1,.25-.12.37-.61.39-1.38.1.05.23,0,.41-.09-.12,0-.18-.06-.18-.36h.34c.13-.06.18-.11.17-.18s-.13,0-.23-.18a1,1,0,0,0-.34-.56l-.32-.52c-.23-.72-.49-1.13-.82-.86l-.1-.06a3.09,3.09,0,0,1-.58-1.06c0-.51-.52-.53-.8,0l-.08-.4-.13.21-.84-1.21c.09,0,.25-.11.35-.12a7.55,7.55,0,0,0,3.09-1L28.9,25a.46.46,0,0,1,.61.15l.76.78a.38.38,0,0,1,.06.47c-.08.16.11.37.38.6A.91.91,0,0,1,30.76,28c-.12.3-.09.48.08.58l.52.37c.34.28.52.19.5-.31a1.67,1.67,0,0,0-.25-.74,2,2,0,0,1-.3-.91c0-.61-.1-.93-.35-1.14a4.49,4.49,0,0,1-.75-.94.62.62,0,0,0-.22-.38c0-.63-.49-.95-.79-.78a2.14,2.14,0,0,1-.76,0v-.15a7.77,7.77,0,0,0,1.48-1.41c.21-.26.32-.16.53.06l.83.86c0,.43,0,.71.33.68.2.34.29.68.11.82s-.34.27-.34.5.43.67.86.83a.11.11,0,0,0,.13-.06,1.4,1.4,0,0,0,0-1l-.14-.49a2,2,0,0,1,0-.5.78.78,0,0,0-.36-.9,9.89,9.89,0,0,1-1.32-1.64c0-.76-.64-1-1.05-.14l-.8.56c-.19.13-.33-.08-.33-.29A4.43,4.43,0,0,0,26.89,19c-.4-1.21-.94-2.22-1.14-3.15a3,3,0,0,1,1.55.45c.33.36.76.55.87.3,0-.09-.2-.23-.32-.35a.89.89,0,0,1,.49.3c.33,0,.44-.25.34-.59s0-.5-.09-.59l-.28-.16a8.65,8.65,0,0,1-1.17-1.57.3.3,0,0,1-.05-.17.79.79,0,0,0-.29-.63l.1-.05v-.08l.24.05-.24-.39c-.13-.5-.59-.58-1.26-.38-.1,0-.22-.08-.34-.21-.42-.41-.87-.64-.71-.33,0,.05.16.2,0,.18l-.73-.12c-.16,0-.19,0-.15.11A1.41,1.41,0,0,1,24,12l-.93.05a2.53,2.53,0,0,1-.52.08c-.5-.42-1.13-.1-1.78.39l-.09,0,0-.76h.08l-.06-.49h.05a2.1,2.1,0,0,0-.37-1.56c-.06-.22.17-.2.22-.26a1.06,1.06,0,0,0,.2-.73c0-.32-.14-.43-.3-.32h-.19a.75.75,0,0,1-.44-.19.48.48,0,0,0-.61,0c-1,.24-1.13,1-2.3.48-.13,0-.16,0-.11.14a1.81,1.81,0,0,0,.79.57,1.08,1.08,0,0,1-.67.07,1.37,1.37,0,0,0,1.19.39.87.87,0,0,0,.78,0c.16-.1.17,0,.07.17a2.12,2.12,0,0,0-.56,1.63,1.66,1.66,0,0,0-.23.62c-.44-.12-.82-.2-1-.07h-.17A.87.87,0,0,0,16,12.07l-.68.52c-.25.17-.46.18-.5,0l-.28-.6c0-.43-.15-.63-.44-.65a.74.74,0,0,1-.25-.43l-.2-.25c.06-.23,0-.31-.19-.31a.73.73,0,0,1-.42-.09l-1.39-1.7Z"/><path class="cls-3" d="M30.85,28.22l.14-.28c.06-.09.12-.09.16,0l.31.29c-.06.07-.21.07-.31.1l.1.17-.1.05,0,.15c-.2-.16-.32-.31-.26-.47Zm.28-.95s.08.12.08.25,0,.25-.08.25-.08-.12-.08-.25,0-.25.08-.25ZM31,26.19s.09,0,.13.09.07.16,0,.18-.09,0-.13-.11-.07-.15,0-.16Z"/><path class="cls-3" d="M31.8,24.89s-.08,0-.12,0-.18.31-.1.43l.3.22c.09.08.2,0,.14,0l-.1-.15c.06,0,.12.1.18.1s.07-.08,0-.13-.13-.15-.06-.22,0-.05,0-.08l-.22-.14Zm0-1.24c-.14-.16-.11-.25.06-.24-.16-.25,0-.31.18,0a1.1,1.1,0,0,1,.06.64c0,.08-.1.1-.13,0a1.35,1.35,0,0,0-.17-.36Zm.1,1.05.07-.31c0-.08,0-.06.08,0a.93.93,0,0,1,.23.5c0,.09,0,.14-.06.16A.25.25,0,0,1,32,25a.31.31,0,0,1-.11-.25Z"/><path class="cls-3" d="M27.2,21.3c0-.56.08-1,.08-1.43,0-.17.12-.17.12,0a9.09,9.09,0,0,1-.08,1.36c0,.06-.12.18-.12,0ZM28,23.52a.05.05,0,0,1,0,.1s0,0,0-.05,0-.05,0-.05Zm-1.32-2,.05,0a0,0,0,0,1,.06,0l.2.25a.06.06,0,0,1,0,.06l-.06,0a0,0,0,0,1,0,0l-.21-.25s0,0,0-.05ZM28.57,23l.08-.52-.1.19c-.08,0-.09-.08-.11-.24s0-.25.11-.21l.07.17.05-.12c.1,0,.11,0,.07.16l0,.57c-.05.08-.09.23-.14,0ZM30,21.34A.26.26,0,0,1,30,21a.23.23,0,0,1,.3,0,.16.16,0,0,1,.1.14l-.16,0,.2.05c.11.1,0,.27-.08.12a.2.2,0,0,0-.26,0c0,.12,0,.15-.1.06Zm-1.92.93s.08,0,.12.1,0,.14,0,.15-.08,0-.11-.09,0-.15,0-.16Zm-1.23-.11s.08,0,.12.09,0,.15,0,.16-.08,0-.12-.1,0-.14,0-.15Zm.36-.65a.26.26,0,0,1,.24.24c0,.16,0,.29-.12.32s-.21-.08-.25-.24,0-.3.13-.32Zm.17.88c-.05-.26,0-.3.12-.06a3.2,3.2,0,0,1,.22,1.32c0,.2-.16.21-.18,0a9.27,9.27,0,0,0-.16-1.29Zm1.55.41a2.36,2.36,0,0,1,.16-.77c0-.12.09-.14.16-.07.24-.39.18-.17.08.12l.06,0c.3-.55.18-.11.15.13-.21.27-.36.32-.43.14l-.06.34c-.06.16-.1.19-.12.07Z"/><path class="cls-3" d="M10.81,32.05c-.09.36-.49.18-.29-.14a5.91,5.91,0,0,0,1.06-2.68c0-.38.27-.55.58-.73A1.72,1.72,0,0,0,13,26.84c-.15-3,.69-4.32,2-4.84l0,.12c-1.16.7-1.63,2.06-1.65,3.91a9.25,9.25,0,0,0,0,1.29l0-.09a19.69,19.69,0,0,1,.17-2.66,3.66,3.66,0,0,1,.6-1.44,3,3,0,0,1,.23-.32c.11-.1.23-.13.32-.22v.09a3.56,3.56,0,0,0-1,1.73,10,10,0,0,0-.13,2.82,1.34,1.34,0,0,1-.09.37l.05,0a1.23,1.23,0,0,0,.12-.57,6.5,6.5,0,0,1,.44-3.32,2.54,2.54,0,0,1,1.34-1.31l0,.1c-.71.49-1.39,1.06-1.53,3l0,0c.14-1.47.67-2.57,1.65-3a3.12,3.12,0,0,1,1.21-.12l-.08.06a2.12,2.12,0,0,0-1.8.72l.07,0a1.83,1.83,0,0,1,1.79-.63l-.06.11a1.72,1.72,0,0,0-1.33.41v.05a1.73,1.73,0,0,1,1.27-.37c.13,0,.17.12.13.28l-.08.73a7.72,7.72,0,0,1-.23,2l-.06.06.06-1.23-.28,1.52c0,.17-.14.15-.11,0,.06-.32.17-.76.23-1.23a.17.17,0,0,0-.13.15,3.6,3.6,0,0,1-.33,1.37A6.58,6.58,0,0,0,16,25.15l-.08.07-.2,1.16c.15.08,0,.19-.09.05l.06-.64H15.6l-.28,1,.09-.7-.24.7h-.09l.12-.6-.4,1.09c-.12,0-.13,0,0-.2l.25-.74h-.08c-.15.55-.27.93-.47,1.05l-.07,0a2,2,0,0,0,.33-1,2.48,2.48,0,0,1-.56,1.07s0-.16.18-.45l.14-.38c-.06-.08-.1-.06-.14.06a2.12,2.12,0,0,1-.36.77l.17-.65,0-.08a2.07,2.07,0,0,1-.5.92l.1.05c.36-.24.86-.16,1.36-.38.11-.06.21-.08.28,0l-.09.25-.1-.14a.84.84,0,0,1-.24.46l0-.29c-.21.46-.35.72-.37.49l0-.28a1.06,1.06,0,0,0-.3.57c-.08,0-.1-.17-.07-.4l-.13.5c-.12,0-.15-.11-.08-.4a2.13,2.13,0,0,1-.24.48.49.49,0,0,1,0-.39l-.13.25c0,.19-.06.26-.13.24,0-.28,0-.38,0-.32l-.16.43c-.09.05-.12,0-.1-.29-.15.08-.11.37-.22.49-.08-.05-.09-.19-.08-.33-.06.22-.13.36-.22.37l0-.44a1.48,1.48,0,0,1-.17.49l-.12-.32-.06.31c-.09.05-.17,0-.22-.23,0,.41-.05.76-.32.93a1.63,1.63,0,0,1-.25.71l.42-.63c.1,0,.14,0,.1.23l-.44.72c-.07.08-.15.05-.23,0a2.59,2.59,0,0,1-.41.85,1.62,1.62,0,0,0,.45-.72c0-.11.15,0,.11.24l-.11.09v.16h-.13v.22l-.12,0c.12.29,0,.48-.32.33Z"/><polygon class="cls-3" points="13.31 22.04 13.83 21.95 13.8 22.05 13.31 22.04 13.31 22.04"/><path class="cls-3" d="M8.47,26.1a3.62,3.62,0,0,1,.41-.71c.11-.17.15-.05.14.11a2.21,2.21,0,0,1-.55.6Z"/><path class="cls-3" d="M13.91,21.8a3,3,0,0,0-2.31-1,3.14,3.14,0,0,0-2.1,2.39c.2-.35.37-.57.58-.64a6,6,0,0,0-1,3,.75.75,0,0,1-.21.34,1,1,0,0,0-.42.73,2.31,2.31,0,0,0,.3-.37,1.78,1.78,0,0,0,.42-.76c.12-.46.18-.93.27-1.27A4.14,4.14,0,0,1,10,23a3.91,3.91,0,0,1,1.59-1.61v.06A4.17,4.17,0,0,0,10,23.08a4.1,4.1,0,0,0-.31.66,3.14,3.14,0,0,0-.24.88A3.12,3.12,0,0,1,9,26.08c-.21.28-.35.4-.38.54a.53.53,0,0,0-.07.31c.46-.87.68-.79.88-1.42.27-1,.09-1.94,1.37-3.34h.09A4.88,4.88,0,0,0,9.68,25a3.1,3.1,0,0,1-.18.77c-.16.3-.5.54-.59.85l.07,0a3.49,3.49,0,0,0,.6-.78c.38-.74.25-1.74.74-2.54a3.9,3.9,0,0,1,1.91-1.9h.1A4,4,0,0,0,10.6,23a2.49,2.49,0,0,0-.41.82,9.46,9.46,0,0,0-.27,1.29,2.24,2.24,0,0,1-.49,1.12c-.12.15-.21.21-.31.34a2.08,2.08,0,0,0-.2.51L9,27c.29-.78.47-.61.68-.87a1.93,1.93,0,0,0,.36-.85,5,5,0,0,1,1.71-3.45,1.74,1.74,0,0,1,.71-.38h.06a5,5,0,0,0-.87.57,4.75,4.75,0,0,0-1.11,1.61,6.1,6.1,0,0,0-.41,1.67c0-.08.05,0,.08,0a5.35,5.35,0,0,1,1.36-3,2.42,2.42,0,0,1,1.14-.72l.25,0a2.56,2.56,0,0,0-1.57,1.1l.08,0A3,3,0,0,1,13,21.72h.08a2.62,2.62,0,0,0-.87.44l0,.08a3.87,3.87,0,0,1,1.66-.45Z"/><path class="cls-3" d="M8.59,27.61a.66.66,0,0,1-.09-.33c0-.16.13-.15.16,0s-.07.21-.07.37Z"/><path class="cls-3" d="M10.13,29l.14-.15a.24.24,0,0,1,.2,0c0,.07-.16.13-.34.18Z"/><path class="cls-3" d="M10,29.45l.18-.19a.27.27,0,0,1,.28,0c0,.08-.22.17-.46.23Z"/><path class="cls-3" d="M10,29.66l.2-.17a.28.28,0,0,1,.29,0c0,.07-.25.15-.49.19Z"/><path class="cls-3" d="M10.08,29.85l.19-.16a.28.28,0,0,1,.28,0c0,.08-.24.15-.47.18Z"/><path class="cls-3" d="M10.17,30.05l.12-.14a.21.21,0,0,1,.2,0c0,.05-.16.12-.32.16Z"/><path class="cls-3" d="M10.85,27.92l.11-.07a.13.13,0,0,1,.14,0s-.13.05-.25.05Z"/><path class="cls-3" d="M10.68,28.14l.23-.1a.28.28,0,0,1,.26.06c-.05.07-.25.08-.49,0Z"/><path class="cls-3" d="M10.81,27.6l.18-.13a.23.23,0,0,1,.23,0,.77.77,0,0,1-.41.13Z"/><path class="cls-3" d="M11,27.28l.17,0a.2.2,0,0,1,.18.09s-.2,0-.35,0Z"/><path class="cls-3" d="M10.57,30.86l.12-.07a.34.34,0,0,1,.15,0s-.13.07-.27.06Z"/><path class="cls-3" d="M11,30.44l-.3,0a.37.37,0,0,0-.22.26c.09,0,.3-.11.52-.3Z"/><path class="cls-3" d="M10.81,30.31h-.22c-.11,0-.19.09-.2.17s.25-.05.42-.17Z"/><path class="cls-3" d="M11.85,31.4l.13-.28a.38.38,0,0,1,.29-.14c0,.09-.18.28-.42.42Z"/><path class="cls-3" d="M12.45,31.12l.24-.09a.36.36,0,0,1,.28.11h0c0,.08-.17.22-.37.33l.12-.23.09-.08h-.08a1.33,1.33,0,0,1-.27.23l.09-.19.05-.05-.13,0Z"/><path class="cls-3" d="M13.6,31.16c.08,0,.36,0,.32.12h0c0,.08-.18.23-.37.36l.11-.24s.05,0,.08-.08h-.1a1,1,0,0,1-.26.23l.08-.2,0,0h-.06a.86.86,0,0,1-.2.15l.05-.13c.09-.12.16-.1.3-.16Z"/><path class="cls-3" d="M15.32,31.12c0-.22.17-.36.51-.4s.85,0,.71.2h0l-.06.16-.15.27.09-.29,0-.15a1.22,1.22,0,0,0-.17-.05l-.12.12-.2.22.16-.26.07-.11h-.08l-.12.12-.2.22.16-.25L16,30.8h-.11l-.08.12-.19.24.14-.28,0-.06-.15,0-.09.22,0-.21a.42.42,0,0,0-.27.25Z"/><path class="cls-3" d="M14.07,31.31h0v0h0l.33-.21c.23-.11.5-.15.46,0,0,0,0,0-.07.05s0,.15,0,.23l-.09-.2h-.06a1.72,1.72,0,0,0,0,.32l-.14-.29H14.5c0,.15,0,.31,0,.46l-.19-.38v0l-.06.26,0-.27h0c0,.11-.1.24-.14.37V31.3Z"/><path class="cls-3" d="M10.27,22.32c.18-.19.38-.39.57-.57a1.09,1.09,0,0,0-.57.57Z"/><path class="cls-3" d="M13.41,32.72a.58.58,0,0,1,0-.56c.1-.28.23-.36.31-.35s0,.32,0,.59l-.21-.19.06.36-.15-.17,0,.32Z"/><path class="cls-3" d="M15.29,33.07c0-.06-.06-.08-.08-.08s0,.06,0,.11.08.08.09.08,0-.06,0-.11Z"/><path class="cls-3" d="M15.29,33.3c0-.08-.1-.12-.13-.1s0,.08.05.16.11.12.14.1,0-.08-.06-.16Z"/><path class="cls-3" d="M15.17,33.53a.28.28,0,0,0-.09-.11s0,.08,0,.15.08.11.1.09,0-.06,0-.13Z"/><path class="cls-3" d="M15.05,33.76c0-.11-.09-.19-.12-.18a.29.29,0,0,0,0,.22c0,.09.08.17.1.17s0-.11,0-.21Z"/><path class="cls-3" d="M13.5,33.66c.08,0,.13,0,.13.07a.21.21,0,0,1-.15,0c-.06,0-.13,0-.11-.05s.06,0,.13,0Z"/><path class="cls-3" d="M13.43,33.49c.09,0,.16,0,.16.08s-.08,0-.17,0-.16-.06-.16-.08.08,0,.17,0Z"/><path class="cls-3" d="M13.39,33.28c.11,0,.19.06.19.09s-.11.05-.21,0-.2-.06-.19-.1.09,0,.21,0Z"/><path class="cls-3" d="M16.85,31c-.08-.27.21-.36.52-.23a1.6,1.6,0,0,0,.92.05,1.61,1.61,0,0,1,.58,0c.2.11.19.2,0,.24a2.37,2.37,0,0,0-.8,1.21c-.14-.2.16-.7.64-1.33a4.71,4.71,0,0,0-.81.85,2.66,2.66,0,0,1,.47-.82,2.13,2.13,0,0,0-.83,2,2,2,0,0,1,.35-1.85l-.57.6.51-.8-.32.11,0-.12-.2.09V30.9l-.26.21.05-.23c-.09-.05-.16,0-.24.14Z"/><path class="cls-3" d="M17.09,32.52a.67.67,0,0,0,.12.53s.09,0,.07-.11a.69.69,0,0,1-.19-.42Z"/><path class="cls-3" d="M17.75,32.6s.06.07.06.16,0,.17-.06.17-.05-.08-.05-.17,0-.16.05-.16Z"/><path class="cls-3" d="M18.37,31.92a.22.22,0,0,1,0,.15c0,.08-.08.13-.1.12s0-.08,0-.15.08-.13.11-.12Z"/><path class="cls-3" d="M18.51,31.6s0,.08,0,.13-.09.11-.1.1,0-.08,0-.14a.22.22,0,0,1,.1-.09Z"/><path class="cls-3" d="M23.5,32.12c.22.08.25.4.13.78a1.68,1.68,0,0,0-.13-.78Z"/><path class="cls-3" d="M22.34,33.76a.5.5,0,0,0-.08-.2,2,2,0,0,1,0,.24l0,0Z"/><path class="cls-3" d="M19.74,29.74h.1l.11.18a.53.53,0,0,1-.12,0l-.09-.16Z"/><path class="cls-3" d="M19.52,30.9a.21.21,0,0,1,.08.14c0,.07,0,.11,0,.1A.21.21,0,0,1,19.5,31c0-.06,0-.1,0-.1Z"/><path class="cls-3" d="M19.72,30.88s.06,0,.07.11,0,.12,0,.13,0,0-.07-.1,0-.14,0-.14Z"/><path class="cls-3" d="M20,30.84s.08.08.09.18,0,.12,0,.12,0,0-.05-.12a.48.48,0,0,1,0-.18Z"/><path class="cls-3" d="M20.19,30.76a.44.44,0,0,1,.1.18c0,.09,0,.18,0,.18s-.07-.05-.11-.16,0-.18,0-.2Z"/><path class="cls-3" d="M20.43,30.76s.08.08.1.19,0,.21,0,.23-.08-.1-.09-.2,0-.22,0-.22Z"/><path class="cls-3" d="M20.69,30.8s.11.12.12.23,0,.16,0,.17-.06,0-.09-.16,0-.24,0-.24Z"/><path class="cls-3" d="M20.87,30.75s.08.08.12.2,0,.23,0,.23-.08-.08-.11-.2,0-.23,0-.23Z"/><path class="cls-3" d="M21.14,30.68s.07.12.07.27,0,.27-.07.27a.43.43,0,0,1-.06-.27c0-.15,0-.27.06-.27Z"/><path class="cls-3" d="M21.37,30.76s.05.11.05.23,0,.23-.05.23-.05-.1-.05-.23,0-.23.05-.23Z"/><path class="cls-3" d="M21.6,30.7s0,.12,0,.26a.46.46,0,0,1,0,.27s-.06-.12-.06-.27,0-.26.06-.26Z"/><path class="cls-3" d="M21.84,30.63s.05.13,0,.31-.06.28-.1.28a.52.52,0,0,1,0-.3c0-.16,0-.29.08-.29Z"/><path class="cls-3" d="M22.16,30.62s0,.13,0,.29-.07.28-.11.28,0-.13,0-.29.08-.28.11-.28Z"/><path class="cls-3" d="M22.41,30.47s.1.2.08.39-.1.36-.14.34,0-.17,0-.36,0-.38,0-.37Z"/><path class="cls-3" d="M21.05,32s0,0,.07.1a.48.48,0,0,1,0,.13s-.05,0-.06-.09,0-.14,0-.14Z"/><path class="cls-3" d="M21.24,31.91s.06.06.09.14,0,.12,0,.14,0,0-.07-.11,0-.16,0-.17Z"/><path class="cls-3" d="M23,31.35v.09h0l.12-.08a3.66,3.66,0,0,0,0-.65,4.73,4.73,0,0,1-.14.64Z"/><path class="cls-3" d="M22.9,31.64c-.07.35-.08.45-.21.57a1.22,1.22,0,0,0,0-.41l-.09,0v0a.71.71,0,0,1-.15.52c0-.19.07-.36.07-.55l-.1,0v.19a2,2,0,0,1-.11.29,1.37,1.37,0,0,0,0-.47s-.06,0-.09,0v0s0,.08,0,.08,0,0,0-.06,0,0,0-.06a.12.12,0,0,0-.07,0h0s0,.07,0,.08,0,0-.06-.08H22c0,.07,0,.1,0,.12s-.07,0-.08-.1l-.12,0c0,.06,0,.1,0,.1s0,0-.07-.08h-.11s0,.08,0,.09,0,0-.06-.08h0s0,0,0-.07a.28.28,0,0,1,0-.17s.07,0,.11.13a.36.36,0,0,1,0,.1.19.19,0,0,1,.1,0s0,0,0-.05a.37.37,0,0,1,0-.22s.07.07.1.18,0,0,0,.06l.11,0a.34.34,0,0,1,0-.13c0-.05,0-.08,0-.08s.08.08.1.19l.07,0s0,0,0,0a.34.34,0,0,1,0-.16s0-.05,0-.06.08.09.11.18,0,0,0,0l.07,0v-.21c0-.06,0-.08,0-.08s0,0,0,.06a1.06,1.06,0,0,1,0,.19h0a.19.19,0,0,0,.08,0v-.1s0-.07,0-.07,0,.07.05.13l.11,0v-.14s0-.09,0-.09,0,0,0,.06a.5.5,0,0,1,0,.13.2.2,0,0,0,.08,0h0c0-.08,0-.16,0-.21s0-.09,0-.09,0,0,0,.06a1.21,1.21,0,0,1,0,.2h0l.08,0a6.07,6.07,0,0,0,.21-1.33.71.71,0,0,0-.08-.15,2.81,2.81,0,0,1-.22,1.21,3.3,3.3,0,0,0,0-1.36h0a3,3,0,0,1-.13,1.31,3.28,3.28,0,0,0-.13-1.43l-.08,0c.12.1.09.53,0,.59-.08-.25,0-.33-.24-.5H22.1a.58.58,0,0,1,.11.49,1.54,1.54,0,0,0-.28-.42h-.12c.17.2.17.24.15.4-.07-.18-.34-.3-.44-.38l-.12,0c.13.06.32.3.25.38-.09-.1-.29-.21-.37-.36-.06,0,0,0-.08,0a1.62,1.62,0,0,1,0,.23.52.52,0,0,1-.33-.2s-.08,0-.08,0,.07.13.08.17-.31-.19-.33-.23.05,0-.11,0c0,0,.11.25.12.29L20.31,30l-.19,0-.12-.2a8,8,0,0,0,2.06-.13l.75-.15c.25-.08.42.06.48.44l0,.43a.88.88,0,0,1,.06.89,1.36,1.36,0,0,0,.47.72c.21.2.24.48,0,.87A5.29,5.29,0,0,1,23,34.16s0,0,0,0l0,.06a.25.25,0,0,0,0-.07,1.77,1.77,0,0,0,0-.2.4.4,0,0,1,.07.15l.12-.2c0-.07,0-.13,0-.21l.08.14a.83.83,0,0,0,.09-.16c0-.06,0-.14-.06-.22a.83.83,0,0,1,.09.16l.11-.2-.06-.2a.57.57,0,0,1,.08.13,1.63,1.63,0,0,0,.08-.29l-1.37.85.37-.31v0c0-.08,0-.18,0-.26a1,1,0,0,1,.09.22l.1-.08,0-.32a1.06,1.06,0,0,1,.1.26l.12-.09a3.56,3.56,0,0,0,0-.43,1.12,1.12,0,0,1,.13.36l.11-.09c0-.18,0-.4-.07-.6a1.15,1.15,0,0,1,.16.51s.06,0,.08-.07a5,5,0,0,0-.08-.65,1.43,1.43,0,0,1,.19.56s0,0,0,0a5.76,5.76,0,0,0-.08-.77,1.15,1.15,0,0,1,.17.66l.08-.08a3.77,3.77,0,0,0-.26-1.09c-.06.19-.06.25-.11.24,0-.21,0-.3,0-.33a.92.92,0,0,1-.18.57l.05-.48Z"/><path class="cls-3" d="M21.7,32.48h0c0,.08,0,.15-.05.15s0-.08,0-.15Z"/><path class="cls-3" d="M21.85,32.33s0,0,0,.14,0,.16-.07.16-.06-.1,0-.18,0-.12.07-.12Z"/><path class="cls-3" d="M22,32.36h0c0,.15,0,.25-.06.24s-.05-.12,0-.24Z"/><path class="cls-3" d="M22,32.17s0,0,0,.07H22s0-.07,0-.07Z"/><path class="cls-3" d="M22.2,32.15s0,.05,0,.17,0,.23-.1.21-.06-.12,0-.24.06-.14.1-.14Z"/><path class="cls-3" d="M21.28,28.33a2.86,2.86,0,0,1,1,.65c.05.1,0,.12-.05.08a9.36,9.36,0,0,1-1-.73Z"/><path class="cls-3" d="M22.55,29.19c.07,0,.1.08.08.1s-.06,0-.13,0-.09-.09-.08-.1.07,0,.13,0Z"/><path class="cls-3" d="M19.2,29.69l.36,0,.08.13h0s.12.42-.09,0c0-.05-.11,0-.18-.07s0,0-.16-.06Z"/><path class="cls-3" d="M17.54,35.43c.07,0,.13,0,.13.06a.11.11,0,0,1-.1,0c-.08,0-.14,0-.14,0s0-.06.11-.06Z"/><path class="cls-3" d="M17.71,35.76c.11,0,.23,0,.24,0s-.05.07-.16.11a.47.47,0,0,1-.24,0s.06-.07.16-.1Z"/><path class="cls-3" d="M17.82,35.87c.12,0,.24,0,.27,0s-.07.08-.19.1a.44.44,0,0,1-.27,0s.06-.08.19-.11Z"/><path class="cls-3" d="M18,36c.08,0,.16,0,.17,0s0,0-.12.08-.17,0-.18,0,0-.06.13-.07Z"/><path class="cls-3" d="M18.09,36.1c.08,0,.13,0,.13,0s0,0-.11,0-.13,0-.13,0,0,0,.11,0Z"/><path class="cls-3" d="M19.51,35.56c.11,0,.21,0,.23,0s-.06.12-.16.16-.22,0-.23,0,0-.1.16-.16Z"/><path class="cls-3" d="M19.32,35.45c.08-.05.16-.05.18,0s0,.09-.12.11a.14.14,0,0,1-.18,0s0-.09.12-.11Z"/><path class="cls-3" d="M19.15,35.21c.07,0,.12,0,.13,0s0,.07-.09.09-.12,0-.13,0,0-.07.09-.09Z"/><path class="cls-3" d="M17.22,34.1a.05.05,0,0,0-.1,0,.24.24,0,0,0,.1.26c.11.06.14-.05.08-.09a.3.3,0,0,1-.08-.16Z"/><path class="cls-3" d="M17,34c0-.08-.06-.12-.11,0a.27.27,0,0,0,0,.33c.09.12.17,0,.14,0A.27.27,0,0,1,17,34Z"/><path class="cls-3" d="M26.32,28c-.08.12-.11.57.29,1.12.15.18,0,.31.19.34s.13-.08.14-.2l-.13-.07H27l-.2-.13c.06,0,.22,0,.21,0s-.2-.09-.29-.13l.22-.05c0-.07-.12-.12-.33-.19l.21-.05-.24-.15.19,0-.29-.15.16-.08-.18-.05.16-.08c-.13-.06-.18-.18-.3,0Z"/><path class="cls-3" d="M26,28.38a.57.57,0,0,1-.05-.45c.09-.24.18-.3.26-.3.16.17-.1.27-.16.41s-.05.12-.05.34Z"/><path class="cls-3" d="M25.93,27.56c.07-.07.15-.11.18-.08s0,.09-.08.17-.15.12-.18.1,0-.11.08-.19Z"/><path class="cls-3" d="M25.87,28.41a.1.1,0,0,1,.08.09.1.1,0,0,1-.08.08.09.09,0,1,1,0-.17Z"/><path class="cls-3" d="M26,28.68c.05,0,.07.08,0,.14s-.09.11-.12.08-.07-.08,0-.14.08-.11.12-.08Z"/><path class="cls-3" d="M26.23,29c.06,0,.07.09,0,.17a.22.22,0,0,1-.2.09c-.07,0-.08-.1,0-.17a.2.2,0,0,1,.22-.09Z"/><path class="cls-3" d="M26.42,29.26s0,.11-.05.13a.13.13,0,0,1-.17,0s0-.09.05-.12a.17.17,0,0,1,.17,0Z"/><path class="cls-3" d="M27.38,29.42s0-.11,0-.12-.1,0-.14-.08,0-.24.15-.28.15,0,.12.11l-.06.05a.4.4,0,0,1,.24.15c-.07,0-.11,0-.12.06.22,0,.21.32,0,.26s-.2,0-.13.24.24.33.22.05c0-.13.43-.16.48.13l-.17-.06c0,.21.21.12.24.3l-.15,0a.92.92,0,0,1,.38.43c-.19,0-.2-.22-.38-.22.23.3.5.24.63.54a1.25,1.25,0,0,1-.67-.4c.23.32.38.59.32.72-.33-.14-.4-.64-.53-.78,0,.25.19.4.12.68a1.29,1.29,0,0,1-.2-.82c.13,0,.19-.06.19-.29s-.15-.22-.12,0-.12.23-.48,0c-.05.05,0,.12.22.23v.21l.11-.18,0,.56c0,.15,0,.12-.09,0l0-.28c0,.2,0,.3-.09.28l-.05-.52-.15.19,0-.29-.13.1v-.35c-.09.05-.2,0-.31-.15a.45.45,0,0,0,.36,0c-.06-.27.06-.4.28-.43Z"/><path class="cls-3" d="M24.22,31a.33.33,0,0,0-.08-.32c-.06,0-.1-.06-.08,0s.13.22.16.32Z"/><path class="cls-3" d="M24,30.23c.18.1.26.11.35.36,0,.09,0,.16-.05.08s-.16-.32-.3-.44Z"/><path class="cls-3" d="M24,29.71a.78.78,0,0,1,.43.56c0,.15,0,.23-.1.11s-.17-.47-.33-.67Z"/><path class="cls-3" d="M24.14,29.34a.72.72,0,0,1,.44.65c0,.15-.07.24-.11.11a1.94,1.94,0,0,0-.33-.76Z"/><path class="cls-3" d="M24.24,29.14a.75.75,0,0,1,.46.49c0,.14,0,.2-.1.1a1.39,1.39,0,0,0-.36-.59Z"/><path class="cls-3" d="M25.81,35.72a.37.37,0,0,1,.49-.16c.11,0,.1.16.1.26-.07-.07-.14-.15-.2-.07-.19-.14-.25-.07-.39,0Z"/><path class="cls-3" d="M25.1,35.78s.09,0,.09.08,0,.06-.09.06-.09,0-.09-.06a.08.08,0,0,1,.09-.08Z"/><path class="cls-3" d="M24.63,35.78s.07,0,.09.1,0,.14,0,.14-.07,0-.09-.11,0-.13,0-.13Z"/><path class="cls-3" d="M24.79,35.75a.11.11,0,0,1,.05.08s0,.08,0,.09,0,0,0-.08,0-.08,0-.09Z"/><path class="cls-3" d="M24.83,34s0,0,0,0-.1.09-.12.06,0-.08,0-.13l.05,0,0,0s0,0,0,0-.12.1-.15.08,0-.1,0-.16l.06-.06,0,0h0a.19.19,0,0,1-.15.08.16.16,0,0,1,0-.16,0,0,0,0,1,0,0l0,0s-.07,0-.09,0,0-.06,0-.12,0-.1,0-.13.12,0,.2.2,0,.11,0,.15.1.08.13.12a.37.37,0,0,1,.07.28s0,0-.07-.12Z"/><path class="cls-3" d="M24.83,34.17s0,.1,0,.18-.14.13-.16.1,0-.11,0-.19.14-.12.17-.09Z"/><path class="cls-3" d="M26.46,33.38s0,.08,0,.16-.08.14-.11.12a.31.31,0,0,1,0-.16c0-.08.08-.13.1-.12Z"/><path class="cls-3" d="M26.26,33.3s0,.12,0,.24-.14.2-.18.19,0-.12,0-.24.14-.2.17-.19Z"/><path class="cls-3" d="M25.8,33.12s0,.09,0,.2-.09.16-.12.14,0-.09,0-.18.09-.18.12-.16Z"/><path class="cls-3" d="M12.9,10.64a.34.34,0,0,1,.29-.29l.29.05c.11.08.1.11,0,.12s-.37,0-.44.18-.13.14-.12-.06Z"/><path class="cls-3" d="M13.83,11.2a.08.08,0,0,1,.07.08.09.09,0,0,1-.07.08.08.08,0,0,1-.07-.08.07.07,0,0,1,.07-.08Z"/><path class="cls-3" d="M12.86,10.94c-.09.12-.07.25.09.41l.22.26c.18.14.28.11.25-.09s0-.19.13-.19a.23.23,0,0,0,.17-.11c0-.11,0-.16-.08-.19a1.23,1.23,0,0,1-.43.2,1.38,1.38,0,0,0,.31-.25.16.16,0,0,1,.18,0,.16.16,0,0,0-.12-.16.82.82,0,0,0-.55.32.54.54,0,0,1,.51-.36.15.15,0,0,0-.07-.17.53.53,0,0,0-.41.12l-.2.24Z"/><path class="cls-3" d="M13.94,12.59a5.54,5.54,0,0,1,1.1,1.5v.49L14.88,14c0,.39,0,.64,0,.56l-.13-.8-.09.35-.08-.49c-.07-.06-.08.25-.07.67-.12-.12-.11-.46-.09-.85l-.14.38a1.46,1.46,0,0,1,0-.72c-.08-.07-.13.06-.16.46a1.39,1.39,0,0,1,0-.73l-.1.2,0-.46Z"/><path class="cls-3" d="M17.2,8.83a.87.87,0,0,0,.54.14v.1a1.79,1.79,0,0,0,1-.37.23.23,0,0,0-.15,0c-.24.12-.21,0,.24-.18.07,0,.12,0,.23,0l.29-.07c-.24.22-.48.43-.74.63a1.25,1.25,0,0,1-1,.16,2.94,2.94,0,0,1-.5-.31c0-.07-.08-.11.11-.07Z"/><path class="cls-3" d="M19,8.9A.07.07,0,0,1,19.1,9,.07.07,0,0,1,19,9,.05.05,0,0,1,19,9,.06.06,0,0,1,19,8.9Z"/><path class="cls-3" d="M19.43,9.7s.05,0,.08,0a0,0,0,0,1,0,.08s-.07.06-.08,0,0,0,0-.09Z"/><path class="cls-3" d="M20.37,9.34a.11.11,0,0,1,.1,0,.08.08,0,0,1-.06.1s-.08,0-.09,0,0-.06.05-.09Z"/><path class="cls-3" d="M20.16,9.19s.08,0,.09,0,0,.07,0,.09-.08,0-.09,0,0-.06,0-.1Z"/><path class="cls-3" d="M18.71,9.47s.08,0,.09,0a.07.07,0,0,1-.06.07.09.09,0,0,1-.1,0s0,0,.07-.07Z"/><path class="cls-3" d="M19.23,10.46c.05,0,.12,0,.13,0s0,.06-.08.09-.12,0-.13,0,0-.07.08-.08Z"/><path class="cls-3" d="M17.53,9.55a1.91,1.91,0,0,0,.61-.18l.31-.15c.14-.07.17-.05.05.07a3.25,3.25,0,0,1-.43.29.63.63,0,0,1-.58.11c-.15,0-.1-.12,0-.14Z"/><path class="cls-3" d="M18.46,9.42A1.56,1.56,0,0,1,19,9.11,1.77,1.77,0,0,1,19.66,9c.15-.15.3.05.13.21a.88.88,0,0,1-.19.12,1.72,1.72,0,0,1-.54.24c-.24.06-.27,0-.07-.1l.19-.13a.93.93,0,0,1,.45-.13c-.23-.15-.67.08-1.1.29-.14.07-.18,0-.07-.08Z"/><path class="cls-3" d="M19.66,8.73a.86.86,0,0,1,.28,0c.17,0,.25.14.26.26s-.09.19-.17.21c0-.21-.12-.33-.24-.37h-.13V8.73Z"/><path class="cls-3" d="M19.46,8.78a.43.43,0,0,1,.12,0v.08l-.11,0s-.11,0,0-.05Z"/><path class="cls-3" d="M19.22,8.65a.68.68,0,0,1,.41-.21,1.68,1.68,0,0,1,.5,0c.34.12.2.23,0,.15a.54.54,0,0,0-.48,0c0,.13-.24,0-.37.12s-.11,0-.05-.07Z"/><path class="cls-3" d="M20.19,8.69c.1,0,.18,0,.2.1a.27.27,0,0,1-.1.27c0-.25-.08-.23-.1-.37Z"/><path class="cls-3" d="M20.48,8.62a.46.46,0,0,1,0,.32l-.11.2c0,.09,0,.12.07.09a.31.31,0,0,0,.16-.29c0-.2,0-.29.08-.36-.12-.2-.24-.17-.2,0Z"/><path class="cls-3" d="M19.63,9.79c0,.14.31.16.35,0s-.06-.28,0-.44a.41.41,0,0,0-.33.42Z"/><path class="cls-3" d="M19.55,10.14a.31.31,0,0,1,.33-.15c.12,0,.19,0,.19.15a1.43,1.43,0,0,1,0,.36c0,.1-.05.09-.18.1s-.2-.06-.36,0c.09-.23,0-.32,0-.49Z"/><path class="cls-3" d="M20.12,9.62c-.07-.11,0-.15.08-.07a.35.35,0,0,1,.13.26.09.09,0,0,1-.16.09c-.06-.08,0-.16-.05-.28Z"/><path class="cls-3" d="M20.19,10.12c0-.13,0-.14.17-.07s.12.15.07.21a.34.34,0,0,1,0,.42c-.07,0-.15,0-.2-.1a.32.32,0,0,1,0-.23.31.31,0,0,0,0-.23Z"/><path class="cls-3" d="M20.37,11.22c.07,0,.11,0,.11.08s-.05.06-.11,0a.09.09,0,0,1-.1-.08s.05,0,.1,0Z"/><path class="cls-3" d="M19.55,11.1c.07,0,.12,0,.11.08s-.06.07-.12.06-.12,0-.11-.08.05-.08.12-.06Z"/><path class="cls-3" d="M20.56,11a.78.78,0,0,0-.57-.27,2.19,2.19,0,0,0-.71.1.92.92,0,0,0-.17.71l.12,0-.11.08h.15l-.09.13.08,0-.07.17.08.06,0,.1.11,0,0,.1.08,0,0,.1.08,0a.8.8,0,0,0,.26.21.42.42,0,0,0,.25,0,2.3,2.3,0,0,0,.33-.37s0-.1,0-.22a.19.19,0,0,0,.11-.2l.07-.09V11.4a.38.38,0,0,1-.2,0l-.19-.08-.05.41c0,.08,0,.2-.13.16l-.23-.11c-.05,0,0-.1,0-.13h.07v-.36a.46.46,0,0,1-.41,0,.29.29,0,0,0-.16,0,.55.55,0,0,1,.15-.18l-.08-.12h.12c.19,0,.28,0,.33,0a.33.33,0,0,0,.15.12V11c0-.11.12-.13.24-.09l0,.26.43-.13V11Zm-1,1.09A.77.77,0,0,1,20,12c.21.05.22.13,0,.25a1.29,1.29,0,0,1-.39,0c0-.06.08-.09,0-.21Zm.16.09a.2.2,0,0,1,.21,0s0,.07,0,.1h-.15s0-.07-.05-.1Z"/><path class="cls-3" d="M19.78,11.72s0,0,0,0a0,0,0,0,1,0,0,0,0,0,0,1,0,0,0,0,0,0,1,0,0Z"/><path class="cls-3" d="M20,11.11s0,0,0-.09.09-.11.09,0a.53.53,0,0,1,0,.13Z"/><path class="cls-3" d="M19.91,11.76c0-.17,0-.32.07-.53h.09c0,.15,0,.3-.08.56,0,.05,0,0-.08,0Z"/><path class="cls-3" d="M18.88,10.84c0-.1.1-.09.11,0a.49.49,0,0,1-.09.43c-.07,0-.16,0-.11-.08a.4.4,0,0,0,.09-.35Z"/><path class="cls-3" d="M18.8,11.6c0-.12.06-.16.08,0a2.08,2.08,0,0,0,.62,1c.14.12,0,.23-.15.11a1.86,1.86,0,0,1-.55-1.12Z"/><path class="cls-3" d="M20.13,12.69a.33.33,0,0,1,.15-.3c.08-.06.11,0,.07.09s-.15.09-.22.21Z"/><path class="cls-3" d="M16.66,14.17a.52.52,0,0,1,.08-.23l-.09-.06a2.71,2.71,0,0,1-.29.43,1.65,1.65,0,0,1,.38-.7,1.35,1.35,0,0,1-.08.24l.1.08s0,0,.06-.08a.49.49,0,0,1,0,.12h0v0a.55.55,0,0,1-.14.18Z"/><path class="cls-3" d="M16.5,14.41a.32.32,0,0,1,.1-.19.3.3,0,0,1-.1.19Z"/><path class="cls-3" d="M17.21,14.51s0-.1,0-.14h0l0,0a.11.11,0,0,1,0-.05h0l.08-.1a.37.37,0,0,1-.17.32Z"/><path class="cls-3" d="M17.18,14.9c0-.13,0-.23.16-.31,0,.2,0,.26-.16.31Z"/><path class="cls-3" d="M17.5,14.78a1.44,1.44,0,0,0,.11-.86c.14.37.12.47-.11.86Z"/><path class="cls-3" d="M19.67,16a2.93,2.93,0,0,0,.08-.83l-.07,0a1.84,1.84,0,0,1-.13.53,1.51,1.51,0,0,0,.05-.52.11.11,0,0,1-.08,0,2.53,2.53,0,0,1-.1.43,3.13,3.13,0,0,0,0-.42l-.12,0c0,.17,0,.36-.08.6,0-.2,0-.4,0-.59h-.13A4.89,4.89,0,0,1,19,16c0-.24,0-.47,0-.69a.49.49,0,0,0-.14,0,5.21,5.21,0,0,1-.06.72c0-.25,0-.49,0-.73l-.12,0a4.84,4.84,0,0,1-.1.66c0-.24,0-.45,0-.69l-.12,0c0,.27,0,.51-.05.79a3.54,3.54,0,0,1,0-.83.22.22,0,0,1-.11-.05,3.18,3.18,0,0,0-.07.92,1.7,1.7,0,0,1,0-.95l-.08-.05a2.57,2.57,0,0,1-.19.36,2.66,2.66,0,0,0,.14-.39l-.14-.08a1.52,1.52,0,0,1-.24.59,3.41,3.41,0,0,0,.2-1.33,2.7,2.7,0,0,1,.07.5l.15.07c0-.23,0-.44,0-.69a1.76,1.76,0,0,1,.05.7.28.28,0,0,0,.12,0l.07-.1a.56.56,0,0,0,0,.12h.09c0-.08,0-.17.08-.28,0,.11,0,.2,0,.31h.1c0-.07,0-.15,0-.23,0,.1,0,.16,0,.24l.14,0V14.5c0,.12,0,.21.06.31H19a1.77,1.77,0,0,1,0-.32c0,.12,0,.23.06.32h.14v-.48a2.54,2.54,0,0,1,.09.47l.12,0c0-.1,0-.22,0-.34a1.6,1.6,0,0,1,.11.33h.08c0-.12,0-.24-.06-.38a1.62,1.62,0,0,1,.12.35h.08c0-.19,0-.39-.08-.62a2.11,2.11,0,0,1,0,1.88Z"/><path class="cls-3" d="M20,15.11l.05.12.19-.17c0-.07.11-.05.15,0v-.21c.07,0,.12,0,.17,0a.23.23,0,0,0,0-.2l0-.27c-.1-.17-.18-.28-.3-.32a.51.51,0,0,1,0,.38.39.39,0,0,0-.22-.36.45.45,0,0,1,.05.32.51.51,0,0,0-.13-.12l0,.16-.08.05,0,.53Z"/><path class="cls-3" d="M21.26,14.17s0,.06,0,.06-.06,0-.1-.06Z"/><path class="cls-3" d="M21.18,13.94h0a.54.54,0,0,1,.06.16h-.15L21,14s0,0,0,0Z"/><path class="cls-3" d="M21,13.69s.13.08.19.2H21c0-.11-.06-.2,0-.2Z"/><path class="cls-3" d="M20.87,14.15s.06,0,.12.12a.26.26,0,0,1,0,.16s-.07,0-.11-.12-.07-.16-.05-.16Z"/><path class="cls-3" d="M20.61,14.1s.08.05.15.15.08.18,0,.2-.08-.06-.14-.15-.08-.19-.06-.2Z"/><path class="cls-3" d="M16.32,13.58s.06.06.09.07l.07-.07a.29.29,0,0,1-.11.19s0-.08,0-.11l-.09-.08Z"/><polygon class="cls-3" points="15.13 26.92 15.08 27.09 15.03 27.07 15.05 26.92 15.13 26.92 15.13 26.92"/><path class="cls-3" d="M11,32.79c.17-.07.21,0,.27.21s.24.24.24.34c.3.26.25.36-.16.32a.29.29,0,0,1-.22-.32L11,32.79Z"/><path class="cls-3" d="M11.08,33.81a.43.43,0,0,0,.05.52.34.34,0,0,0,.27.12l-.06-.15.16.11c0-.08-.06-.17-.21-.28l.2,0c0-.1-.09-.2-.25-.28h.13c-.07-.18-.19-.24-.29-.09Z"/><path class="cls-3" d="M11.6,33.9c.05,0,.09.06.1.14s0,.14-.06.15-.1,0-.11-.13,0-.16.07-.16Z"/><path class="cls-3" d="M14.3,24.79a2.59,2.59,0,0,1,.42-1.25,9.67,9.67,0,0,0-.42,1.25Z"/><path class="cls-3" d="M15.25,22.32c-.16.07-.17-.07-.05-.16a1.26,1.26,0,0,1,.85-.29h.56c.21,0,.19.21,0,.2h-.4a1.73,1.73,0,0,0-.95.25Z"/><path class="cls-3" d="M16.46,22.12a.46.46,0,0,1,.27.05s-.12.06-.27.06-.26,0-.26-.06.12-.05.26-.05Z"/><path class="cls-3" d="M17.55,19.3s-.09.07-.18.19a.58.58,0,0,0-.12.21s.09-.07.17-.19.15-.21.13-.21Z"/><path class="cls-3" d="M16.62,20.22c-.06.12,0,.18.1.24a2,2,0,0,0,1.57-.31l.65-.3c.12-.15.09-.19-.07-.14l-.32.16.08-.26a1.24,1.24,0,0,0-.36.41l-.05-.13a.45.45,0,0,0-.17.27L18,20a.38.38,0,0,0-.16.17l0-.18c-.06,0-.14,0-.24.26l.05-.2s-.11,0-.2.24l.21-.64c-.1,0-.25.26-.41.68-.06,0-.09,0-.08-.06l.24-.47c-.12,0-.25.16-.41.47l.19-.54-.35.45V20a.5.5,0,0,0-.23.19Z"/><path class="cls-3" d="M16.69,28.88c-.05-.06,0-.11.07-.08l.16.14s-.06.11-.1.08l-.13-.14Z"/><path class="cls-3" d="M16.81,28.77s0-.09.07-.07l.13.14s0,.09-.07.06l-.13-.13Z"/><path class="cls-3" d="M16.89,28.65c-.05,0,0-.12.08-.08l.16.16s-.07.11-.09.07l-.15-.15Z"/><path class="cls-3" d="M17,28.45c-.06-.07.06-.16.13-.12l.24.24c.06.07-.09.17-.13.12L17,28.45Z"/><path class="cls-3" d="M17.21,28.24c-.08-.08,0-.19.09-.12l.29.25c.08.07,0,.19-.1.13l-.28-.26Z"/><path class="cls-3" d="M17.38,28.1a.06.06,0,1,1,.08-.1l.25.21c.07.07,0,.16-.09.12l-.24-.23Z"/><path class="cls-3" d="M17.61,28c-.06-.05,0-.13.06-.09l.22.19c.05.05,0,.14-.08.1l-.2-.2Z"/><path class="cls-3" d="M16.54,26.52c0-.06-.1,0-.12,0l0,.24c0,.06.12,0,.12,0l0-.24Z"/><path class="cls-3" d="M16.2,26.85c0-.1-.12-.05-.12,0l0,.18c0,.1.14,0,.12,0l0-.19Z"/><path class="cls-3" d="M15.8,27.11c0-.1-.08-.07-.08,0v.17c0,.09.09,0,.09,0v-.17Z"/><path class="cls-3" d="M16.3,26.77a.07.07,0,0,1,0,.14.08.08,0,0,1,0-.14Z"/><path class="cls-3" d="M15.93,27a.08.08,0,0,1,.07.08c0,.06,0,.08-.07.08s-.06,0-.06-.08,0-.08.06-.08Z"/><path class="cls-3" d="M15.6,27.25c0-.08-.11-.08-.11,0v.16c0,.08.12.07.12,0v-.16Z"/><path class="cls-3" d="M18.49,17.2s.06,0,.06.09,0,.11-.06.11-.06,0-.06-.11,0-.09.06-.09Z"/><path class="cls-3" d="M18.64,17.45s0-.06,0-.14,0-.16,0-.16.06.06.06.16,0,.14-.06.14Z"/><path class="cls-3" d="M18.9,17.39c.06,0,.12,0,.12.05a.17.17,0,0,1-.12,0,.14.14,0,0,1-.11,0s.05-.05.11-.05Z"/><path class="cls-3" d="M19,17.61a.05.05,0,0,1,0,.05s0,.07,0,.07a.08.08,0,0,1,0-.07.07.07,0,0,1,0-.05Z"/><path class="cls-3" d="M19.24,17.6h.5c.15,0,.18.08.07.23.06.26-.27.43-.26,0,0-.08-.12-.12-.31-.12s-.08-.11,0-.12Z"/><path class="cls-3" d="M18.47,20.72a.07.07,0,0,1,.07.07.08.08,0,0,1-.07.08s0,0,0-.08a.07.07,0,0,1,0-.07Z"/><path class="cls-3" d="M18.26,20.79a.09.09,0,0,1,.08.09.09.09,0,0,1-.08.08.08.08,0,0,1-.08-.08.08.08,0,0,1,.08-.09Z"/><path class="cls-3" d="M18.53,20.94c.17-.12.34-.2.37-.16s-.1.17-.28.3-.35.19-.39.15.11-.17.3-.29Z"/><path class="cls-3" d="M19.16,20.52a.53.53,0,0,1,.23-.13s-.05.12-.16.21-.21.15-.23.12.06-.12.16-.2Z"/><path class="cls-3" d="M18.75,21.53a2.1,2.1,0,0,1,.13-.26h0a.49.49,0,0,1,.3-.36h0a.77.77,0,0,1,.2-.13c0,.06-.07.13-.11.18l0,0a1,1,0,0,1,.35-.21,2.06,2.06,0,0,1-.25.26l.08.06a1.33,1.33,0,0,1,.38-.24,4,4,0,0,1-.29.29l.09.05a1,1,0,0,1,.4-.18l-.19.16a1.59,1.59,0,0,1,.34,0c-.18.08-.28.1-.42.16l.11.06a.8.8,0,0,1,.4-.12l-.31.18.1,0a.66.66,0,0,1,.38-.08l-.29.13.05,0a.94.94,0,0,1,.36-.08l-.28.13.08,0a.56.56,0,0,1,.31,0,1.13,1.13,0,0,0-.24.08l.28.17-.05,0-.43-.15a0,0,0,0,0-.05,0,.05.05,0,0,1,0,0l-.1,0a1.11,1.11,0,0,1-.19.09.65.65,0,0,1,.11-.12l-.11,0-.18.1a.61.61,0,0,1,.1-.14l-.1,0a1.5,1.5,0,0,1-.23.15.76.76,0,0,1,.13-.17l-.14-.05-.2.17a.38.38,0,0,1,.1-.2l-.13,0-.23.19a1,1,0,0,1,.14-.22L19,21.31a1.07,1.07,0,0,1-.25.22Z"/><path class="cls-3" d="M17.26,22a5.74,5.74,0,0,0-.46,1.95,4.41,4.41,0,0,0,0,1.45c.06.27.18.36.3.35l2-.32c.14,0,.29-.15.22-.28l-.08-.16-.06.23L19,25l-.08.21-.12-.26-.09.32L18.62,25l-.07.27L18.49,25l-.08.28-.1-.25-.08.3-.1-.29-.08.22-.1-.18-.06.16-.1-.13a.34.34,0,0,0-.28,0l0,.07,0-.07a3.26,3.26,0,0,0-.45-.09l.19-.1c0-.06-.07-.09-.19-.08l.2-.14-.21,0,.2-.12c0-.06-.06-.11-.22-.18l.22-.06v-.06l-.22,0,.23-.11c0-.05,0-.09-.19-.15l.19,0c0-.05,0-.12-.16-.17l.16-.05L17,23.6l.2-.08c0-.07,0-.1-.15-.15l.22-.09a.31.31,0,0,0-.2-.15l.2-.07-.16-.1.18-.08-.14-.06.17-.1s0-.08-.17-.09l.2-.08v-.08l-.19,0,.1-.08-.12-.09.27-.07,0-.05-.2-.05.16-.1a.14.14,0,0,0-.16-.1Zm.31.28,0,0a7.83,7.83,0,0,0-.12,2.66A6,6,0,0,1,17.82,22l0,.09a5.47,5.47,0,0,0-.12,2.73A4.92,4.92,0,0,1,18,22.25v.14a5.36,5.36,0,0,0,0,2.39l0,0a7.7,7.7,0,0,1,.11-2.58h.09a7.19,7.19,0,0,0-.05,2.56l.05-.06a7.28,7.28,0,0,1,.07-2.44h.08a7.28,7.28,0,0,0,0,2.46h.06a7.25,7.25,0,0,1,.09-2.48l.05.06a10,10,0,0,0,0,2.38l.06,0a10.76,10.76,0,0,1,0-2.27l.06-.08a9,9,0,0,0,0,2.36h.05a9.68,9.68,0,0,1,0-2.46l.05,0a16.56,16.56,0,0,0,0,2.44l.05,0A9.14,9.14,0,0,1,19,22.24c.1,0,.1.09,0,.24a9.57,9.57,0,0,0,0,2.14h.08a8.23,8.23,0,0,1,.11-2.36c.06-.07.13,0,.05.17a9.27,9.27,0,0,0-.07,2.19h.1c.1,0,.12.08,0,.12a13.3,13.3,0,0,1-1.88.3c-.12,0-.15-.06-.15-.23a8,8,0,0,1,.29-2.59Zm2.19.54.08-.4c.1-.05.14,0,.12.08l-.17.34,0,0Zm-.14-.42c-.1.66-.1,1.06-.16,1.75l.05.12a9.52,9.52,0,0,1,.23-1.85c0-.1-.07-.13-.12,0Zm-.2,0c0-.05.1,0,.09,0a12.62,12.62,0,0,0-.19,2h0a7.17,7.17,0,0,1,.14-2.05Zm-2.77,4.35a1.77,1.77,0,0,1,.09-.67c0-.09.12-.14.28-.16l1.78-.26c.1,0,.11,0,.1.16a1.31,1.31,0,0,1-.14.46c-.06.06-.08-.17-.06-.52-.13.32-.08.66-.29.71-.1-.15.05-.43.08-.64-.2.19-.14.41-.31.65-.07,0-.05-.21,0-.57a1.89,1.89,0,0,1-.27.57,1.12,1.12,0,0,1,0-.49c-.08.35-.17.58-.25.62a1.82,1.82,0,0,1,0-.57l0,0a1.35,1.35,0,0,1-.19.63.77.77,0,0,1,0-.61h-.08c-.05.17-.08.32-.16.37S17,26.18,17,26a1.19,1.19,0,0,1-.37.69Z"/><path class="cls-3" d="M20,22.9c-.1.08-.14.18.07.16-.14.14-.16.23,0,.27-.26.33-.26.43,0,.28-.29.37-.25.42-.05.36-.26.3-.22.34-.14.36-.17.24-.17.36,0,.34a.41.41,0,0,0-.25.38c-.06.21-.63.45-.15.65a.94.94,0,0,1,.36.62c0,.19.12.2.28.14a1.76,1.76,0,0,1,.4-.07c.25,0,.26-.25,0-.29,0-.11-.06-.16-.21-.1.12-.2,0-.14-.08-.17s.07-.13-.15,0l0-.07a.22.22,0,0,0,.17-.19l-.36.12c.11-.09.16-.16.15-.22l-.25.05c.26-.18.37-.32.35-.38l-.27.08c.2-.16.33-.3.31-.38l-.24.1c0-.08.11-.16.31-.22s.24-.18.21-.33l-.36.17a2.33,2.33,0,0,0,.6-.66c0-.09-.32.1-.7.42v-.06a3.12,3.12,0,0,0,.86-.88l-.7.55.64-.76c0-.1-.23,0-.59.38l0-.08.33-.36a1.25,1.25,0,0,0,.52-.55c.06-.18-.16.05-.51.35-.08.08-.17.12-.26.22l.81-.85v-.11c-.08-.08-.6.53-1,.74Zm-1,3.29c-.15-.09,0-.31.12-.21l.4.29c.12.09,0,.25-.1.19l-.42-.27Zm.16-.25a.12.12,0,0,1,.12-.2l.21.21c.12.11,0,.2-.07.15l-.26-.16Zm.85.79c-.11-.05-.16,0-.09.08a2.17,2.17,0,0,0,.55.36,1.23,1.23,0,0,0,.61.12c.15,0,.22-.09,0-.13a4.43,4.43,0,0,1-1.1-.43Zm.1,0a.12.12,0,0,1,0-.2l.48,0a.32.32,0,0,1,.26.16l.22.25c.09.12,0,.22-.08.19a5.16,5.16,0,0,1-.92-.36Z"/><path class="cls-3" d="M20.65,25.46a.68.68,0,0,1,.38-.32,6.52,6.52,0,0,0,1.32-.32c.14-.09.19-.07.18.08a1.66,1.66,0,0,1-.21.86v-.71h-.06a1.67,1.67,0,0,1-.18.73l0-.66H22l-.15.65,0-.57c0-.08,0-.1-.07-.06-.09.67-.21,1-.34,1a2.23,2.23,0,0,0,.1-1l0,0a3,3,0,0,1-.21.93c-.13-.2.12-.54.07-.87h0l-.24.82c-.08,0-.05-.11,0-.32l0-.46,0,0a2.3,2.3,0,0,1-.22.6l0-.61-.17.44v-.36l-.19.08Zm2-.51c0-.14.17-.1.11,0l-.08.19h0V25Zm0,.55s0,0,0,.09,0,.09,0,.09,0,0,0-.09,0-.09,0-.09Zm.07-.2s0,0,0,.05a0,0,0,0,1,0,0,.06.06,0,0,1-.06,0s0-.05.06-.05Zm0-.81s.07.05.08.12,0,.13,0,.13-.06,0-.07-.11a.27.27,0,0,1,0-.14Zm-.19-.39a.35.35,0,0,1,.11.32c0,.13-.11.23-.11.13a.87.87,0,0,0-.1-.41c-.05-.07,0-.09.1,0Zm-1-.24c0-.13.12,0,.12.06l0,.21s-.05,0-.09-.07v-.2Zm-.46.69c-.11.07-.11.12,0,.16h0c0,.06,0,.1.06.1s.05,0,.05-.1v0l.12,0v.26a.5.5,0,0,1-.13,0,0,0,0,0,0,0,0,.06.06,0,0,0-.06.05s0,0,0,0,0,0,.05.05l.89-.2c.27,0,.33-.2.27-.52,0-.1,0-.14-.08-.13l-.2,0,.12-.08c.16-.08.16-.11,0-.11l-.28,0,.22,0c.07,0,.1-.1,0-.14l-.24,0,.19,0c.12-.1.05-.16-.18-.19.08-.09.07-.16,0-.16s-.16-.16-.12,0l.05.88c0,.09,0,.16-.12.2l-.65.13Zm.5-.34s.07,0,.07.06a.06.06,0,1,1-.12,0,.06.06,0,0,1,.05-.06Zm.54.28a0,0,0,0,1,0,0s0,0,0,0,0,0,0,0,0,0,0,0ZM22,24.31c.06,0,.1,0,.11,0s0,.07-.08.08a.09.09,0,0,1-.11,0s0-.05.08-.07Zm-.61.58h0v-.27l-.07,0,0,.24Zm.15,0,.06,0v-.25l-.12,0,.06.24Zm.16-.06,0,0v-.22l-.06,0,0,.22Zm.12-.05h0c.09-.11.09-.16,0-.19h0v.2Z"/><path class="cls-3" d="M23.86,12.17a2,2,0,0,0-1.93.64,1.87,1.87,0,0,0-.41,1.08c0,.06.14-.08.32-.31l-.11,0a1.19,1.19,0,0,1,.12-.22s0-.11.09-.15a.27.27,0,0,0,.14-.15H22a1.41,1.41,0,0,1,1.21-.45l.38,0a.2.2,0,0,0,.17,0s.05-.06,0-.06a3.34,3.34,0,0,0-1.26.05,2.44,2.44,0,0,1,1.37-.19c.25,0,.27-.17,0-.2Zm-1.93,7.1a.21.21,0,0,1,0,.2c0,.08-.1.15-.14.14s-.06-.11,0-.19.1-.16.15-.15Zm-1,.39s0,.07,0,.13,0,.14,0,.14,0-.06,0-.14,0-.13,0-.13Zm.08.46a.92.92,0,0,1,.37-.62c.19-.13.23-.09.08.09s-.21.39-.32.57-.15.18-.13,0Zm.56-1a.8.8,0,0,0-.43.36c-.06.16,0,.18.08.06a2.34,2.34,0,0,1,.4-.32c.06,0,.11-.14-.05-.1Zm-1.14.9c-.1.11-.08.15.08.09a2.34,2.34,0,0,1,.57-.72l.45-.4c.35-.08.55-.45.61-1.08l0-.07a2.06,2.06,0,0,1-.64.93,2.89,2.89,0,0,0-.63.63c-.08.08-.08.18-.14.28a3,3,0,0,0-.28.34Zm-.11-.28c-.08.14,0,.2.07.08a5,5,0,0,1,.83-1,2.57,2.57,0,0,0,.9-1.18c.1-.32,0-.41-.1-.21a2.52,2.52,0,0,1-.69,1.15,3.7,3.7,0,0,0-1,1.15Zm0-.44c-.07.12-.08.21,0,.28.26-.1.18-.5.8-.81.08-.11.05-.15-.08-.11l-.58.42c.2-.31.4-.57.69-.63a.9.9,0,0,0,.52-.28c.06-.15,0-.19-.07-.12-.36.24-.66.33-.94.54a1.43,1.43,0,0,0-.5.79l.19-.08Zm0-.77a1.27,1.27,0,0,1,.81-.51,1.59,1.59,0,0,0,.71-.53c.21-.13.17,0,.1.13a.57.57,0,0,1-.26.25,2.32,2.32,0,0,1-.59.34,1.45,1.45,0,0,0-.64.45c-.12.09-.17.05-.13-.13Zm.63-.76a1.5,1.5,0,0,0,.5-.44c.19-.27.27-.28.21,0a.78.78,0,0,1-.54.58c-.28.11-.36,0-.17-.14Zm.83-.61.1-.48a.88.88,0,0,1,.2-.51l.14-.4c0-.16.11-.14.11.06l-.09.25c.08,0,0,.12,0,.2s0,.2-.1.22a1.36,1.36,0,0,1-.18.75c-.16.2-.21.17-.16-.09Zm-.64-.07.22-.52c.05-.18.14-.29.26-.3l.3-.28c.06-.08.1,0,.06.09l-.21.35a1.56,1.56,0,0,1-.4.82c0,.05-.15.05-.09,0l.25-.5-.32.44c-.09.12-.11,0-.07-.07Zm-.37.21a1.59,1.59,0,0,1,.28-.6c.15-.14.19-.13.09,0a1.45,1.45,0,0,0-.15.66c0,.26-.34.21-.22-.1Zm0-.42c0,.1,0,.08.08,0l.12-.34a3.85,3.85,0,0,0,.49-.46c.08.12.22,0,.45-.29a.92.92,0,0,0,.49-.62c.07-.22,0-.26-.12-.11a3,3,0,0,0-.45.58c-.25.08-.45.36-.74.49a.28.28,0,0,0-.11.24c-.12.08-.2.22-.21.51Zm0-.65s.08-.06.11,0,0,.08,0,.12a.09.09,0,0,1-.12,0,.1.1,0,0,1,0-.12Zm1.48-2.28a1.71,1.71,0,0,1,.62-.48c.26-.1.24.1.07.1s-.32.12-.62.5c-.08.11-.18,0-.07-.12Zm-1.76,2.71a.91.91,0,0,1,.3-.91c.61-.37.82-.92,1-.91a5,5,0,0,1,.86-1c.27-.19.32-.15.18.14a5.16,5.16,0,0,1-1.12,1.38.49.49,0,0,0-.37.26l.24-.12c.12,0,.13,0,.05.1s-.53.63-.61.3c-.13.25-.36.21-.37.46l0,.33c-.05.1-.09.1-.15,0Zm2.37-3.48c.12,0,.17.05.08.16a2.37,2.37,0,0,0-.84.66.27.27,0,0,1-.16.31c0,.2-.12.29-.32.32l-.29.37c.07.1,0,.24-.25.45s-.19.11-.16-.13c.16-.44.46-1.08.61-1.08s.08,0,.11-.17.12-.08.09,0,0,.12.08,0a2,2,0,0,1,1.05-.93Zm-.89.13a1.71,1.71,0,0,1,1.42-.45c.16,0,.13.17,0,.16a1.21,1.21,0,0,0-.37.07,1.6,1.6,0,0,0-.44.13,2.06,2.06,0,0,0-.72.72c-.08,0-.09,0,0-.08a1.25,1.25,0,0,1,.91-.76l0,0c-.19,0-.41,0-.75.35,0,0-.05,0,0-.11Zm.29-.41a1.46,1.46,0,0,1,1-.24c.24,0,.24.17.11.16a1.87,1.87,0,0,0-1.09.13c-.13.07-.11,0,0,0Z"/><path class="cls-3" d="M24.07,11.8c-.09-.12,0-.19.13-.17a2.27,2.27,0,0,1,1,.32c.13.09,0,.18-.07.12l-.27-.15c0,.12-.1.07-.26-.07-.1.11-.24.06-.38-.1l.09.26c0,.06,0,.06-.07,0l-.17-.23Zm.57.21c-.05,0,0,.14.06.18s.12,0,.09-.06S24.7,12,24.64,12Z"/><path class="cls-3" d="M25.49,12.35s-.13-.07,0-.1c-.13-.08-.08-.18,0-.2.36,0,.64-.21,1.05,0l.19.21c.12.28,0,.41-.15.21s0-.22-.21-.32a1.29,1.29,0,0,1,.19.63c.3.29,0,.36-.06.17l-.12-.54c0,.26,0,.46,0,.46s0-.19-.08-.41-.05-.27-.1-.28a1.39,1.39,0,0,0-.61,0c.29,0,.49,0,.56.08a.47.47,0,0,1,.06.41c-.06.11-.1.08-.1,0l0-.17c0-.1-.12-.11-.27-.1a.42.42,0,0,1-.31,0Z"/><path class="cls-3" d="M21.8,22.28a14,14,0,0,0,1.47,2c.07.08,0-.16.07-.07a2.73,2.73,0,0,0,.38.58c.08-.07-.17-.3-.21-.56l.76.88c.07-.12-.37-.64-.73-1.1l.05-.05.87,1.13h0a9.16,9.16,0,0,0-.8-1.24l0-.09c.16.2.38.5.55.76a3.48,3.48,0,0,0,.55.7c.31.08-.76-1.05-1.25-2v-.06a7.43,7.43,0,0,0,1.67,2.08c.07,0,.12,0,.06-.12a18.84,18.84,0,0,1-1.51-1.88l0-.05a6.74,6.74,0,0,0,1.92,2.06c.06,0,.1.11.17.06.24-.19-.92-.47-1.81-2v-.11a6.92,6.92,0,0,0,.7.9c.42.47,1.08,1,1.19.93s-1-.82-1.53-1.71l0,0a5.85,5.85,0,0,0,2,1.87c.13.06.08.05.24.05.41,0-.92-.65-1.61-1.41v-.07l.73.63c.34.24.68.45,1,.61s.46.21.55.17-.92-.53-1.21-.84a5.23,5.23,0,0,0,.49.23c.51.25.87.43.94.33s-.21-.21-.67-.38c-.06-.06,0-.07.12,0,.53.21.83.36.9.32s-.11-.18-.42-.38a1.79,1.79,0,0,0,.93.28c.06,0-.23-.17-.48-.4.36.23,1.21.54.4,0l.05,0c.31.22.69.32.22-.06h.07c.27.22.41.38.21-.06.27.38.54.53.18,0l.41.32c-.15.07-.13.11,0,.19.34.22.37.18.31,0a.74.74,0,0,0-.34-.75c-.26-.17-.25,0,.06.51a1.14,1.14,0,0,1-.28-.31.37.37,0,0,0-.31-.17,15.11,15.11,0,0,0-1.82.21,1.45,1.45,0,0,1-1-.11c-.16-.13-.21-.18-.13-.33a.18.18,0,0,0-.08-.25l-.43-.85c.06.09.12.13.18.21.17.28.29.51.33.49-.07-.18-.29-.59-.47-1.06.34.59.63,1.09.71,1a5.55,5.55,0,0,0-.57-1.11,1.07,1.07,0,0,1,.15.17c.11.13.21.25.26.23a1.44,1.44,0,0,0-.68-.8c-.37-.14-.6-.19-.55.05l-.18-.21-.2,0c-.07,0,0,.13.16.36l0,0-.23-.36c-.06,0-.16-.08-.17,0l.12.24-.25-.28c-.12-.07-.26-.09-.26,0l.38.61c-.07-.09-.18-.19-.27-.32s-.27-.34-.44-.37.17.26.41.84l-.57-.83c-.05,0-.28-.08-.29,0l.66,1a5.81,5.81,0,0,1-.78-1,.15.15,0,0,0-.12,0s-.05,0-.08,0l.81,1.05a4.67,4.67,0,0,1-.44-.46c-.17-.24-.33-.4-.46-.61a.14.14,0,0,0-.18,0c-.06.09.62.78.91,1.2a7.2,7.2,0,0,1-1-1.2c-.13-.07-.22-.07-.26,0s.82.9,1.16,1.42A13.39,13.39,0,0,1,22,21.35c-.06-.07-.22-.07-.22,0s.75.81,1.35,1.63A12.65,12.65,0,0,0,22,21.73c-.11,0,.27.46,1.12,1.43a11.38,11.38,0,0,1-1.17-1.24c-.11.09.36.68,1,1.42l-1.06-1.11c-.15-.1-.17-.08-.09.05ZM26.32,22c-.09-.14,0-.2.14,0A6.83,6.83,0,0,1,27,23c.07.16,0,.2-.09.05a6.88,6.88,0,0,0-.61-1Zm-.42-.14c-.06-.1.11-.17.25,0a8.69,8.69,0,0,1,.78,1.29c.12.26,0,.33-.12.09a8,8,0,0,0-.91-1.4Z"/><path class="cls-3" d="M24,12.9a1,1,0,0,0,.38.75,3.67,3.67,0,0,0-.2-.39c-.08-.18-.12-.33-.18-.36Zm.83,8.3a1.34,1.34,0,0,0-.67-1c0,.09.28.32.44.6s.16.33.23.38Zm0-.4c-.06,0-.1-.18-.23-.4s-.36-.45-.37-.51a1.43,1.43,0,0,1,.6.91Zm-.06-.5a2.78,2.78,0,0,1-.17-.31,4.72,4.72,0,0,1-.29-.4,1,1,0,0,1,.46.71Zm-.05-.52a.6.6,0,0,0-.32-.47s.12.15.2.27.09.17.12.2Zm-.2-7.29a.93.93,0,0,0,.21.81,1.61,1.61,0,0,0-.12-.44c0-.17-.05-.34-.09-.37Zm-2.35,8.57c-.2,0-.24,0-.26-.23a1.94,1.94,0,0,1,.26.23Zm-.27-.35c.13.13.27.21.4.36a.17.17,0,0,0,.2,0c-.21-.22-.41-.36-.64-.58,0,.08,0,.17,0,.25Zm-.05-.37c.28.28.49.45.74.72.08,0,.13,0,.17,0-.3-.39-.58-.68-.89-1.07a2.11,2.11,0,0,0,0,.35Zm.05-.43c.35.4.68.75,1,1.19.1,0,.18,0,.22,0-.34-.45-.78-.95-1.18-1.44,0,.07,0,.12-.07.18a.13.13,0,0,0,0,.06Zm.09-.33c.46.52.87,1,1.35,1.56a.17.17,0,0,0,.18,0c-.05,0-.37-.44-.42-.51-.39-.48-.62-.73-1.05-1.26a1.52,1.52,0,0,1-.06.2Zm.08-.28c.48.53.65.77,1.17,1.38.06.08.34.36.39.43s.29.13.18,0,0,0-.13-.2c-.42-.52-1.13-1.37-1.55-1.9l-.06.25Zm.07-.32c0-.08,0-.14,0-.21l1.63,2c.24.29.23.28.36.42s-.05,0-.14,0a3.45,3.45,0,0,1-.23-.28c-.56-.65-1.17-1.41-1.66-2Zm0-.28a1.45,1.45,0,0,0,0-.29,10.66,10.66,0,0,0,1.71,2,18.92,18.92,0,0,0-1.42-1.68,4.12,4.12,0,0,1-.26-.51c0-.08,0-.15,0-.24A6.8,6.8,0,0,0,24,20.07c-.09-.24-.92-.9-1.36-1.61a3.9,3.9,0,0,1-.34-.69v-.12A7.06,7.06,0,0,0,24,19.75c-.08-.24-.93-.93-1.35-1.61a5,5,0,0,1-.35-.7v-.13a8.24,8.24,0,0,0,1.82,2.23c-.08-.23-1-1.06-1.44-1.71a5.92,5.92,0,0,1-.36-.74v-.18a6.61,6.61,0,0,0,1.77,2.2c-.08-.22-1-1-1.37-1.6a4.55,4.55,0,0,1-.37-.78,1.34,1.34,0,0,1,0-.2,5.34,5.34,0,0,0,1.7,2.13c-.08-.2-.93-.89-1.27-1.47a6.37,6.37,0,0,1-.42-.83.82.82,0,0,1,0-.22A5,5,0,0,0,24,18.25c-.05-.2-.85-.82-1.2-1.38a6.1,6.1,0,0,1-.41-.89v0a2.3,2.3,0,0,0,0-.26A4.38,4.38,0,0,0,24,17.88c0-.18-.78-.8-1.09-1.32a8.83,8.83,0,0,1-.45-.94c.22-1.92,1-3,2.22-3.25l0,0a1.3,1.3,0,0,0,.13.77,3.93,3.93,0,0,0,0-.55v-.2l.1,0c0,.26.11.52.23.54a.84.84,0,0,1-.11-.49l.15,0c0,.28.09.59.22.6a.75.75,0,0,1-.1-.54h0a.7.7,0,0,0,.12.26c.06-.06,0-.19,0-.34a.46.46,0,0,1,.5.05c.07.08.05.12,0,.12h-.09l.21.09s.06.06-.07.07l-.07.07.28,0c.09,0,.08.07.05.11l-.07.08a1.67,1.67,0,0,1,.8.21c0,.11-.13.1-.36,0,0,.13.27.14.25.22s-.34,0-.49.2l.36,0c.08.05.05.09-.07.09.19.22.34.29.39.13s.11-.12.16,0c.22.13.27.15.13.17l-.21,0,.25,0c.07,0,.07.08,0,.12s-.19.06.13.07c.14.07.19.13.14.19-.28,0-.27.05.06.08.08,0,.11.09.09.13-.17,0-.14.08.07.08,0,0,.05.07,0,.11-.2.05-.17.08.08.08,0,.09.16.07.22.19.21,0,.3.11.12.11l0,0c.31,0,.44.09.4.28s-.44-.16-.26.48l.06.07c.12,0,0-.3.19-.27,0,0,.05.11,0,.27s-.13.21-.28.12-.21-.19-.2-.3l0-.2c-.15,0-.18-.08-.19-.22s-.05,0,0-.06a.31.31,0,0,0-.41.22c0,.06-.07,0-.1-.06s-.08,0-.13,0,0-.09-.06-.08,0,0-.08,0,0-.11-.11,0-.07.06-.08,0,.07-.2-.08,0c-.05,0-.07,0-.09,0s-.14-.23-.16,0-.08.1-.08,0c-.08-.35-.1-.35-.07,0,0,.15,0,.14-.13,0s-.13,0-.2-.1,0-.39-.19-.45l.1.46c0,.07-.11.08-.12,0a2.23,2.23,0,0,0-.22-.67l.12.64c0,.05-.13,0-.16-.06l-.16-.79c0-.23,0,.42.06.7,0,0-.11,0-.1,0a3.53,3.53,0,0,0-.16-.79c-.09.1.16.85,0,.74,0,0-.09-.78-.12-.79s0,.73,0,.72c-.22-.27,0-1-.14-1s-.09.88-.11.86c.09.67.63.7.59.9l-.38-.2c.1.2.26.41.37.64-.12,0,0,.2.09.28-.12,0-.09.07.14.28a.11.11,0,0,1,.05.12c-.28-.07-.31-.07.14.29-.27,0-.29,0,0,.2a.43.43,0,0,1,.14.2s0,0-.07,0l-.16-.09c-.08,0,0,.09.35.37.09.08.13.15.06.18-.45-.28-.42-.22.07.21.12.19.13.27.09.29-.4-.33-.66-.54,0,.15.12.12.14.2,0,.21-.69-.52-.32-.17.15.31a0,0,0,0,1,0,.05c-.66-.49-.69-.37,0,.36,0,.07.07.12,0,.17s-.06,0-.09,0c-.48-.45-.44-.36.11.38.08.13.12.23,0,.16-.59-.67-.78-.82,0,.22.08.13.09.2,0,.16-.55-.75-.56-.65,0,.14,0,.1,0,.11,0,.1-.49-.6-.64-.75,0,.13.08.16.07.19,0,.11-.6-.75-.61-.66,0,.12.06.09.08.14,0,.1-.69-.78-.69-.76,0,.09,0,.22,0,.2-.12.1s-.06-.15-.13-.21c-.42-.52-.48-.48,0,.18-.05,0-.12,0-.2,0-.44-.57-.48-.57-.13,0l-.24,0a.47.47,0,0,0-.14-.17c-.41-.4-.56-.44-.14.08,0,0,0,0,0,0L25,21.39a.24.24,0,0,1-.17-.09,2.84,2.84,0,0,0-.66-.8c0,.12.28.33.48.66s-.18.12-.26.08c-.15-.2-.2-.22-.42-.48-.59-.7-1.23-1.5-1.75-2.06Zm1.61-5.58a3.34,3.34,0,0,1,.2.4c.1.21.26.41.28.47a1.1,1.1,0,0,1-.48-.87Zm-.2.21c.05.05.09.23.21.47a4.62,4.62,0,0,1,.35.55,1.44,1.44,0,0,1-.56-1Zm-.19.24c.07,0,.11.25.26.52s.39.54.41.62a1.6,1.6,0,0,1-.67-1.14Zm-.16.24A1.93,1.93,0,0,0,24,15.09c0-.1-.32-.4-.48-.71s-.21-.5-.28-.57Zm-.14.25A2.1,2.1,0,0,0,24,15.47c0-.1-.37-.45-.56-.78s-.24-.56-.3-.63Zm-.14.25a2.37,2.37,0,0,0,1,1.53c0-.12-.43-.47-.62-.85s-.26-.6-.34-.68Zm-.13.26a2.72,2.72,0,0,0,1.06,1.66c0-.13-.46-.53-.7-.93a8,8,0,0,0-.36-.73Zm-.11.25a2.92,2.92,0,0,0,1.16,1.79c0-.14-.52-.57-.77-1s-.29-.69-.39-.8Zm-.09.27A3.11,3.11,0,0,0,23.87,17c-.05-.16-.57-.62-.85-1.09s-.31-.73-.4-.83Zm-.11.25a3.85,3.85,0,0,0,1.4,2.11c-.05-.17-.66-.72-1-1.21s-.33-.77-.44-.9Zm1.76-2.62s.09.16.15.3.13.28.13.32a.71.71,0,0,1-.28-.62Zm3.47,3.51c-.14-.15-.24,0,0,.21s.36.11.31,0l-.27-.26Zm-1.08-1.65s0,.16,0,.24a.32.32,0,0,0,.08.2c.05.07.08.08.07.05a1.38,1.38,0,0,1-.12-.4.09.09,0,0,0-.06-.09Zm-.18-.2s0,.19,0,.28a.46.46,0,0,0,.08.24c.05.07.08.09.07.07a1.7,1.7,0,0,1-.11-.48.18.18,0,0,0-.05-.11Zm-.2-.2s0,.2,0,.31a.44.44,0,0,0,.08.29c.05.08.08.11.07.07a3.14,3.14,0,0,1-.11-.55c0-.08,0-.11,0-.12Zm-.19-.2a1.84,1.84,0,0,0,0,.35.66.66,0,0,0,.07.33c.07.09.09.12.08.08a4.14,4.14,0,0,1-.09-.63c0-.09,0-.12-.06-.13Zm-.19-.21a3.58,3.58,0,0,0,0,.4.65.65,0,0,0,.07.36c.05.12.09.14.08.1a3.76,3.76,0,0,1-.08-.7.2.2,0,0,0-.06-.16Zm-.19-.2s0,.28,0,.44a.73.73,0,0,0,.07.4c0,.13.08.16.08.12a4.8,4.8,0,0,1-.08-.79c0-.1,0-.14-.05-.17Zm-.18,0s0,.23,0,.35a.54.54,0,0,0,0,.33c0,.11.07.13.07.09a3.69,3.69,0,0,1-.06-.62.13.13,0,0,0,0-.15Zm-.14,0s0,.19,0,.28a.37.37,0,0,0,0,.25c0,.1.06.11.06.08a2.07,2.07,0,0,1,0-.49.15.15,0,0,0,0-.12Z"/><path class="cls-4" d="M11.68,8.79c.4.5.77,1,1.19,1.52,0,.09,0,.15-.14.15-.44-.63-.77-1.13-1.11-1.61-.06-.09,0-.11.06-.06Zm2,3.42c0,.11,0,.16-.12.06a.5.5,0,0,1,.06-.68.46.46,0,0,1,.68-.07c.13.11.09.12-.07.12-.45,0-.63.23-.55.57Zm.47-.21c-.19-.07-.24,0-.2.21C16.61,16,20.64,21.44,25.39,27.9l0,.1.4.22-.13-.53-.08.06c-3.66-5.11-7.9-11.12-11.4-15.75Z"/><path class="cls-5" d="M20.6,13c0-.09.35-.33.8-.63a.87.87,0,0,1,.56-.22.54.54,0,0,0,.24,0c.1.06.06.12-.06.14a.14.14,0,0,0-.16,0c-.12,0-.13.1-.21.13l-.05-.08c-.16.11-.27.4-.39.54l0-.14c-.08,0-.13.18-.25.28,0-.11,0-.16-.05-.16-.2.13-.35.2-.4.14Zm-5.28,7c.12,0,.23,0,.23.08s-.11.09-.23.09-.24,0-.24-.09.11-.08.24-.08Zm.9-.18c.08-.12.18-.18.2-.15s0,.16-.08.27-.17.18-.2.14,0-.14.08-.26Zm-.29.16c.06-.1.12-.15.15-.12s0,.12,0,.21-.14.14-.16.12,0-.12.06-.21Zm-.26.05c.05-.08.1-.12.12-.11s0,.11,0,.19-.11.1-.14.09a.2.2,0,0,1,.06-.17ZM11.24,19l-.06.14c.07,0,.12-.08.19-.12l0,.24c.08,0,.26-.19.4-.28l-.1.24c.12,0,.2-.17.3-.27l-.06.26c.15,0,.24-.2.36-.31l0,.24c.11,0,.19-.16.3-.25l0,.17c.09,0,.15-.12.23-.17l0,.16.2-.2,0,.17.22-.08.07.09.18-.09v.2l.25-.11,0,.14L14,19.1v.17l.21-.05v.16l.32-.13-.1.24.28-.18,0,.19.3-.13-.17.28c.2,0,.26-.14.4-.2l-.1.25a1,1,0,0,0,.55-.41c0,.06,0,.17-.13.4a.82.82,0,0,0,.4-.4l-.07.28a.59.59,0,0,0,.38-.31v.27a.7.7,0,0,0,.24-.32c.13.05.28,0,.33-.24s0-.27-.14-.2a2.71,2.71,0,0,1-2.45.17A9.6,9.6,0,0,0,12,18.69c-.33,0-.61,0-.74.35Zm1.69-2.86a.75.75,0,0,1,.29-.26l0,.12.31-.1,0,.1.35-.18c-.2.25-.24.36-.18.36s.31-.3.39-.22c-.17.27,0,.19.28-.05.08,0-.11.21-.08.24s.13-.05.35-.2c.05,0,.17-.17.19-.11s-.06.12-.1.18c-.21.25-.16.21.21,0,.05,0,.13-.09.19-.07-.26.34-.15.27.22,0,.06,0,.12-.12.19-.05-.47.41-.39.47.21.17-.28.32-.21.33.23.06,0,0,.09,0,.14,0-.19.2-.22.34-.13.29a1,1,0,0,1,.43-.12c-.19.19-.18.27.06.23.08,0,0,.12-.24.28,0,.06-.08,0-.12-.16,0,.09-.06.09-.1,0l0,.34H16v-.2q-.06-.07-.12,0l-.07.27L15.64,17a.51.51,0,0,1-.19.25c-.08-.1-.13-.08-.16,0s-.08,0-.13,0-.08.15-.15.07a2,2,0,0,0-.3.24l-.05-.13c-.1.13-.18.21-.23.18l-.09-.09-.15.24-.24.06c0,.07.09.07.25,0a4.66,4.66,0,0,0,.89-.2,6.32,6.32,0,0,0,.88-.25c.25-.12.55-.33.84-.48.07.06,0,.19-.55.63L16,17.52l.14.2a.18.18,0,0,1-.18.08l-.24-.12.08.25c-.17,0-.25-.21-.41-.12l.06.2-.36-.11.07.24-.3-.13-.07.13c-.09,0-.15,0-.16.07a3.88,3.88,0,0,0,2.27-.52s.06,0,.06.08a1.46,1.46,0,0,1-.66.85l.11-.42c-.24.1-.5.62-.7.69l.21-.56-.63.52c0-.07,0-.21.16-.4-.18,0-.5.44-.56.41s.11-.2.16-.29c-.17,0-.29.15-.43.23,0-.08.08-.18.24-.32l-.52.24c0-.1.2-.18.24-.31a1.25,1.25,0,0,1-.51.25l.16-.25-.45.24.28-.29-.48.22.13-.25-.34.23.14-.28a.93.93,0,0,1-.42.24c.09-.12.16-.22.14-.28a1,1,0,0,1-.38.22l.06-.22a1.22,1.22,0,0,1-.44.28l.16-.27s0-.09,0-.05l-.36.29c.08-.15.13-.24.07-.28l-.25.13,0-.14-.3.32s0-.1.06-.24l-.31.2a1.22,1.22,0,0,1,.78-.64,5.21,5.21,0,0,1,1-.19,3.29,3.29,0,0,0,1.13-.28,1.7,1.7,0,0,0,.58-.32c.11-.08.07-.1-.05-.09l-.48,0v-.22l-.18.26,0-.26-.16.44-.07-.5-.12.54-.07-.53-.2.61,0-.64-.12.66-.12-.67-.08.67-.13-.63,0,.6L13,16.71v.64l-.2-.62,0,.55-.13-.53-.06.48-.1-.44-.07.48c-.2-.38-.28-.68-.15-.85a.78.78,0,0,1,.74-.24Zm1.51-1.45s.08,0,.11.14,0,.18,0,.18-.08-.06-.1-.15a.28.28,0,0,1,0-.17Zm-1.35-.16c.2-.31.36-.4.46-.16.13-.43.28-.47.47-.1.25,0,.3.39.26,1L14,14.63v.42c-.16-.71-1.18-.3-.95-.48Zm4.41-2.32a2.26,2.26,0,0,1,.87.3s0,.06,0,0a.5.5,0,0,0-.28-.12c0,.12,0,.17,0,.16-.11-.19-.2-.22-.28-.18s0,0-.07,0c-.08-.18-.12-.18-.16-.11s-.08-.11,0-.11Zm-1.5.08c-.07,0-.07.07,0,.08s.18-.09.3,0c0-.17.07-.16.21.05-.05-.21,0-.26.23.06,0-.18,0-.2.16.09,0,0,.08,0,.09,0-.08-.31,0-.3.14,0,.05.07.08.07.08,0,0-.21.08-.17.27.12.06.06.08.09.1,0s0-.16.21.06c.13,0,.32.09.56.3,0,0,.05.06.08,0-.13-.24,0-.14.24,0,.13-.06.14-.1.07-.13a4.18,4.18,0,0,1-1.1-.53c-.3-.24-.43-.17-.79-.4a.78.78,0,0,0-.84.13Zm-.65.43c-.16.05-.16.12,0,.14a.28.28,0,0,0,.18,0c.09,0,.13,0,.17.08s.15.19.21.15-.25-.25-.1-.25h.08c.22.21.43.33.42.29l-.09-.24c0-.08.09,0,.14,0l.31.27s0,0,0-.21,0-.06.1,0,.42.5.42.38v-.12s.06,0,.1,0,.25.26.24.2l0-.1c0-.07,0-.07.12,0l.32.26c.07.06.12,0,.1,0l-.06-.08c0-.07,0-.08.07,0l.28.2s0,0,0-.13h.16c0,.09.1.12.25.19s.06,0,.14-.06l.38-.12c.12,0,.11-.12,0-.09A2.5,2.5,0,0,1,17.39,13a2.45,2.45,0,0,0-2-.25Zm5.48.3s0,.07,0,.12-.1.06-.12,0,0-.08,0-.12a.13.13,0,0,1,.12,0Zm.42.11c-.09-.07-.13.09,0,0l.22-.2c.11-.19,0,.05.11,0a.45.45,0,0,0,.17-.36L22,12.6c.11-.09.08-.13-.07-.12a2.46,2.46,0,0,0-.49.48l-.16.21Z"/><path class="cls-6" d="M43.61,7.08v3.6l.43,0,0,1.87h-.76l-.05-1.11H40.64l-.06,1.11h-.75l0-1.87.37,0a4.72,4.72,0,0,0,.41-1,5.43,5.43,0,0,0,.18-1.45V7.08Zm-2,1.39a5.12,5.12,0,0,1-.19,1.44,3.58,3.58,0,0,1-.31.74h1.46V7.89h-1Z"/><path class="cls-6" d="M47.2,9.61H45.59v1h1.8v.82H44.6V7.08h2.7v.81H45.59V8.8H47.2Z"/><path class="cls-6" d="M51.6,7.08v4.38h-1V7.89H49.06v3.57h-1V7.08Z"/><path class="cls-6" d="M53.47,10.33l-.31,1.13h-1l1.33-4.38h1.3l1.36,4.38H55.06l-.33-1.13Zm1.11-.74-.27-.92c-.08-.26-.15-.59-.22-.85h0c-.07.26-.13.59-.2.85l-.26.92Z"/><path class="cls-6" d="M56.71,7.14a8.37,8.37,0,0,1,1.34-.09,2.15,2.15,0,0,1,1.34.35,1.29,1.29,0,0,1,.46,1,1.4,1.4,0,0,1-.4,1A2,2,0,0,1,58,9.91a1.72,1.72,0,0,1-.34,0v1.57h-1Zm1,2a1.57,1.57,0,0,0,.33,0c.53,0,.85-.26.85-.71s-.28-.64-.77-.64a2.74,2.74,0,0,0-.41,0Z"/><path class="cls-6" d="M61.38,7.91H60.21V7.08h3.36v.83H62.38v3.55h-1Z"/><path class="cls-6" d="M64.63,10.33l-.32,1.13h-1l1.34-4.38h1.29l1.36,4.38H66.22l-.34-1.13Zm1.11-.74-.28-.92c-.07-.26-.15-.59-.22-.85h0c-.07.26-.13.59-.2.85l-.26.92Z"/><path class="cls-6" d="M71.56,9.78c0-.52,0-1.16,0-1.8h0c-.13.56-.31,1.19-.48,1.7l-.54,1.7h-.77l-.46-1.69A15.91,15.91,0,0,1,68.85,8h0c0,.59,0,1.27-.08,1.81l-.08,1.67h-.91L68,7.08h1.32l.43,1.46c.14.51.27,1.05.37,1.57h0c.12-.51.27-1.09.41-1.57l.47-1.46h1.29l.24,4.38h-1Z"/><path class="cls-6" d="M76,9.61H74.34v1h1.8v.82H73.35V7.08h2.7v.81H74.34V8.8H76Z"/><path class="cls-6" d="M77.81,7.08V8.76h1.63V7.08h1v4.38h-1V9.63H77.81v1.83h-1V7.08Z"/><path class="cls-6" d="M82.13,7.91H81V7.08h3.37v.83h-1.2v3.55h-1Z"/><path class="cls-6" d="M43.67,14.87v4.37h-1V15.68H41.13v3.56h-1V14.87Z"/><path class="cls-6" d="M44.53,14.93a7.07,7.07,0,0,1,1.34-.1,2.1,2.1,0,0,1,1.33.35,1.31,1.31,0,0,1,.47,1,1.4,1.4,0,0,1-.4,1,2.07,2.07,0,0,1-1.42.46l-.34,0v1.56h-1Zm1,2a1.42,1.42,0,0,0,.33,0c.52,0,.85-.27.85-.72s-.28-.64-.77-.64a1.65,1.65,0,0,0-.41,0Z"/><path class="cls-6" d="M50.9,17.39H49.29v1h1.8v.81H48.3V14.87H51v.81H49.29v.91H50.9Z"/><path class="cls-6" d="M55.3,14.87v3.59l.43,0,0,1.86h-.76l0-1.11H52.33l-.06,1.11h-.75l0-1.86.37,0a4.87,4.87,0,0,0,.41-1A5.48,5.48,0,0,0,52.44,16V14.87Zm-1.95,1.39a5.22,5.22,0,0,1-.19,1.44,3.82,3.82,0,0,1-.31.74h1.46V15.67h-1Z"/><path class="cls-6" d="M59.83,14.87v4.37h-1V15.68H57.28v3.56h-1V14.87Z"/><path class="cls-6" d="M60.68,14.93a7.22,7.22,0,0,1,1.34-.1,2.15,2.15,0,0,1,1.34.35,1.33,1.33,0,0,1,.46,1,1.4,1.4,0,0,1-.4,1A2.07,2.07,0,0,1,62,17.7l-.34,0v1.56h-1Zm1,2a1.48,1.48,0,0,0,.33,0c.53,0,.85-.27.85-.72s-.28-.64-.77-.64a1.65,1.65,0,0,0-.41,0Z"/><path class="cls-6" d="M65.36,14.87v1.29c0,.71,0,1.4,0,2h0c.23-.51.52-1.09.78-1.55l.94-1.72h1v4.37h-.91V18a17.6,17.6,0,0,1,.07-1.84h0a12.31,12.31,0,0,1-.74,1.55l-.89,1.58H64.45V14.87Z"/><path class="cls-6" d="M69.92,14.87v1.68h1.63V14.87h1v4.37h-1V17.41H69.92v1.83h-1V14.87Z"/><path class="cls-6" d="M74.31,14.87v1.29c0,.71,0,1.4-.06,2h0c.23-.51.52-1.09.78-1.55L76,14.87h1v4.37H76.1V18c0-.68,0-1.27.07-1.84h0a12.31,12.31,0,0,1-.74,1.55l-.88,1.58H73.4V14.87Z"/><path class="cls-6" d="M81.57,17.57c0-.53,0-1.17,0-1.8h0c-.13.56-.31,1.18-.48,1.69l-.54,1.71h-.77l-.47-1.69c-.14-.52-.29-1.14-.39-1.71h0c0,.59,0,1.26-.08,1.81l-.08,1.66h-.91l.27-4.37h1.32l.43,1.46c.14.5.27,1.05.37,1.56h0c.12-.51.27-1.08.41-1.57l.47-1.45h1.29l.24,4.37h-1Z"/><path class="cls-6" d="M84.38,18.12l-.31,1.12H83l1.34-4.37h1.3L87,19.24H86l-.34-1.12Zm1.11-.74-.27-.93c-.08-.26-.16-.58-.22-.84h0c-.06.26-.13.59-.2.84l-.26.93Z"/><path class="cls-6" d="M88,15.7H86.86v-.83h3.37v.83H89v3.54H88Z"/><path class="cls-6" d="M93.35,17.39H91.74v1h1.8v.81H90.75V14.87h2.7v.81H91.74v.91h1.61Z"/><path class="cls-6" d="M97.62,14.87v4.37h-1V15.68h-1v1c0,1.12-.14,2-.8,2.37a1.83,1.83,0,0,1-.87.22l-.13-.8a.82.82,0,0,0,.5-.24,2.24,2.24,0,0,0,.34-1.49V14.87Z"/><path class="cls-6" d="M99.47,14.87v1.52a4,4,0,0,1,.53,0c.94,0,1.74.45,1.74,1.42a1.37,1.37,0,0,1-.35,1,2.62,2.62,0,0,1-1.84.56,7.91,7.91,0,0,1-1.07-.07V14.87Zm0,3.65a2.05,2.05,0,0,0,.37,0c.48,0,.87-.24.87-.73s-.38-.71-.85-.71c-.15,0-.26,0-.39,0Z"/><path class="cls-6" d="M105.58,19.12a2.81,2.81,0,0,1-1.12.19,2.09,2.09,0,0,1-2.29-2.19,2.23,2.23,0,0,1,2.39-2.32,2.56,2.56,0,0,1,1.07.19l-.2.79a2,2,0,0,0-.83-.17,1.32,1.32,0,0,0-1.39,1.45,1.31,1.31,0,0,0,1.4,1.43,2.63,2.63,0,0,0,.82-.14Z"/><path class="cls-6" d="M107.2,15.7H106v-.83h3.36v.83h-1.19v3.54h-1Z"/><path class="cls-6" d="M109.91,14.93a6.88,6.88,0,0,1,1.28-.1,2.4,2.4,0,0,1,1.29.25,1,1,0,0,1,.52.86,1,1,0,0,1-.72.93v0a1.09,1.09,0,0,1,.87,1.07,1.17,1.17,0,0,1-.45.93,2.78,2.78,0,0,1-1.72.4,7.79,7.79,0,0,1-1.07-.07Zm1,1.67h.32c.52,0,.8-.21.8-.54s-.25-.51-.7-.51a2.79,2.79,0,0,0-.42,0Zm0,1.94h.38c.45,0,.84-.17.84-.63s-.39-.61-.89-.61h-.33Z"/><path class="cls-6" d="M114.82,18.12l-.31,1.12h-1l1.33-4.37h1.3l1.36,4.37h-1.07l-.33-1.12Zm1.11-.74-.27-.93c-.08-.26-.15-.58-.22-.84h0c-.07.26-.13.59-.2.84l-.26.93Z"/><path class="cls-6" d="M41.05,22.65V24c0,.7,0,1.39-.06,2h0c.23-.51.52-1.09.78-1.56l.94-1.72h1V27h-.91v-1.3c0-.67,0-1.27.07-1.84h0a12.45,12.45,0,0,1-.74,1.56L41.27,27H40.14V22.65Z"/><path class="cls-6" d="M46.83,22.65V24c0,.7,0,1.39,0,2h0c.22-.51.51-1.09.77-1.56l1-1.72h1V27h-.91v-1.3a17.71,17.71,0,0,1,.07-1.84h0a12.45,12.45,0,0,1-.74,1.56L47.05,27H45.92V22.65Z"/><path class="cls-6" d="M51.39,22.65v1.68H53V22.65h1V27H53V25.2H51.39V27h-1V22.65Z"/><path class="cls-6" d="M55.86,22.65v1.68h1.63V22.65h1V27h-1V25.2H55.86V27h-1V22.65Z"/><path class="cls-6" d="M63.34,24.79a2.09,2.09,0,0,1-2.15,2.31,2,2,0,0,1-2-2.23,2.11,2.11,0,0,1,2.13-2.29A2,2,0,0,1,63.34,24.79Zm-3.16.06c0,.86.4,1.46,1.07,1.46s1-.63,1-1.48-.38-1.46-1.06-1.46S60.18,24,60.18,24.85Z"/><path class="cls-6" d="M64,22.71a8.18,8.18,0,0,1,1.28-.09,2.4,2.4,0,0,1,1.29.25,1,1,0,0,1,.53.85,1,1,0,0,1-.72.94h0a1.1,1.1,0,0,1,.86,1.08,1.16,1.16,0,0,1-.45.92,2.72,2.72,0,0,1-1.72.4A8.2,8.2,0,0,1,64,27Zm1,1.67h.32c.52,0,.8-.21.8-.53s-.25-.51-.7-.51a1.92,1.92,0,0,0-.42,0Zm0,1.94a2,2,0,0,0,.38,0c.45,0,.85-.17.85-.63s-.4-.62-.89-.62H65Z"/><path class="cls-6" d="M68.91,25.9,68.6,27h-1l1.34-4.38h1.3L71.56,27H70.5l-.34-1.13ZM70,25.16l-.27-.92c-.08-.26-.16-.59-.23-.85h0c-.06.26-.13.59-.2.85l-.26.92Z"/><path class="cls-6" d="M73.14,22.65v3.56h1.53V22.65h1v3.6l.44,0,0,1.86H75.3l0-1.1H72.14V22.65Z"/><path class="cls-6" d="M77.56,22.65V24c0,.7,0,1.39-.06,2h0c.23-.51.52-1.09.78-1.56l.94-1.72h1V27h-.91v-1.3c0-.67,0-1.27.07-1.84h0a14,14,0,0,1-.73,1.56L77.78,27H76.65V22.65Z"/><path class="cls-6" d="M85.13,24.79A2.09,2.09,0,0,1,83,27.1a2,2,0,0,1-2.06-2.23,2.12,2.12,0,0,1,2.13-2.29A2,2,0,0,1,85.13,24.79ZM82,24.85c0,.86.4,1.46,1.06,1.46s1-.63,1-1.48-.37-1.46-1.06-1.46S82,24,82,24.85Z"/><path class="cls-6" d="M86.77,22.65v1.68H88.4V22.65h1V27h-1V25.2H86.77V27h-1V22.65Z"/><path class="cls-6" d="M91.24,22.65v1.68h1.63V22.65h1V27h-1V25.2H91.24V27h-1V22.65Z"/><path class="cls-6" d="M98.72,24.79a2.09,2.09,0,0,1-2.15,2.31,2,2,0,0,1-2.06-2.23,2.12,2.12,0,0,1,2.13-2.29A2,2,0,0,1,98.72,24.79Zm-3.16.06c0,.86.4,1.46,1.06,1.46s1-.63,1-1.48-.37-1.46-1-1.46S95.56,24,95.56,24.85Z"/><path class="cls-6" d="M102,22.65v.81h-1.65V27h-1V22.65Z"/><path class="cls-6" d="M106.33,24.79a2.09,2.09,0,0,1-2.15,2.31,2,2,0,0,1-2.06-2.23,2.12,2.12,0,0,1,2.13-2.29A2,2,0,0,1,106.33,24.79Zm-3.16.06c0,.86.4,1.46,1.06,1.46s1-.63,1-1.48-.37-1.46-1.06-1.46S103.17,24,103.17,24.85Z"/><path class="cls-6" d="M108.29,22.71a8.22,8.22,0,0,1,1.33-.09A2.13,2.13,0,0,1,111,23a1.27,1.27,0,0,1,.47,1,1.41,1.41,0,0,1-.41,1,2,2,0,0,1-1.42.46l-.33,0V27h-1Zm1,2a1.47,1.47,0,0,0,.33,0c.52,0,.85-.26.85-.71s-.28-.64-.78-.64a1.71,1.71,0,0,0-.4,0Z"/><path class="cls-6" d="M112.68,25.9,112.37,27h-1l1.34-4.38H114L115.33,27h-1.06l-.34-1.13Zm1.11-.74-.28-.92c-.07-.26-.15-.59-.22-.85h0c-.06.26-.13.59-.2.85l-.26.92Z"/><path class="cls-6" d="M115.78,22.93a2.64,2.64,0,0,1,1.36-.35c1,0,1.53.48,1.53,1.12a1,1,0,0,1-.88,1v0a1.09,1.09,0,0,1,1,1c0,1-1,1.31-1.81,1.31a2.72,2.72,0,0,1-1.31-.31l.21-.76a2.48,2.48,0,0,0,1.06.26c.5,0,.8-.21.8-.57s-.51-.58-.91-.58h-.42v-.73h.41c.45,0,.78-.21.78-.55s-.24-.48-.66-.48a2.24,2.24,0,0,0-1,.26Z"/><path class="cls-6" d="M119.47,22.71a8.08,8.08,0,0,1,1.28-.09,2.4,2.4,0,0,1,1.29.25,1,1,0,0,1,.53.85,1,1,0,0,1-.73.94h0a1.1,1.1,0,0,1,.87,1.08,1.16,1.16,0,0,1-.45.92,2.72,2.72,0,0,1-1.72.4,8.2,8.2,0,0,1-1.07-.06Zm1,1.67h.32c.52,0,.8-.21.8-.53s-.25-.51-.7-.51a1.92,1.92,0,0,0-.42,0Zm0,1.94a2,2,0,0,0,.38,0c.45,0,.85-.17.85-.63s-.4-.62-.89-.62h-.34Z"/><path class="cls-6" d="M124.3,22.65V24c0,.7,0,1.39-.06,2h0c.23-.51.52-1.09.78-1.56l.94-1.72h1V27h-.91v-1.3a17.57,17.57,0,0,1,.08-1.84h0a14,14,0,0,1-.74,1.56L124.52,27h-1.13V22.65Z"/><path class="cls-6" d="M128.71,23.48h-1.18v-.83h3.36v.83H129.7V27h-1Z"/><path class="cls-6" d="M132.33,22.65V24c0,.7,0,1.39-.05,2h0c.23-.51.52-1.09.78-1.56l.94-1.72h1V27h-.9v-1.3a17.71,17.71,0,0,1,.07-1.84h0a12.45,12.45,0,0,1-.74,1.56L132.55,27h-1.13V22.65Z"/><path class="cls-6" d="M135.52,27a2.52,2.52,0,0,0,.22-.5,3.27,3.27,0,0,1,.61-1.33,1.23,1.23,0,0,1,.36-.23h0a1.06,1.06,0,0,1-.92-1.07,1.12,1.12,0,0,1,.46-.93,2.38,2.38,0,0,1,1.42-.34,8.62,8.62,0,0,1,1.26.09V27h-1V25.31h-.24a.63.63,0,0,0-.46.16,3.27,3.27,0,0,0-.52,1.19,2.3,2.3,0,0,1-.16.37ZM138,23.39a2.22,2.22,0,0,0-.4,0c-.43,0-.77.18-.77.63s.37.62.82.62l.35,0Z"/><path class="cls-6" d="M42.52,30.44v.47H40.77v3.9H40.2V30.44Z"/><path class="cls-6" d="M46.52,32.58a2,2,0,0,1-2,2.3,2,2,0,0,1-2-2.22,2.08,2.08,0,0,1,2-2.29A2,2,0,0,1,46.52,32.58Zm-3.39.07c0,.93.5,1.77,1.39,1.77s1.4-.82,1.4-1.82-.45-1.77-1.39-1.77S43.13,31.69,43.13,32.65Z"/><path class="cls-6" d="M47.25,30.49a6.09,6.09,0,0,1,1.09-.09,1.74,1.74,0,0,1,1.22.37,1.17,1.17,0,0,1,.39.91,1.3,1.3,0,0,1-.34.94,1.86,1.86,0,0,1-1.34.48,2,2,0,0,1-.45,0v1.75h-.57Zm.57,2.11a2.05,2.05,0,0,0,.47,0c.68,0,1.09-.33,1.09-.93s-.41-.86-1-.86a2.07,2.07,0,0,0-.53,0Z"/><path class="cls-6" d="M54.39,32.58a2,2,0,0,1-2,2.3,2,2,0,0,1-2-2.22,2.07,2.07,0,0,1,2-2.29A2,2,0,0,1,54.39,32.58ZM51,32.65c0,.93.5,1.77,1.39,1.77s1.4-.82,1.4-1.82-.45-1.77-1.39-1.77S51,31.69,51,32.65Z"/><path class="cls-6" d="M58,30.44v3.91h.38l0,1.5h-.44l0-1H55.08l0,1H54.6l0-1.5h.34a5.17,5.17,0,0,0,.42-1,6.47,6.47,0,0,0,.21-1.84V30.44Zm-1.92,1.29a6.13,6.13,0,0,1-.22,1.78,4,4,0,0,1-.36.83h1.93V30.9H56.06Z"/><path class="cls-6" d="M59.8,33.43l-.45,1.38h-.59l1.49-4.37h.68l1.49,4.37h-.6l-.47-1.38ZM61.23,33l-.42-1.26a7.51,7.51,0,0,1-.23-.79h0c-.07.26-.14.52-.22.79L59.92,33Z"/><path class="cls-6" d="M68.12,32.89c0-.61-.07-1.34-.06-1.89h0c-.15.51-.33,1.06-.55,1.66l-.77,2.12h-.43l-.71-2.08c-.21-.62-.38-1.18-.51-1.7h0c0,.55,0,1.28-.08,1.93l-.12,1.88h-.54l.31-4.37h.72l.74,2.11c.18.54.33,1,.44,1.47h0c.11-.44.27-.92.46-1.47l.78-2.11h.72l.28,4.37h-.56Z"/><path class="cls-6" d="M73.39,32.58a2,2,0,0,1-2,2.3,2,2,0,0,1-2-2.22,2.08,2.08,0,0,1,2-2.29A2,2,0,0,1,73.39,32.58ZM70,32.65c0,.93.5,1.77,1.39,1.77s1.4-.82,1.4-1.82-.45-1.77-1.39-1.77S70,31.69,70,32.65Z"/><path class="cls-6" d="M77.18,34.67a2.9,2.9,0,0,1-1.16.2,2,2,0,0,1-2.16-2.21,2.17,2.17,0,0,1,2.29-2.29,2.36,2.36,0,0,1,1,.19l-.14.46a2.1,2.1,0,0,0-.88-.18,1.62,1.62,0,0,0-1.71,1.8,1.59,1.59,0,0,0,1.68,1.76,2.21,2.21,0,0,0,.92-.18Z"/><path class="cls-6" d="M78.44,30.44v1.94h.18l1.5-1.94h.68l-1.65,2c.72.1,1,.54,1.22,1.13a11.87,11.87,0,0,0,.48,1.24h-.61a7.85,7.85,0,0,1-.39-1c-.21-.58-.48-1-1.22-1h-.19v2h-.55V30.44Z"/><path class="cls-6" d="M81.4,30.49a5.7,5.7,0,0,1,1-.09,1.79,1.79,0,0,1,1.2.32.92.92,0,0,1,.37.77,1,1,0,0,1-.74,1v0a1.13,1.13,0,0,1,.9,1.09,1.18,1.18,0,0,1-.37.88,2.18,2.18,0,0,1-1.51.41,8,8,0,0,1-.88-.05Zm.57,1.8h.51c.6,0,1-.32,1-.74s-.39-.71-1-.71a2.35,2.35,0,0,0-.5,0Zm0,2.09a2.83,2.83,0,0,0,.47,0c.58,0,1.12-.22,1.12-.85s-.51-.85-1.13-.85H82Z"/><path class="cls-6" d="M85.48,30.44v1.63A4.41,4.41,0,0,1,86,32c.9,0,1.69.4,1.69,1.37a1.32,1.32,0,0,1-.34.93,2.2,2.2,0,0,1-1.56.51,8,8,0,0,1-.87-.05V30.44Zm0,3.94a2.77,2.77,0,0,0,.46,0c.62,0,1.16-.32,1.16-1s-.59-.94-1.17-.94a3.33,3.33,0,0,0-.45,0Zm3.27-3.94v4.37h-.57V30.44Z"/></svg>
