<svg xmlns="http://www.w3.org/2000/svg" width="48" height="52" xmlns:xlink="http://www.w3.org/1999/xlink"><defs><path id="a" d="M22.23 41.92c-.55 0-1 .45-1 1v2.8c0 .54.45 1 1 1s1-.46 1-1v-2.8c0-.55-.45-1-1-1z"/><path id="b" d="M27.6 41.92c-.54 0-1 .45-1 1v2.8c0 .54.46 1 1 1 .56 0 1-.46 1-1v-2.8c0-.55-.43-1-1-1z"/><path id="c" d="M22.23 53.2c-.55 0-1 .44-1 1v6.03c0 .55.45 1 1 1s1-.45 1-1V54.2c0-.56-.45-1-1-1z"/><path id="d" d="M27.67 53.2c-.55 0-1 .44-1 1v6.03c0 .55.45 1 1 1s1-.45 1-1V54.2c0-.56-.44-1-1-1z"/><path id="e" d="M38.17 31.5v-5.7c0-.56-.45-1-1-1h-24.3c-.54 0-1 .44-1 1v5.7c-3.2.5-5.68 3.28-5.68 6.63 0 3.7 3 6.7 6.7 6.7 1.14 0 2.16-.2 3.03-.62v16.03c0 .55.45 1 1 1s1-.45 1-1V50.6h14.14v9.63c0 .55.45 1 1 1s1-.45 1-1V44.2c.86.42 1.88.64 3.02.64 3.7 0 6.7-3 6.7-6.7 0-3.34-2.44-6.1-5.63-6.63zm-2-4.7v4.6h-22.3v-4.6h22.3zM17.93 48.6V42.6c.55-.75.9-1.65 1.03-2.67h12.1c.1 1.03.46 1.93 1.02 2.68v6.03H17.93zm19.15-5.76c-1.98 0-4.1-.97-4.1-3.7 0-.72.2-2.42 1.84-2.42 1.75 0 1.9 1.86 1.9 2.43 0 .55.44 1 1 1 .54 0 1-.45 1-1 0-2.65-1.57-4.43-3.9-4.43-1.9 0-3.28 1.25-3.7 3.2H18.87c-.4-1.95-1.8-3.2-3.7-3.2-2.33 0-3.9 1.78-3.9 4.43 0 .55.46 1 1 1 .56 0 1-.45 1-1 0-.57.15-2.43 1.9-2.43 1.66 0 1.84 1.7 1.84 2.43 0 2.27-1.57 3.7-4.1 3.7-2.6 0-4.7-2.13-4.7-4.72 0-2.6 2.1-4.72 4.7-4.72H37.1c2.6 0 4.72 2.13 4.72 4.73 0 2.6-2.1 4.7-4.72 4.7z"/><path id="f" d="M7.56 11.64h34.88l5 14H2.56z"/></defs><g fill="none"><g><g transform="translate(-125 -3922) translate(124 3912)"><mask><use xlink:href="#a"/></mask><mask><use xlink:href="#b"/></mask><use id="Path" fill="#F0D2D9" xlink:href="#b"/><mask><use xlink:href="#c"/></mask><use id="Path" fill="#F0D2D9" xlink:href="#c"/><mask><use xlink:href="#d"/></mask><use id="Path" fill="#F0D2D9" xlink:href="#d"/><mask><use xlink:href="#e"/></mask><use fill="#F0D2D9" xlink:href="#e"/><mask><use xlink:href="#f"/></mask><use stroke="#F0D2D9" stroke-width="2" xlink:href="#f"/></g></g></g></svg>