<svg xmlns="http://www.w3.org/2000/svg" width="45" height="46"><g fill="none"><g fill="#F0D2D9" fill-rule="nonzero"><g><path d="M30.8 23.9c0-1.96-1.6-3.55-3.56-3.55s-3.56 1.6-3.56 3.55c0 1.96 1.6 3.56 3.56 3.56s3.55-1.6 3.55-3.56zm-5.34 0c0-.97.8-1.77 1.78-1.77.97 0 1.77.8 1.77 1.77 0 .98-.8 1.78-1.76 1.78-.98 0-1.78-.8-1.78-1.78zM22.5.22c-3.4 0-6.6.76-9.5 2.1-1.37-1.3-3.24-2.1-5.3-2.1C3.45.22 0 3.62 0 7.77c0 1.56.96 3.54 2.14 5.38C.78 16.05 0 19.3 0 22.72c0 12.43 10.07 22.5 22.5 22.5S45 35.15 45 22.72 34.93.22 22.5.22zm.9 1.8c5.7.24 10.8 2.8 14.4 6.75-1.66.83-3.73 1.53-6.08 2.05-2.5.55-5.34.87-8.34.93V2.02zm0 11.5c3.1-.04 6.06-.4 8.7-.97 2.64-.58 4.97-1.38 6.87-2.38 2.5 3.27 4.05 7.3 4.23 11.66h-7.5c-1.13-3.6-4.5-6.22-8.46-6.22-1.38 0-2.7.34-3.85.9v-2.97zm-1.8-11.5v9.73c-2.53-.04-4.94-.3-7.15-.7.57-1.17.94-2.3.94-3.28 0-1.48-.45-2.86-1.2-4.03 2.28-1 4.78-1.6 7.4-1.72zM7.7 2c3.27 0 5.92 2.58 5.92 5.77 0 3.18-5.92 9.62-5.92 9.62s-5.92-6.45-5.92-9.63C1.78 4.57 4.43 2 7.7 2zM3.33 14.88c1.3 1.76 2.6 3.2 3.06 3.72l1.3 1.42L9 18.6c.66-.7 2.9-3.23 4.55-5.92 2.48.5 5.2.8 8.06.86v4.1c-1.3 1.08-2.3 2.53-2.84 4.2H1.8c.1-2.46.64-4.8 1.53-6.96zm2.7 20.4C3.53 32 2 27.97 1.8 23.6h16.6c-.03.3-.04.6-.04.9 0 2.13 1.48 4.93 3.16 7.4-3.1.07-6 .4-8.62.98-2.64.58-4.97 1.4-6.87 2.4zM21.6 43.4c-5.7-.24-10.8-2.8-14.4-6.75 1.66-.83 3.72-1.54 6.08-2.05 2.5-.55 5.33-.88 8.33-.93v9.72zM20.14 24.5c0-3.93 3.18-7.1 7.1-7.1 3.93 0 7.1 3.17 7.1 7.1 0 3.92-7.1 11.84-7.1 11.84s-7.1-7.92-7.1-11.84zm3.26 18.92v-8.94c1.1 1.45 2.1 2.57 2.52 3.04L27.24 39l1.32-1.48c.42-.47 1.4-1.6 2.5-3.02.23.04.45.07.66.12 2.35.52 4.42 1.22 6.1 2.05-3.6 3.95-8.73 6.5-14.43 6.75zm15.57-8.15c-1.86-.98-4.14-1.77-6.72-2.35 1.94-2.7 3.87-6 3.87-8.42 0-.3-.02-.6-.05-.9h7.13c-.18 4.38-1.73 8.4-4.23 11.67zM10.8 7.32c0-1.63-1.32-2.96-2.95-2.96-1.64 0-2.97 1.33-2.97 2.96 0 1.64 1.33 2.96 2.97 2.96 1.63 0 2.96-1.32 2.96-2.96zm-4.14 0c0-.65.53-1.18 1.2-1.18.64 0 1.17.53 1.17 1.18 0 .66-.53 1.2-1.18 1.2-.66 0-1.2-.54-1.2-1.2z"/></g></g></g></svg>