<svg xmlns="http://www.w3.org/2000/svg" width="49" height="49"><g fill="none"><g fill="#F0D2D9" fill-rule="nonzero"><g><path d="M48.93 27.4v-.07c0-.08 0-.22-.13-.36l-.22-.22-11.53-6.22V7.3c0-.07 0-.2-.13-.34l-.22-.23L24.77.3c-.2-.1-.5-.1-.7 0L12.24 6.67c-.08.02-.18.08-.2.25l-.08.1v.05s0 0-.02.02l-.05.06v.03c-.03.02-.08.1-.08.18v13.14L.42 26.72c-.1 0-.16.1-.18.13-.02.03-.02.04-.04.05l-.15.16v.07c-.02.06-.05.13-.05.2v13.55c0 .3.1.5.4.68l11.87 6.63h.31c.1 0 .28 0 .4-.1l11.48-6.34 11.5 6.42.04.02h.35c.15 0 .28 0 .4-.1l11.86-6.54c.23-.1.4-.4.4-.68l-.07-13.47zm-14.16-20l-10.3 5.65c-5.57-3.04-6.8-3.7-7.88-4.32-.62-.34-1.2-.66-2.43-1.34l10.3-5.6 10.3 5.6zm-11 21.3v11.78l-10.4 5.74V34.37l10.4-5.68zm-.96-1.3L12.6 33.1c-4.3-2.38-6.2-3.43-7.34-4.06-1.18-.65-1.54-.86-2.95-1.6l10.28-5.6c7.3 3.94 7.56 4.1 8.98 4.9.33.17.7.4 1.25.7zm-9.5-7.02V8.58c1.4.77 1.86 1.03 2.62 1.46 1.03.58 2.6 1.46 7.76 4.3v11.78l-.98-.53c-1.6-.87-1.6-.87-6.1-3.4l-3.3-1.82zm-1.42 13.9v11.94l-10.4-5.74V28.6c.87.47 1.22.67 1.73.96.96.53 2.4 1.34 8.68 4.73zm23.76 0v11.94l-10.4-5.74V28.62c2.35 1.32 2.68 1.5 4.2 2.3 1.07.6 2.77 1.5 6.2 3.37zm-.08-25.6v11.7c-4.6 2.54-6.38 3.53-7.44 4.13-1.04.6-1.4.78-2.95 1.63v-11.8l10.4-5.66zm11.1 18.73L36.33 33.1c-4.8-2.65-6.26-3.45-7.3-4.02-.82-.44-1.38-.75-3-1.65l.15-.08c1.73-.97 1.73-.97 3.9-2.15 1.2-.65 3.06-1.64 6.23-3.36l10.32 5.6zm.78 1.3v11.78l-10.4 5.74V34.37l10.4-5.68z"/></g></g></g></svg>