<svg xmlns="http://www.w3.org/2000/svg" viewBox="0 0 1433 1908"><g fill="none"><g stroke="#293754"><path fill="#66DA97" d="M208.92 1571.78l15.2 15.88 15.32 1.88 10.2 1.38-1.53 9.2 10.28-.23-.66 5.53-47.9 11.3-4.7 20.64-9 1.73-16.42-4.3-14.85 5.55 3.02 8.7-8.75 20.1 6.05 7.2-3.93 7.42-8.95-5.5-7.5 14.55 8.8 2.88-.23 14.3 2.05 32.4 13.86 8.16-1.8 11.66 11.2 20.2 16.9 43.12 9.8-5.23 6 5.32 4.5-2.28 11.42-1.63h8.12l3.2 9.98.48 33.5-9.64 6.9 1.9 8.77 5.17 1.72 3.1-2.86 3.9 3.7.45 7.52 9 4.9 3.46 10.16 37.36 1.14v-9.65l57.2-3.62.22-8.66 39.7-8.95.75-14.86 12.43-2.28 2.72 7.48 8.06-8.82 11.28 3.34-1.78-48.02 8.7-13.65 1.36-7.37-11.92 1.36 4.56-36.83-4.6-6.95 1.95-30.56 8.87 2.1 15.44-12.23 11 .95 14.96-16.65-103.06-80.83-109.78-60.18-35.3-13.35-15.62 2 .13 20.08 4.17 3.5-6.32 7.3z"/><path fill="#66DA97" d="M696.96 1416.94l-116.15-1.1-33.87 20.15-16.3 82.18-19 41.37 1.38 21.34 32.77 68.76 8.65 9.9 22.72 19.03 3.15 19.14 9.68-2.23 2.07 17.77-6.23 6.25.34 13.94 25.8 7.3 4.02-16.28 18.13-1.7.38-13.5 22.6-6.5 69.52-27.15 13.6-79.58 9.06-5.56.38-5.66-13.02-1.14 3.18-5.38-1.03-3.37-7.62.05-2.74-3.86 1.03-4.63-10.44-.9-9.82-1.68 6-11.75-3.6-11.32.82-6.92 7.6 2.32 18.35 12.78 5.74-7.22 14-.36 7.8-9.43-32.4-24.67-22.75-3.76 9.75-13.2 3.1-24.44-26.64-49z"/><path fill="#66DA97" d="M243.48 1339.18l55.5-5.78 205.26 47.4 41.5 56.97 10.4 7.4 7.36 44.1-7.46 9.16-16.35 5-2.84 19.68-5.94-2.88 1.6 24.93-8.8 2.07-5.98 12-4.7-1.1-.1 22.4 12.1-3.85 5.16 5.46 4.85-4.93 3.92 10.18 7.12 59.75 11.38 13.87-6.76 3.56 13.46 11.04-12.05 20.2-25.32 1.1-3.9 4.2-15.15-8.95-.62-8.25-14.02-10.5-16.07 9.6-.72 11.36-28.95-12.82-11.6-6.43-10.45 3-.32-6.22-8.15 1.76 4.5-11.13-30.02-31.25-18.02-7.28-2.6-10.86-2.24 10.44-15.13-3.45 4.4-10.9-44.4-18.98-53.13-35-24.9 11.8-2.95-16.23-5.3 2.05-1.9-11.3-7.88 2.03-6.27-5-14-93.34 13.2-56.48 33.3-49.58z"/><path fill="#66DA97" d="M243.24 1473.46l-46.36-27.87 2.9-11.37 2.88-10.7-20.46-44.84-49.04-23.57-23.5-137.45L3.23 1224 1 1256.55l15.63 8.86L28.55 1297l16.64 6.08-8.88 10.5 32.24 32.54-14.13 17.56 12.37 15.76-4.88 8.47 55.8 55.12 12.17 4.5.66 7.12 26.62 28.5 6.42 15.58 16.78 18.86 5.63-5.16 26.4 23.05 8.44-44.6 6.6-1.5z"/><path fill="#66DA97" d="M169.2 1382.92l.28-6.9 5.08.67.95 3.7 6.72 1-4.1 2.8-1.86 10.28L188.3 1410l-4.07 10.17L189 1428l15.4-3.12 7.36-28.86 5.25 4.8 11.46-3.28 22.82-34.7-5.72-2.53.5-8.8 11.77-2.57 7.6-9.02 15.55-.4 6.27 8.04 11.76-2.06 11.52 2.84 55.62-58.38 4.8-35.93 2.24-6.7-7.77 2.28-20.28 13.9-1.63-9.2-8.83-8.03-1.67-7.07-22-7.5.67-14.98-28.46-4.26.4 9.7-6.3 7.14-12.9.1-1.33 23.82-19.93-7.47-1.2-9.75-9.85-7.34-1.07-7.02-5.8-.58-2.28 2.17-4-.64-2.65 4.74-8.94.14 7.9-80.05-50.16-9.58 4.2-36.5-22.98-8.92-.38 21.64-124.37-5.34-2.57 88.1-14.94 2.4-1.3 23.38 76.42 5.34-8.44 6.87 7.87 1.52 12.68-10 7.66-2.17 13.1 6-13.4 18.24 9.2 10.7 8.15-6.42-4.16 12.38-4.77 20.13-3.62 28.96 5.08 6.22 11.72 26.66 2.34 23.14 9.26 3.8-.52-4.3 11.47 3.3-2.54 8.94 18.02 8.55 10.92-7.55z"/><path fill="#66DA97" d="M298.68 1346.3l.3 10.25 6.42 6.46 1.52 9.7 12.5-10.1 2.56 11.8 3.06 10.73-7.78 7.3 17.17 17.44 15.14 1.9-2.08 15.7 4.32 1.46 2.2-9.8 4.25.26 2.15 6.66 17.84-7.68 1.2-8.23 15.83 4.9 1.86 8.3 6.16 2 3.9-10.12 5.82 2.62 8.72 6.62 8.7-2.32-4.74-6.42 13.48-.16 2.5 4.43 16.25-3.5 13.18-22.15 10.1-7.54 16.14-1.38 8.9-5.3 23.76-38.23-26.48-30.1-85.22-37.14-17.42-12.08-10.42 1.03-9.97 5.26-8.78-1.33-.4-7.92-12.4 4.18-2.15 10.72-8.33 2.34-12.7 14.85-5.85-4.02-8 17.68 2.96 5.1-1.34 20.33-13.57 17.16-11.27-1.65z"/><path fill="#66DA97" d="M629.9 1449.6l13.34-1.04 7.6-11.95 3.6 3.15 7.7-.83 29.22-22.2 5.8 1.67-5.3 7.58-.66 10.63-3.56 11.86 9.33 2.33 14.75.13-4.4 8.16 8.7 7.12 7.12 1.23-6.65 7.82 4.46 7.5-.65 8.98-9-1.83-2.26 14.5 25.08 7 12.06 12.06 18.3 7.38-3.23-14.14-9.56-14.46-15.4-12.67 13.02-5.76 8.5-10.56.33-14.2 27.48-7.8-21.25-22.62 13.4-16.88 10-4.4 6.62-12.02 5.1 3.18.55 11.48 7.76 11.1 10.3-9.7-4.2-11.24 7.05-7.4-5.87-18.72 6.8-2.45-6.76-16.4 7.76-3.33-9.92-8.54 6.07-10.4-1.66-14.4-8.87-3.58-4.84 5.7-6.43-4.1-.7-5.64-16.24 3.9-.85-15.18-5.73 1.6-4-5.52 7.5-4.54-8.15-10.7-8.83 9.03 1.46-8.46-46.48-5.63 15.8-23.03-30.4-5.27 16.87-17.55-34.05-2-76.63 98.35-25.6 86.64-.53 33.95 7.37 5 8.47-11.3 24.2-4.57-2.92 9.02 12 1.7.07 3.24z"/><path fill="#66DA97" d="M504.65 1319l13.36 12.3.48 19.25-9.1 15.67-6.6 22.24 9.53 10.34 11.62 7.02-10.6 9.14.97 26.3 15.28-6.88 17.1 4.93 17.96-11.45 28.17-20.27 8.32 7.98 11.14-12.4.44-8.84-8.7.2 3.46-48.5 16.68-3.42 12.2-38.07 17.38-18.65 1.55-15.48 11.46 4.7 16.87-9.36-11.97-7.2 9.44-7.15 2.1-24.66-6.3-43.75-136.27-4.5-115.95 46.68-10.43 43.18 33.36 23.06 20.15 4.9 4.24 16.32 9.64 15.8 11.98-3.57 3.3-13.66 7.16-.57z"/><path fill="#17B65A" d="M609.4 1235.54l-1.1-4.07-.14-15.8 22.85-33.83 10.27-45.07-7.6-22.6 6.97-21.4-57.16 24.07-27.76 69.02 6.23 28.76-4.26 6.3 8.12 4.5-.63 18.57 4.3-1.13 6.26-7 18.86-1.1z"/><path fill="#66DA97" d="M483 1214.42l4.72-13.5 13.25 6.16 3.45-7.24 13.02-.32 5.33 3.18 25-3.43 7.3-14.15 17.17-8.05 9.13-18.34-12.17-7.95 18.07-22.25 15.24 11.03 3.48-8.82-3.3-6.5-12.27.9.7-7.3 14.9-8.18 18.27-1.8 5.75-2.38 16.77-6.72 18.66-28.78 5.22-46.74-206.54-43.58-72.7 34.75.15 8.55-10.15 7.22-3.03 18.38 11.24 4.15.28 10.1-6.76 3.84 2.3 41.17 21.5-1.8-4.5 33.22-9.23 3.33.86 21.15 10.48 8.33-1.9 20.13-28 5.3-26.54 1.55-1.82 5.04 73.37 60.88 14.48-13.2-13.87-5.07.66-4.42 46.03-.5-1.02-12.44 5.2-3.6 13.93.22 9.72 9.18 9.62-7-21.43-13.68z"/><path fill="#66DA97" d="M789.07 1178.25l11.48-46.88-11.88-11.6-40.1-17.9L731.1 1035l-14.3-9.17-46.7-3.87 1.15 3.3-3.23 12.22-7.9 2.07 7.8 8.44-3.37 1.8-6.48-.57-2.92 3.63 8.86 6.42 1.5 7.5-.5 6.58-10 1.15-7.08 6.23h-7.25l-1.73 10.25 6.43 2.77-1.83 6.06-13.1 1.48-.82 4.83 4.92 1.97-1.4 5.8-4.53 2.13 2.67 15.75 9.46 4.47-3.72 6.16.7 12.37-9.65 21.3 3.07 5.97 40.53 1.67-.68 7.57-7 6.65-8.5-2.64-4.88 5.22 11.4 5.9-1.7 2.4-8.84 3.96-2.85 17.9 16.55-.8-.23-14.26 11.64-.75 2.38 10.72 10.6 5.33 2.9-1.95 5.16 3.7 21.9.42 6.4-25.42 18.6 11.45 4.12-9.52 19.1-8.44.66-14.43z"/><path fill="#66DA97" d="M771.77 1122.08l16.46-2.6 3.93 14.4 9.1-1.53 12.78-18.72 19.4-19.35 79.53 86.17 16.07-10.04 8.98.54 14.8 1.9-.8 5.8 2.54.44 5.93-7.45-1.16-11.56 13.62 8.06 6.72-.86 4.73-4.35 2.5 5.06 6.35-1.58-4.5-43.9-5.47-1 2.92-5.08-2.5-1.42-3.86 5.13-2.08-6.57-3.1-.24-11.17 7.28.54 35.7-11.43-8.38-18.66 3.82-53.6-49.9-21.76-6.16 27.5-2.68-74.23-50.1-50.7-20.2-31.37 13.03-8.18 30.63 2.62 16.5 5.85-5.06 7.77 6.93-3.45 4.73 7.25 2.74 7.25 7.3-11.68 1.26 2.25 8.18-2.2 16.27 10.22-12.65 17.16 2.24z"/><path fill="#66DA97" d="M892.23 1135.72l3.87 3.07 5.82 3.77-2.3 18.32 4.32.9 5.7 5.98 5.8.46 11.5-5.86 11.55 1.82-.9 4.14 7.75 2.06 2.6-19.8-5.48-3.4 6.9-43.38-70.97-10-19.82 1.8.6 2.3 16.95 4.34 15.7 24.7z"/><path fill="#66DA97" d="M912.76 1252.26l-6.2-28.6 19.87-9.96-7.7-26.72 20.97-8.43 3.55-18-11.38-3.9-17.92 7.03-11.55-11.96-.22-8.2 2.38-11.42-3.3-2.28-1.85 2.95-4.74-4.15 1.75-2.88-5.67-3.13 4.43-4.87-15.23-23.4-16-4.2-12.1-1.15-12.47-5.38-5.1 1.02-17.64 15.8 2.45 4.8-24.38 31.1-4.13-.27-9.1 20.6 10.66 11.76 11.97 20-.62 7.6 2.15 6.07 33.98 11.04 9.78.05 2.64 12.6-11.23 11.74 9.88 12.6 25.2 13.62 30.6-1.12 6.28-10.34z"/><path fill="#66DA97" d="M368.72 970.58L388 996.85l2.58 19.72 64.37-29.5 1.83 19.66 13.17 3.15 5.07 2.74 18.23-4.76-.44-6.96 5.84-2.15 3.63 5.97-6.82 18.75 2.94 3.8 11.9-.52-.46-5.38 6.38 6.33 15.34-.5 3.9-10.63.12 14.53 7.15 3.48 2.95-15.98 7.3 2.18.2 4.58 15.48 2.76 37.07-12.6 5.88-17.9-49.78-43.58-22.6-35.64 8.6-16.94-38.93-34.24-26.9-2.1-12.04 7.52L471 886l-7.25 3.46-6.06 9.24-24.47 1.32-5.66-9.37-5.13-3.7-13.3 10.05-1.77 18.9-7.2.47-11.42-14.05-23.62 9.93 2.15 11.6-11.48-1.38 1.44 8.75-6.4 4.65 17.88 34.7z"/><path fill="#66DA97" d="M421.52 924.4l-14.9-8.63.83-18.3 7.15-6.72 7.17-4.94 7.26 6.47 4.66 8.6 25.04-3.45 4.04-7.88 8.03-5.03.9-11.68 13.8-7.52 11.9.2 6.7 5.75-9.8 10.22-13.93 11.12-10.76 10.34-4.7 3.34 3.64 6.2 8.22-3.15-1.3 10.63-4.5 7.04-8.73 6.5 2.73 8.24-12.15.92-8.97 2.8-6.14-3.82-12.88 2.92-4.4-11 2.48-5.5-1.38-3.67z"/><path fill="#66DA97" d="M731.9 1038.33l3.85-12.3-6.63-20.86-24.98-11.9-2.66-36.52-24.1-12.3-32.4-11.6-26.32-6.15-57.88 26.23 6.87 7.9-6.57 5.46-18.22 6.88 4.2 17.63 5.4-4.92 2.02 17.13 9.76 6.4 2.53-9.27 8.6-.24.48-7.7 12.33-1.5 1.06 8.26 7-1.76 3.4 5.32 4.7-8.72 7.97 4.64-5.75 11.4-.53 4.73-13.2 1.35-9.17-7-5.1 8.98-7.77 2.36-3.28 7.43 5.14 9.3 11.1-3.45 1.2 10.4 6.67-1.66 1.15-9.97 14.07-1.23 6.04 5.36 7.6-5.55 3.63 13.85 27.74-3.15 8.65-15.5 10.64.04-.35-4.63 43.2 7.05 17.9 9.78z"/><path fill="#FB8CB8" d="M661.86 940.4l6.22 6.67 9.4-1.26 29.14 15.98 26.67-24.72-.23-13.07 14.73-23.33-4.84-1.5 1.8-6.2 31.23 2.9 14.36-26.83-5.58-5.1.08-14.9 12.2-15.16-27.68-44.34-22.3 4.4-11.85 66.38L668 847.1l-1.47 13.87L640.1 871l-1.5-7.82-13.18-4.72-15.08 27.34 4.35 23.84 5.05 22.74 17 12.5 9.8-2.15.26-7.87 7.26 8.22 4.83 7.4 2.96-10.1z"/><path fill="#A4E9C1" d="M804.65 880.5l-1.7 15 6.33 7.46 2.7 5.03 18.62 4.92 7.97-17.55-42.35-60.75-12.2 13.5-.48 15.34 7.2 7.4z"/><path fill="#FB8CB8" d="M790.6 1044.03l-7.5-5.4-6.05-.06-11.5-4.56-5 .07-10.78 12.75-7.9-14.28-12.58 8.2 2.58-16.8-3.05-6.66-11.18-7.1-3.7-8.48-14.48-9.85-1.9-12.12-11.54 2.03 10.06-23.05 6 1.4 27.55-26.1-1.08-14.08 16.65-22-6.02-2.4 1.27-5.96 33.13 2 15.04-25.42 18.74 11.6-1.96 18.4 4.72 8.47 18.3 7.06L839 894.4l72.7 57.42 14.4 57.2-9.75 14.86-95.88 41.8-6.6-10.65-5.87-.52.34-7.43-17.73-3.04z"/><path fill="#FB8CB8" d="M720.7 695.43c.16-.07.1-.05 0 0-.2.1-.65.3-1.6.7l-.07.06-5.66 3.4.43.9-.42.57 2.72 1.4-.37.44.43.27-.35.73-.73.9-.7.78 2.77 3 1.45 1.5-.37.27.12.04-.65.58-.44.37.07.05.06.05.05.1-1.33 1.05-.12.06h-.17l-.13-.06h-.06l-.06-.04v-.05h-.05l-.2.06.07.1-.06.16-.12-.15-.3-.53-.18.1-1.58-1.67-1.5 1.1-1.5 1.16-4.18-3.08-2.17 1.42-1.5 1.2.6.7-.48.3-.54-.68-.6.52-.06-.63-.13-4-.08-1.52-.13-4.5-.02-2.68-.06-1.26-.07-2.42-.05-1.2V694.18l-.13-2.15v-1.26l-.07-.36-.18-.88-.48-1.2-.07-.06-.42-1.15-.66.06-.87-1.73-.05-.36h-.02l-.36.12-.12.14-.85.2.06.12-.13.05-.06-.04-.47.1v.1h-.2v-.04l-1.07.27.05.1-.23.04v-.1l-.48.1v.1l-.13.06-.05-.05-.25.05v.1l-.12.06h-.12l-.05-.06-.55.1-.18.06h-.13l-.05-.05-.66.17-.05.1-.06.16-1.1.43-2.1.84-2.12.9-2 1.05.07.16-.12.1.6.96v.05l.2.22v.05l.53.84.48-.2.25-.1.48-.12 1.32.1.06-.57.96.1.06-.62h1.1l-.25 2.1-1.08-.05h-.2l-1.25.37h-.6l-.6.2.4.74.26.42.66 1.26.13.37.06.04-.12.06.25.57.12.2.24.42.36.58.12.15-.12.05.67 1.47-.07.2 2.48-.95v.06l.42.52.18.3h-.06l-2.6 1.02-.1-.52-.07-.06h-.1l-1.04.33.3 1.2 1.28-.17.18.53-2.95.65-.38-1.73-.6.27-.06.72-.06.1-.06.06-.24.57-.06.16-.3.38h-.72l.24.26.3.47.25.06h.04v.06l.2.26.04.63-1.44.12-.2-.16v-.06l-1.02-1.04.06-.52h-.24l-.1 2.2-2.2.1.27 3.52-4.83.33-.25-1.8h-.12l-.78.06h-.42l-.85.06-.06-1.64-.07-.36-2.78.17-.3-2.58 1.2-1.06-.06-.52-.14-.94 3.02-2.84-.36-.32-3.62 3.06-1.26 1-.73.63-.1.1v.68l.17.17.13 3.2-.06.1-5.36 4.58-.84-.42-1.4-.62-.18-.05-.12-.04-.12-.4-.05-.22-.37.26-.72 1.47-1.32 3.74-.4 2.15-.32 1.35-.1 1.53v1.2l1.75 3.52-.18 1.88.12.37.05.05-.06.2-.9.17-.55.05-.37.1v.06l.12.63-.6.1v.12l-.5.1-2.1.64-.18.42-.3.2-.3.28.06.67-.37.06-.05-.64-.18-.2-.05-1.74v-.05h.05v-.1l-.9-1.7-.14-.66.9-2.52v-2.25l-.8-1.62-.05-.05h-.06l-.3-.2-1.44 2.05v.04l-1.7 2.3.13.07-2.04 2.9-.12-.05-1.44 2.05-.85 1.26-.7 1-.43.57.12.06-1.33 1.93-.42.58.17.12h.07l5.13 2.7h.05l.12.1v.06l.07.06v.04l.05.1v.12l-.05.1v.1l-.48 1.32 1.62 1.36-.97.84-1.93-1.62-1.92 2.57-4-2.1-.96-.46 2-2.5.23-.37.05-.06.06-.26 1.2-1.57-.48-.26h-.06l-.12-.1-.18.15-3 4.16-.73 1.04.25.12h.06l3.46 1.55.54.1.36.47.73.27.77.3.12-.2 1.1.57.35.16 1.15.58.3.3.24.12-.12.15 3.26 1.7 11.8 6h.05l.24.15 2.05-2.52 1.44-1.74v-.06l.98.57 5.68 3.56 1.62-2.26 2.35-3.3.7.36 1.52-2.3 2.22-3.53-1.03-.9-.9-.77-.84-.73-1.03-.95-1.87-1.62-.98-.78-.8-.73-.04.1v-.1l.18-.27.12-.16.18-.32.18-.3.12-.17.06-.32.24-.46.6-1.46.3-.74-.3.16-.36.2-.42.16.05-.2.23-.9.24-.94.12-.27.35-1.1.12-1.2.12-.2.23-.32.24-.32.78-2.46.48.1 1.1.58-.07.9 2.37 1.56-1.8 2 5.3 2.4.5-.9-.55-.3-1.46-.74.78-2.16 1.14-1.42 1.27.78 1.04.32.9-1.47 1.2-1.64 6.17 1.24-.17.26-.06.06-1.44 1.68 2.18 1 2.12.98.24-.3 2.47-2.85 4.88-3.84.3.25 1.88-1.42h.48l.2.05.1.15.06.1h.24l.12-.2.07-.58.05-.05.06-.2.12-.27.12-.1.06-.1.5-.27.46-.43.8-.53.23-.2.66-.53.07.04 4.6-3.45.1.1 4 3.5.48-.53v-1.46l.36-.9h.06l.42-.36.67-.16 1.57-.1.18-.06h.06l-.5-2.15-.4-1-.32-.42-.6-.66.24-.16.8 1.05.23.47.25.62.5 1.8.17.67.06.25.12-.05.54-.06.97-1.4 3.1-1.07.23-.1.12-.12.24-.25.97-1.07.2.3.3-.24.23-.3 3.48-5.63-.64-3.32 8.95-9.74 10.86 6.24 1.34-10.6 8.4 6.08 2.65 6.27 22.04-7.64.12-5.4 7.68.53-9.2-39.3-42.7.36-28.7-7.07-8.95 2.45-6.67.35 8.24 25.92 2.44 7.26c.37 1.3.65 2.28.9 3.14-.7-5.4 2.8 9.34 0 0 .12.82.32 2.07.66 3.97l8.32 11.36"/><path fill="#66DA97" d="M598.28 893.4l-2.9 3.52-5.44-5.22-10.7 3.63 4.3-9.55-1.52-1.52-4.44 9.22-6.75-7.96-12.57 11.2-1.63-10.64-9.95 5.66.05 15.84-4.92 1.13-3.27-10.08-12.55-9.4-18.4-18.07 4.14-3.92 7.22 1.5 10.58-10.64 4.36-8.34-2-11.8 7.46-12.34 20.28-15 20.6-.46 5.8 2.77 11.86 1.18-2.17-13.63 3.8-1.3 1.9 2.13.35 5.1-3.62.6.62 7.23 6.43.3 10.5 6.4 8.17-3.4.87-9.27 9.85-.13 1.88-15.78-7.05-7.85 3.18-6.56 28.68 5.16 3.44 5.34-6 6.54 5 3.1-2.8 9.27-6.67-1.3.06 5.34-3.83.9-6.5 13.3-2.84 12.7 7.22 12.34 8.48 4.25 11.04-5.53.15 14-27.38 12.97-1.56-10.6-6.58 3.32-5.95-4.2-16.65 23.6-7.88-3.44L605 888z"/><path fill="#F85496" d="M1011.62 724.05c1.4 4.24 2.82 8.48 4.24 12.72 1.75 1.04 3.4 2.54 5.23 3.3 11.8-1.24 23.63-2.5 35.45-3.73.92-10.68 1.85-21.36 2.77-32.04.34-1.04.26-3.03.45-4.43.17-3.33.9-6.7-.1-9.96-1.52-8.52-3.27-17.02-4.65-25.56-.15-4.5.06-9.07-.3-13.55-.66-1.24-.18-4.06-2.2-3.34-1.97 0-4.16.58-5.97.23-2.7-3.14-5.4-6.28-8.1-9.4 1.4 1.62 2.82 3.25 4.22 4.88-1.32.6-2.53 2.74-4 1.42-1.96-1-3.93-1.97-5.9-2.95-1.03 2.02-1.6 4.17-1.6 6.45-.26 2.98-.53 5.95-.8 8.93-1.52.22-3.08.68-4.4-.38-1.56-.74-3.13-1.48-4.7-2.2-.6 1 .07 4.24-1.7 3.17-1.47-.52-2.94-1.33-4.46-.5-7.3 2.06-14.76 3.7-21.98 6.05-.5 1.35-.1 3.32-.25 4.9.73 2.33-1.56 1.64-3.07 1.73-1.3.3-3.82-.86-3.64 1.28-.84 4.03-1.68 8.06-2.52 12.1 2.04 4.76 4.08 9.52 6.12 14.27 4.66-1.43 9.3-3.17 13.97-4.4 2.58.35 5.15.7 7.72 1.07-.3 6.43-.94 12.87-1.02 19.3.4 3.54.77 7.1 1.2 10.63z"/><path fill="#A4E9C1" d="M476.6 37.55c-1.13.1-2.65 1.7-3.35 2.32-.7.6-.56 1.14-1.42 1.55-.86.4-3.24.85-4.26.26-1-.6-.76-2.38-1.55-3.23-.8-.85-2.43-1.73-3.6-2.07-1.2-.33-2.08.14-3.37-.9-1.28-1.04-2.32-6.06-2.32-6.06l4.78-1.3-2.2-6.06 12.92-5.03 5.75-10.08L470.02 1l-1.93 1.57-2.24.1-.95 1.15 1.12 2.1-8.13 6.72-12.53 3.48-7.32.14-2.6.77 1.15-3.23-4.8-6.1-5.1-.25-3.78 3-4.6-1.8-8.18 2.96-5.16-3.74-6.2 3.87 24.14 37.7 22.84 35.22s2.94 3.4 5.16 5.16l4.9-5.66 23.82-44.9s-1.9-1.8-3.03-1.7z"/><path fill="#A4E9C1" d="M690.44 547.06h2.53l3.32 3.17 11.85-1.27 4.75 2.7 16.77-.8 10.28-2.37 4.43-8.4-4.1-.8-5.08-5.05-1.26-8.38 8.86-19.93 8.06.8 3.8 8.85 13.6 2.83 15.03-10.12 3.3-8.22 1.44-27.04-10.6-6.96-11.87 1.58-16.45-11.23-2.84-16.3-7.9-10.75-11.1-5.22-6.47-1.58-5.37 41.92-3.74-.32-1 4.27 3.3 4.1-18.18 33.07-5.17 1.3 5.64 4.7-4.12 8.55z"/><path fill="#FB8CB8" d="M1038.65 421.26l-15.7-8.94.18-4.57-3.76.67-2.62-1.94-.2-7.12c1.3-1.63 3.3 1.13 5 1.92l-1.46-16.67 13.37-.66 15.95-2.3 14.78 2.4-10.95 13.3 9.3 4.5s1.47 14.3 1.47 15.6c0 1.26-.73 12.4-.73 12.4l-3 1.08s-.56-3.6-1.66-4.14c-1.1-.55-5.76-2.1-7.76-2.6s-4.03-.42-5.1-1.1c-1.1-.67-2.18-1.5-2.47-2.33-.27-.82-.46-2.13-.2-3 .24-.86 1.37-1.35 1.48-2.47.1-1.13-.9-2.83-.9-2.83l-5.03 8.8z"/><path fill="#FB8CB8" d="M972.06 381.73l-5.1 3.9.22 3.52-3.62.08-.53-1.85-2.2 1.9 4.77 8.47-10.42 5.78-.62 6.17 2.4 2.7 10.2-1.1-.32-5.7 12.03 12.98 2.9 29.62-33.96-39.23 2.3-8.36-.4-4.33-3.94-15.42 26.3.88z"/><path fill="#FB8CB8" d="M1156.87 483.3l11.5-2.3 60.13-1.7v19.5l-7.36-.13.13 11.23h2.45l-.4 44.78-19.86 7.23s-1.35-2.17-1.94-2.7c-.65-.6-3.3-1.07-5.8-.4-2.5.7-4.84 3.47-9.3 5.7-4.46 2.2-20.78 8.12-20.78 8.12l-5.8-11.1-1.16-9.16-3.1-.78-2.45-38.33 2.2-15.23 1.54-14.7z"/><path fill="#FB8CB8" d="M1203.6 591.98l4 12.4-5.95-.92-.77 5.68-2.07-.26.27 3.1-2.06-.26-.12 2.46-1.68-.4-1.42 5.7h-3.87l1.88 8.94 66.4-24.18-1.3-4.65 2.72-4.52-8.65-1.94 4.4-15.62-22.85-6.45-.65 2.97 1.94.77-.92 4.14-2.2-1.03-1.93 8.8-7.33-2.4-17.83 7.68z"/><path fill="#A4E9C1" d="M1123.07 591.84l22.44-9.28s14.87-4.44 17.7-5.8c2.82-1.38 1.5-.63 1.93-1.3.44-.67.5-2.97.5-2.97s14.4-5.03 18.73-7.1c4.33-2.08 7.62-5.18 10.32-6.07 2.7-.9 6.97-.78 6.97-.78l1.55 3.5 20.26-7.63.26 5.68-2.2 6.58 1.04 3.23 2.84-.5 7.1 1.93-.65 3.23 2.07.77-.9 3.87-2.33-.9-2.07 8.64-5.8-1.42-19.37 6.33 4 12.52-5.68-.78-1.42 5.54-1.42-.13-.13 2.98-1.8.13-.25 1.82h-1.68l-1.3 5.42-4 .13 2.33 7.74-8.9 3.1s-3.78-3.42-6.52-4.9c-2.73-1.5-8.62-2-11.23-2.9-2.62-.87-2.7-.46-5.55-2.44-2.87-2-8.96-10.4-12.75-13.32-3.78-2.94-9.33-5.33-12.33-6.72-3-1.4-4.74-1.2-6.07-2.14-1.34-.92-3.47-3.16-4.62-4.54-.93-1.14-1.06-1.5-1.06-1.5z"/><path fill="#A4E9C1" d="M1192.13 668.63c-11.67 5.08-23.35 10.15-35.02 15.23 1-.58 2.7-.88 3.26-1.64-3.82-9.8-7.65-19.62-11.48-29.43-1.26-.66-2.5-1.3-3.77-1.96 7.87-2.45 15.73-4.9 23.6-7.34 1.5-1.27 3.25-2.38 4.63-3.76.97-2.32 1.94-4.64 2.9-6.97 2.42-.74 4.8-1.72 7.24-2.32 1.77-.32 3.48-1.2 5.23-1.72-1.7.6-3.4 1.2-5.12 1.82 4.34 3.7 8.55 7.56 12.96 11.15 8.5 4.96 16.98 9.9 25.47 14.86-1.75 10.92-3.5 21.84-5.26 32.75-5.57-1.2-11.13-2.4-16.7-3.6-2.63-5.7-5.27-11.38-7.9-17.07z"/><path fill="#FB8CB8" d="M1103.72 662l-4.4-3.2-26.1-14.6.75-3.1 2.73.9.82-3.82 1.83-.37-.1-7 10.6 9.84 2 1.2 7.03-16.35-.37-5.2-1.9-3.1-.37-7.3 4.3.08.08-1.92 13.7 1.2 3.65 13.95 5.1 5.94 2.38 1.56 9.86 1.73 9.98-26.88 2.45 1.3s8.3 8.77 12.84 13.67c4.3.97 13.18 3.46 16.56 4.47 2.96 2.38 5.7 5.06 5.7 5.06l-6.84 2.46s-.07 5.9-1.26 7.24c-1.28 1.44-2.85 1.97-5.33 3.3-2.46 1.3-48.7 15.47-48.7 15.47l-1.84-3.83-15.15 7.3h.02z"/><path fill="#A4E9C1" d="M1226.3 744.4l4.13-14.98s-4.13-1.42-5.55-1.54c-1.42-.13-6.97 1.03-7.74 1.54-.78.52-4.9 2.84-4.9 2.84l-4.4-3.74.14-3.74h3.1l5.28-37.7 5.67-30.62 47.5 27.54 21.95 13.8 4.96 4.95-4.14 4.45 10.28 10.35-5.8 6.07 6.18 5.16-5.64 25.52-3.52 3.26-31.5-24.26 5.43 22.2-13.42-.26-8.12-8.65-10.46 9.8-10.06-8.4.64-3.6z"/><path fill="#A4E9C1" d="M1360.92 746.38l7.3 2.38 1.64 10.4 38.15 1.1 2.93 1.82 16.97 2.2-1.46-3.3-3.1-1.1.55-5.47 2.9-4.55-2.9-6.2 1.63-9.5-7.3-7.1-16.8-8.96 7.13-2.97 6.56-1.5c20.6-.47 7.3-5.24 9.25-6.7l-.9-3.1-3.62-3.03-7.8-1.24-4.7-8.1 5.7.8 9.56 1.4 9.56-.1-2.74-3.6-3.93-5.4 6.44-3.92-4.23-1.84-6.3-1.84-3.25-5.78-12.36.54-.6-6.37-3.54-4.7-4.86 4.13-4.64 5.6-9.9-.93-2.64 3.8-6.03 3.26-4.24 8.54-3.15 5.1-12.92.54 4.18 14.27 9-.53 2.9 5.67-.14 6.9 5.85-.52 5.02-2.22s-.97 3.06-2.14 6.28c-1.16 3.2-2.53 6.6-3.35 7.23-.8.64-6.56 2.74-7.1 2.37-.56-.36-1.3 5.3-1.3 5.3l-4.9 6.56-.38 4.38z"/><path fill="#17B65A" d="M1299.2 640.12l-2 6.94 1.55 3.35 10.74 6.05 10.73-1.12-.45 1.57 1.12 5.14 3.13.9 7.16-2.24-.68-1.34.67-5.6 4.46.23 1.12 1.56 9.62-2.02 5.6-3.8 5.8 1.12 7.17-4.25 3.13 3.8 8.28-1.33.44-1.8-2.9-2.67-2.46 2-3.58-1.33 1.34-6.7h4.47l1.1-1.13 6.95 2.68-.45 6.27 1.8-.7 3.34-4.9 4.48 3.8-1.57 1.1 4.7-.43 4.25 5.37 3.36 7.83-9.4 10.96-10.5-.67-2.48 2.9c-.8 10.62-2.53 15.52-12.97 17.68-6.97 1.08-2.35.26-22.8 2.23l-12.76.45-6.26 6.7 1.8 1.13-14.33 15.66-15.66-13.64-6.05-4.7-21.7-13.86 2.9-7.4 1.35-36.23 26.4.45z"/><path fill="#FB8CB8" d="M1007.67 877.62l-11.7-3.3-1.37 3.58-28-8.35-3.9 2-3.5-1.46-3.14-2.5-2.57 5.18-6.03 2.37-1.4 4.64 1.48 2.42 3.14-2.26-.96 4.62 2.3-.16-1.92 5.78.37 1.5-3.1 2.1.22 10.32-6.46.97 2.82 5.98 2.52-1.24 2.3 5.1 3.38.24 7.53-5.03 5.08-.24-.05 3.65 11.87 2.2 1.2-.96 6.45 1.5 3.5-13.04 19.02 4.2 12.34 6.6 8.66-13.74-6.92-6.1-6.34-20.08-6.7.38-.13 3.1z"/><path fill="#A4E9C1" d="M950.86 932.7l-1.97 17.06 2.12 3.77-3.55 8.55-5.1 1.7-20.9-9.28-9.55-2.84-18.33-6.45-5.3 2.72-3.87-4.78-10.84-4.64-12.8-8.65-17.15-25.55h-4.26l.25-.52 3.6-3.1 14.6-13.8 16.9-26.72s5.62 5.96 7.6 6.97c2 1 3.35 1.4 4.53.9 1.18-.48 2.12-1.74 2.2-3.22.07-1.48-2.85-3.5-2.84-5.3 0-1.77 1.44-4.16 2.83-5.15 1.4-1 3.88-1.2 5.42-.9 1.54.3 2.4 2.38 4.25 2.58 1.87.2 7.1-2.45 7.1-2.45l4.26-11.62 8.4-9.55s-.5-1.82-.26-3.2c.23-1.4 1.05-4.94 2.45-5.7 1.4-.75 4.38.78 4.38.78s1.97 2.65 4.4 2.07c2.4-.58 4.64-10.97 4.64-10.97l4 4.26s1.42-1.68 5.67 0c4.25 1.67 9.16 4.77 9.16 4.77l-1.55 4.53s3.88.26 4.14 1.42c.26 1.16-.52 10.32-.52 10.32l-5.3 6.84-.25 3.1 7.5 3.24 3.73-.52-4.26 13.03-2.7 6.45-6.05 2.28-1.17 3.77 1.34 2.73 3.2-2.6-1.08 5.3 2.62-.08-2.5 5.5.64 1.82-2.96 1.68-.4 10.07-5.93 1.4 2.45 5.95 2.46-1.03 2.84 4.63 4.77.4-3.75 12.38 4.26 1.7-1.5 3.5-.7.5"/><path fill="#66DA97" d="M1064.54 879.47c3.32 1.33 4.3 1.83 4.64 1.16.34-.66 3.32-5.47 3.32-5.47l2.32 1.33-1.66 18.9s-1.16 2.8 1 4.3c2.15 1.5 5.8 2.15 5.8 2.15l3.65 3.65s.67 1.83 1.34 1.83c.66 0 4.64.5 4.64.5l1.66 4.3 14.25-8.95 33.32-9.45-3.65-14.1.33-9.28 2.16-1.16.17-4.98-2.33-.17-.16-1.82 2.82-4.98.16-3.8-6.8.32-7.95-.33-3.65-2-12.1 5.15-10.78-.84-3.15 4.15-4.65-.66 2.48-17.9-8.3-.17-.48 10.78-6.97 12.93-11.44 14.6z"/><path fill="#A4E9C1" d="M975.16 994.5l2.06.14 5.16-8 .13-4.26 4.66-2.97 6.45.9 1.43-29.67 2.07-8.26 2.06-4.65 12.52-11.22 7.6-12.9-11.73-6.08-20.26-4.9-2.85 13.03-7.23-1.42-.13 1.55-12.4-2.32.13-4-5.03.52-5.98 4.1-3.44 13.84 3.98 1.15-1.4 2.96-2.3 1.33-1.93 16.33 1.97 3.97-4.88 12.7 22.24 8.52 7.22 16-.12 3.6z"/><path fill="#FB8CB8" d="M862.88 788.92l-.26-5.42-2.84-.9-2.32-4.4-4.65-6.32-6.57-1.8-3.62 1.03-4 .53-2.57-1.68-2.97-7.87-3.35-6.72-4.5-3.6-2.6.25.65-5.93 2.2-2.2-3.87-3.73-19.23 23.23-20.9 13.55-4.66 8.26-8.9 3.87 5.28 7.6 6.2 10.08 19.23 30.6-.58 6 .63 1.23 42.3-36.8 21.93-18.84z"/><path fill="#F85496" d="M884.62 762.9l-12.8-22.8-5.85 2.36-3.87-3.23-1.42-5.55-4.26-1.3h-6.2l-.9 2.34-4.9-1.68-2.58-2.84-2.2 2.58 4 7.74-6.06 8.13h-4.65l-2.2-6.84-5.4-4.76-3.62 3.23 3.88 3.74-2.33 2.33-.38 5.55 2.45.4 4.52 4.25 3.87 6.97 2.33 6.58 2.2 1.55 4.64-.4 3.5-.77 6.05 1.42 4 5.42 3.23 5.43 2.58.77-.06 5.8 5.98-5.93 16.47-20.46z"/><path fill="#FB8CB8" d="M884.65 762.33l7.52 6.2s.98 3.93 2.07 5.03c1.1 1.1 2.7 1.8 4.5 1.94 1.83.14 4.9.27 6.98-1.8 2.08-2.1 3.1-12 3.1-12l4.13 3.22 9.42 5.54-19.1 30.6-17.55-3.5-2.2 4.14-2.7-2.33-1.55 2.58 1.93 1.94-10.06 14.2-5.55-4.92-12.02 17.17-14.06-9.17-6.04-7.22 31.3-27.43 19.87-24.2z"/><path fill="#17B65A" d="M1055.84 987.1l-11.73-.9-1.22 1.24-4.37-1.58-45.84-5.07 2.27-29.94 1.23-5.95 2.62-6.3 3.33-4.2 9.63-8.04 1.43-2.4 8.37-14.22 2.98-4.73 3.28-4.45 4.03 4.17 4.43 13.6 14.53 43.92 1.22 11.72 3.86 13.13z"/><path fill="#A4E9C1" d="M840.16 903.9l-.77-.5-.53-6.6-35.5-52.5-4.25.63-.4-.02 35.08-31.13 5.2 6.77 14.58 10.07 22.6 16.27 4.25.38-5.8 12.78-16.4 26.2-18.07 17.68z"/><path fill="#FB8CB8" d="M868.4 749.83l16.1 12.46s5.97 5 7.54 6.87c1.58 1.9 1.12 4.28 3.23 5.42 2.1 1.14 7 1.6 9.68-.4 2.68-1.98 4.13-11.87 4.13-11.87l3.35 2.46 11.88-16.28-7.1-6.96-4.5 5.8-9.82-7.48L891 727.23l-22.6 22.6z"/><path fill="#FB8CB8" d="M960.7 853.32l-4.7 13.93 2.5 1.94 3.88 2.32 4.4-2.46 27.86 9.04 1.42-4.13 12 4-.25-3.74 6.46-.26-4-22.6-2.97-15.73-1.17-4.52-5.55 1.42.52 3.62-17.8-1.55-18.34-1.93-11.87-8.26-1.82 4.27s3.87.52 4.13 1.3c.27.76-.25 10.57-.25 10.57L949.6 847l-.13 3.22 7.88 3.74 3.35-.64z"/><path fill="#F85496" d="M952.83 824.15l12.26 8.52 18.7 1.42-.77-32.8 9.8-14.83-4.32-.72-7.26-1.3-2.86-1.98-4.9-4.4-2.32 2.6-16.52-.9-12.4 18.57-8.77 16.52 4.65 4.78s1.8-1.17 3.48-1.04c1.68.13 11.36 5.68 11.23 5.55z"/><path fill="#A4E9C1" d="M1137.5 854.35s2.2-2.04 3.1-1.8c.93.23.6 1.9 1.43 2.32.8.4 2.6.12 3.35-.26.75-.37-.25-.98 1.42-1.67 1.68-.68 7.63 1.02 9.8.9 2.2-.1 3.3-1.06 4.66-.9 1.36.16 4 1.8 4 1.8l4 9.7s7.87 8.9 9.55 9.67c1.7.77 28.8 14.58 28.8 14.58l1.15-2.32-2.2-3.5 9.8-10.05s-3.36-.92-6.05-5.67c-2.7-4.76-5.62-21.74-5.94-27.5-.32-5.74 1.03-10.2 1.03-10.2s1.4-5.35 1.4-7.34c.03-2-.28-4.47-1.02-5.7-.74-1.22-1.93-1.98-2.97-2.3-1.02-.35-.08-.7-3.47.12-3.4.8-17.94 8.25-17.94 8.25l-24.4 12.4-22.2-1.55.9 10.06-2.32 2.58 4.26 5.3-.13 3.1z"/><path fill="#A4E9C1" d="M1133.25 946.37l6.84 3.1 1.8-8.52 18.84-14.33 8-5.93 31.23-31.12 6.07.4.65-1.56-13.12-6.88s-1.4 3.1-3.2 4.13c-1.82 1.04-2.93.88-4.6 1.6-1.68.7-4.9 4.25-6.2 4.5-1.3.27-1.43.07-2.84.53-1.4.45-1.92 2.8-6.18 3.3-4.26.53-28.64 2.83-30.32.62l-2.08-2.76-33.04 9.68s-11.18 5.9-14.2 8.26c.98 1.96 3.4 3 3.92 2.4 1.03-1.15 2.02 3.15 2.02 3.15h2.97l2.6 4.05s-.54 1.5-.02 2.27 2.67 2.5 4.4 2.97c1.7.47 5.76.42 5.76.42l.65 2.77 6.63 1.3 1.94 2.1 3.9 1.78 1.4 3.12 6.18 8.65z"/><path fill="#A4E9C1" d="M1007.12 835.9l-.9-4.75-1.77-15.18v-17.04l4.75-1.42 4.34 1.35 3.3 1.46 4.03 3.84 7.55-8.87 24.08 19.07 3.75-7.75 8.04-1.05c7.42 6.64 17.8 14.26 26.7 21.4l18.7 7.82s2.6.96 5.87 1.2c3.28.27 15.25-2.47 15.25-2.47h4.36l.35 10.2-1.54 2.43 3.38 5.06-.13 3.56-13.55-.6s-4.4-1.54-6.8-.74c-2.38.8-9.5 3.92-9.5 3.92s-8.33-.87-10.6.16c-2.27 1.03-2.62 4.04-4.42 4.22-1.8.17-4.43-.17-5.04-3.23-.62-3.06 1.76-9.93 1.76-9.93l-3-2.43-.08-2.68-40.87-4.05-.72 1.8-15.7-2.48-.47-4-5.8.9-5.14.94-10.2-.67z"/><path fill="#FB8CB8" d="M985.33 762.44c1.74-2.1 3.87-4.06 5.37-6.27-.33-2.13 1.37-3.58 2.34-5.28.95-1.22 1.77-2.45 1.05-4-.43-2.28-.85-4.55-1.27-6.83-2 .36-4.02 1.14-5.98 1.23-1.58-.77-3.16-1.54-4.74-2.3.1-3.35.2-6.7.28-10.05-1.4-1.5-2.77-3-4.16-4.5 3.17 1.8 6.26 3.96 9.5 5.57 2.47-.18 5.1.38 7.48-.32 2.78-1 5.56-2.02 8.34-3.03 1.84 13.26 3.67 26.52 5.5 39.8-1.36 4.36-2.9 8.7-4.16 13.08-.08 6.63-.2 13.27-.25 19.9-.43 1.06-.06 2.9-.18 4.28.1 5.9-.35 11.83.64 17.67.37 3.27.76 6.66 1.15 9.86-1.24.4-3.25 1.06-4.78 1.55-1.63.3-.48 2.6-.83 3.83-5.74-.65-11.48-1.3-17.22-1.95-.17-11.04-.34-22.08-.5-33.13 3.34-5.04 6.7-10.1 10.04-15.13-3.07-.5-6.13-1-9.2-1.5 1.32-.68 1.97-2.05 2.07-3.05 1.3-.13 3.1.43 4.12-.1.96-1.58-1.32-2.28-2.1-3.38-1.06-1.15-2.55-2.07-3.35-3.34-.24-2.26-.06-4.64-1.4-6.6-1.02-1.24-.8-2.63-.34-4.06-.06-1.77 1.28-1.45 2.57-1.96z"/><path fill="#A4E9C1" d="M1053.87 767.35l5.45-63.05 6.38 1.73 4.4 4.13 10.5 1.2 3.73.8c7.75 1.65 15.15 5.15 21.8 9.44 3.54 2.26 6.53 5.78 8 9.7 3.78 10.16-.13 19.8-9.58 24.75l-16.77 8.77-9.3 5.16s-4.4 1.8-6.82 3.78c-1.7 1.96-4.1 5.72-4.1 5.72l-3.2 26.1-8.2 1.2-3 5.67s-5.96-4.13-7.08-7.7c-1.13-3.57-1.05-10.63-1.05-10.63l8.38-19.75.5-6.98-.03-.05z"/><path fill="#FB8CB8" d="M978.35 724.6l-4.06 2.88-15.08 24.77-8.35 4.92.9 4.17-2.98 4.42 9.44 5.65-4.84 8.5 10.36 1.2 6.8.26 2.9-2.66 7.7 5.94 3.8.5.6-1.9.03-1.38 4.28.13.4-1.34-5.76-5.36-.4-4.7-1.87-3.88.8-3.6 2.28-.68 5.35-6.03.14-2.13 3.62-5.5-1.6-8.7-5.77 1.34-4.96-2.4.28-10.05-4.03-4.36z"/><path fill="#66DA97" d="M661.8 854.35c2.5-1.03.15-.8 2.54-2 1.06-.9 3.93-3.5 5.1-4 3.1 1 4.2-.02 7.3.97.64 1.4 1.77 2.7 2.1 4.13-.2 1.52-1.4 3.2-.03 4.47.9.83 1.3 3.33 2.5 3.1 1.44-.73 2.88-1.45 4.32-2.17 1.5 3.13 2.6 6.5 4.35 9.46.97 1.1 1.9 3.2 2.58 1.5 1.22.36 2.73 2.64 3.74 1.5 5.1-5.73 10.2-11.47 15.32-17.22-1.27-1.38-2.4-.9-3.46.44-2-.5-4.44 0-5.83-1.77-1.14-1.3-1.36-3.26-1.54-4.95-1.4-1.62-3.6-2.8-3.77-5.12-.37-1.82-1.26-3.7-1.32-5.5.65-1.37 1.9-2.72 2.17-4.12-.82-2.03-2.1-4.02-2.65-6.08.73-2.1.94-4.48 2-6.4.9-1.15 2.52-2.02 2.05-3.7-.17-1.34.75-3.78-1.45-3.1-1.95-.1-4.02.2-5.9-.13-.9-.98-3.12-1.25-3.05-2.76 1.06-1.47-.44-1.93-.08-3.52.38-3.43.77-6.85 1.16-10.28 1.32-.7 3.43-1.42.86-2.06-.48-1.3-.03-3.2-.14-4.72-.04-3.5.27-7.1.02-10.54-.47-1.88-2.1-1.54-3.62-1.4-1.88.23-4-.02-5.72.5-3.85 4.84-7.7 9.7-11.55 14.54-1.3-.8-2.6-1.6-3.9-2.38 1.8-1.74 3.62-3.47 5.43-5.2-.84-1.43-1.84-2.65-3.47-3.15-1.36-.78-2.73-1.5-4.32-1.02-.94.6.22 2.86.12 4.13-.22 1.12 1.33 3.77-.2 3.72-1.65 0-3.28 0-4.92 0-1.7 1.4-1 2.26.86 2.85 1.37.7 2.75 1.42 4.12 2.13-1.15 1.95-2.3 3.9-3.46 5.85.63 1.12 2.8 2.68.4 2.96-1.43 1.2-2.7.24-4-.62-2.04-1.8-1.04.7-.83 2.05.28 1.48 1.15 3.3-1.1 3.3-1.47.6-3.26.8-4.56 1.63-2.03 3.5-4.33 6.9-6.18 10.43-.44 4.24-.6 8.55-1.2 12.75-.58 1.53-1.33 2.73-3.08 1.82-1.04.25-.22 3.8.3 5.33-1.7 2.53 4.6 6.05 5.9 8.58 1.48.26 3.42 2.63 4.16 4.35 1.1 1.22 3.9 2.93 5.74 3.05.26.1 2.33-.46 6.2-1.63z"/><path fill="#66DA97" d="M747.37 809.67c1.93-.8 2.58-2.16 1.9-4.14.7-2.67-2.4-1.3-3.5-2.2.05-1.3-2.42-4.5-.04-4.06 2.78.83 1.84-1.38 1.42-3.15-1.37-2.47.95-2.26 2.78-2.4 2.25-.24 4.5-.5 6.76-.73-.77 2.58 2.25.93 3.67 1.07-1.82-2.43 1.72-1.18 3.16-1.37 3.1.05 5.7 2.15 8.6 3.1-.28-.93-1.86-3-2.63-4.37-1.92-1.83-.9-2.76 1.32-3.34 2.94-1.33 1.6-.73-.53.23-2 1.64-2.9.43-3.45-1.67-5.58-12.64-11.22-25.25-16.88-37.85-3.97 2.46-7.94 4.9-11.9 7.35-.14 1.65.53 3.74-.05 5.13-1.24 1.1-3.9 1.18-3.82 3.18-.3 2.07-.6 4.14-.9 6.2 2.3 1.5 4.98 2.6 6.25 5.2.94 2.1 3.4 2.3 5.22 3.26.65 1.66 1.3 3.32 1.95 4.98-5 2.34-9.78 5.28-15.23 6.5-2.6.48-5.15 2.36-7.8 1.26-2.64-.64-5.3-1.27-7.96-1.9-1.23-2.68-2.45-5.35-3.68-8.02-3.32 0-6.65 0-9.97 0-.53 4.45-.28 9.03-1.34 13.4-.64 1.5-3.37.17-4.87.53-1.83.08-3.53-.6-4.84.63-2 .57-1.04 3.12-1.56 4.68-.28 2.47-.56 4.94-.84 7.4 1.8.9-1.28 3.2 1.43 3.85 1.37 1.38 3.1 1.54 4.95 1.36 1.36.43 4.68-1.1 4.22 1.16 0 1.8.4 3.77-1.38 4.9-1.9 1.76-1.7 4.7-2.64 7 .4 2.2 1.9 4.28 2.72 6.42-.6 1.58-2.38 3-2.23 4.7.82 2.27.95 4.96 2.2 7 1.3 1.45 3.38 2.53 3.06 4.77.4 2.07 1.68 4.37 4.06 4.32 1.84.42 3.65.73 4.83-1.07 1.22 1.06 3.66 1.27 2.88 3.4-.24 2.48-.48 4.96-.72 7.43 2.67.37 5.34.73 8 1.1.6-2.07 1.87-2.85 3.93-2.12 2.5 1.04 1.16-2.24 1.5-3.64.63-1.2 3.45-.3 4.97-.67 1.97-.48 3.6.46 5.2 1.46 1.3.93 3.95 2.05 4.26-.3 1.76-4.16 3.52-8.34 5.28-12.5 2.3.18 1.2-2.84 1.76-4.3-.74-2.78 2.83-.8 2.03-3.53.23-6.07.84-12.2.85-18.23-.17-3.12-2.4-.8-3.3-1.6-.67-1.97-1.33-3.95-2-5.93.95-1.3 1.88-2.6 2.82-3.9z"/><path fill="#A4E9C1" d="M923.4 1010.25l5.94 3.36-.52 7.37 2.6 1.16 13.28.9 3.6 4.13.14 4.78 2.2 1.3 14.32-16.8 4.52-5.67 15.87-9.3-2.58-6.96-.77-6.83-4.52 6.84h-2.58l.38-3.73-7.22-15.36-21.8-9.03 1.4-4.13-5.54 1.55-23.1-9.82-6.97-1.93-3.36 6.7 4.12 4.4 2.84 5.8-6.84 3.88-8.52-2.33-2.84 5.17 3.87 1.03-1.8 1.55 4.26-.13 1.15 2.7-4 6.85 7.1 3.35 2.58-1.54 2.84 1.93-.4 3.24 5.17 1.93-1.68 9.04 7.23 2.85-.4 1.8z"/><path fill="#FB8CB8" d="M1053.24 812.15l-5.8-4.77s.38 2.32-.66-1.42c-1.03-3.75-1.93-11.88-1.93-11.88l8.5-19.6 3.5-38.22s-7.7 1.17-16.37 2.53c-8.9 1.4-14.85 1.54-18.73 1.47-3.9-.08-4.1-1.48-5.94-3.88-1.84-2.4-4.12-12.4-4.12-12.4l-8.52 2.84 5.94 39.37-4.54 12.28-.03 20.28 2.67 1.5 9.64-.24 4.13 4.13 7.36-9.16 24 19.34.9-2.2z"/><path fill="#FB8CB8" d="M874.88 860.3s5.48 5.75 7.23 6.83 2.2 1.55 3.5 1.3c1.3-.27 3.45-1.84 3.73-3.5.3-1.65-2.7-3.85-2.82-5.4-.13-1.53.4-2.92 1.28-4.02.9-1.1 3.25-2.4 4.52-2.57 1.27-.15 2.3.4 3.23.9.94.5 1.04 2.14 2.84 2.46 1.8.3 7.87-2.98 7.87-2.98l3.6-10.45 8.92-10.33s-.67-2.43-.52-3.87c.15-1.44.93-4.64 1.94-5.42 1-.78 1.8-.5 2.7-.26.93.23 2.08 1.5 2.98 2.06.9.56 2.96 1.67 2.96 1.67l2.46-1.54 2.58-9.7-16.78-4.25-13.94-10.07-17.68-3.36-2.32 3.88-2.45-1.8-1.82 2.57 2.58 1.42-10.32 13.93-5.43-4.4-12.37 17.18 22.2 16 4.64 1.04-5.3 12.65z"/><path fill="#A4E9C1" d="M1007.3 835.64l9.8.77 11.36-2.18.5 4.4 15.63 2.57.76-2.08 38.98 4s0 6.6-.9 9.04c-.9 2.45-5.55 11.87-6.6 12.77-1.02.9-11.86 14.72-11.86 14.72s-3.23 5.42-4.52 5.93c-1.3.52-12.77 5.68-15.74 6.33-2.97.65-10.46 3.1-12.26 4.78-1.8 1.68-4.52 4-4.52 4l-7.48-6.7-6.07-20-7.1-38.34z"/><path fill="#66DA97" d="M1084.47 980.44l6.2 1.03 2.44-6.97 40.4-27.74-6.57-8.65-.78-4.25-4.77-1.55-1.68-2.32-5.42-.77-1.16-3.35-6.07.26s-4.44-1.97-4.9-3.1c-.46-1.1.5-2.18.5-2.18l-2.7-3.75-3.35-.38-.26-2.98s-4.56-1.16-5.42-2.32c-.86-1.17-.4-3.75-.4-3.75l-5.92-1.16s-2.65-3.73-3.75-4.4c-1.1-.67-1.93-.64-2.7-.64-.78 0-3.88-3.74-3.88-6.2 0-2.45 1.55-15.87 1.16-19.36-.77-.5-2.06-.9-2.06-.9s-.4-1.03-1.68.65c-1.3 1.67-2.2 4.77-3.62 4.64-1.42-.14-2.45-.78-2.45-.78s-2.2 4-5.17 5.68c-2.97 1.67-15.48 6.2-17.55 7.1-2.05.9-7.73 3.35-10.7 5.3-2.97 1.92-4.13 3.2-4.13 3.2l3.87 3.5 18.6 57.43 1.28 12.52 4.38 12.64 10.2.77 18.07-7.23z"/><path fill="#FB8CB8" d="M1138.28 893.46l1.55 4.38s31.62-.38 33.04-1.8c1.42-1.42 2.7-3.08 4-3.74 1.3-.67 1.98.1 3.62-.52 1.63-.64 4.17-4.12 5.8-4.65 1.62-.52 3.48-.26 3.48-.26l4.07-5.2s-18.14-10.15-18.9-11.06c-.8-.9-6.08-5.8-6.2-6.7-.14-.9-4.14-9.68-4.14-9.68s-2.57-1.3-3.86-1.16c-1.3.13-1.63.28-3.74.52-2.12.23-8.58-1.08-10.2-.4-1.62.7-.25.82-1.03 1.17s-3.43.4-4.13 0c-.7-.4.05-.78-.65-1.03-.7-.25-3.5 1.16-3.5 1.16l-.5 3.23-2.2 4.14.4 2.84 1.67.13s.34 3.32-.13 4.26c-.48.95-2.07 1.3-2.07 1.3s-1.16 5.16 0 10.2c1.16 5.02 3.74 13.03 3.6 12.9z"/><path fill="#F85496" d="M903.14 800.8l13.94 10.83 16.52 3.5 8.26-16.66 12.78-18.7 4.38-8.14-29.42-17.56-5.55-5.55-11.62 15.88 9.62 6.44-18.9 29.95z"/><path fill="#A4E9C1" d="M1216.3 873.54l-4.07-4.22s-.4.38-1.67-2.06c-1.28-2.44-2.66-10.8-4.2-15.17-1-5.05-1.96-11.9-1.93-16.22.63-4.4 1.36-9.85 1.6-12.37.26-2.5-.2-2.9-.3-4.05-.1-1.16-.34-3.56-.34-3.56l9.42-20.66 6.2.4 30.06.77h24.9l1.95 1.94-.13 1.8-3.75 2.93-6.32 10.63-16.13 18.7.26 3.1-1.55 2.2-3.3 2.33-30.7 33.5z"/><path fill="#A4E9C1" d="M1214.7 795.37l61.3 1.42-.14-12.9-7.87-28.54-14.2-.12-7.5-9.17-10.58 10.46-10.06-7.75.5-4.4-11.86-3.86-4.78 4-3.87-5.03-3.35.9-13.3-4.65-2.06 1.68-6.7-3.5-4.4-4.12-1.94-5.15-2.58 1.8-1.67-2.06-2.46 4.25s-2.02-1.64-8-2.97c-3.62-.8-7.5.52-7.5.52l-4.64-3.74-6.2.25s1.68 3.5 1.94 6.47c.26 2.96-1.68 10.2-1.68 10.2l-2.84 12.38s-4.72 17.25-7.1 22.2c-2.37 4.95-5.54 7.74-7.35 11.1-1.8 3.35-1.68 3.48-1.68 3.48l11.1 10.46s10.46-10.08 12-9.05c1.55 1.03 4.13-2.2 4.13-2.2l2.2-2.06 11.6-9.04s11.63-2.2 13.43-4.26c1.82-2.06 5.05 2.32 5.05 2.32l10.97.26 11.48 10.07 5.04 9.3 5.55 1.02z"/><path fill="#F85496" d="M1205.65 816.04l9.67-20.62-6.02-.73-4.93-9.87-11.86-10.22-10.58.2s-2.28-2.93-4-3.1c-2.57 2.1-11.88 4.28-14.7 4.73-1.82.97-15.8 13.5-15.8 13.5s-1.54.2-2.64-.17-11.6 9.3-11.6 9.3l-10.94-10.94-22.27 29.56-8.2 9.5s18.25 8.38 22.63 8.38c2.2 0 7.1-.26 10.9-.9 3.8-.63 6.5-1.46 7.72-1.46 1.24 0 24.26 1.64 24.26 1.64l39.47-18.9s3.6-1.72 4.9-1.7c1.28.04 1.87.3 2.1.63.2.34 1.9 1.17 1.9 1.17z"/><path fill="#FB8CB8" d="M1062.87 594.84l13.68 5.18 15.84 11.23 4.74 7.63-.58-9.2 4.32.13v-1.57l12.8 1.3 4.47 14.1 6.48 7.05 11.66 1.6 9.3-26.83s-13.04-6.7-16.1-8.1c-2.2-1.7-3.1-2.13-3.1-2.13s-2.36-2.02-3.3-3.62c-.95-1.6-1.64-7.13-1.64-7.13l.3-5.6 3.73-13.97.7-3.75-10.5-20.44-19.57 18.15-5.76-5.9-4.18 2.45-4.9 10.22v3.88l-1.58 3.75-3.46 3.02h-11.5l-1.6 4.17 2.3 10.08-2.6 4.32z"/><path fill="#FB8CB8" d="M933.6 378.47l12.67 2.45-1.44-5.76-.43-8.06-9.93 1 1.58-12.37-5.18.3-.3-3.32 5.34.44-.7-6.05-10.8-23.47-.6-9.36-2.58 3.46-9.8 4.75-1.43-7.63-17.14 5.03 1.6 2.74-5.48 4.46 37.28 34.84z"/><path fill="#FB8CB8" d="M960.7 466.53l-7.87-5.93s-.64-10.45-1.68-13.94c-1.04-3.5-4.52-9.16-4.52-9.16l-.5-22.07 3.6-12.65 1.68-2.7-5.54-19.5s-5.94-.9-7.36-1.16c-1.42-.26-7.22-2.07-9.3-1.68-2.05.4-9.28 3.36-9.28 3.36l6.45 7.35-16.52 11.88-12.64 9.3-5.8 9.67 1.3 10.45-.64 10.68s2.07 1.7 3.1 2.98c1.03 1.3 3.5 5.63 4.4 8.4.8 2.34 2.1 8.66 2.1 8.66l12.2 11.88s4 3.23 6.96 3.5c2.97.24 6.07 0 8.9-1.05 2.85-1.04 30.98-8.27 30.98-8.27z"/><path fill="#F85496" d="M959.96 503.2l-4.03-5.18-.8-14.7-3.44-13.84 9.26-2.43-7.36-6.84-3.74-14.96-2.97-7.36-.9-23.1 2.18-6.06 44.9 52.26-14.44 7.23.52 2.46-9.55 2.07 2.72 15.74s-6.07 5.42-7.88 9.04c-.45.9-.86 1.8-1.23 2.63-.36.83-.68 1.6-.94 2.27-.27.66-.73 1.6-1.17 1.63-.5.05-1.14-.88-1.14-.82z"/><path fill="#FB8CB8" d="M1019.16 491.57l.1 13.82-23-3 .72 14.03-2.47 6.76-2.77.23-.6 1.58-9.4-5.38-3.84.2s-1.92-10.85-3.3-15.77c-3.1-.03-9.22.15-13.1.5.4-1.88.42-2.5 1.07-3.92.64-1.42.83-1.65 2-3.38 1.18-1.73 7.36-8.13 7.36-8.13l-2.32-16.4 9.43-1.8-.4-2.2s14.34-8.25 14.34-8.25l5.67 9.94 17.8 19.5 2.72 1.67z"/><path fill="#FB8CB8" d="M1043.94 411.04s1.55.9 1.3 2.06c-.26 1.17-.78 2.84-1.04 3.62-.26.77-1.8 2.45-.77 3.74 1.03 1.3 2.32 3.1 4 2.97 1.68-.13 9.94 2.58 10.97 2.97 1.03.38 1.93 3.6 1.93 3.6l2.7.14-.63 4.65-2.3 6.86-7.77 16.5s-12.08 29.1-12.73 29.35c-.64.27-.7 22.27-.7 22.27l-4.38-2.32-3.3-6.94-9.25-4.84-3.3-4.46.75-12.15 6.07-34.6 18.44-33.4z"/><path fill="#F85496" d="M1049.7 637.54l5.83-2.55 5.75 13.22 10.04-5.75 2.2 1.9 25.8 14.52-25.63 13.04 10.03 22.64 4.2 1.9-6.94 14.8-5.03-.55-5.56-.37-4.65-4.38-6.4-1.73 1.1-11.04-5.28-27.92-.2-14.6-5.28-13.14z"/><path fill="#A4E9C1" d="M720.74 373.76c2.38-7.18 4.63-14.4 7.1-21.55 3.3-5.1 6.48-10.35 9.9-15.4 4.58-3.68 8.9-7.75 14-10.8 3.87-2.6 7.7-5.24 11.94-7.22 3.76-1.97 7.52-3.94 11.28-5.9 1 2.14 1.77 4.45 2.9 6.5 4.23 3.58 8.3 7.38 12.64 10.8 1.8.95 3.58 1.9 5.36 2.83.24 3.43.16 6.9.6 10.28 3.03 9.15 6.07 18.3 9.1 27.45-16.6 3.13-33.22 6.26-49.83 9.4-3.24-1.04-6.4-2.38-9.68-3.22-5-.4-10.06-.44-15.04-1.1-3.4-.67-6.83-1.36-10.26-2.04z"/><path fill="#A4E9C1" d="M720.76 373.7c-.77 1.33-1.2 3.13-1.7 4.67-.15 2.8-.75 5.63-.6 8.4 1.68 5.78 3.58 11.54 5.15 17.35-.2 3.16-.4 6.3-.58 9.47 5.9 1.6 11.8 3.22 17.7 4.84 1.02-1.42 2.03-2.83 3.04-4.24 1.56-.03 3.3.6 4.5-.72-.28-1.27-.9-2.66-1.32-3.98.8-1.18 1.88-1.9 3.3-2.14 2.78-.9 5.57-1.8 8.37-2.7 1.4 1.04 3.24 1.7 3.6 3.6.58 1.27 1.14 2.54 1.7 3.8 1.16-1.34 2.5-2.43 4.24-2.93 1.68-.63 3.25-1.86 5.13-1.3 9.5.8 19 1.62 28.5 2.43 2.75-1.46 5.68-2.68 8.3-4.28 2.14-3.07 4.26-6.13 6.4-9.2-3.43-7.73-6.88-15.45-9.8-23.38-.68-.83-.55-3.4-1.77-2.55-16.4 3.1-32.78 6.18-49.17 9.27-3.24-1.03-6.4-2.38-9.7-3.2-5-.42-10.05-.45-15.03-1.1-3.4-.73-6.96-1.33-10.24-2.1z"/><path fill="#FB8CB8" d="M839.94 437.6c-1.36 3.4-3.07 6.72-4.2 10.15.1 1.9.2 3.78.28 5.66-3.1.16-6.3-.07-9.34.3-4.67 2.5-9.25 5.3-13.98 7.57-5.44.37-10.86 1.2-16.3 1.23-1.9-.75-3.93-1.3-4.95-3.22-1.07-1.03-2.55-4.22-2.8-1.05-1.15 4.1-3.04 8.08-2.85 12.44.14 2.27-2.66-.86-3.9-1.1-2.13-.93-4-3.13-6.5-2.34-3.48.2-7.03.84-10.45.77-3.3-1.86-6.9-3.34-10.02-5.44-2.8-3-6.24-5.47-7.9-9.33-1.52-2.36-.8-5.42-1.3-8.1 0-2-.3-3.86-1.7-5.36-2.15-3.1-4.03-6.45-6.33-9.37-4.03-2.04-7.8-4.65-12-6.3-1.23-.84-4.63-.3-3.87-2.4.4-2.7.8-5.4 1.2-8.1 5.9 1.6 11.8 3.22 17.7 4.84 1.15-1.33 1.97-3.33 3.33-4.23 1.35.16 4.7.5 3.96-1.6-.6-1.67-1.75-3.47.3-4.6 3.42-1.13 6.85-2.24 10.3-3.35 1.64 1.06 3.38 2.04 3.82 4.12.78 1.3 1.2 4.7 2.7 2.06 1.73-1.63 4.27-2.03 6.34-3.15 10.1.86 20.2 1.72 30.3 2.58 2.74-1.5 5.75-2.67 8.34-4.33 2.06-3.1 4.43-6.15 6.3-9.27 2.04 3.66 3.6 7.9 5.47 11.8 1.47 3.5 3.3 6.93 4.56 10.47-.4 1.56.8 4.3-1.53 4.4-1.72.6-4.32.9-1.92 2.74 1.18 1.26 1.84 3.63 3.97 2.8 4.8-.5 9.76-.03 14.38-1.62.94 2.1 1.88 4.18 2.82 6.27-1.4 1.36-2.82 2.7-4.23 4.07z"/><path fill="#F85496" d="M813 461.25c4.64-2.56 9.3-5.12 13.94-7.68 3.03-.05 6.06-.1 9.08-.16.36.42.15 2.27.26 3.22.05 1.54-.1 3.12.86 4.44 5.6 11.55 11.12 23.13 16.42 34.8.93 2.23 2.2 4.35 2.9 6.6.03 1.2.46 2.53.22 3.62-1.84 1.8-3.53 3.86-5.46 5.5-4.17.9-8.35 2.05-12.53 2.8-4.3-1.08-8.62-2.15-12.93-3.23-1.03.62-2.02 1.55-3.25.8-8.94-2.32-17.88-4.64-26.83-6.97-.24-.95.47-3-.4-3.22-3.6.56-7.2 1.12-10.8 1.68.75-6.43 1.7-12.85 2.3-19.3-.17-3.13.1-6.32-.38-9.42-.48-1.86-.84-3.74-.52-5.66-.07-3.22 1.45-6.14 2.25-9.2.4-.94.64-2.78 1.16-3.16 1.3 1.46 2.44 3.13 3.82 4.46 1.65.6 3.2 1.66 5.03 1.34 4.95-.3 9.9-.85 14.85-1.25z"/><path fill="#A4E9C1" d="M770.9 544.06c6.8-.88 9.7-4.53 13.1-5.2 3.42-.67 8.68-.63 8.68-.63l16.04 26.03c-.6 2.8-.64 5.8-1.84 8.4-2.08 4.5-4.6 8.9-7.9 12.63-1.9 2.18-4.67 3.58-7.35 4.72-3.17 1.35-6.82 1.3-10 2.63-2.5 1.06-5.16 2.32-6.83 4.47-1.26 1.63-2.33 4.26-1.3 6.05 2.48 4.35 6.77 7.48 10.77 10.5 2.22 1.7 4.88 2.95 7.62 3.43 2.93.5 6.05.26 8.93-.53 3.37-.9 6.7-2.34 9.47-4.46 3.4-2.6 6.3-5.9 8.67-9.46 1.73-2.6 2.66-5.66 3.42-8.68.73-2.9 1.08-5.93 1.04-8.93l-.26-18.93.8-3.7 2.88-4.45 12.62-.87 15.93 9.02 1.64 3.15 8.68 5.7 4.27 3.7 9.44-7.3-3.94-4.73-4.47-7.9-10-23.38-3.94-29.7-.33-.1.04.4-5.4 5.6-12.52 2.9-13.1-3.3-1.94 1.17L795.7 505v-3.28l-10.88 1.7-3 4.86s-8.6 7.24-11.96 8.3c-3.36 1.04-6.65.54-8.87 0-2.23-.57-4.23-1.52-5.63-3-1.4-1.5-1.6-5.23-2.43-6.54-.82-1.3-1.67-1.93-3.14-2.43-1.46-.5-5.1-.5-6.36 0-1.25.47-1.93 1.73-1.93 1.73l-5.77 12.92s-2.6 5.64-2.9 7.52c-.3 1.88-.07 3.12.23 4.63.3 1.52.6 3.23 1.8 4.66 1.22 1.44 4.92 3.62 4.92 3.62s24.35 5.27 31.13 4.38z"/><path fill="#F72A7C" d="M881.58 602.4c1.63 1.42 2.24 3.57 4.16 4.57 1.47.76 2.38 1.48 4.02 1.5 3.4.05 6.87.23 10.16-.58 2.63-.66 5.02-2.15 7.23-3.73 3.1-2.22 5.7-5.1 8.6-7.6 1.78-1.55 3.38-3.38 5.46-4.5 4.1-2.2 8.5-3.26 12.9-3.32 1.54-.03 6.65.96 7.42 2.34 1 1.8 1.12 4 1.47 6.04.35 2.07.55 4.16.67 6.25.07 1.23.25 2.55-.2 3.7-2.25 5.88-4.52 11.82-7.8 17.2-1.93 3.13-4.62 5.88-7.63 8l-17.18 12.1-10.35-17.37-12.5 3.7-11.52 6.45-3.12 1.56-23.1 17.7-11.4-22.85-.27.07 14.45-4.3 9.96-6.84 7.04-13.47 9.75-5.74 1.78-.93z"/><path fill="#2ECC71" d="M667.03 472.5l-6.9 3.8-3.34 2.62-4.58 3.72-1.46 2.3-.62 2.5v.44c-.77-.12-1.83-.26 0 .05h-.05l-2.88-.48-2.25-.43-2.08-.37-.06-.05-.68-.12-1.83-.37.07.07-3.9-.6-1.9-.13-.73.24-.06.06-.72.12-.2.43-.4-.13-.75-.18-.17.05-.07.06-1.4.92h-.07l-2.07 1.28-.2.12-1.57.2-.07.05h-.3v.06l-.55 2.37-2.26.55-.67.12-.43.07-.36.06-.5.12h-.23l-.2.06h-.05l-.06.06h-.18l-.2.06-.23.06-.23.12-.43.13-.43.13-.23.06-.18.1-.93.25.06.6.3-.04 1.1-.3.2 1.77.1 1.1.32-.3.54-.25.54-.18.2-.07.53-.18.55-.2.07-.06-.32-.85.6-.13.3.8.13.36.57 1.47 1.33-.68-.05-.24.12-.43.3-.18 1.22-.8.36-.35.05.12.2.48h.06l-.13.3-.3.74.13.06.17-.18.38-.2.13-.1.24-.07h.3l.37.3v.12l.06.18.2.66.04-.05.3-.2.3-.12.25-.18.3-.18h.07l.3-.25.55-.48.36-.13.5-.2.35-.1v-.2l-.05-.18-.25-.5v-.55l.67-.42.18-.13.3-.24.5-.18.48-.24.5.12h.23l.18.12.5.37.6.36.3.2.73.36.74.06.67.43.26.24.18.48.06.36-.37.25-.3.05-.06-.18.36-.55-.3-.36-.24-.07-.56-.25-.5-.2-.1.32-.25-.36-.08.06-2.2 1.66-.05.24-1.9 1.16-2 1.28-1.16-.07-.1.6-3.43 2.4.37.36.24.23.12.06.13.05.48.43.26.13.18.13.07.05.43.25.36.12v.18l-.43.13-.06.12h-.72l-.25.06-.85.06h-.48l-1.54.06-.36-.12-1.34.06-1.28.6-.06.07-.12.12-.43.36.12.12.1.3.56.8.43.42.1.12.13.12.2-.05 1.33.6.36.3.07.13.1.3.37.73.18.13.5.35.48.73.3.55.55 1.64.6.73.07.3-1.15.13.12.3-.73.12-1.3.56-.6 1.65-.37 1.04-.12.17-.12.3-.17.55-.48 1.1-.13.37-.2.36-.17.48-.18.37-.24.6-.12.26 1.16.67.3 8.78 1.4.8.55.36V530.6l-.25-5.36v-1.7l-.06-1.22-.14-2.7-.05-1.02v-.18l-.06-1.4.12.05.74.5.5.24.4.3 1.36.8 2.92 1.77.2.07 5.47 2.86 3.05 2.07 3.84 2.63.54.36-1.46 3.35-.85.56-1.77.48-.97 1.04-.2.37-.23.37v.06l-.12.24-.18.3-.07.06-.24.56-.07.06.67.37v.05l-.12.2-.25.3-.12.17-.23.3-.06.12-.24.42H636l-.12.2-.6-.5-3.67 2.14-5.1 2.92-2.5-.85-2.38-.67-.67-.2-1.35 7.7-.6 1.9-1.3.77 1.9 1.28 2.02 1.35 1.15.67 4.46.18 3.77-.8.37-.12.48-.04 1.1-.3.68-.13.36-.06.85-.18.67-.13.42-.07.37-.06 1.23-.24 1.52-.36 1.4-.43 1.4-.55.68-.36.73-.68.73-1.1.54-.85.3-.6.43-.92.3-.98.43-1.28.42-1.47.13-.24.06-.2.25-.18.6-.6 1.3-1.05 1.27-1.4 1.23-1.4.36-.5.74-.84.5-.67.6-1.16 1.03-1.28 1.22-1.28.6-.73 1.16-1.27 1.28-1.35 1.1-1.16 1.28-1.02 1.03-.86 1.23-1.34.85-.98.67-.67.6-.8.13-.06.73-.92.25-.3.43-.67.5-1.33.36-1.04.53-1.7.43-1.4.18-.98.13-1.1v-2.12l-.13-.92-.18-1.34-.06-.86-.3-2.25-.3-1.95-.3-1.04-.44-1.04-.43-.85-.5-.97-.42-.74-.53-.73-.3-.36 1.83-1.77.9-.8.2-.18 1.4-1.1.72-.06 1.65-.17.3-.08 1.7-3.22.14-.13.37-.43 4.57-2.5 2.38-2.74-.5-2.44-.4-.9s-1.2-.64-1.18-1.2l-.23-.34H679l-.36-.55-9.58-6.1-2-.36zM609.67 479.22l-1.13.03-.87.03-.9.07-.75.1-.62.1-1 .2-.98.24-2.5.74-5 1.9.77 2 2.28 5.83.26.86.06 1.88-.1 1.67 1.2-.5-.05-.15.3-.14.07.15 4.67-1.95 5.14-2.2.7-8.05.1-.75.2-.8.28-.77.2-.38.03-.1h-2.38z"/><path fill="#A4E9C1" d="M703.6 459.6l-1.2 1.33-1.83-.74-1.2-.45-2.97 7.56 1.5 1.08.07.16-.12 1.38.2 1 .04.15v.04l-.2 2.22-.3 1.62-.6 5.15.36.12-.06.3 1.2.3.3.08h.03l.3-1.27.55-.42.13-.1.15-.12 1.08-1.48.68.33.24-.47-.64-.34v.02l-.15-.06.67-1.38.1-.3.1-.2.13-.26.18.04.02-.1.45.07.04-.04h.11l.64.1.27.05-.02.1.3.03h.12l.05-.1H705l.68-1.9-1.6-.96.26-1.75 1.45-2.73.14-.3.13.05.02-.04.25.1.14.06.06.02.87.1h.02l.14-.84v-.05l.34.05 4.17.6.22.02-.17-.56-2.33-.34-1.84-.27-.2-.02.45-2.17-1.86-.05.5-.77v-.02l.3-.52v-.05l-.9-.54-.52-.3-.6-.67-.4-.4-.04-.03-.07-.1-.2-.2zM666.7 472.88l-6.9 3.78-3.34 2.62-4.57 3.72-1.48 2.3-.6 2.52v.42c-.8-.12-1.84-.26 0 .06h-.07l-2.86-.48-2.27-.43-2.07-.38-.06-.06-.68-.12-1.82-.37.06.07-3.9-.62-1.9-.12-.73.25-.05.06-.74.13-.18.43-.43-.12-.73-.2-.18.08-.06.05-1.4.92h-.07l-2.08 1.27-.18.12-1.6.18-.04.05h-.3v.07l-.56 2.37-2.26.55-.67.12-.4.06-.37.07-.5.12h-.24l-.2.04h-.06l-.05.07h-.2l-.18.07-.25.06-.24.12-.42.12-.42.12-.24.06-.2.12-.9.24.06.6.3-.04 1.1-.3.2 1.75.1 1.1.3-.3.56-.24.55-.2.2-.06.54-.18.55-.18.05-.07-.3-.84.6-.12.3.8.13.36.55 1.46 1.34-.68-.06-.24.13-.42.3-.2 1.22-.78.37-.36.06.12.2.48h.04l-.12.3-.3.74.12.07.18-.2.37-.18.12-.12.23-.07h.3l.37.3v.13l.07.18.18.67.06-.04.3-.2.32-.1.24-.2.3-.17h.07l.3-.26.55-.5.37-.1.5-.2.35-.1v-.2l-.06-.18-.25-.48v-.54l.67-.43.18-.13.3-.24.5-.2.48-.23.5.12h.23l.18.12.5.38.6.36.3.18.74.36.73.07.68.42.25.24.18.5.07.35-.37.26-.3.06-.06-.18.36-.56-.3-.36-.25-.06-.55-.24-.5-.2-.1.32-.25-.36-.06.05-2.2 1.65-.07.24-1.88 1.16-2 1.28-1.17-.06-.12.6-3.42 2.4.37.35.25.25.12.06.13.06.48.42.24.13.2.12.05.05.43.25.36.12v.18l-.43.13-.05.12h-.73l-.26.05-.86.07h-.47l-1.54.05-.36-.12-1.35.07-1.28.6-.05.06-.13.13-.43.37.12.12.12.3.55.8.42.42.13.12.12.1.18-.05 1.35.62.36.3.05.12.12.3.36.72.2.13.48.36.5.75.3.54.55 1.63.6.74.07.3-1.15.12.12.3-.75.12-1.28.56-.6 1.64-.37 1.04-.12.17-.13.3-.18.56-.5 1.1-.1.35-.2.37-.17.5-.2.36-.23.6-.13.25 1.16.67.3 8.78 1.4.8.56.35v-1.15l-.25-5.37v-1.7l-.04-1.2-.13-2.7-.06-1.03v-.2l-.06-1.4.13.07.73.5.5.23.42.3 1.34.8 2.93 1.77.18.06 5.48 2.87 3.06 2.07 3.84 2.62.55.36-1.46 3.36-.87.55-1.76.48-.97 1.05-.2.37-.23.36v.07l-.12.24-.2.3-.05.05-.24.56-.07.06.67.37v.06l-.12.17-.25.3-.12.2-.24.3-.07.1-.24.44h-.06l-.12.2-.6-.5-3.67 2.15-5.12 2.92-2.5-.86-2.38-.65-.67-.2-1.33 7.7-.6 1.88-1.3.8 1.9 1.27 2 1.34 1.17.67 4.45.2 3.77-.8.35-.1.37 1.07 1.75 4.76 2.8-.3 1.4-.12 1.84-.18 2-.2.24-.04 1.47-.2h.2l1.15-.23 1.16-.9 2.08-.3v-.63l.24-.12-.12-.85h-.24l-.05-.37-.06-2.44-.06-3.1.06-.37.37-.85 5.37 1.7 2-.24 1.54 1.22-.3.3 1.34.43-2.5 2.44 1.9.6 5.72.92.07-2.26v-.3l.6.05.92.3.2.1.65-.04.8.05.36-.6.43-.72.47.18.43-.25.37-1.08-.12-.12 1.95-3.66.5-1.04.78-.67 1.46-1.28.06-.85v-.37l-.24-4.75.17-2.26-.24-.37.3-.3-.3-.5 2.55-2.85 1.6-1.77 1.33-1.52.9-1.03.26-.24.73-.74.12-.2.05.07-.06.24-.13.25.12.25.23-.25 1.47-1.64-.12-.17 1.34-1.4.12-.2v-.23l-1.65-1.83 2.8-2.13 3.9-2.26 2.2-1.34.72-.55.73-.5 1.84-1.1 1.57-1.15.06-.07-.06-.12-.24-.42-.3-.55v-.07l-.6-.73-.93-1.04-.06-.12-.92-.67-1.1-.55-1.76-.73-2.2-.92-3.23-1.47-1.1-.35-1.95-1.04-.17-.17-1.15-.6-.12-.07-.07-.06-.18-.06-2.07-1.4-1.34-.9-1.03-.8-.73-.44-.6-.6-2.02-1.65-3.05-2.5-.23.1v-.1l.06-.06 1.4-1.1.73-.07 1.63-.18.3-.06 1.7-3.24.14-.13.37-.42 4.57-2.5 2.38-2.73-.48-2.44-.43-.9s-1.2-.65-1.16-1.2l-.23-.34h-.13l-.36-.56-9.57-6.1-2-.36zM609.34 479.6l-1.14.02-.87.03-.9.06-.75.1-.6.12-1 .2-1 .24-2.5.74-4.98 1.9.75 2 2.3 5.84.25.85.07 1.88-.1 1.66 1.2-.5-.06-.15.32-.15.07.15 4.66-1.95 5.15-2.22.7-8.03.1-.75.2-.8.3-.78.18-.4.04-.08h-.94zM685.9 543.58l-.7 3.83 3.4 2.32-.6 3.06 3.13 2.42.38 3.13-4.08 3.24.3 4.5 1.63 3.5.23 34.2 8.14 30.75-1.16 5.12 3.5 2.8 5.58.93 10.24-3.03 29.1 7.45 42.4-.47-2.5-10.93-1.36-3.32-7.24-8.33-.77-.46 2.35-3.52-.97-2.55-2.35-.97-1.17-1.96h-.78l-3.13-2.93-2.73-5.46-5.9-3.7-4.45 4.82-62.17-54.8.04-5.06-2.2-1.6h-1.56l-1.5-.42z"/><path fill="#FB8CB8" d="M774.07 598.22l-6.03-2.06-1.15.4L756.37 608l-62.73-54.53.14-5.8 2.82 1.9 11.15-.85 4.44 2.5 16.2-1.15 10.2-2.12 5.07-8.07s20.84 3.68 26.93 3.85c6.63-2.2 13.4-5.52 13.4-5.52s5.63-2.63 11.64-.4c5.98 2.2 13.66 22.56 15.45 26.06-.95 2.03-3.02 6.16-4.22 8.77-2.08 4.5-4.6 8.9-7.9 12.62-1.9 2.18-4.67 3.58-7.35 4.72-3.17 1.35-6.82 1.3-10 2.63-2.5 1.06-5.16 2.32-6.83 4.47-.25.33-.5.7-.73 1.1z"/><path fill="#A4E9C1" d="M698.27 364.37c1.38-2.5 2.5-5.2 4.03-7.56 2.2-.78 1.4-2.36.5-3.95-1.36-1.55.12-2.96.86-4.4 1.34-1.45-.92-2.8-1.4-4.2-.84-1.45.78-3.15 1-4.7 1.5-2.13-1.57-1.64-2.9-2.14-2.43.34-4.74 2.55-7.26 1.46-2.42-.6-4.82-1.32-7.32-.73-2.16.33-4.6-.08-6.23 1.66-7.08 5.04-14.32 9.9-21.35 15-1.3 1.53-2.43 3.17-2.64 5.24-.62 2.63-1.65 5.24-1.03 7.98.05 2.1.57 4.33.35 6.38-1.43 2.04-2.43 4.5-4.12 6.3-1.7 1.16-3.38 2.33-5.06 3.5.1 2 1.5 2.63 3.3 2.78 5.76 1.4 11.5 2.77 17.25 4.16-.96 2.4-1.9 4.78-2.87 7.17-2.63.1-5.26.16-7.9.24.4 1.65-.08 3.74 1.68 4.66 1.28 1.16 2.55 2.3 3.83 3.47-.85 1.2-2.7 2.33-2.96 3.56 2.26 3.03 4.52 6.07 6.77 9.1-.54 2.08-1.53 4.15-1.82 6.23 1.65 5.57 3.3 11.14 4.94 16.7 2.55-1.26 5.1-2.54 7.65-3.8-1.12-2.32-2.23-4.63-3.35-6.94 1.43.3 3.94-.65 4.62.53.45 1.54.02 3.63 1.08 4.78 1.25.62 2.94 2.4 3.93 2.32.7-4.2 3.5-7.53 5.37-11.23.86-1.82 3.27-2.02 4.82-3.12 3.2-1.53 6.34-3.43 9.6-4.74 4.7.34 9.45.3 14.1.88 2.02.64 4.03 1.4 6.06 1.97.02-2.45.74-5.34 1.03-7.97.4-3.72.63-7.55.7-11.3-1.7-5.85-3.66-11.7-5.2-17.57.48-3.86.3-7.85 1.97-11.45.96-2.05 1.58-4.44 2.35-6.68-1.44-.46-2.86-2.37-4.3-1.04-1.63 1.4-2.93.83-4.05-.8-1.16-1.5-2.3-2.55-3.3-.3-1.24 2.33-4.4 1.05-6.26 2.58-1.5 1.63-2.7-.33-4-1.16-1.7-.34-2.8.23-2.43-2.36l-.02-.26v-.2z"/><path fill="#A4E9C1" d="M727.68 266.4c-3.38-.94-7.03-1.16-10-3.2-.77-7.86-1.55-15.73-2.33-23.6-2.62.3-5.24.57-7.87.86-.08-1.1 1.14-4.16.2-4-1.9 1.13-3.82 2.24-5.72 3.36-.04 1.76-.64 3.18-2.28 3.97-3.92 3-7.84 6-11.76 9 1.5 2.26 2.98 4.52 4.47 6.8-1.47 2.17-4.37 2.44-6.53 3.7-1.14.68-3.5 1.18-3.92 2 2.28 2.06 4.55 4.13 6.82 6.2-.52 1.98-1.6 4-1.8 5.97.74 1.44 1.17 3.54 3.15 2.33 2.46-.57 4.9-1.14 7.37-1.7 1.27 1.97 2.54 3.96 3.82 5.94-2.06 1.28-4.1 2.55-6.17 3.83 1.4 1.3.86 2.87.34 4.46-1.03 1.67 1.16 2.54 1.94 3.76.24 1.24-1.55 2.67-2.1 4-.43 1.32-2.58 2.6-1.73 3.97.88 1.62 1.75 3.23 2.62 4.84 1.7.14 3.85-.92 4.94.88 2.1 2.1 4.58 3.9 5.74 6.73.95 2.57 3.87 3.2 5.9 4.7 3.16 1.8 6.17 3.93 9.43 5.5 1.98.45 3.93.98 5.38 2.5 3.34 2.57 6.68 5.14 10 7.7 4.8-3.88 9.36-8.1 14.7-11.26 2.14-1.42 4.3-2.85 6.44-4.27-1.04-1.8-1.55-4.06-3.66-4.9-2.44-1.8-5.67-1.84-8.48-2.82-2.77-.73-5.53-1.46-8.3-2.18.65-2.98 1.3-5.96 1.92-8.93 1.78-.73 3.4-1.47.73-2.26-1.35-.86-3.1-1.38-4.22-2.45-.9-2.52-2.23-4.95-1.92-7.7.12-2.34-.25-4.6-1.2-6.72-1.98-5.66-3.95-11.33-5.92-17z"/><path fill="#A4E9C1" d="M774.98 312.9l4.6-3.24 1.96-6.02 8.93 2.13 7.38-1.16 3.9.15 6.2 5.1 3.68 4.66 25.63 44.28 1.75-.97 9.18 14.34-6.45 3.53-18.64 1.56-12.86 5.35c-5.2-13.32-9.33-25.87-13.92-39.72l-.46-9.84-5.75-3.03-12.4-10.77-2.72-6.32z"/><path fill="#A4E9C1" d="M811.63 314.5c-1.9-2.3-3.54-4.9-6.06-6.6-1.28-1.05-2.55-2.1-3.83-3.16 3.87-.64 7.8-1.04 11.63-1.83 2.3-.9 4.6-1.82 6.92-2.73 16.78 12.94 33.57 25.87 50.36 38.8-4.02 3.9-8.03 7.77-12.04 11.66 2.6 3.36 5.18 6.73 7.76 10.1-6.08 3.77-12.16 7.55-18.25 11.33-3.04-4.75-6.08-9.5-9.12-14.25-1.23 1.06-2.18 1.06-2.66-.62-8.24-14.22-16.47-28.44-24.7-42.67z"/><path fill="#A4E9C1" d="M870.64 339l33.82 25.63 15.52 16.58-8.38 4.12-31.4 12.12-.7-1.25-5.7 1.24-2.86 6.78-12.5 1.6-13.72-4.63H829.4l-2.15-4.47-10.17 4.1-2.2-1.78 1.58-2.27-6.06-13.8-.16-.4 12.85-5.35 18.63-1.56 6.45-3.53-.05-.08 18.26-11.34-7.78-10.1L870.64 339z"/><path fill="#FB8CB8" d="M871.47 454.5c-11.77-.35-23.54-.7-35.3-1.06-.4-1.13-.18-2.56-.34-3.8-.13-1.26-.23-2.52.5-3.63 1.27-2.82 2.38-5.76 3.74-8.53 1.37-1.32 2.73-2.64 4.1-3.95-.94-2.1-1.88-4.18-2.82-6.27-2.04.62-4.1 1.15-6.25 1.1-3.3.22-6.6.42-9.9.62-1.13-1.5-2.28-3.03-3.43-4.54 1.5-.52 3.03-1.04 4.54-1.57-.04-1.5.34-3.1.02-4.55-2.7-5.97-5.38-11.95-8.07-17.94 3-1.2 6-2.42 9-3.63.7 1.5 1.42 2.97 2.14 4.46 5.15.03 10.34-.1 15.5.04 4.5 1.53 9.03 3.06 13.55 4.58.93.2 1.1 1.83 1.72 2.6 1.1 2.1 2.2 4.22 3.28 6.32-.32.85-1.8 1.78-1.37 2.58 2.76 2.9 5.3 6.02 8.32 8.66 1.96 4.93 3.93 9.86 5.9 14.8-.73 1.78-1.44 3.56-2.15 5.35 2.02.95 4.04 1.9 6.06 2.85-1 1.55-2 3.1-3.02 4.64-1.9.3-3.8.6-5.7.9z"/><path fill="#FB8CB8" d="M877.36 453.44h14.8l3.03.7 18.36 16.93-1.43 1.8 18.37 28 8.02 5 7.5-.36-2.86.9-9.45 12.5-42.8-33.54-13.24-5.65.05-.23-11.93-5 6.06-12.3 5.53-8.73z"/><path fill="#FB8CB8" d="M895.2 443.1c1.68 3.43 3.9 6.65 4.76 10.43.78 2.54 1.57 5.07 2.35 7.6-2.45-2.3-4.76-4.9-7.32-7.03-3.43-1.12-7.06-.5-10.6-.66-2.35-.02-4.73.04-7.07-.03.98-1.47 1.95-2.94 2.9-4.42-2-.95-4.03-1.9-6.05-2.85.63-1.85 1.7-3.7 2.06-5.55-2-4.9-3.8-9.94-5.96-14.75-3.04-2.68-5.6-5.84-8.4-8.77.48-1.1 2.28-2.1 1.1-3.28-1.37-2.67-2.76-5.33-4.14-8-.26.03 2.4-.3 3.3-.42 2.94-.38 5.9-.76 8.84-1.14.95-2.26 1.9-4.52 2.85-6.78 1.9-.4 3.8-.83 5.7-1.25.4 1.93 1.9.72 3.13.3 9.9-3.87 19.9-7.57 29.74-11.56 2.54-1.24 5.07-2.48 7.6-3.73 2.27 2.5 4.53 5 6.78 7.5-8.97 6.07-17.95 12.13-26.92 18.2-.6 1.02-2.07 2.2-2.14 3.14.86.8 3.07 1 2.3 2.55-.44 1.16.07 3.04-1.5 3.3-2.36 1.1-4.7 2.2-7.05 3.3.28 4.3 1.02 8.58 1 12.9-.16 2.76-.32 5.54-.47 8.32 1.07.9 2.14 1.78 3.2 2.68z"/><path fill="#A4E9C1" d="M884.5 322.72c13.9 12.9 27.8 25.8 41.72 38.7 2.6 5.7 5.23 11.4 7.85 17.12-2.97 0-6.1-1-8.8.63-1.77.68-3.53 1.36-5.3 2.04-5.44-5.66-10.6-11.64-16.24-17.12-28-21.07-55.66-42.5-83.44-63.9.54-.63 3.22-1.46 4.58-2.15 1.74-.74 3.48-1.5 5.22-2.23-.44-2.14 1.3-3.16 2.7-4.34.54 1.77 1.46 2.96 3.47 1.1 4.46-1.87 7.9-5.25 11.66-8.18 4.16 4.22 8.32 8.44 12.5 12.66 2.13-1.96 4.27-3.92 6.4-5.88 5.9 10.52 11.78 21.04 17.66 31.56z"/><path fill="#A4E9C1" d="M914.98 293.3c1.08-.5 1.34 2.7.27 2.33-3.3.05-6.6.1-9.9.17.13 2.38-.25 4.86.2 7.2 1.36 4.13 2.72 8.27 4.08 12.4-5.35 1.62-10.7 3.22-16.04 4.83.13 1.05 2 2.5.57 3.2-1.6 1.26-3.2 2.53-4.82 3.8-1.68-1.72-3.75-3.13-5.17-5.06-5.78-10.34-11.56-20.67-17.34-31-2.14 1.95-4.28 3.9-6.42 5.87-4.17-4.22-8.33-8.44-12.5-12.66 10.9-8.67 21.7-17.47 32.65-26.07 2.67-1.47 5.07-3.56 8.15-4.1 3.05-.88 6.1-1.75 9.15-2.63 1.12 3.03 2.25 6.06 3.38 9.1 3.25 2.36 6.25 5.1 9.66 7.2 1.96 1.1 3.92 2.22 5.87 3.32-.85 1-1.56 2.07-1.2 3.45.03 4.28.35 8.58.22 12.85-.28 1.94-.55 3.87-.82 5.8z"/><path fill="#A4E9C1" d="M934.24 368.55c.48-4.1.96-8.2 1.43-12.3-1.66.06-3.33.12-5 .18-.1-1.55-.23-3.1-.35-4.64 1.78.17 3.57.35 5.35.53-.47-2.48-.85-5-2.13-7.2-3.2-7.12-6.43-14.23-9.64-21.34 0-2.75-.37-5.47-.53-8.2-1.5 1.4-2.48 3.55-4.63 4.02-2.62 1.02-5.25 2.03-7.68 3.46-.76-4.03-1.3-8.12-2.84-11.96-.9-3.06-2.18-6.06-2.87-9.16 0-2.05 0-4.1 0-6.16 3.5-.06 7.02-.12 10.53-.18.35-1.7-.84-2.1-.78-3.17.48-3.14 1-6.27.68-9.44-.1-3.34-.17-6.68-.26-10.03.68-1.56 1.58-1.97 2.8-.62 4.25 2.72 8.28 5.75 12.18 8.94 1.76 1.62 3 3.9 3.6 6.2.9 9.3 1.66 18.62 2.33 27.94 2.64 11.84 5.43 23.65 7.97 35.5-.23 5.5-.46 11.03-.7 16.55-3.15.35-6.3.7-9.46 1.05z"/><path fill="#F85496" d="M919.37 544.88c-2.65.5-5.48.5-8.02 1.28-3.6 2.35-7.4 4.5-10.86 6.96-3.08 5.1-5.96 10.4-9.15 15.4-3.03 2.15-6.06 4.3-9.08 6.46-.7-1.38-1.38-2.75-2.07-4.12-1.33 1.1-2-1.55-3.03-2.23-2.67-2.96-4.2-6.73-6.23-10.1-3.3-7.82-6.74-15.6-9.93-23.43-1.23-9.32-2.47-18.64-3.7-27.96 5.85-2.03 11.7-4.06 17.56-6.1.4-4.57.45-9.2 1.1-13.74.58-2.6 1.17-5.22 1.75-7.83.64.9 2.53 1.14 3.62 1.8 3.3 1.5 6.76 2.7 9.96 4.38 4.8 3.77 9.62 7.54 14.43 11.3-2.17 2.44-4.35 4.88-6.53 7.32 2.5 1.88 4.83 4.06 7.44 5.75 2.23 1 4.63 1.74 6.74 2.88 2 2.42 4.02 4.83 6.03 7.24-2.77 2.74-5.35 5.7-8.23 8.3-1.78.68-2.13 1.6-.52 2.8 1.85 2.04 3.42 4.4 5.45 6.25 1.08.8 2.77 1.26 3.5 2.26-.07 1.7-.13 3.4-.2 5.12z"/><path fill="#FB8CB8" d="M909.27 529.63c1.7-.9 3.1-2.15 4.35-3.58 1.92-1.97 3.83-3.94 5.75-5.9-2.13-2.48-4.13-5.13-6.35-7.5-2.35-1.04-4.84-1.85-7.12-3.03-2.24-1.78-4.5-3.57-6.73-5.35 2.18-2.44 4.36-4.88 6.54-7.3-2.93-2.32-5.88-4.63-8.82-6.94 12.27 9.62 24.55 19.24 36.83 28.85 3.16-4.16 6.3-8.32 9.46-12.48 1.72-.62 3.46-1.1 5.3-1.04 4.4-.28 8.8-.55 13.2-.83-1.43 8.54-2.88 17.08-4.32 25.62-1.43 2.1-2.74 4.33-4.24 6.36-1.85 1.27-3.62 2.73-5.5 3.87-9.42 1.47-18.82 2.98-28.23 4.43.03-.68.1-2.1.12-3.08-.08-1.02.56-2.43-.84-2.73-1.54-.93-3.27-1.63-4.24-3.23-1.72-2.05-3.43-4.1-5.15-6.14z"/><path fill="#FB8CB8" d="M944.84 505.54c-2.1.16-4.2.2-6.32.33-2.68-1.72-5.47-3.32-8.1-5.1-6.1-9.3-12.2-18.6-18.3-27.9.65-.46 1.3-1.2 1.92-.3 1.4.97 2.7 2.1 4.34 2.62 1.04.4 2.04 1.07 3.2.82 1.95-.12 3.93 0 5.86-.26 8.1-2.14 16.2-4.28 24.32-6.42 1.27 4.95 2.6 9.9 3.83 14.85.18 4.7.38 9.4.57 14.12 1.67 1.98 3.25 4.08 4.97 6 1.17.4-.88.22-1.3.33-5 .3-10 .6-15 .9z"/><path fill="#66DA97" d="M715.54 241.5l13.2-9.12-5.74-7.23-.85-6.8 7.23-19.56 9.36 4.88 2.12-.85 1.28-2.77-1.28-.42-3.2-12.54-2.96-2.77 6.6-15.94 11.9-.44 1.48-5.53-.2-3.2 1.48-1.9-2.13-1.5-1.06-4.45-3.62-.2-1.06-3.2-5.75 3.4v-2.13l-3.6 1.28.62 1.9-1.06 3-17.85 5.52-1.7-2.56 1.5-4.9-3.84-.63-1.48-2.13-6.8.85.43 3.82-3.2-.2-6.8-5.75 1.7-3.4L679 145l-1.5.85.86 2.13-1.92.42-4.04 7.66-4.67-4.26-1.92 1.28-2.96-4.9.85-1.7-.86-2.12h-4.68l-.42-1.27-6.38 6.58.85 2.34-1.27 2.97 9.78 15.5 12.13 11.5-4.04 4.67-8.73-5.53-7.65 7.02-9.14 4.9 7.65 1.9 5.95 8.93 3.62 6.37.2 4.9 5.33 1.9 2.34-2.55-1.07-5.3 8.93-7.03 25.3 19.76-7.65 2.98-5.74 8.08-2.98 1.7 5.32 7.65 1.94 6.98 9.1-6.98.44-2.55 6.16-3.6-.64 4.24 7.87-.85.2 1.9z"/><path fill="#66DA97" d="M877.36 453.44l-5.53 8.74-6.06 12.3 11.94 5-1.95 8.73-.9 12.85-17.55 6.1-.2-1.52-.33-.1-.34-3.44-10.22-22.2-9.82-20.42-.2-5.98-.1-.13.08.07 35.3 1.07 5.72-.88.13-.2.06.02z"/><path fill="#A4E9C1" d="M1019.37 352.4l-2.1 1.55-1.3 7.17-9.37.9-.13-1.42-5.87-3.4V367l-9.35 17.3-13.36-.85-13.37-.85-19.03-1.48c-.73-4.52-1.8-10.75-1.72-15.3.07-4.98.16-9.03.43-14.16l-3.96-19.36 1.98-1.26 6.4 4.3 7.42 3.12.78-1.7 1.43-14.58 26.46-8.86-.13-.17 11.73-2.96-.24.06.63 3.07-1.83 1.7.65 6.5.65 1.3 6 5.35 6.25 6.12 2.22.92.9 1.16 1.7 6.65 4.7 5.1v2.6l1.3 1.7.2-.24-.07.23z"/><path fill="#A4E9C1" d="M934.07 287.06c-.83-2.07-1.82-4.14-3.45-5.68-3.53-2.8-7.03-5.65-10.86-8.06-1.3-.84-2.58-1.78-3.75-2.56-3.05-1.78-6.28-3.3-8.96-5.63-1.92-1.57-4.05-2.97-5.85-4.63-1.1-2.92-2.18-5.84-3.27-8.76 15.85-2.97 31.7-5.94 47.55-8.9 5.1.94 10.22 1.9 15.34 2.84-.55 1.62-1.1 3.23-.95 4.96-.4 15.64-.8 31.3-1.2 46.94-1.76.62-3.36 2.03-5.32 1.78-1.6 0-3.23 0-4.84 0-.23-1.3-.46-2.6-.7-3.92-4.36-.38-8.72-.75-13.07-1.13-.22-2.4-.44-4.83-.66-7.24z"/><path fill="#A4E9C1" d="M940.24 332.27c-1.28-5.77-2.67-11.53-3.88-17.3-.48-6.9-.95-13.8-1.63-20.66 4.35.4 8.7.76 13.07 1.14.24 1.3.47 2.6.7 3.92 2.13-.04 4.28.08 6.38-.06 1.26-.57 2.53-1.15 3.8-1.72-.1-.98-.06-1.82 1.15-1.45 2.5.1 5.06-.04 7.55.18 1.5.52 3.1.84 4.5 1.47 4.28 5.17 8.55 10.35 12.82 15.53-8.8 2.95-17.63 5.9-26.45 8.86-.5 4.9-.9 9.84-1.5 14.72-.4.65-.5 2.1-1.48 1.24-2.33-1.03-4.75-1.88-7-3.04-2.02-1.35-4.03-2.7-6.05-4.06-.66.42-1.32.84-1.98 1.26z"/><path fill="#A4E9C1" d="M1000.86 298.57c-2.93 1.9-5.36 4.44-7.95 6.78.5 1.17.7 2.58 1.36 3.6.8.58 3.1 1.37.9 1.5-3.53.9-7.06 1.8-10.6 2.68-4.24-5.16-8.5-10.3-12.76-15.47-2.33-.64-4.6-1.74-7.06-1.47-2-.03-4.02-.06-6.03-.08.42-15.86.82-31.72 1.22-47.58.23-1 .94-2.37.78-3.07.54-.85 1-3.16 1.7-1.15.97 1.24 1.4 3.1 3.1 3.5 10.47 4.8 20.8 9.94 31.48 14.3 5.66 2.5 11.7 4.04 17.52 6.08 3.32 1.1 6.63 2.18 9.95 3.27-.52 2.78-1.04 5.56-1.56 8.34-4.44 3.3-8.78 6.75-13.27 9.96-1.88 1.07-4 1.9-5.73 3.12-1 1.9-2.03 3.8-3.04 5.7z"/><path fill="#A4E9C1" d="M1073.45 302.1c-.95.6-1.8 1.7-2.8 2.02-1.63-.33-3.2-1.12-4.9-1-1.55.83-.44 1.72-.04 2.3-1.75.63-3.44 1.68-5.38 1.36-2.62 0-5.24 0-7.85 0-2 1.56-4 3.13-6 4.7-.13 2.77-.26 5.55-.4 8.33-8.68-1.5-17.36-3.03-26.05-4.55 2-4.17 4-8.34 6-12.5-8.1-1-16.17-2-24.24-3-1.5-.73-.78-1.58-.1-2.7.85-1.45 1.5-3.12 2.48-4.43 2.88-1.56 5.95-2.82 8.43-5 3.42-2.6 6.85-5.2 10.3-7.8.5-2.77 1.02-5.52 1.53-8.27 2.97.32 6.02 1.12 9.02 1.62 5.32 1.1 10.67 2 16.07 2.63 3.8.5 7.6 1.02 11.42 1.53 1.2-1.56 2.43-3.13 3.64-4.7 1.2.08 2.5-.1 3.2 1.07 1.45 1.38 2.9 2.77 4.36 4.15 2.74.1 5.48.18 8.2.26-.25 3.03-.2 6.12-.65 9.1-2 5-3.86 10.06-6.26 14.9z"/><path fill="#A4E9C1" d="M1035.66 340.27c-1.77 1.3-3.68 2.5-5.84 2.97-1.5.18-2.93.52-4.24 1.3-1.35.67-2.1 2.15-3.22 3.16-.55 1.37-1.03 2.8-2.23 3.74-.7 1.3-1.3.7-1.86-.3-.94-1 .36-2.8-.87-3.63-1.38-1.56-2.94-3.02-4.2-4.65-.6-2.2-1.05-4.47-1.75-6.62-.5-.98-1.44-1.37-2.43-1.7-1.35-.6-2.18-2-3.32-2.92-3.02-3.08-6.3-5.9-9.53-8.8-1.07-1.6-.74-3.58-1.06-5.4.12-.88-.63-2.1.12-2.73.6-.7 1.9-1.2 1.28-2.3-.4-.87-.1-2.18-.6-2.44-.8-.58-2.05-.8-2.1-1.97-.2-.9-.86-1.9-.77-2.72 2.54-2.3 4.94-4.8 7.83-6.67-.22.6 1.2 1.45 2.02 1.3 7.7.96 15.42 1.92 23.13 2.87-2 4.17-3.98 8.34-5.98 12.5 8.7 1.53 17.37 3.05 26.06 4.57.35 2 .98 4.04.8 6.04-.42 1.32-.82 2.77-1.72 3.8-1.92.97-4 1.74-5.8 2.82-1.2 1.92-2.17 4-3.9 5.5-1.45.83.46 1.04.18 2.2l.02.1z"/><path fill="#A4E9C1" d="M1079.44 347.7c-1.56-.66-1.17-1.4-1.34-2.2-2.53-2.18-4.98-4.52-7.57-6.6-.95-.5-2.72-.48-2.08-1.98.25-2.16.12-4.4.6-6.5 2.03-4.06 4.06-8.12 6.1-12.17-1.5-3.78-2.86-7.63-4.43-11.36-.86-1.16-1.73-2.3-2.6-3.45 1.17.1 2.56 1.3 3.46.13 1.1-.82 2.22-1.64 2.58-3.04 2.2-4.44 3.8-9.12 5.67-13.7.17-2.9.35-5.8.52-8.72 2.04.08 4.1.17 6.13.25.7-1.47 1.4-2.95 2.08-4.43 1.63 1.45 3.57 2.64 5 4.25.53 1.02.9 2.27 2.3 2.17 2.13.37 4.14 1.08 6.04 2.14 2.63 1.2 5.22 2.5 7.53 4.26 2.7 1.77 5.36 3.58 7.67 5.85 2.04 1.83 4.08 3.64 6.12 5.45-14.6 16.55-29.2 33.1-43.78 49.65z"/><path fill="#FB8CB8" d="M1031.1 349c-.75-.9-1.54-1.73-2.6-2.22-.3-1-1.22-2.26-1.1-3.1 2.2-.3 4.37-.83 6.24-2.03.7-.73 2.48-1 1.9-2.3-1.52-.64.13-1.45.74-2.26 1.46-1.35 2.05-3.42 3.32-4.86 1.9-.97 4.02-1.7 5.8-2.82.9-1.68 1.9-3.57 1.42-5.54-.23-2.1-1-4.15-.64-6.3.1-2.03.2-4.07.3-6.1 2-1.57 4-3.14 6-4.7 3.3-.05 6.64.1 9.93-.07 1.17-.44 2.33-.9 3.5-1.35-1.36-.6-1.2-1.7.04-2.22 1.18-.1 2.45.18 2.97 1.36 1.13 1.4 2.3 2.82 2.74 4.62 1.16 3.04 2.33 6.08 3.5 9.13-2.07 4.23-4.32 8.42-6.27 12.7-.17 2.36-.34 4.73-.5 7.1 1.46.48 2.84 1.1 3.87 2.27 2.1 1.85 4.2 3.7 6.3 5.55-1.86.88 1.6 1.32.47 2.2-2.6 3.27-5.68 6.2-7.7 9.9-1.88 3.1-3.95 6.16-5.7 9.33-.33 3.02-.67 6.04-1 9.07-4.1-4.7-8.18-9.4-12.26-14.08-3.1-.32-6.15-1.04-9.26-1.05-1.07 1.17-1.8-.55-2.66-1.14-2.9-2.74-5.78-5.5-8.67-8.23-.22-.96-.44-1.9-.66-2.87z"/><path fill="#FB8CB8" d="M1031.75 351.87c-.4-1.3-.28-2.86-1.46-3.75-.56-.93-2-.95-2.15-2.16-.44-.56-.47-2.2-1.18-2.08-1.13.5-2.3.97-3 2.05-.87.95-1.86 1.84-2.18 3.14-.4 1.48-1.83 2.34-2.67 3.5-.73.7-2.08 1.05-2 2.26-.4 2.1-.77 4.2-1.15 6.3-3.13.3-6.26.6-9.38.9-.07-.3.1 1.6.13 2.14.5 7.13 1 14.25 1.5 21.38 6-.23 12.03-.33 18.03-.65 7.8-.9 15.58-1.9 23.37-2.74 4.73.75 9.46 1.5 14.2 2.27.2-2.73.43-5.46.65-8.2-4.05-4.64-8.1-9.3-12.14-13.94-2.96-.32-5.9-.96-8.86-1.05-.9.2-1.56.84-2.17-.3-3.18-3.03-6.37-6.05-9.55-9.08z"/><path fill="#A4E9C1" d="M1123.2 298.08l4.45 4.26 7.2-.2v7l6.6 5.56-4.73 3.92.82 4.12-9.06 3.9-5.15-3.5-.62 2.07 1.86.84-16.28 16.48.62 1.65-10.3 9.06 24.3-.2 2.28 16.9-1.03 5.14-1.65 2.9-5.97 6.58-3.3-.82-10.3-.62-4.33-2.46-4.12 2.06-1.44-2.9.4-3.5 1.66-.82-3.7-4.32 1.23-1.24-2.27-4.53-5.56-1.87-2.68 3.5 6.6 3.5-4.13 5.78 3.9 2.9-16.07 16.06-1.64 5.57-2.9 1.44-3.3 1.38-2.56-1.64-9.05-4.66 10.38-12.98.45.07.65-8.2-10.05-11.53 10.15 11.67 1.05-9.26 7.42-11.98c13.86-16.4 32.38-36.9 50.14-57.04z"/><path fill="#F85496" d="M994.8 662.55l-1.9.7-.04 6.53-6.44.05-2.78 13.35 6.12 14.27 13.72-4.45 7.97 1.12-1.1 18.54 1.3 11.68-8.1 2.33-9.25 3.35h-6.83l-9.1-5.47-5.28-6.76-12.7-25.26.02-.26-7.73-10.7 5.54.67 3.34-3.9-.56-1.1 2.6-4.08-1.12-2.23 3.16-2.4-1.67-.57 3.32-4.63-1.85-2.04 5.2-5.56 5 3.52 12.05 4.45.74-4.07 5.75 1.1.6 1.82z"/><path fill="#A4E9C1" d="M1120.73 658.24l.03.04.05.12h.03l12.65 19.05 3.23 14.05-.15 9.85 2.1 13.88 3.05 10.75h-.12l1.75 6.13-6.47 24-7.7 23.96-4.5 6.58h-.02l-22.6 28.88-7.35 8.1-2.7 4-22.25-16.65-5.4-5.3.02-.14 2.8-26.2s3.98-7.3 8.38-8.4c4.4-1.06 12.23-6.1 12.23-6.1l16.77-8.78c9.45-4.95 13.36-14.6 9.57-24.74-1.46-3.92-4.45-7.44-7.98-9.7-6.66-4.3-14.06-7.8-21.8-9.45l-3.53-.75 7.12-15-4.07-1.7-10.4-22.8 25.78-13.22 1.9 1.06 2.52 2.08 15.18-7.4 1.9 3.82z"/><path fill="#A4E9C1" d="M1160.44 682.4l-11.56-29.6-3.77-1.96-24.3 7.56h.03l12.65 19.05 3.23 14.05-.15 9.85 2.1 13.88 2.28 7.66 5.8-.57 5.06 4.03s4.1-1.2 6.84-1.06c2.72.14 8.44 3.48 8.44 3.48l2.5-4.72-14-36.24 1.53-3.96 3.34-1.45z"/><path fill="#66DA97" d="M1154.57 458.83c-3.9-3.7-7.2-8.15-11.5-11.32-20.08-12.66-40.55-24.7-60.94-36.83-5.83-2.54-11.67-5.07-17.5-7.6 2.7-.7 6.7-1.14 6.86-4.62.35-3.98 4.1-5.95 6.48-8.73 3.5-3.5 7.02-7.02 10.53-10.53-2.04-1.54-5.38-2.88-2.23-5.24 2-2.17 3.26-4.16-.48-4.97-2.8-1.05-4.74-2.27-1.67-4.6 1.38-1.65 4.77.63 6.4 1.36 1.7 2.16 1.84 4.43 1.4 6.02 1.9 2.16 3.95 3.55 1.42 5.35-.7 1.83.15 6.75 2.6 4.83 2.27-2.24 4.43-.4 6.6.93 4.54.9 9.48.12 13.98 1.65 3.34-3.97 8.13-7.48 8.35-13.12.5-4.57-1.02-9.2-1.35-13.8-.3-2.5.05-5.8-3.5-4.58-7.15.06-14.3.12-21.43.18 3.44-3.02 6.87-6.04 10.3-9.06-1.7-2.53 2.32-3.84 3.45-5.76 4.07-4.12 8.14-8.24 12.2-12.36-3.6-1.08-.53-4.28 1.5-1.03 1.96 2.56 4.3.9 6.6-.15 2.04-1.2 6.2-1.32 4.4-4.54-1.22-2.7 2.8-3.56 4.13-5.36 2.63 1.6 5.23 4.6 7.85 6.76 15.22 13.73 30.45 27.47 45.67 41.2 1.63 22.4 3.26 44.8 4.9 67.22 3.24-.1.43 4.1.78 6.04.54 3.3-2.2 3.84-4.77 4.53-4.8 1.53-9.72 2.88-13.62 6.24-6.48 5.17-12.9 10.46-20.13 14.56-2.2 1.4-4.42 2.78-6.63 4.18-.2-2.3-.43-4.57-.65-6.85z"/><path fill="#A4E9C1" d="M1238.22 462.83c-13.37.88-26.73 1.76-40.1 2.63-11.27 5.33-22.46 10.88-33.77 16.06-2.75.54-5.5 1.07-8.25 1.6-.24-5.84-.47-11.7-.7-17.55 7.33-4.73 15-8.97 21.62-14.7 4.53-3.57 9-7.6 14.77-8.9 2.7-.9 5.4-1.82 8.12-2.72.43-2.94.87-5.87 1.3-8.8-2.8.17-1.4-3.36-1.98-5.16-1.47-20.76-3.1-41.54-4.47-62.26 20.3 18.62 40.6 37.24 60.88 55.87 2.12-.03 4.75-.66 4.12 2.4.14 2.97 3.72 4.24 4.55 7.02 1.84 3.36 3.63 6.73 4.2 10.56 1 3.98 1.76 8 2.65 12.02.8.9 5.8 2.38 3.5 2.84-12.15 3.03-24.3 6.06-36.45 9.1z"/><path fill="#A4E9C1" d="M1275.38 453.56c-1.3 2.14-3.2 4.12-4.1 6.36.4 5.55.8 11.1 1.2 16.66-1.85 1.27-3.25 3.83-5.8 3.08-9.6-.5-19.18-.5-28.77-.1-24.34.6-48.7 1.2-73.05 1.82 11.1-5.3 22.18-10.6 33.27-15.92 13.58-.97 27.23-1.62 40.78-2.8 12.16-3.03 24.32-6.06 36.48-9.1z"/><path fill="#FB8CB8" d="M1299.12 640.23h-25.3l2.52-41.12 2.22 6.33 4.43 2.85 20.55-2.53 26.26-9.8 2.74-3.88 2.84 5.57-2.73 1.47 3.1 14.23-11.95-1.7-7.92 8.8-9.42 3.98-5.13 6.66-2.2 9.17z"/><path fill="#A4E9C1" d="M1271.46 676.45c-.87 2.48-1.73 4.96-2.6 7.44-24.28-14.2-48.63-28.3-72.86-42.57-4.14-3.6-8.28-7.2-12.42-10.78 30.9-10.95 61.8-21.9 92.7-32.85-1.44 24.63-2.7 49.28-4.25 73.9-.2 1.62-.38 3.23-.57 4.85z"/><path fill="#A4E9C1" d="M1155.45 467.07h-16.2l-3.82-2.1-5.17 6.3-16.83 6.13-1.9-2.3-1.73 3.06-11.67 5.74 4.02-10.33-3.44-8.8-5.16-2.3-2.1 1.35-10.33-10.9 2.1-2.87-.18-.76-1.9.56-10.53-5.36-8.06-11.5 1.26-11.98-1.7-18.75 2.5.82.06-.02 17.85 7.75 42.06 25.16 19.9 12.4 10.1 10.43c.3 2.9.8 5.67.9 8.24z"/><path fill="#FB8CB8" d="M1106.55 527.3c-2.62-.3-5.23-.62-7.84-.94-.06-4.72-.12-9.44-.18-14.15 2.55-3.12 5.1-6.24 7.65-9.36-2.75-5.36-5.5-10.7-8.23-16.07.26-.96-.24-2.42.5-3.05 3.8-1.85 7.57-3.7 11.36-5.56.57-1.02 1.15-2.04 1.72-3.06.78.63 1.3 2.2 2.24 2.18 5.5-2 11-4 16.5-6 1.72-2.1 3.44-4.2 5.16-6.3 1.4.64 2.7 1.73 4.18 2.1 5.3 0 10.57 0 15.85 0 .22 5.34.43 10.7.65 16.05.83.04.03 1.97.22 2.75-.2 3.9-.27 7.8-1.04 11.63-.24 1.6-.5 3.18-.73 4.77-1.28-.9-2.46-2.16-3.8-2.87-3 .2-6 .38-9 .57-2.05 2.9-3.86 5.96-6.04 8.74-1.55 1.68-3.1 3.36-4.67 5.04-2.73.26-5.5.77-8.2.88-.7-.05-2.64-1.67-2.43-.55.23 1.42.45 2.84.68 4.26-4.2.76-8.4 1.53-12.62 2.3-.64 2.22-1.28 4.45-1.9 6.68z"/><path fill="#FB8CB8" d="M1098.7 526.15l-14.15-.75-36.14-11.86-9.76-3.68v-22.3l22.26-48.82 1.64-5.77 8.05 11.53 10.5 5.36 1.92-.57.2.75-2.1 2.87 10.32 10.9 2.1-1.34 5.17 2.3 3.45 8.8-4 10.28h-.02l-.2 2.9 8.23 16.07-7.65 9.38.2 13.95z"/><path fill="#F85496" d="M1106.58 527.2l5.75 5.92 12.93 28.34-.57 4.38s-3.82 12.53-3.8 16.55c0 4 .72 6.85 2.2 9.5 4.8-1.9 21.72-8.74 21.72-8.74l17.98-6.1s1.38-.3 1.9-1c.54-.72.74-3.66.74-3.66l-5.57-11.6-.97-8.1-3.23-.92-2.73-38.94 1.97-14.25-3.98.8c-3.06.18-7.78-2.68-9.18.57l-5.55 8.22-5.72 4.62-6.2.96-4.05-1.24.67 3.78-2.54.64-.9-2.1-3.7.37.37 2.55-10.1 1.28-1.9 1.65-5.2-2.36.2 7.57 9.45 1.3z"/><path fill="#F85496" d="M950.87 757.17c.2 1.43.83 2.95.78 4.34-.95 1.42-1.9 2.84-2.86 4.26-6.37-3.84-12.8-7.58-19.1-11.48-2.86-2.86-5.72-5.7-8.57-8.57-.4-.92-1.68-1.75-2.42-2.64-1.06-.83-1.85-1.68-.57-2.76 3.57-5.4 6.97-10.92 10.64-16.23 10.5-10.6 21-21.2 31.5-31.8 4.32 8.56 8.56 17.16 12.95 25.67 1.73 2.26 3.58 4.5 5.23 6.76-.95.24-2 1.37-3 1.95-1.9 1.07-2.47 3.37-3.72 5.04-4.17 6.84-8.34 13.7-12.5 20.55-2.8 1.64-5.58 3.28-8.36 4.92z"/><path fill="#F85496" d="M960.42 692.28l-7.76-10.74-5.22-6.1c-7.2 4.8-14.4 7.43-21.6 8.25l-28.6 37.42-6.03 6.78 11.73 12.13 9.67 7.92 4.66-6.34v.02l11.23-17.27 31.77-32.07.13.26.02-.26z"/><path fill="#FB8CB8" d="M875.1 584.5l6.2 17.98-11.26 6.58-7.03 13.47-9.95 6.84-14.46 4.3-10.75-21.5-21.3 10.75-11.32 4.9-1.56-2.75h-3.5v1.96l-5.3 2.93-9.36-5.67 2.35-3.52-.97-2.54-2.35-.98-1.17-1.95h-.78l-3.13-2.92-2.73-5.47-5.92-3.7 6.1-6.65 1.14-.4 6.03 2.07c-.88 1.56-1.4 3.52-.58 4.95 2.48 4.35 6.77 7.48 10.77 10.5 2.22 1.7 4.88 2.95 7.62 3.43 2.93.5 6.05.26 8.93-.53 3.37-.9 6.7-2.34 9.47-4.46 3.4-2.6 6.3-5.9 8.67-9.46 1.73-2.6 2.66-5.66 3.42-8.68.73-2.9 1.08-5.93 1.04-8.93l-.26-18.93.8-3.7s.8-3.15 3.14-4.58c2.34-1.43 8.16-2.64 12.65-1.6 4.48 1.04 14.14 7.04 16.65 9.16l10.02 8.43 4.77 3.78 3.9 6.9z"/><path fill="#FB8CB8" d="M807.34 676.44c1.3-1.37 2.6-2.74 3.9-4.1.54.97 2.8 1.7 1.73 2.9-.9 1.3 1.3 1.9 2.3 1.27 1.06.12 3.15-1.1 1.9-2.1-1.15-.92-1.48-2.6-.5-3.77 1.34-1.2.3-2.2-.67-3.22-1.04-1-1.88-2-.45-3.07 1.06.77 2.18 2.04 2.93.24 1.95-2.23 3.9-4.46 5.86-6.7 1.8.88 3.53 2.1 5.63 2 1.48-.23 2.35.85 3.25 1.82 1 1 2.02 2 3.03 3.02-1.17.98-2.34 1.95-3.52 2.93 1.92.1 3.8.02 5.56-.8 1.44-.66 3.06-.26 4.6-.37.38-1.18.3-2.87.98-3.73 1.47.17 2.46-.42 2.94-1.82.85-1.7 2.2-3.03 3.5-4.4-3.83-7.66-7.65-15.3-11.47-22.94-.9-.43-1.2-2.24-1.88-3.18-3.04-6.08-6.08-12.16-9.12-18.24-7.63 3.78-15.15 7.8-22.86 11.42-3.26 1.4-6.5 2.8-9.77 4.2-.82-.88-.93-3-2.4-2.73-1.18.15-3.28-.64-2.67 1.28.1 1.36-1.97 1.43-2.8 2.23-1.14.37-2.3 2.03-3.4.82-2.56-1.55-5.12-3.1-7.68-4.64 2.42 2.85 5 5.6 7.32 8.52 1.93 4.06 2.38 8.6 3.52 12.9 2.97 12.96 5.93 25.9 8.9 38.85 2.13-.36 4.56.2 6.34-1.27 1.33-.92 3.14-1.76 4.58-.63 1.3 1.17 2.18.34 2.94-.9.85-1.03 1.7-2.04 2.54-3.06-1.7-.9-3.38-1.82-5.08-2.73z"/><path fill="#A4E9C1" d="M748.48 744.64c-1.74-5.98-3.2-12.1-5.1-18-4.04-5.9-8.08-11.82-12.12-17.73 2.4-.4 3.17-2.56 4.15-4.5-.34-1.88-2.1-4.1.38-5.27 2.6-2.6 5.2-5.2 7.8-7.8 3.42 1.78 6.84 3.56 10.25 5.35.47-3.03.93-6.05 1.4-9.08 3.02 1.63 6.05 3.26 9.08 4.9.4 2.24.78 4.5 1.17 6.74 7.53-2.56 15.06-5.12 22.58-7.68.73-1.62-.44-5.75 1.75-5.44 2.3.34 4.58.68 6.87 1-1.67-3.02 1.93-2.1 3.8-2.45 2.15-.66 4.4-3.33 6.72-1.43 2.1 1.67 2.98-2.18 4.5-3.2 1.72-1.7-2.9-2.2-3.96-3.4-.2-.96 2.75-3.74 3.76-4.05 2.98.93-.08 4.12 2.8 4.1 2.47.17 4.5-1.86 1.84-3.57-.78-2.08 2.72-3.75.22-5.28-2.47-1.3-1.4-4.93.93-2.3 1.54-.87 2.92-3.22 4.4-4.66 1.42-1.66 2.68-4.1 4.85-1.9 2.02 1.48 5.15 0 6.52 2.54 1.18 1.54 4.72 3.2 1.55 4.54-3.52 1.9.22 1.9 2.25 1.23 1.82-1.2 4.57-.4 6.1-1.17-.73-2.1 2.72-5.22 2.28-2.6-2 3.17-.86 7.13-1.3 10.7-.97 4.83-2.88 9.52-4.2 14.3-4.8 3.66-10 6.82-14.5 10.8-4.08 4.44-8.7 8.44-11.64 13.8-.92 1.82-2.97 3.68-3.22 5.48 4.67 6.28 9.33 12.55 14 18.82-7.42 8.5-14.67 17.2-22.18 25.58-7 4.96-14.3 9.63-21.07 14.77-1.58 2.53-2.74 5.5-4.57 7.75-2.85 1.27-5.7 2.54-8.53 3.82-6.1-13.68-12.04-27.48-18.4-41-.5-1.35-4.78-3.6-1.15-3.7z"/><path fill="#F85496" d="M910.85 644.4l-2.9 2.7c-2.67 2.5-4.04 6.63-4.66 10.23-.58 3.37-.48 6.96.46 10.25 3.13 11 12.03 14.64 22.12 16.08l-28.64 37.46-7.45 7.7-21.58 21.1-.57-.5-1.74-6.4-4.07-3.97-1.14-4.9-3.97-1.62-6.75.23-1.2 2.02-3.72-1.13-3.47-2.88-1.85 2.46 3.9 7.48-6.26 8.08-4.42-.32-2.1-5.48-2.22-2.9-3.36-2.6-15.13-18.9 6.75-10.5 9.3-9.77 13.52-9.77 4.2-13.5.22-9.3 1.57-3.15h.1l2.14-3.52 2.34-2.54-2.92-5.86 2.9 5.78 23.08-17.7 3.12-1.56 11.53-6.44 12.5-3.7 10.35 17.35z"/><path fill="#F72A7C" d="M1002.2 576.4l5.25-.66.97-1.36 2.7.68.2 1.36 7.08 10.26-2.8 12.6c-8.57-1.65-16.56.43-24.6 4.4l-2.1-4.03-1.82-1.7 2.14-7.04.7-1.42.04.05 1.67-3.46-8.38-5.1 3.4-4.48-4.54-7.12-3.95-3.25-3.46-.47-3.94-4.57 2.2-2.67-2.48-.86-15.86-15.77-5 3.12-2.07-4.28 6.32-5 3.48-6.1 4.34-25.6 13.3-.04 3.12 15.6 2.72-.53 10.48 5.78 5.7 5.62 2.1 14.25 3.06.28.53 14.28-2.05 4.96.22 7.5 1.4 5-.08-.23z"/><path fill="#F72A7C" d="M1011.13 568.76c1 .3 3.07-.06 1.96 1.5-.23 1.1-1.46 2.54.14 3.06-.43.45-1.68 1.93-2.67 1.6-1.16-.3-2.47-1-2.94.57-.9.63-2.34.37-3.45.65-1.3-.1-2.27 1.1-2.27-.62-.62-2-1.48-3.96-1.26-6.1.06-2-.32-4.1.02-6.04.53-1.53 1.53-2.96 1.78-4.53-.2-4.63-.38-9.25-.57-13.87-.9-.3-2.92.65-3-.58-.63-4.63-1.26-9.25-1.88-13.88-2.02-1.88-4.2-3.65-6.1-5.6.6-.35.82-2.1 2.35-1.65 1.55.28 1.5-1.35 1.96-2.38.58-1.98 1.75-3.87 1.32-6-.17-4.22-.34-8.46-.5-12.7 7.6.85 15.22 1.7 22.84 2.54 0-4.35-.02-8.7.02-13.05 1.6 1.63 2.93 3.55 5.08 4.47 2.5 1.54 5.2 2.88 7.56 4.55 1 1.27-1.54.98-2.26 1.5-1.3.38-2.6.77-3.9 1.15.95 3 1.9 6 2.82 9-1.86-.7-.75 1.18-.63 2.2 1.28 5.5 2.55 11 3.83 16.5-1.42.17-2.84.33-4.26.5-1.75 5.55-3.5 11.1-5.23 16.66-2.05-.42-4.08-.84-6.12-1.26-.34 4.6-.5 9.26-.95 13.83-1.23 2.66-2.46 5.3-3.7 7.96z"/><path fill="#F85496" d="M1015.62 599.13c9.2 2.56 14.58 10.66 17.7 22.47l4.07 15.43 9.3 10.86 7.08-.54-4.23-9.83 6.05-2 5.97 13.1 9.93-5.8 1.93 1.55.85-3 2.45.74 1.1-4.12 1.5.1.3-6.5 10.5 9.5 1.52.68 7.13-16.1-.68-5.26-3.05-5.94-2.04-2.88-16.78-12.38-13.06-4.58-5.42-5.1-2.38 1.54-2.2-3.4-7.3-1.35c-10.96 4.92-19.2 5.3-24.75 1.2l-3.05.72-2.43 10.88z"/><path fill="#F72A7C" d="M1042.67 643.18l-2.85 2-7.04-3.53-1.3 3.15-1.1 12.23-2.8.38-6.3-2.96-.74 3.52-3.7-1.3-18.74 4.98-3.33-14.43 5.93-1.1-.2-4.27 5.2-1.67.93-34.48 1.86-.38-1.23-6.5c2.72-.2 5.5-.07 8.32.48l.65-2.96-.63 2.8c9.2 2.57 14.58 10.67 17.7 22.48l4.07 15.43 5.27 6.15z"/><path fill="#F85496" d="M998.08 661.64l-3.28.95-.6-1.86-5.74-1.1-.74 4.07-12.05-4.44-1 2.86-2.26-1.2-5.83 8.16-2.95 4.1-2.6 4.06.56 1.12-3.34 3.9-5.55-.68-.04-.04-5.07-5.93v-.02l4.3-3.14 12.92-19.27 6.63-14.88 2.24-4.64 3.57-5.07 4.48-3.9 1.87-2.7 2.45-9.67 1.72-5.47 3.2-3.17c5.58-2.78 16.23-5.1 16.27-4.9l.2 1.02 1.02 5.48-1.87.38-.93 34.48-5.2 1.67.2 4.27-5.93 1.1 3.3 14.44z"/><path fill="#F72A7C" d="M1048.4 513.54c-3.25-1.22-6.5-2.45-9.76-3.68-.78-.15-2.16-1.43-3.18-2-1.43-.88-1.62-2.83-2.5-4.17-.34-.7-1.63-3.37-1.34-2.77.43 1.13-2.2.92-3.04 1.5-.87.58-3.44.27-3 1.56.86 2.8 1.73 5.58 2.6 8.38-2-.7-.56 1.56-.53 2.62 1.24 5.36 2.5 10.72 3.73 16.08-1.42.16-2.84.32-4.26.48-1.75 5.56-3.5 11.1-5.23 16.67-2.05-.42-4.08-.84-6.12-1.26-.34 4.6-.48 9.27-.96 13.85-1.23 2.65-2.46 5.3-3.7 7.94 1.3.2 3.1.1 1.87 1.8-.8 1.23-.6 2.45.2 2.98-.85.66-3.14 1.98-.74 1.34 1.44.1 2.46-.52 3-1.87 2.1-2.97 4-6.15 6.23-9 3.22-2.78 6.45-5.55 9.68-8.33 7.54-.87 15.1-1.75 22.63-2.62.45-2.6.9-5.2 1.34-7.8 5.17-3.88 10.34-7.76 15.5-11.64 1.38 1.03 2.74 2.05 4.1 3.07 2.98-3.83 5.97-7.66 8.95-11.5-11.84-3.87-23.66-7.75-35.5-11.63z"/><path fill="#F85496" d="M1116.07 541.3l-3.74-8.18-5.75-5.92-7.87-.84v-.2l-14.14-.76-.67-.22-8.96 11.5-4.08-3.07-15.52 11.65-1.32 7.8-22.64 2.62-10 8.6-7 10.34-3.2.43-.05.03.2 1.36 7.07 10.27-.35 1.55 3.06-.73c5.55 4.13 13.8 3.73 24.77-1.2l7.3 1.37 2.2 3.38 2.37-1.53 5.4 5.06 2.97-3.65-2.84-10.08 1.7-4.2h11.23l4-3.22 1.5-3.24.2-3.98 4.56-9.7 3.62-2.66 5.9 5.7 20.1-18.25z"/><path fill="#F72A7C" d="M919.45 544.8l28.52-4.5 1.95 4.7 4.7-3.32L970 557.1l3.14 1.18-2.34 2.73 3.9 4.7 1.96-1.37 5.85 5.08 4.36 7.06c-1.76 2.34-.34.77-3.25 4.47l8.17 5.23-1.86 3.37-1.18-1.76-5.07-1.56-.58 1.57h-.98l-.97-.4-2.35 1.18-.2-1.17-2.92.58-12.9-6.25-.38 1.38-5.86-3.9-.78 5.85-8.8.2-2.92 5.47-.6.58-1.77.14c-.06-.1-.12-.22-.18-.33-.56-1-3.37-1.8-5.48-2.15-.64-.18-1.3-.3-1.94-.2-4.4.06-8.8 1.1-12.9 3.32-2.16.92-3.67 2.95-5.46 4.5-2.9 2.48-5.48 5.38-8.6 7.6-2.2 1.58-4.6 3.07-7.22 3.7-3.3.83-6.77.64-10.16.6-1.64-.02-2.88-.7-4.1-1.8l-4.5-4.05s-5-13.38-7.55-19.74c-2.54-6.36-2.64-5.2-2.64-5.2l8.48-6.33-.02-.03.78-.46 2.07 4.12 9.27-6.6 9.07-15.46 11.14-7 7.63-1.04v-.1l.08.02z"/><path fill="#F72A7C" d="M947.6 675.58l4.3-3.14 13.3-19.1 6.25-15.05 2.24-4.64 3.57-5.07 4.48-3.9 2.23-2.52 2.1-9.85 2.08-4.92 2.83-3.72-2-4.58-1.7-2.3-6.42-1.96-1.7 4.83-3.24-.42-.34 4-5.53-1.45-11.04 2.8.8 2.28-3.2 1.3-.95-2.82-3.97-.85-8.2 2.53c0 .02-.02.05-.03.07-2.25 5.88-4.52 11.82-7.8 17.2-1.93 3.13-4.6 5.88-7.63 8l-17.18 12.1-2.9 2.7c-2.68 2.5-4.05 6.63-4.67 10.23-.58 3.37-.48 6.96.46 10.25 3.13 11 12.03 14.65 22.12 16.08l-8.9 11.62 8.87-11.6c7.2-.8 14.38-3.45 21.6-8.25l.14.18v-.02z"/><path fill="#F72A7C" d="M989.4 590.9l-1.8 6.34-6.68-2.2-1.74 4.63-3.24-.42-.34 4-5.53-1.45-11.32 3.06 1.97 2.9-4.6 1.14-.8-3.1-3.52-1.2-8.3 2.43c.4-1.14.24-2.43.17-3.64-.12-2.1-.32-4.2-.68-6.26-.34-1.9-.46-3.98-1.3-5.72l1.77-.14.6-.58 2.92-5.47 8.78-.2.78-5.86 5.86 3.9.4-1.36 11.88 4.62 4.2.05.35 1 1.36-1.03 3.2-.32 1.33-4.18 6.97 3.87-2.7 5.2z"/><path fill="#66DA97" d="M949.1 1104.2l-10.34 1.43-4.52-2.97-9.3 10.58-6.18 1.8-5.68-1.54-.95 3.74 10.13 6.25-1.9 7.9-5.05-.4-.83 3.23-6.47-.22-.87 1.05-8.63-3.4-1.78 5.13-3-.92.3-8.97 2.93-1.14 2.74-.72 1.12-5.6 2.84-7.75-4.9-6.98-3.5-4-5.67-3.6-10.6-2.6-.77-7.1-4.38-3.6-14.98 1.55-2.06-5.68-7.48 2.3-3.48-5.4-5.16-.4-6.7 1.68-4.4 6.07-2.7.38-2.85-1.42.9-9.4-2.97-2.46 1.68-10.45 15.62-6.6 3.6 1.8 25.05-11.47 3.5-6.84 20.5-19.37 14.2 4.5 3.1.53h5.94l6.84-8.9 1.55-3.88 5.68 3.5-.38 7.34 2.46 1.04 13.16.9 3.74 4.13.26 5.02 2.32.52 13.68-15.62-1.93 19.1-.9 6.2-3.74 16.9 3.5.4-3.5 23.48-4.64-1.8-.9 13.03 9.4 9.9 4.53 8.42 3.16 4.5 7.95 8.02-1.8 6.9 8.8 6.06-1.88 4.3 2.02 3.8-5.04 4.2-.13 2.43-5.7 5.66-2 .5-1.73-2.95-2.5 1.88 1.35 2.55-.67 2.82-25.56-17.75z"/><path fill="#17B65A" d="M1169.52 724.4l1.8 1.93 2.33-1.3 1.67 4.27 5.3 4.64 6.2 3.5 2.3-1.3 13.18 4.25 3.22-1.17 4 5.3 4.52-3.88 12.4 4.13 3.86-15.1s-3.1-2.06-6.2-1.8c-3.1.25-7.74 1.67-9.8 2.96-2.07 1.3-2.07 1.42-2.07 1.42l-4.5-3.87.25-3.36 2.84.13 5.54-37.95-16.9-3.22-8.26-17.17-33.17 15.62-2.32 5.3 13.82 36.64z"/><path fill="#66DA97" d="M1251.34 593l8.26 1.82-2.7 4.26 1.28 5.16 18.45-6.7.65-48.28v-8.13l3.37-5.9-4.8-2.88-1.54-25.3-2.96.52-6.45 5.8-6.46-6.96-6.46-.37v1.93l-5.54.13-.65 1.15-1.7.13-.12-1.3-20.65 1.04.13 45.7.4 5.54-2.46 6.06 1.16 3.75 2.7-1.04 7.1 2.07 22.98 6.45-4 15.36z"/><path fill="#17B65A" d="M1223.2 509.38l20.27-1.55.64 1.55 1.95-.13.4-1.3h5.53l-.25-2.18 6.7.5 6.46 6.72 6.44-5.55 2.7-.4-1.92-30.2-2.58 2.33-41.43.4.65 19.35-7.48.13-.13 10.32h2.06z"/><path fill="#17B65A" d="M898.48 250.97l24.64-4.38 4.56-18.26 2.37-33.58h8.22l-1.83-8.58 4.75-1.1v-10.03l-7.86.73-1.1-21.17 22.27 3.1s1.65-5.28-.17-9.3c-1.83-4.02-2.56-4.72-2.56-4.72l-5.1 1.62-3.67-3.08-21.16 11.84-6.94-12.96-13.14 7.85 6.03 17.88-29.03 7.3 19.7 76.84z"/><path fill="#FB8CB8" d="M1038.4 421.1l-15.23-9.03.5-4.64-3.6.5-3.23-1.54-.13-7.75 5.43 3.1-1.55-16.9-11.87.38-1.8-24.52-6.7-4.12.77 9.3-9.8 19.1-19.63-2.08-4.64 2.07.13 4.13-2.97-.26-.26-2.58-3.1 2.84 4.9 8.52-10.96 5.68-.9 6.7 3.1 2.85 10.44-1.55-.25-5.42 12 13.16 2.2 27.88 12 13.94 4.9 9.03 18.58 20.38 2.2 1.03 6.72-46.58 12.77-23.6z"/><path fill="#A4E9C1" d="M498.16 76.13s4.5-.4 5.68.4c1.18.78.18 2.33 1.68 3.35s6.55-.07 8.25.77c1.7.85 2.65 1.7 2.97 3.23.32 1.52-1.93 5.68-1.93 5.68l3.1 2.2 2.26.25 3.26 2.7 7.65-1.8 2.2-1.1 2.44 3.05.66 4.64 2.38 1.06 10.53 13.78-1.55 2.2 11.48 3.22 5.94-1.68.13-1.16-6.33-.13.03-6.15 2.7-1.35 2.66-19.16 3.7-1.93-4.3-3.3-.27-5.8-1.98-4.95-10.02 1.47-1.62-1.35 6.65-6.78 2.32-3.88-17.04-13.43 2.45-3.62-6.7-4.4-2.72 2.85-14.83-10.45-.52 2.32s-3.18-.77-4-.64c-.8.12-.97.04-1.3.64-.3.6.4 3.1.4 3.1s.6 2.7 1.42 2.84c.8.14 1.08-1.23 1.68-1.55.6-.33 1.7-.74 2.2-.53l2.83 1.42.77 1.67-.25 2.06-1.17 1.9s-1.9-.9-2.45-1c-.53-.07-1.3.78-1.3.78s-1 2-1.28 2.2c-.3.2-2.97-2.32-2.97-2.32s-2.37-1.27-3.74-1.55c-1.38-.27-5.3 0-5.3 0l-6.97-2.58-3.1 1.04 5.55 16.76-2.32 14.97z"/><path fill="#A4E9C1" d="M497.77 76.13l2.84-16-5.54-15.87 2.58-1.04 7.1 2.6 6.58.1 2.47 2.73s.7.48 1.5.9c.78.43 1.5.9 1.97.52.47-.4 1.08-2.67 1.8-2.97.7-.3 1.2 1.08 1.93 1.16.75.07 1.53-.35 2.07-1.16.53-.82.47-2.7.26-3.5-.22-.78-.78-1.54-.78-1.54l-1.94-1.42-1.66-.38s-1.02.53-1.42.9c-.4.37-.63 1.48-1.16 1.55-.54.08-.78-.17-1.3-1.02-.5-.86-1.52-4.02-.9-4.9.62-.9 1.43-.4 2.2-.4.77.02 2.84.65 2.84.65l.5-2.45L497 18.83l-.4-4.9-3.47-4.13-5.04 1.93-9.95-5.54-5.3 9.8-13.67 5.93 2.2 5.68-4.52 1.7s1.13 5.25 2.45 6.3c1.33 1.07 3.03.32 4.14.78 1.12.47 2.34 1.54 2.97 2.33.65.8.46 2.05 1.3 2.72.84.67 2.45.4 3.5 0 1.03-.4 1.64-1.52 2.44-2.07.8-.55 1.8-1.65 2.97-1.67 1.17-.03 3.36 1.54 3.36 1.54s2.54 1.76 3.36 2.84c.82 1.1 1.93 4.26 1.93 4.26s-4.54 1.16-5.16 2.45c-.63 1.3.22 2.9.9 3.75.67.83 2.96 1.42 2.96 1.42s4.97 10.28 5.55 13.16c.6 2.88-.46 4.1 0 5.3.48 1.17 1.36 1.77 2.2 2.3.86.56 3.36 1.18 3.36 1.18l2.7.25z"/><path fill="#A4E9C1" d="M451.05 89.7l4.78 5.66 6.58 4 14.85 6.6 18.46 5.67.14-.78 2.7-10.7 2.56 1.4 1.8-1.12 2.74.87 2.47-3.25-2.7-2.43 2.57-6.06 6.84-.26s2.1-4.18 1.8-5.68c-.28-1.5-1.03-2.42-2.7-3.23-1.66-.82-6.52.75-8.13-.26-1.6-1.02-.77-3.24-2.06-4-1.3-.78-5.54.12-5.54.12s-4.5-.82-5.8-1.55c-1.33-.7-2.54-1.53-2.98-2.7-.43-1.16.4-1.4 0-4.25-.4-2.87-5.42-13.8-5.42-13.8s-2.58-.84-3.1-1.82c-.5-.98-1.3-2.05-.77-3.1.53-1.04 5.02-3.1 5.02-3.1l-1.93-4.77-3.8-2.17-15.96 31.33-7.35 13.42-5.05 5.94z"/><path fill="#A4E9C1" d="M495.7 111.75l4.14 1.68-.64 3.65-1.64-.76-1.44 1.1-1.85-.4-.7 2.04 1.88-.34-1.03 7.23-3.73 3.57.75 4.3 4.26 3.5 1.43 5.4 2.58.78 4.27-.77.5-1.42 2.6-.12-1.3 5.16 3.23.9-2.84 6.72 1.68 2.96-1.94 4.65-3.6-1.55-6.72 2.7-3.1-2.44-5.3 1.42-2.3-3.23 2.63-7.67-19.4-7.03.63 6.3-5.68-1.66 1.42-2.06-1.54.13.9-5.55-2.8-2.38-8.82 2.12-2.83-1.3.78-1.92-4.4-3.62-.82 5.14-3.7.03s-1.24-.65-2.02-.65c-.76 0-1.7 0-1.7 0l-1.84-3.68-6.42-.4.6-3.67-6.57 1.6-2.03 1.62-4.52-4.5 2.02-4.6-2.8-4.2 3.36-26.2-2.96-11.35.54-13.7 4.36-1.65-1.37-2.08 2.54-2.87 3.62.3-5.12-11.4 2.78-1.36s15.67 25.46 20.27 31.48c4.6 6.03 6.4 7 8.26 9.17C454.1 93 456.48 96 456.48 96s11.45 5.96 17.43 8.4c5.97 2.44 22.45 7.6 22.45 7.6l-.64-.25z"/><path fill="#66DA97" d="M478.13 894.33l1.2-.2 4.17-3.17 2.8-5.2 2.52-2.7 3.43-3.5 9.62-5.55 7.1-10.18 4.05 2.4s-3.5 8.1-3.37 8.46c.54 1.92-2.5 8.54-2.5 8.54s.9 8.55.9 6.3l2 3.5.58 3.4-.77 3.87-5.28 3.04 2.62 5.96-.05 3.33-3.6 1.96-3.88-1-12.3-14.46-6.46 5.4 2.2 3.56-.18 4.6 2.97 3.4 2.95 3.38 2.97 3.4 2.96 3.37-4.3-3-4.3-3-4.32-2.98-4.3-3-2.53-.85-2.83.95-2.56-1.1-5.97 4.32-2.62-3.54-1.37-3.86 11.08-8.17 3.46-5.32 3.08-.48.83-1.9zM541.58 963.7l2.78-1.98 1 .2 77.46-36.15-2.78-2.38 1.6-1.6-2.4-1.4-2.18.6-1-.8.6-.6.2-4.76-3.97-1.2.2-4.36 3.17-3.97 1.98 1 1.4-.6-1-1.2 3.58-2.77-.2-2.98.6-3.77-2.2-1.2-.6-1.58h-2.57V891h-1.4l-.4-1.18-2.37-1 .98-1.4-2.78-3.37-5.96.2-3.18-1.98-3.37 4.17v3.38l-3.4 2.58.2-1.6-4.76-3.37-.8-.4-5.36 3.18-5.76.2 3.78-6.54h-1.2l.8-2.4h-1.6l-2.77 6.77-6.16-6.16h-1.6l-4.56 5.56-7.34 5.96-2.58-7.36.8-2.58-8.94 3.97-7.75 6.75 7.14 8.35-5.36 3.57-.4 8.35-1.6 3.37-4.16 2-3.78 11.5-5.56 5.37 2.98 10.32-5.56 1.4v10.52l5.76-2.38h3.38l1.2 4.37 7.74 2.58z"/><path fill="#A4E9C1" d="M1311.9 437.45l-2.42.8-.45.15-.48.16-1.24.4.3.88-.46.2.06.1-.2.03v-.06l-2.43 1v.07l.06.12-.35.08-4.55 1.75.07.18-2.84 1.3h-.06l-.12-.05-.57-.22-.32-1.1-2 .9-.12.02.18.42.47 1.14.08.1v.07l-1.04 1 .07.94-5.46 2.65-8.92 6.7-.1.65 5.28 6.4-1.15 2.3 1.7 1.9.3-.25.27.27.75-.63 1.1-.28 4.75 5.18.14-.13.3 1.33 2.67-1.65 2.37-1.5.3-.17-.8-1.93v-.02l.3-.33 1.77-.26 1.4 3.03.55-.25 3.1 7.05h1.05l5.68-4.7-1.4-3.14 4.25-2.1.07-4.38 4.02-1.53 1.62-.1 1-2.2.82-1.85-.3-.6.53-1.47 1.25-.26v-.57l1-.96.27-.43.3-.56 2.47-2.62h1.48l1.02 1.06.9-.8 1.28 1.28.32.6.9.42.53.66 2.62.27.8.48 1.24 1.3 1.64.65 1.3.36.74.07.78.18h.72l.9-.3 1.84-1.8.58-1.2-.2-2.2-.24-1.2-.8-1.64-.8-.85-1.33-.88-6.07-1.82v-.22l-2.7-.66-.6-.14-1.2-.3-.58-1.3-.44-.95-3.47.28-1.03 1.42-.06-.1-.35-.73-2.33 1.1-1.95.76-1.06-.16-.8-.65-.8-1.66-.24.02-2.18.42-2.54.8-.67.2h-.06l-.23-.65z"/></g></g></svg>