<svg id="Слой_1" data-name="Слой 1" xmlns="http://www.w3.org/2000/svg" viewBox="0 0 96.26 26.65"><defs><style>.cls-1{fill:#ab5160;}</style></defs><title>Монтажная область 9</title><path class="cls-1" d="M28.57,0c-1.95,3.92-3.87,7.86-5.86,11.76a3.11,3.11,0,0,0,0,3.11c1.82,3.53,3.58,7.11,5.36,10.67.15.3.28.62.48,1.06H1c-.35,0-.69,0-1,0V0ZM23.93,23.78c-.22-.52-.35-.89-.53-1.24-1.31-2.63-2.61-5.26-3.95-7.88a2.69,2.69,0,0,1,0-2.66c1.41-2.76,2.78-5.54,4.16-8.31.11-.24.2-.48.32-.79H2.85V22.68c0,1.1,0,1.1,1.07,1.1h20Z"/><path d="M62.37,18.55V8.26c1.83,0,3.61-.11,5.38,0a2.54,2.54,0,0,1,2.19,2,2.39,2.39,0,0,1-.86,2.77,2.8,2.8,0,0,1,1.3,3.29,2.58,2.58,0,0,1-2.29,2.17C66.21,18.66,64.32,18.55,62.37,18.55Zm2.75-2.19A18,18,0,0,0,67,16.24a.82.82,0,0,0,.74-1,1.47,1.47,0,0,0-.81-.91,7.29,7.29,0,0,0-1.82,0Zm0-4.14a6.44,6.44,0,0,0,1.66,0,1.32,1.32,0,0,0,.78-.82c.12-.5-.24-.87-.77-.92s-1.09,0-1.67,0Z"/><path d="M41,15.14l2.83,3.55c-1.18,0-2.21,0-3.23,0-.17,0-.37-.28-.5-.47-.6-.79-1.17-1.6-1.77-2.38a5.1,5.1,0,0,0-.77-.65v3.47H34.89V8.25c1.85,0,3.67-.13,5.46,0A2.9,2.9,0,0,1,43,10.91a3.58,3.58,0,0,1-1.63,4ZM37.6,13c.63,0,1.16,0,1.69,0a1.08,1.08,0,0,0,1.1-1.06,1,1,0,0,0-.9-1.22,14.86,14.86,0,0,0-1.89,0Z"/><path d="M89,8.17h7.28v2.5H91.68v1.57h4.25v2.34H91.69v1.54h4.57v2.54H89Z"/><path d="M49.94,8.16h2.68c0,.24.06.47.06.7,0,2,0,4.06,0,6.09a3.65,3.65,0,0,1-3.48,3.86A4.92,4.92,0,0,1,46,18.23a3,3,0,0,1-1.67-2.48c-.06-2.51,0-5,0-7.57H46.9c0,.29.05.57.05.85,0,1.92,0,3.85,0,5.77,0,1.12.48,1.6,1.53,1.58s1.45-.49,1.45-1.57C50,12.62,49.94,10.44,49.94,8.16Z"/><path d="M80.3,18.71a24.26,24.26,0,0,1-2.44,0,1,1,0,0,1-.63-.63c-.54-1.46-.52-1.48-2.08-1.47s-1.15-.21-1.57,1.21c-.22.72-.51,1-1.27.93a16.9,16.9,0,0,0-1.89,0c.09-.33.13-.53.2-.72,1.07-3.08,2.16-6.14,3.21-9.23a.81.81,0,0,1,.92-.64c1.77,0,1.77,0,2.37,1.64,1,2.71,1.95,5.43,2.93,8.14C80.13,18.12,80.19,18.35,80.3,18.71Zm-4.89-7.33h-.15l-.68,2.75h1.47Z"/><path d="M80.17,16.89l1.52-1.4c.74.29,1.38.6,2,.8a1.6,1.6,0,0,0,1-.1,1,1,0,0,0,.49-.63.78.78,0,0,0-.39-.61,13,13,0,0,0-1.75-.51,3.32,3.32,0,0,1-2.84-3.12,3,3,0,0,1,2.57-3.19,4.46,4.46,0,0,1,4.83,1.59l-1.54,1.19a15,15,0,0,0-1.91-.7.94.94,0,0,0-1.22.64c-.17.66.31.9.82,1.06s.88.22,1.32.32C87,12.7,88,13.71,88,15.39a3.33,3.33,0,0,1-2.78,3.26A4.49,4.49,0,0,1,80.17,16.89Z"/><path d="M61.07,9.72c-.23.18-.47.36-.68.55-.56.5-1.06.9-1.83.22a1.83,1.83,0,0,0-1.36-.23,1.18,1.18,0,0,0-.8.72c-.06.21.29.68.57.81a8.51,8.51,0,0,0,1.61.45c2.14.54,3.16,1.95,2.73,3.9a3.36,3.36,0,0,1-2.66,2.5,4.42,4.42,0,0,1-5-1.76l1.5-1.41c.68.29,1.29.57,1.93.8a1,1,0,0,0,.7,0,6.36,6.36,0,0,0,1-.69c-.25-.28-.45-.66-.76-.8a7,7,0,0,0-1.47-.38c-2.09-.5-3.25-2.21-2.71-4.08A3.14,3.14,0,0,1,54.6,9,4.53,4.53,0,0,1,61.07,9.72Z"/><path class="cls-1" d="M14.37,15.48l3.85,4.83c-1.52,0-2.85,0-4.17,0-.22,0-.48-.3-.65-.52-.88-1.18-1.72-2.38-2.62-3.55a2.84,2.84,0,0,0-.81-.5,2.85,2.85,0,0,0-.28.82c0,1,0,2.08,0,3.13,0,.48-.18.67-.66.65-.78,0-1.56,0-2.33,0-.4,0-.59-.12-.58-.55q0-6.73,0-13.47A1.68,1.68,0,0,1,6.22,6C7.4,6,8.59,6,9.79,6a23.92,23.92,0,0,1,3.28.1c3.43.49,4.43,2.89,4,5.86C16.79,13.69,16.44,14.08,14.37,15.48ZM9.65,11c0,2.06-.22,1.71,1.73,1.75a4.56,4.56,0,0,0,.64,0,1.7,1.7,0,0,0,1.67-1.78,1.67,1.67,0,0,0-1.8-1.63h-.56C9.65,9.27,9.65,9.27,9.65,11Z"/></svg>