<svg id="Слой_1" data-name="Слой 1" xmlns="http://www.w3.org/2000/svg" viewBox="0 0 87.59 22.91"><defs><style>.cls-1{fill:#25b8ec;}.cls-2{fill:#434343;}</style></defs><title>Монтажная область 11</title><path class="cls-1" d="M7.62,11.18A1.64,1.64,0,0,0,7.07,9.9,5.37,5.37,0,0,0,5.16,9,10.83,10.83,0,0,1,1.57,7.3,3.21,3.21,0,0,1,.35,4.63,3.34,3.34,0,0,1,1.74,1.86,5.68,5.68,0,0,1,5.31.79,5.27,5.27,0,0,1,8.89,2a3.68,3.68,0,0,1,1.33,3V5H7.62A2.06,2.06,0,0,0,7,3.48a2.43,2.43,0,0,0-1.74-.59,2.48,2.48,0,0,0-1.65.49A1.58,1.58,0,0,0,3,4.64a1.36,1.36,0,0,0,.63,1.15,8.44,8.44,0,0,0,2.16,1A8.4,8.4,0,0,1,9.15,8.42a3.53,3.53,0,0,1,1.14,2.74A3.31,3.31,0,0,1,8.94,14a5.77,5.77,0,0,1-3.57,1,6.29,6.29,0,0,1-3.79-1.16A3.66,3.66,0,0,1,0,10.56l0-.06h2.6a2.15,2.15,0,0,0,.73,1.81,3.19,3.19,0,0,0,2,.57A2.62,2.62,0,0,0,7,12.42,1.54,1.54,0,0,0,7.62,11.18Z"/><path class="cls-1" d="M15.27,2V4.53h1.66V6.47H15.27v5.22a1.27,1.27,0,0,0,.23.85.86.86,0,0,0,.65.26,1.86,1.86,0,0,0,.36,0,1.9,1.9,0,0,0,.35-.08l.23,2a4.87,4.87,0,0,1-.79.21,4.35,4.35,0,0,1-.83.07,2.82,2.82,0,0,1-2.13-.78,3.53,3.53,0,0,1-.75-2.49V6.47H11.15V4.53h1.44V2Z"/><path class="cls-1" d="M24.45,14.78a5.88,5.88,0,0,1-.26-.74,5.37,5.37,0,0,1-.15-.8A3.69,3.69,0,0,1,23,14.48a2.63,2.63,0,0,1-1.61.49A3.27,3.27,0,0,1,19,14.15a3,3,0,0,1-.85-2.26,2.75,2.75,0,0,1,1.12-2.34,5.49,5.49,0,0,1,3.28-.83H24V7.91a1.64,1.64,0,0,0-.38-1.15,1.73,1.73,0,0,0-2.11-.08,1.2,1.2,0,0,0-.35.91H18.58V7.52a2.65,2.65,0,0,1,1.09-2.24,4.63,4.63,0,0,1,3-.94,4.33,4.33,0,0,1,2.88.93,3.28,3.28,0,0,1,1.11,2.66v4.23a8.44,8.44,0,0,0,.1,1.36,7.36,7.36,0,0,0,.34,1.26ZM22,12.93a2.26,2.26,0,0,0,1.26-.36,1.92,1.92,0,0,0,.74-.83V10.29H22.51a1.71,1.71,0,0,0-1.29.44,1.42,1.42,0,0,0-.44,1.06,1.1,1.1,0,0,0,.33.83A1.27,1.27,0,0,0,22,12.93Z"/><path class="cls-1" d="M33.91,6.9l-1,0a1.74,1.74,0,0,0-1,.25,1.54,1.54,0,0,0-.58.72v6.93H28.7V4.53h2.48L31.3,6a3.23,3.23,0,0,1,.9-1.25,2,2,0,0,1,1.28-.45,2.13,2.13,0,0,1,.37,0l.34.08Z"/><path class="cls-1" d="M38.69,2V4.53h1.66V6.47H38.69v5.22a1.27,1.27,0,0,0,.23.85.86.86,0,0,0,.65.26,1.86,1.86,0,0,0,.36,0,2.1,2.1,0,0,0,.35-.08l.23,2a4.87,4.87,0,0,1-.79.21,4.35,4.35,0,0,1-.83.07,2.82,2.82,0,0,1-2.13-.78A3.53,3.53,0,0,1,36,11.7V6.47H34.57V4.53H36V2Z"/><path class="cls-1" d="M51.48,3.12H47.71V14.78H45V3.12H41.29V1H51.48Z"/><path class="cls-1" d="M57.26,6.9l-1,0a1.72,1.72,0,0,0-1,.25,1.62,1.62,0,0,0-.59.72v6.93H52.05V4.53h2.48L54.65,6a3.23,3.23,0,0,1,.9-1.25,2,2,0,0,1,1.28-.45,2.22,2.22,0,0,1,.37,0l.34.08Z"/><path class="cls-1" d="M64.42,14.78a5.85,5.85,0,0,1-.25-.74,5.37,5.37,0,0,1-.15-.8,3.83,3.83,0,0,1-1.09,1.24,2.6,2.6,0,0,1-1.6.49,3.28,3.28,0,0,1-2.4-.82,3,3,0,0,1-.84-2.26,2.73,2.73,0,0,1,1.12-2.34,5.48,5.48,0,0,1,3.27-.83H64V7.91a1.64,1.64,0,0,0-.37-1.15,1.44,1.44,0,0,0-1.11-.4,1.4,1.4,0,0,0-1,.32,1.16,1.16,0,0,0-.35.91H58.56V7.52a2.62,2.62,0,0,1,1.09-2.24,4.58,4.58,0,0,1,3-.94,4.34,4.34,0,0,1,2.89.93,3.28,3.28,0,0,1,1.11,2.66v4.23a8.44,8.44,0,0,0,.1,1.36,7.32,7.32,0,0,0,.33,1.26ZM62,12.93a2.21,2.21,0,0,0,1.25-.36,1.8,1.8,0,0,0,.74-.83V10.29H62.48a1.71,1.71,0,0,0-1.29.44,1.46,1.46,0,0,0-.44,1.06,1.1,1.1,0,0,0,.33.83A1.29,1.29,0,0,0,62,12.93Z"/><path class="cls-1" d="M72.83,12.84a1.47,1.47,0,0,0,1.58-1.57h2.42l0,.06a3.26,3.26,0,0,1-1.13,2.6,4.67,4.67,0,0,1-6.31-.4,5.66,5.66,0,0,1-1.2-3.73V9.52A5.7,5.7,0,0,1,69.41,5.8a4.15,4.15,0,0,1,3.41-1.46,4.1,4.1,0,0,1,3,1.08,3.68,3.68,0,0,1,1.08,2.84l0,.06H74.41A2.09,2.09,0,0,0,74,7a1.41,1.41,0,0,0-1.17-.52,1.53,1.53,0,0,0-1.49.85,4.82,4.82,0,0,0-.44,2.19V9.8A4.82,4.82,0,0,0,71.33,12,1.56,1.56,0,0,0,72.83,12.84Z"/><path class="cls-1" d="M81.78,10.48h-.73v4.3H78.38V0h2.67V8.38h.66L84,4.53H87.1L83.93,9.17l3.66,5.61H84.52Z"/><path class="cls-2" d="M7.81,18.59h.84v3.24H7.81v-2h0l-1,2H5.92V18.59h.85v2h0Z"/><path class="cls-2" d="M12,21.83h-.84V20.58h-1v1.25H9.27V18.59h.85V19.9h1V18.59H12Z"/><path class="cls-2" d="M12.68,21.83V18.59H14a1.78,1.78,0,0,1,1,.23.75.75,0,0,1,.35.67.61.61,0,0,1-.15.41.87.87,0,0,1-.41.27,1.06,1.06,0,0,1,.54.27.67.67,0,0,1,.18.47.8.8,0,0,1-.33.69,1.69,1.69,0,0,1-1,.23Zm.84-1.92H14a.53.53,0,0,0,.34-.08.25.25,0,0,0,.12-.23.28.28,0,0,0-.12-.25.6.6,0,0,0-.36-.09h-.47Zm0,.57v.69h.67a.5.5,0,0,0,.33-.09.31.31,0,0,0,.11-.25.33.33,0,0,0-.11-.26.5.5,0,0,0-.33-.09Z"/><path class="cls-2" d="M17.37,21.89a1.43,1.43,0,0,1-1.09-.44,1.66,1.66,0,0,1-.4-1.15v-.12A1.86,1.86,0,0,1,16.26,19a1.27,1.27,0,0,1,1-.46,1.25,1.25,0,0,1,1,.4A1.56,1.56,0,0,1,18.63,20v.48H16.76v0A.82.82,0,0,0,17,21a.63.63,0,0,0,.5.21,1.51,1.51,0,0,0,.46-.06,2.34,2.34,0,0,0,.41-.18l.23.54a1.58,1.58,0,0,1-.5.27A2.17,2.17,0,0,1,17.37,21.89Zm-.08-2.69a.45.45,0,0,0-.37.19,1,1,0,0,0-.17.49H17.8v-.07a.69.69,0,0,0-.13-.45A.45.45,0,0,0,17.29,19.2Z"/><path class="cls-2" d="M20.43,21.22a.53.53,0,0,0,.37-.14.48.48,0,0,0,.13-.36h.77v0a1,1,0,0,1-.36.82,1.33,1.33,0,0,1-.92.33,1.35,1.35,0,0,1-1.08-.45A1.82,1.82,0,0,1,19,20.26v-.09A1.82,1.82,0,0,1,19.35,19a1.3,1.3,0,0,1,1.08-.46,1.25,1.25,0,0,1,.93.34,1.15,1.15,0,0,1,.35.9v0h-.77a.64.64,0,0,0-.13-.42.45.45,0,0,0-.37-.17.48.48,0,0,0-.47.27,1.55,1.55,0,0,0-.14.7v.09A1.55,1.55,0,0,0,20,21,.49.49,0,0,0,20.43,21.22Z"/><path class="cls-2" d="M24.84,19.26h-1v2.57H23V19.26H22v-.67h2.84Z"/><path class="cls-2" d="M27.16,18.59H28v3.24h-.84v-2h0l-1,2h-.85V18.59h.85v2h0Z"/><path class="cls-2" d="M28.62,18.59h.84v2.57h1V18.59h.85v2.57h.45V22.9H31V21.83H28.62Z"/><path class="cls-2" d="M34.11,18.59H35v3.24h-.85v-2h0l-1,2h-.84V18.59h.84v2h0Z"/><path class="cls-2" d="M35.46,20.18A1.79,1.79,0,0,1,35.85,19,1.51,1.51,0,0,1,38,19a1.75,1.75,0,0,1,.4,1.19v.06a1.71,1.71,0,0,1-.4,1.19,1.33,1.33,0,0,1-1.08.46,1.35,1.35,0,0,1-1.09-.46,1.76,1.76,0,0,1-.39-1.19Zm.84.06a1.44,1.44,0,0,0,.15.71.52.52,0,0,0,.49.27.51.51,0,0,0,.48-.27,1.44,1.44,0,0,0,.15-.71v-.06a1.43,1.43,0,0,0-.15-.7.55.55,0,0,0-1,0,1.32,1.32,0,0,0-.16.7Z"/><path class="cls-2" d="M41.65,21.83H40.8V20.58h-1v1.25h-.85V18.59h.85V19.9h1V18.59h.85Z"/><path class="cls-2" d="M45,21.83h-.84V20.58h-1v1.25h-.85V18.59h.85V19.9h1V18.59H45Z"/><path class="cls-2" d="M47.47,21.83a1.55,1.55,0,0,1-.08-.23,2.21,2.21,0,0,1,0-.25,1.26,1.26,0,0,1-.34.39.85.85,0,0,1-.51.15,1,1,0,0,1-.76-.26,1,1,0,0,1-.26-.71.87.87,0,0,1,.35-.74,1.7,1.7,0,0,1,1-.26h.47v-.26a.49.49,0,0,0-.12-.36.45.45,0,0,0-.35-.13.46.46,0,0,0-.32.1.4.4,0,0,0-.11.29h-.82a.83.83,0,0,1,.35-.71,1.44,1.44,0,0,1,.95-.3,1.43,1.43,0,0,1,.92.29,1.06,1.06,0,0,1,.35.85V21a2.81,2.81,0,0,0,0,.43,1.82,1.82,0,0,0,.11.4Zm-.77-.58a.65.65,0,0,0,.39-.12.54.54,0,0,0,.24-.26v-.46h-.47a.56.56,0,0,0-.41.14.48.48,0,0,0-.14.34.34.34,0,0,0,.1.26A.44.44,0,0,0,46.7,21.25Z"/><path class="cls-2" d="M51.46,18.59v3.24h-.84V20.7h-.51l-.62,1.13h-.85l.69-1.28a1.06,1.06,0,0,1-.44-.36.93.93,0,0,1-.15-.52,1,1,0,0,1,.36-.78,1.49,1.49,0,0,1,1-.3Zm-1.88,1.1a.37.37,0,0,0,.13.29.49.49,0,0,0,.36.13h.55v-.85h-.54a.54.54,0,0,0-.37.13A.45.45,0,0,0,49.58,19.69Z"/><path class="cls-2" d="M56.35,21.83h-.84V19.26h-1v2.57h-.84V18.59h2.72Z"/><path class="cls-2" d="M59.7,18.59v3.24h-.84V19.26h-.75V20a2.7,2.7,0,0,1-.29,1.41,1.05,1.05,0,0,1-1,.45h-.13v-.69h.09a.34.34,0,0,0,.37-.25,3.09,3.09,0,0,0,.09-.92V18.59Z"/><path class="cls-2" d="M60.18,20.18a1.8,1.8,0,0,1,.4-1.19,1.33,1.33,0,0,1,1.08-.46,1.36,1.36,0,0,1,1.09.46,1.79,1.79,0,0,1,.39,1.19v.06a1.76,1.76,0,0,1-.39,1.19,1.51,1.51,0,0,1-2.17,0,1.76,1.76,0,0,1-.4-1.19Zm.85.06a1.44,1.44,0,0,0,.15.71.56.56,0,0,0,1,0,1.43,1.43,0,0,0,.16-.71v-.06a1.42,1.42,0,0,0-.16-.7.5.5,0,0,0-.48-.28.52.52,0,0,0-.48.28,1.43,1.43,0,0,0-.15.7Z"/><path class="cls-2" d="M64.49,18.59v2.57h.85V18.59h.85v2.57H67V18.59h.85v2.55h.65v1.77h-.85V21.83h-4V18.59Z"/><path class="cls-2" d="M70.87,21.83a1.55,1.55,0,0,1-.08-.23,2.21,2.21,0,0,1-.05-.25,1.26,1.26,0,0,1-.34.39.85.85,0,0,1-.51.15,1,1,0,0,1-.76-.26,1,1,0,0,1-.26-.71.87.87,0,0,1,.35-.74,1.7,1.7,0,0,1,1-.26h.47v-.26a.49.49,0,0,0-.12-.36.43.43,0,0,0-.35-.13.46.46,0,0,0-.32.1.4.4,0,0,0-.11.29H69a.83.83,0,0,1,.35-.71,1.45,1.45,0,0,1,1-.3,1.42,1.42,0,0,1,.91.29,1.06,1.06,0,0,1,.35.85V21a2.81,2.81,0,0,0,0,.43,1.82,1.82,0,0,0,.11.4Zm-.77-.58a.7.7,0,0,0,.4-.12.57.57,0,0,0,.23-.26v-.46h-.47a.56.56,0,0,0-.41.14.48.48,0,0,0-.14.34.35.35,0,0,0,.11.26A.4.4,0,0,0,70.1,21.25Z"/><path class="cls-2" d="M72.26,21.15a1.74,1.74,0,0,0,.39-.61,2.93,2.93,0,0,0,.12-.86V18.59h2.31v2.57h.45l-.06,1.64H74.7v-1H72.85v1h-.79L72,21.15Zm1.35-1.47a4,4,0,0,1-.12.85,2.07,2.07,0,0,1-.26.62h1V19.29h-.64Z"/><path class="cls-2" d="M77.19,20.62h-.33v1.21H76V18.59h.84v1.23h.3l.67-1.23H78.9l-1,1.53L79,21.83H77.87Z"/><path class="cls-2" d="M81.13,21.83a1.55,1.55,0,0,1-.08-.23,2.21,2.21,0,0,1,0-.25,1.26,1.26,0,0,1-.34.39.85.85,0,0,1-.51.15,1,1,0,0,1-.76-.26,1,1,0,0,1-.26-.71.85.85,0,0,1,.35-.74,1.7,1.7,0,0,1,1-.26H81v-.26a.49.49,0,0,0-.12-.36.45.45,0,0,0-.35-.13.46.46,0,0,0-.32.1.4.4,0,0,0-.11.29h-.82a.83.83,0,0,1,.35-.71,1.44,1.44,0,0,1,.95-.3,1.43,1.43,0,0,1,.92.29,1.06,1.06,0,0,1,.35.85V21a2.81,2.81,0,0,0,0,.43,1.82,1.82,0,0,0,.11.4Zm-.77-.58a.65.65,0,0,0,.39-.12.54.54,0,0,0,.24-.26v-.46h-.47a.56.56,0,0,0-.41.14.48.48,0,0,0-.14.34.34.34,0,0,0,.1.26A.44.44,0,0,0,80.36,21.25Z"/></svg>