<svg data-name="Слой 1" xmlns="http://www.w3.org/2000/svg" viewBox="0 0 87.59 22.91"><path d="M7.62 11.18a1.64 1.64 0 00-.55-1.28A5.37 5.37 0 005.16 9a10.83 10.83 0 01-3.59-1.7A3.21 3.21 0 01.35 4.63a3.34 3.34 0 011.39-2.77A5.68 5.68 0 015.31.79 5.27 5.27 0 018.89 2a3.68 3.68 0 011.33 3h-2.6A2.06 2.06 0 007 3.48a2.43 2.43 0 00-1.74-.59 2.48 2.48 0 00-1.65.49A1.58 1.58 0 003 4.64a1.36 1.36 0 00.63 1.15 8.44 8.44 0 002.16 1 8.4 8.4 0 013.36 1.63 3.53 3.53 0 011.14 2.74A3.31 3.31 0 018.94 14a5.77 5.77 0 01-3.57 1 6.29 6.29 0 01-3.79-1.16A3.66 3.66 0 010 10.56v-.06h2.6a2.15 2.15 0 00.73 1.81 3.19 3.19 0 002 .57A2.62 2.62 0 007 12.42a1.54 1.54 0 00.62-1.24zM15.27 2v2.53h1.66v1.94h-1.66v5.22a1.27 1.27 0 00.23.85.86.86 0 00.65.26 1.86 1.86 0 00.36 0 1.9 1.9 0 00.35-.08l.23 2a4.87 4.87 0 01-.79.21 4.35 4.35 0 01-.83.07 2.82 2.82 0 01-2.13-.78 3.53 3.53 0 01-.75-2.49V6.47h-1.44V4.53h1.44V2zm9.18 12.78a5.88 5.88 0 01-.26-.74 5.37 5.37 0 01-.15-.8A3.69 3.69 0 0123 14.48a2.63 2.63 0 01-1.61.49 3.27 3.27 0 01-2.39-.82 3 3 0 01-.85-2.26 2.75 2.75 0 011.12-2.34 5.49 5.49 0 013.28-.83H24v-.81a1.64 1.64 0 00-.38-1.15 1.73 1.73 0 00-2.11-.08 1.2 1.2 0 00-.35.91h-2.58v-.07a2.65 2.65 0 011.09-2.24 4.63 4.63 0 013-.94 4.33 4.33 0 012.88.93 3.28 3.28 0 011.11 2.66v4.23a8.44 8.44 0 00.1 1.36 7.36 7.36 0 00.34 1.26zM22 12.93a2.26 2.26 0 001.26-.36 1.92 1.92 0 00.74-.83v-1.45h-1.49a1.71 1.71 0 00-1.29.44 1.42 1.42 0 00-.44 1.06 1.1 1.1 0 00.33.83 1.27 1.27 0 00.89.31zM33.91 6.9h-1a1.74 1.74 0 00-1 .25 1.54 1.54 0 00-.58.72v6.93H28.7V4.53h2.48L31.3 6a3.23 3.23 0 01.9-1.25 2 2 0 011.28-.45 2.13 2.13 0 01.37 0l.34.08zM38.69 2v2.53h1.66v1.94h-1.66v5.22a1.27 1.27 0 00.23.85.86.86 0 00.65.26 1.86 1.86 0 00.36 0 2.1 2.1 0 00.35-.08l.23 2a4.87 4.87 0 01-.79.21 4.35 4.35 0 01-.83.07 2.82 2.82 0 01-2.13-.78A3.53 3.53 0 0136 11.7V6.47h-1.43V4.53H36V2zm12.79 1.12h-3.77v11.66H45V3.12h-3.71V1h10.19zm5.78 3.78h-1a1.72 1.72 0 00-1 .25 1.62 1.62 0 00-.59.72v6.93h-2.62V4.53h2.48L54.65 6a3.23 3.23 0 01.9-1.25 2 2 0 011.28-.45 2.22 2.22 0 01.37 0l.34.08zm7.16 7.88a5.85 5.85 0 01-.25-.74 5.37 5.37 0 01-.15-.8 3.83 3.83 0 01-1.09 1.24 2.6 2.6 0 01-1.6.49 3.28 3.28 0 01-2.4-.82 3 3 0 01-.84-2.26 2.73 2.73 0 011.12-2.34 5.48 5.48 0 013.27-.83H64v-.81a1.64 1.64 0 00-.37-1.15 1.44 1.44 0 00-1.11-.4 1.4 1.4 0 00-1 .32 1.16 1.16 0 00-.35.91h-2.61v-.07a2.62 2.62 0 011.09-2.24 4.58 4.58 0 013-.94 4.34 4.34 0 012.89.93 3.28 3.28 0 011.11 2.66v4.23a8.44 8.44 0 00.1 1.36 7.32 7.32 0 00.33 1.26zM62 12.93a2.21 2.21 0 001.25-.36 1.8 1.8 0 00.74-.83v-1.45h-1.51a1.71 1.71 0 00-1.29.44 1.46 1.46 0 00-.44 1.06 1.1 1.1 0 00.33.83 1.29 1.29 0 00.92.31zm10.83-.09a1.47 1.47 0 001.58-1.57h2.42v.06a3.26 3.26 0 01-1.13 2.6 4.67 4.67 0 01-6.31-.4 5.66 5.66 0 01-1.2-3.73v-.28a5.7 5.7 0 011.22-3.72 4.15 4.15 0 013.41-1.46 4.1 4.1 0 013 1.08 3.68 3.68 0 011.08 2.84v.06h-2.49A2.09 2.09 0 0074 7a1.41 1.41 0 00-1.17-.52 1.53 1.53 0 00-1.49.85 4.82 4.82 0 00-.44 2.19v.28a4.82 4.82 0 00.43 2.2 1.56 1.56 0 001.5.84zm8.95-2.36h-.73v4.3h-2.67V0h2.67v8.38h.66L84 4.53h3.1l-3.17 4.64 3.66 5.61h-3.07z" fill="#25b8ec"/><path d="M7.81 18.59h.84v3.24h-.84v-2l-1 2h-.89v-3.24h.85v2zM12 21.83h-.84v-1.25h-1v1.25h-.89v-3.24h.85v1.31h1v-1.31H12zm.68 0v-3.24H14a1.78 1.78 0 011 .23.75.75 0 01.35.67.61.61 0 01-.15.41.87.87 0 01-.41.27 1.06 1.06 0 01.54.27.67.67 0 01.18.47.8.8 0 01-.33.69 1.69 1.69 0 01-1 .23zm.84-1.92H14a.53.53 0 00.34-.08.25.25 0 00.12-.23.28.28 0 00-.12-.25.6.6 0 00-.36-.09h-.47zm0 .57v.69h.67a.5.5 0 00.33-.09.31.31 0 00.11-.25.33.33 0 00-.11-.26.5.5 0 00-.33-.09zm3.85 1.41a1.43 1.43 0 01-1.09-.44 1.66 1.66 0 01-.4-1.15v-.12a1.86 1.86 0 01.38-1.18 1.27 1.27 0 011-.46 1.25 1.25 0 011 .4 1.56 1.56 0 01.37 1.06v.48h-1.87A.82.82 0 0017 21a.63.63 0 00.5.21 1.51 1.51 0 00.46-.06 2.34 2.34 0 00.41-.18l.23.54a1.58 1.58 0 01-.5.27 2.17 2.17 0 01-.73.11zm-.08-2.69a.45.45 0 00-.37.19 1 1 0 00-.17.49h1.05v-.07a.69.69 0 00-.13-.45.45.45 0 00-.38-.16zm3.14 2.02a.53.53 0 00.37-.14.48.48 0 00.13-.36h.77a1 1 0 01-.36.82 1.33 1.33 0 01-.92.33 1.35 1.35 0 01-1.08-.45 1.82 1.82 0 01-.34-1.16v-.09a1.82 1.82 0 01.35-1.17 1.3 1.3 0 011.08-.46 1.25 1.25 0 01.93.34 1.15 1.15 0 01.35.9h-.77a.64.64 0 00-.13-.42.45.45 0 00-.37-.17.48.48 0 00-.47.27 1.55 1.55 0 00-.14.7v.09A1.55 1.55 0 0020 21a.49.49 0 00.43.22zm4.41-1.96h-1v2.57H23v-2.57h-1v-.67h2.84zm2.32-.67H28v3.24h-.84v-2l-1 2h-.85v-3.24h.85v2zm1.46 0h.84v2.57h1v-2.57h.85v2.57h.45v1.74H31v-1.07h-2.38zm5.49 0H35v3.24h-.85v-2l-1 2h-.84v-3.24h.84v2zm1.35 1.59a1.79 1.79 0 01.39-1.18A1.51 1.51 0 0138 19a1.75 1.75 0 01.4 1.19v.06a1.71 1.71 0 01-.4 1.19 1.33 1.33 0 01-1.08.46 1.35 1.35 0 01-1.09-.46 1.76 1.76 0 01-.39-1.19zm.84.06a1.44 1.44 0 00.15.71.52.52 0 00.49.27.51.51 0 00.48-.27 1.44 1.44 0 00.15-.71v-.06a1.43 1.43 0 00-.15-.7.55.55 0 00-1 0 1.32 1.32 0 00-.16.7zm5.35 1.59h-.85v-1.25h-1v1.25h-.85v-3.24h.85v1.31h1v-1.31h.85zm3.35 0h-.84v-1.25h-1v1.25h-.85v-3.24h.85v1.31h1v-1.31H45zm2.47 0a1.55 1.55 0 01-.08-.23 2.21 2.21 0 010-.25 1.26 1.26 0 01-.34.39.85.85 0 01-.51.15 1 1 0 01-.76-.26 1 1 0 01-.26-.71.87.87 0 01.35-.74 1.7 1.7 0 011-.26h.47v-.26a.49.49 0 00-.12-.36.45.45 0 00-.35-.13.46.46 0 00-.32.1.4.4 0 00-.11.29h-.82a.83.83 0 01.35-.71 1.44 1.44 0 01.95-.3 1.43 1.43 0 01.92.29 1.06 1.06 0 01.35.85V21a2.81 2.81 0 000 .43 1.82 1.82 0 00.11.4zm-.77-.58a.65.65 0 00.39-.12.54.54 0 00.24-.26v-.46h-.47a.56.56 0 00-.41.14.48.48 0 00-.14.34.34.34 0 00.1.26.44.44 0 00.29.1zm4.76-2.66v3.24h-.84V20.7h-.51l-.62 1.13h-.85l.69-1.28a1.06 1.06 0 01-.44-.36.93.93 0 01-.15-.52 1 1 0 01.36-.78 1.49 1.49 0 011-.3zm-1.88 1.1a.37.37 0 00.13.29.49.49 0 00.36.13h.55v-.85h-.54a.54.54 0 00-.37.13.45.45 0 00-.13.3zm6.77 2.14h-.84v-2.57h-1v2.57h-.84v-3.24h2.72zm3.35-3.24v3.24h-.84v-2.57h-.75V20a2.7 2.7 0 01-.29 1.41 1.05 1.05 0 01-1 .45h-.13v-.69h.09a.34.34 0 00.37-.25 3.09 3.09 0 00.09-.92v-1.41zm.48 1.59a1.8 1.8 0 01.4-1.19 1.33 1.33 0 011.08-.46 1.36 1.36 0 011.09.46 1.79 1.79 0 01.39 1.19v.06a1.76 1.76 0 01-.39 1.19 1.51 1.51 0 01-2.17 0 1.76 1.76 0 01-.4-1.19zm.85.06a1.44 1.44 0 00.15.71.56.56 0 001 0 1.43 1.43 0 00.16-.71v-.06a1.42 1.42 0 00-.16-.7.5.5 0 00-.48-.28.52.52 0 00-.48.28 1.43 1.43 0 00-.15.7zm3.46-1.65v2.57h.85v-2.57h.85v2.57H67v-2.57h.85v2.55h.65v1.77h-.85v-1.08h-4v-3.24zm6.38 3.24a1.55 1.55 0 01-.08-.23 2.21 2.21 0 01-.05-.25 1.26 1.26 0 01-.34.39.85.85 0 01-.51.15 1 1 0 01-.76-.26 1 1 0 01-.26-.71.87.87 0 01.35-.74 1.7 1.7 0 011-.26h.47v-.26a.49.49 0 00-.12-.36.43.43 0 00-.35-.13.46.46 0 00-.32.1.4.4 0 00-.11.29H69a.83.83 0 01.35-.71 1.45 1.45 0 011-.3 1.42 1.42 0 01.91.29 1.06 1.06 0 01.35.85V21a2.81 2.81 0 000 .43 1.82 1.82 0 00.11.4zm-.77-.58a.7.7 0 00.4-.12.57.57 0 00.23-.26v-.46h-.47a.56.56 0 00-.41.14.48.48 0 00-.14.34.35.35 0 00.11.26.4.4 0 00.28.1zm2.16-.1a1.74 1.74 0 00.39-.61 2.93 2.93 0 00.12-.86v-1.09h2.31v2.57h.45l-.06 1.64h-.77v-1h-1.85v1h-.79L72 21.15zm1.35-1.47a4 4 0 01-.12.85 2.07 2.07 0 01-.26.62h1v-1.86h-.64zm3.58.94h-.33v1.21H76v-3.24h.84v1.23h.3l.67-1.23h1.09l-1 1.53 1.1 1.71h-1.13zm3.94 1.21a1.55 1.55 0 01-.08-.23 2.21 2.21 0 010-.25 1.26 1.26 0 01-.34.39.85.85 0 01-.51.15 1 1 0 01-.76-.26 1 1 0 01-.26-.71.85.85 0 01.35-.74 1.7 1.7 0 011-.26H81v-.26a.49.49 0 00-.12-.36.45.45 0 00-.35-.13.46.46 0 00-.32.1.4.4 0 00-.11.29h-.82a.83.83 0 01.35-.71 1.44 1.44 0 01.95-.3 1.43 1.43 0 01.92.29 1.06 1.06 0 01.35.85V21a2.81 2.81 0 000 .43 1.82 1.82 0 00.11.4zm-.77-.58a.65.65 0 00.39-.12.54.54 0 00.24-.26v-.46h-.47a.56.56 0 00-.41.14.48.48 0 00-.14.34.34.34 0 00.1.26.44.44 0 00.29.1z" fill="#434343"/></svg>