<svg id="Слой_1" data-name="Слой 1" xmlns="http://www.w3.org/2000/svg" viewBox="0 0 96.26 26.65"><defs><style>.cls-1{fill:#ab5160}</style></defs><path class="cls-1" d="M28.57 0c-1.95 3.92-3.87 7.86-5.86 11.76a3.11 3.11 0 000 3.11c1.82 3.53 3.58 7.11 5.36 10.67.15.3.28.62.48 1.06H0V0zm-4.64 23.78c-.22-.52-.35-.89-.53-1.24-1.31-2.63-2.61-5.26-3.95-7.88a2.69 2.69 0 010-2.66c1.41-2.76 2.78-5.54 4.16-8.31.11-.24.2-.48.32-.79H2.85v19.78c0 1.1 0 1.1 1.07 1.1h20z"/><path d="M62.37 18.55V8.26c1.83 0 3.61-.11 5.38 0a2.54 2.54 0 012.19 2 2.39 2.39 0 01-.86 2.77 2.8 2.8 0 011.3 3.29 2.58 2.58 0 01-2.29 2.17c-1.88.17-3.77.06-5.72.06zm2.75-2.19a18 18 0 001.88-.12.82.82 0 00.74-1 1.47 1.47 0 00-.81-.91 7.29 7.29 0 00-1.82 0zm0-4.14a6.44 6.44 0 001.66 0 1.32 1.32 0 00.78-.82c.12-.5-.24-.87-.77-.92s-1.09 0-1.67 0zM41 15.14l2.83 3.55H40.6c-.17 0-.37-.28-.5-.47-.6-.79-1.17-1.6-1.77-2.38a5.1 5.1 0 00-.77-.65v3.47h-2.67V8.25c1.85 0 3.67-.13 5.46 0A2.9 2.9 0 0143 10.91a3.58 3.58 0 01-1.63 4zM37.6 13h1.69a1.08 1.08 0 001.1-1.06 1 1 0 00-.9-1.22 14.86 14.86 0 00-1.89 0zM89 8.17h7.28v2.5h-4.6v1.57h4.25v2.34h-4.24v1.54h4.57v2.54H89zm-39.06-.01h2.68c0 .24.06.47.06.7v6.09a3.65 3.65 0 01-3.48 3.86 4.92 4.92 0 01-3.2-.58 3 3 0 01-1.67-2.48c-.06-2.51 0-5 0-7.57h2.57c0 .29.05.57.05.85v5.77c0 1.12.48 1.6 1.53 1.58s1.45-.49 1.45-1.57c.07-2.19.01-4.37.01-6.65zM80.3 18.71a24.26 24.26 0 01-2.44 0 1 1 0 01-.63-.63c-.54-1.46-.52-1.48-2.08-1.47s-1.15-.21-1.57 1.21c-.22.72-.51 1-1.27.93a16.9 16.9 0 00-1.89 0c.09-.33.13-.53.2-.72 1.07-3.08 2.16-6.14 3.21-9.23a.81.81 0 01.92-.64c1.77 0 1.77 0 2.37 1.64 1 2.71 1.95 5.43 2.93 8.14.08.18.14.41.25.77zm-4.89-7.33h-.15l-.68 2.75h1.47zm4.76 5.51l1.52-1.4c.74.29 1.38.6 2 .8a1.6 1.6 0 001-.1 1 1 0 00.49-.63.78.78 0 00-.39-.61 13 13 0 00-1.75-.51 3.32 3.32 0 01-2.84-3.12 3 3 0 012.57-3.19 4.46 4.46 0 014.83 1.59l-1.54 1.19a15 15 0 00-1.91-.7.94.94 0 00-1.22.64c-.17.66.31.9.82 1.06s.88.22 1.32.32C87 12.7 88 13.71 88 15.39a3.33 3.33 0 01-2.78 3.26 4.49 4.49 0 01-5.05-1.76zm-19.1-7.17c-.23.18-.47.36-.68.55-.56.5-1.06.9-1.83.22a1.83 1.83 0 00-1.36-.23 1.18 1.18 0 00-.8.72c-.06.21.29.68.57.81a8.51 8.51 0 001.61.45c2.14.54 3.16 1.95 2.73 3.9a3.36 3.36 0 01-2.66 2.5 4.42 4.42 0 01-5-1.76l1.5-1.41c.68.29 1.29.57 1.93.8a1 1 0 00.7 0 6.36 6.36 0 001-.69c-.25-.28-.45-.66-.76-.8a7 7 0 00-1.47-.38c-2.09-.5-3.25-2.21-2.71-4.08A3.14 3.14 0 0154.6 9a4.53 4.53 0 016.47.72z"/><path class="cls-1" d="M14.37 15.48l3.85 4.83h-4.17c-.22 0-.48-.3-.65-.52-.88-1.18-1.72-2.38-2.62-3.55a2.84 2.84 0 00-.81-.5 2.85 2.85 0 00-.28.82v3.13c0 .48-.18.67-.66.65H6.7c-.4 0-.59-.12-.58-.55V6.32a1.68 1.68 0 01.1-.32h3.57a23.92 23.92 0 013.28.1c3.43.49 4.43 2.89 4 5.86-.28 1.73-.63 2.12-2.7 3.52zM9.65 11c0 2.06-.22 1.71 1.73 1.75a4.56 4.56 0 00.64 0 1.7 1.7 0 001.67-1.78 1.67 1.67 0 00-1.8-1.63h-.56C9.65 9.27 9.65 9.27 9.65 11z"/></svg>