<svg id="Слой_1" data-name="Слой 1" xmlns="http://www.w3.org/2000/svg" viewBox="0 0 79.61 28.2"><defs><style>.cls-1{fill:#4c68b1;}</style></defs><title>Монтажная область 13</title><path class="cls-1" d="M7.8,15.66V12.58a11.8,11.8,0,0,0,1.53-.35,4.5,4.5,0,0,0,3.09-3.79A4.66,4.66,0,0,0,8.61,3.23c-.22,0-.45,0-.67-.07-.05,0-.14-.08-.14-.12,0-1,0-2,0-3a7.79,7.79,0,0,1,7,4.17,8,8,0,0,1,.83,2.61,7.77,7.77,0,0,1-.12,2.76,7.59,7.59,0,0,1-1,2.53,8.38,8.38,0,0,1-1.87,2,7.78,7.78,0,0,1,3,4.83A7.61,7.61,0,0,1,15,23.56,7.82,7.82,0,0,1,7.81,28.2V25a4.61,4.61,0,0,0,3.59-1.71,4.56,4.56,0,0,0,1.07-3A4.73,4.73,0,0,0,7.8,15.66Z"/><path class="cls-1" d="M7.84,9.51a4.7,4.7,0,0,0,0,9.39v3.16A7.71,7.71,0,0,1,2,19.39a7.82,7.82,0,0,1,5.88-13Z"/><path d="M74.94,7c.37-.51.73-1,1.08-1.48L77.61,3.3a.28.28,0,0,1,.2-.12h1.8V12H78V5.69l0,0-.64.85L75.18,9.31a.33.33,0,0,1-.55,0L72.07,5.8l-.14-.18V12H70.25V3.17h.21c.52,0,1,0,1.56,0a.34.34,0,0,1,.25.13c.85,1.14,1.68,2.3,2.52,3.44Z"/><path d="M22.38,12V3.14h.23c1.28,0,2.57,0,3.86,0a4.11,4.11,0,0,1,1.92.39,2.2,2.2,0,0,1,1.21,1.8A1.86,1.86,0,0,1,29,7.1c-.15.13-.32.22-.48.34a2,2,0,0,1,1.32,1.65,2.28,2.28,0,0,1-1.67,2.71A6.22,6.22,0,0,1,26.7,12c-1.4,0-2.79,0-4.19,0ZM24,10.43l.11,0h2.57a2,2,0,0,0,1.05-.28A.88.88,0,0,0,28,8.81a1.8,1.8,0,0,0-1.44-.62c-.79,0-1.58,0-2.37,0L24,8.2Zm0-3.72H25c.69,0,1.37,0,2.05,0A.93.93,0,0,0,28,5.89a1,1,0,0,0-.69-1.08,1.72,1.72,0,0,0-.63-.12c-.82,0-1.64,0-2.46,0L24,4.7V6.53S24,6.63,24,6.71Z"/><path d="M71.12,21.63V16.14h1.67V25h-1s-.1-.07-.14-.11l-4.08-5.24-.47-.61v6H65.44V16.15h1.27a.41.41,0,0,1,.2.15c.73.91,1.45,1.83,2.18,2.75S70.42,20.73,71.12,21.63Z"/><path d="M48.29,12.24a4.27,4.27,0,0,1-4.37-4,4.92,4.92,0,0,1,1-3.65A4.14,4.14,0,0,1,47.81,3a5,5,0,0,1,2.5.31A4.21,4.21,0,0,1,52.9,6.58a5,5,0,0,1-.65,3.7,4,4,0,0,1-2.91,1.87C49,12.2,48.64,12.21,48.29,12.24Zm.16-7.73A2.67,2.67,0,0,0,46,5.87a3.56,3.56,0,0,0-.38,2.33A3,3,0,0,0,46.47,10a2.86,2.86,0,0,0,2.13.7,2.63,2.63,0,0,0,2.5-1.75,4,4,0,0,0,.22-1.75A2.78,2.78,0,0,0,48.45,4.51Z"/><path d="M61.57,12.23a4.77,4.77,0,0,1-2.83-.75,4.14,4.14,0,0,1-1.8-2.92A5.06,5.06,0,0,1,57.6,5a4.16,4.16,0,0,1,3.28-2,4.81,4.81,0,0,1,2.62.41,4.14,4.14,0,0,1,2.32,3,4.94,4.94,0,0,1-.74,4.13,4,4,0,0,1-2.76,1.65C62.07,12.19,61.82,12.2,61.57,12.23Zm2.75-4.64c0-.22,0-.44-.06-.66a2.88,2.88,0,0,0-1.05-1.85,2.93,2.93,0,0,0-2.36-.53A2.58,2.58,0,0,0,59,5.86a3.43,3.43,0,0,0-.43,1.93,2.76,2.76,0,0,0,2.58,2.87,2.7,2.7,0,0,0,2.72-1.2A3.41,3.41,0,0,0,64.32,7.59Z"/><path d="M45.59,25l.95-2.11,2.92-6.54a.33.33,0,0,1,.35-.23c.47,0,.94,0,1.41,0a.22.22,0,0,1,.25.14L55.34,25s0,0,0,.07H53.71a.21.21,0,0,1-.24-.15c-.2-.46-.41-.91-.6-1.36a.23.23,0,0,0-.24-.16h-4.3c-.13,0-.18,0-.23.17l-.63,1.36a.27.27,0,0,1-.16.14C46.75,25,46.19,25,45.59,25Zm4.89-7-1.62,3.74h3.25Z"/><path d="M34.23,16.18h1.66v3.71h4.34V16.18h1.66V25H40.25V21.47H35.9V25H34.23Z"/><path d="M30.1,17.28,29,18.44a3.17,3.17,0,0,0-2.91-.79,2.65,2.65,0,0,0-1.68,1,3.33,3.33,0,0,0,.26,4.2,3.32,3.32,0,0,0,4.35-.09l1.17,1.13a4.08,4.08,0,0,1-1.68,1,5.4,5.4,0,0,1-4-.2,3.79,3.79,0,0,1-2-2.07,5.07,5.07,0,0,1,0-4.16,4,4,0,0,1,2.66-2.32,4.78,4.78,0,0,1,4.05.49C29.6,16.87,29.86,17.1,30.1,17.28Z"/><path d="M34.11,3.15h1.66v7.31h4.55V12H34.11Z"/><path d="M60.7,25H59.05V16.17H60.7Z"/></svg>