<svg id="Слой_1" data-name="Слой 1" xmlns="http://www.w3.org/2000/svg" viewBox="0 0 79.61 28.2"><defs><style>.cls-1{fill:#4c68b1}</style></defs><path class="cls-1" d="M7.8 15.66v-3.08a11.8 11.8 0 001.53-.35 4.5 4.5 0 003.09-3.79 4.66 4.66 0 00-3.81-5.21c-.22 0-.45 0-.67-.07-.05 0-.14-.08-.14-.12v-3a7.79 7.79 0 017 4.17 8 8 0 01.83 2.61 7.77 7.77 0 01-.12 2.76 7.59 7.59 0 01-1 2.53 8.38 8.38 0 01-1.87 2 7.78 7.78 0 013 4.83 7.61 7.61 0 01-.64 4.62 7.82 7.82 0 01-7.19 4.64V25a4.61 4.61 0 003.59-1.71 4.56 4.56 0 001.07-3 4.73 4.73 0 00-4.67-4.63z"/><path class="cls-1" d="M7.84 9.51a4.7 4.7 0 000 9.39v3.16A7.71 7.71 0 012 19.39a7.82 7.82 0 015.88-13z"/><path d="M74.94 7c.37-.51.73-1 1.08-1.48l1.59-2.22a.28.28 0 01.2-.12h1.8V12H78V5.69l-.64.85-2.18 2.77a.33.33 0 01-.55 0L72.07 5.8l-.14-.18V12h-1.68V3.17h1.77a.34.34 0 01.25.13c.85 1.14 1.68 2.3 2.52 3.44zm-52.56 5V3.14h4.09a4.11 4.11 0 011.92.39 2.2 2.2 0 011.21 1.8A1.86 1.86 0 0129 7.1c-.15.13-.32.22-.48.34a2 2 0 011.32 1.65 2.28 2.28 0 01-1.67 2.71 6.22 6.22 0 01-1.47.2h-4.19zM24 10.43h2.68a2 2 0 001.05-.28.88.88 0 00.27-1.34 1.8 1.8 0 00-1.44-.62h-2.37L24 8.2zm0-3.72h3.05a.93.93 0 00.95-.82 1 1 0 00-.69-1.08 1.72 1.72 0 00-.63-.12h-2.46L24 4.7v2.01zm47.12 14.92v-5.49h1.67V25h-1s-.1-.07-.14-.11l-4.08-5.24-.47-.61v6h-1.66v-8.89h1.27a.41.41 0 01.2.15c.73.91 1.45 1.83 2.18 2.75s1.33 1.68 2.03 2.58zm-22.83-9.39a4.27 4.27 0 01-4.37-4 4.92 4.92 0 011-3.65A4.14 4.14 0 0147.81 3a5 5 0 012.5.31 4.21 4.21 0 012.59 3.27 5 5 0 01-.65 3.7 4 4 0 01-2.91 1.87c-.34.05-.7.06-1.05.09zm.16-7.73A2.67 2.67 0 0046 5.87a3.56 3.56 0 00-.38 2.33 3 3 0 00.85 1.8 2.86 2.86 0 002.13.7 2.63 2.63 0 002.5-1.75 4 4 0 00.22-1.75 2.78 2.78 0 00-2.87-2.69zm13.12 7.72a4.77 4.77 0 01-2.83-.75 4.14 4.14 0 01-1.8-2.92A5.06 5.06 0 0157.6 5a4.16 4.16 0 013.28-2 4.81 4.81 0 012.62.41 4.14 4.14 0 012.32 3 4.94 4.94 0 01-.74 4.13 4 4 0 01-2.76 1.65c-.25 0-.5.01-.75.04zm2.75-4.64c0-.22 0-.44-.06-.66a2.88 2.88 0 00-1.05-1.85 2.93 2.93 0 00-2.36-.53A2.58 2.58 0 0059 5.86a3.43 3.43 0 00-.43 1.93 2.76 2.76 0 002.58 2.87 2.7 2.7 0 002.72-1.2 3.41 3.41 0 00.45-1.87zM45.59 25l.95-2.11 2.92-6.54a.33.33 0 01.35-.23h1.41a.22.22 0 01.25.14L55.34 25v.07h-1.63a.21.21 0 01-.24-.15c-.2-.46-.41-.91-.6-1.36a.23.23 0 00-.24-.16h-4.3c-.13 0-.18 0-.23.17l-.63 1.36a.27.27 0 01-.16.14c-.56-.07-1.12-.07-1.72-.07zm4.89-7l-1.62 3.74h3.25zm-16.25-1.82h1.66v3.71h4.34v-3.71h1.66V25h-1.64v-3.53H35.9V25h-1.67zm-4.13 1.1L29 18.44a3.17 3.17 0 00-2.91-.79 2.65 2.65 0 00-1.68 1 3.33 3.33 0 00.26 4.2 3.32 3.32 0 004.35-.09l1.17 1.13a4.08 4.08 0 01-1.68 1 5.4 5.4 0 01-4-.2 3.79 3.79 0 01-2-2.07 5.07 5.07 0 010-4.16 4 4 0 012.66-2.32 4.78 4.78 0 014.05.49c.38.24.64.47.88.65zm4.01-14.13h1.66v7.31h4.55V12h-6.21zM60.7 25h-1.65v-8.83h1.65z"/></svg>