<svg id="Слой_1" data-name="Слой 1" xmlns="http://www.w3.org/2000/svg" viewBox="0 0 46.83 41.82"><defs><style>.cls-1{fill:#e4175f;}.cls-2{fill:#898989;}</style></defs><title>Монтажная область 10</title><path class="cls-1" d="M3.86,41.63c.89-1.51,1.75-2.89,2.53-4.32.45-.84.77-1.76,1.17-2.63.13-.28,0-.42-.18-.6a19.57,19.57,0,0,1-5.68-7A16.18,16.18,0,0,1,.07,21.31C-.47,14.83,2.16,9.73,7,5.66A24,24,0,0,1,19.29.31a26.71,26.71,0,0,1,15.15,2c4.69,2.14,8.48,5.33,10.65,10.07,3,6.6,2,12.81-2.45,18.42a22.93,22.93,0,0,1-13.31,7.93,25.9,25.9,0,0,1-8.46.54c-1.37-.14-2.73-.47-4.1-.69a1.39,1.39,0,0,0-.73.08,32.83,32.83,0,0,1-9.53,2.93,12,12,0,0,1-1.58.19A6.3,6.3,0,0,1,3.86,41.63Zm1.93-1a1.16,1.16,0,0,0,.23,0,32.22,32.22,0,0,0,9.91-3.1.87.87,0,0,1,.59-.08,26.31,26.31,0,0,0,14-.11,22.11,22.11,0,0,0,11.57-7.55,15.92,15.92,0,0,0,1.35-18.15,20.62,20.62,0,0,0-11.06-9,25.64,25.64,0,0,0-15.08-.91A21.81,21.81,0,0,0,5.14,9C1.21,13.74,0,19.07,2,25a18,18,0,0,0,6.62,8.68.51.51,0,0,1,.23.7A29.09,29.09,0,0,1,6,40.19Z"/><path class="cls-1" d="M29.64,21.24H28c-.08-.34-.05-.77-.57-.79s-.65.15-.69.55a6.25,6.25,0,0,0,0,1.06.72.72,0,0,0,.75.71,5,5,0,0,0,.77,0l1.67-.09V18.26l-.4-.12V16.66H32.2v3a2.14,2.14,0,0,1,.33-.29,5.09,5.09,0,0,1,1.26-.58c1.17-.18,1.85.46,1.9,1.71,0,.74,0,1.49,0,2.26l.42.12v1.51H33V23c0-.05,0-.15.07-.15.5,0,.31-.43.33-.69s0-.71,0-1.06-.15-.61-.56-.63a.57.57,0,0,0-.66.59c0,.56,0,1.12,0,1.7l.41.09v1.52a2.19,2.19,0,0,1-.36,0,10.55,10.55,0,0,1-2.91-.16c-.11,0-.26.08-.4.09a11.28,11.28,0,0,1-2.31.13c-1.89-.26-2.48-1.71-2.24-3.4a2.47,2.47,0,0,1,2.48-2.3,4.82,4.82,0,0,1,2.37.37.5.5,0,0,1,.38.57C29.61,20.18,29.64,20.69,29.64,21.24Z"/><path class="cls-1" d="M14.28,14.13V12.61c.37,0,.45-.16.46-.49a2.07,2.07,0,0,1,1.63-2A12.54,12.54,0,0,1,17.72,10c0,.4,0,.75,0,1.09,0,.12-.15.25-.25.34A1.27,1.27,0,0,0,17,12.54l.73.08v1.46c-.77.15-.77.15-.77,1,0,.32,0,.64,0,1s.09.58.5.52a1.33,1.33,0,0,1,.26,0v1.52l-.69.05,0,.72H18.3v1.62H17c0,.63,0,1.21,0,1.78a.53.53,0,0,0,.6.55,7.72,7.72,0,0,0,.79,0c0,.43,0,.86,0,1.28a.37.37,0,0,1-.23.27,10.8,10.8,0,0,1-2.12.14,1.48,1.48,0,0,1-1.37-1.52c-.05-.66,0-1.32-.05-2,0-.44,0-.44-.42-.57V18.88a.77.77,0,0,0,.72-.76l-.61-.07v-1.5c.41,0,.43-.24.41-.56s0-.92,0-1.38C14.72,14.31,14.67,14.09,14.28,14.13Z"/><path class="cls-1" d="M21.63,16.55c.38,0,.42-.21.41-.52,0-.48,0-1,0-1.42,0-.31-.05-.52-.43-.49v-1.5h2.62l.05.61a8,8,0,0,1,1.1-.66,1.6,1.6,0,0,1,2.34,1.59c0,.62,0,1.23,0,1.84,0,.33,0,.58.44.54v1.52H25.11V16.55c.42,0,.39-.25.39-.54s0-.82,0-1.23a.54.54,0,0,0-.58-.62.57.57,0,0,0-.64.58,12.69,12.69,0,0,0,0,1.51c0,.13.21.25.39.46V18h-3Z"/><path class="cls-1" d="M24.16,22H20.9c0,.56.21.83.77.82.74,0,1.48-.11,2.28-.18,0,.38,0,.83,0,1.28a.34.34,0,0,1-.21.24,5.27,5.27,0,0,1-3.75.11,2.16,2.16,0,0,1-1.31-1.39,3.88,3.88,0,0,1,0-2.43A2.19,2.19,0,0,1,20,19a3.9,3.9,0,0,1,2.65-.13A1.94,1.94,0,0,1,24,20.39,10.2,10.2,0,0,1,24.16,22ZM22,20.89c.08-.4,0-.69-.37-.79a.58.58,0,0,0-.77.37c-.1.27,0,.44.29.43Z"/><path class="cls-1" d="M18.13,14.06V12.58h2.62c0,.18,0,.34,0,.5,0,1,0,2,0,3,0,.31.07.5.44.48v1.51H18.12c0-.45,0-.88,0-1.32,0-.06.05-.18.08-.18.44,0,.34-.35.35-.61,0-.45,0-.91,0-1.37a1.91,1.91,0,0,0-.25-.52Z"/><path class="cls-2" d="M19.66,8.7a1.57,1.57,0,0,0-1.5,1.13c.45.1.75.28.75.48s-.29.38-.73.48A1.57,1.57,0,1,0,19.66,8.7Z"/><rect class="cls-2" x="14.52" y="25" width="0.84" height="5.7"/><path class="cls-2" d="M23.68,28.12a1.78,1.78,0,0,0-.92-1.5,2.49,2.49,0,0,0-1.72,0V25h-.79v5.59h.17a5.54,5.54,0,0,0,2.07,0,1.5,1.5,0,0,0,1-.95A3.72,3.72,0,0,0,23.68,28.12ZM22,30A4.93,4.93,0,0,1,21,30V27.35a1.36,1.36,0,0,1,1.18-.17c.63.25.67.79.67,1.38C22.88,29.63,22.36,30,22,30Z"/><path class="cls-2" d="M19.08,29.49a17.07,17.07,0,0,0,0-2.13c-.08-.88-.88-1-1.54-1a3.5,3.5,0,0,0-1.28.3l.22.77a1.7,1.7,0,0,1,1.1-.36.77.77,0,0,1,.8,1.09c-.2,0-.7,0-1.23,0A1.24,1.24,0,0,0,16,29.45c0,.29.09,1.33,1.17,1.33s1.35-.45,1.35-.45c0,.52,1,.49,1,.49V30.1C19,30.16,19.08,29.49,19.08,29.49Zm-.7,0s-.12.58-1,.56-.6-.72-.6-.72.08-.39.66-.43l1-.06Z"/></svg>