<svg id="Слой_1" data-name="Слой 1" xmlns="http://www.w3.org/2000/svg" viewBox="0 0 46.83 41.82"><defs><style>.cls-1{fill:#e4175f}</style></defs><path class="cls-1" d="M3.86 41.63c.89-1.51 1.75-2.89 2.53-4.32.45-.84.77-1.76 1.17-2.63.13-.28 0-.42-.18-.6a19.57 19.57 0 01-5.68-7 16.18 16.18 0 01-1.63-5.77C-.47 14.83 2.16 9.73 7 5.66A24 24 0 0119.29.31a26.71 26.71 0 0115.15 2c4.69 2.14 8.48 5.33 10.65 10.07 3 6.6 2 12.81-2.45 18.42a22.93 22.93 0 01-13.31 7.93 25.9 25.9 0 01-8.46.54c-1.37-.14-2.73-.47-4.1-.69a1.39 1.39 0 00-.73.08 32.83 32.83 0 01-9.53 2.93 12 12 0 01-1.58.19 6.3 6.3 0 01-1.07-.15zm1.93-1a1.16 1.16 0 00.23 0 32.22 32.22 0 009.91-3.1.87.87 0 01.59-.08 26.31 26.31 0 0014-.11 22.11 22.11 0 0011.57-7.55 15.92 15.92 0 001.35-18.15 20.62 20.62 0 00-11.06-9 25.64 25.64 0 00-15.08-.91A21.81 21.81 0 005.14 9C1.21 13.74 0 19.07 2 25a18 18 0 006.62 8.68.51.51 0 01.23.7A29.09 29.09 0 016 40.19z"/><path class="cls-1" d="M29.64 21.24H28c-.08-.34-.05-.77-.57-.79s-.65.15-.69.55a6.25 6.25 0 000 1.06.72.72 0 00.75.71 5 5 0 00.77 0l1.67-.09v-4.42l-.4-.12v-1.48h2.67v3a2.14 2.14 0 01.33-.29 5.09 5.09 0 011.26-.58c1.17-.18 1.85.46 1.9 1.71v2.26l.42.12v1.51H33V23c0-.05 0-.15.07-.15.5 0 .31-.43.33-.69s0-.71 0-1.06-.15-.61-.56-.63a.57.57 0 00-.66.59v1.7l.41.09v1.52a2.19 2.19 0 01-.36 0 10.55 10.55 0 01-2.91-.16c-.11 0-.26.08-.4.09a11.28 11.28 0 01-2.31.13c-1.89-.26-2.48-1.71-2.24-3.4a2.47 2.47 0 012.48-2.3 4.82 4.82 0 012.37.37.5.5 0 01.38.57c.01.51.04 1.02.04 1.57zm-15.36-7.11v-1.52c.37 0 .45-.16.46-.49a2.07 2.07 0 011.63-2 12.54 12.54 0 011.35-.12v1.09c0 .12-.15.25-.25.34a1.27 1.27 0 00-.47 1.11l.73.08v1.46c-.77.15-.77.15-.77 1v1c0 .36.09.58.5.52a1.33 1.33 0 01.26 0v1.52l-.69.05v.72h1.27v1.62H17v1.78a.53.53 0 00.6.55 7.72 7.72 0 00.79 0v1.28a.37.37 0 01-.23.27 10.8 10.8 0 01-2.12.14 1.48 1.48 0 01-1.37-1.52c-.05-.66 0-1.32-.05-2 0-.44 0-.44-.42-.57v-1.56a.77.77 0 00.72-.76l-.61-.07v-1.5c.41 0 .43-.24.41-.56s0-.92 0-1.38c0-.3-.05-.52-.44-.48z"/><path class="cls-1" d="M21.63 16.55c.38 0 .42-.21.41-.52v-1.42c0-.31-.05-.52-.43-.49v-1.5h2.62l.05.61a8 8 0 011.1-.66 1.6 1.6 0 012.34 1.59V16c0 .33 0 .58.44.54v1.52h-3.05v-1.51c.42 0 .39-.25.39-.54v-1.23a.54.54 0 00-.58-.62.57.57 0 00-.64.58 12.69 12.69 0 000 1.51c0 .13.21.25.39.46V18h-3zM24.16 22H20.9c0 .56.21.83.77.82.74 0 1.48-.11 2.28-.18v1.28a.34.34 0 01-.21.24 5.27 5.27 0 01-3.75.11 2.16 2.16 0 01-1.31-1.39 3.88 3.88 0 010-2.43A2.19 2.19 0 0120 19a3.9 3.9 0 012.65-.13A1.94 1.94 0 0124 20.39a10.2 10.2 0 01.16 1.61zM22 20.89c.08-.4 0-.69-.37-.79a.58.58 0 00-.77.37c-.1.27 0 .44.29.43zm-3.87-6.83v-1.48h2.62v3.5c0 .31.07.5.44.48v1.51h-3.07v-1.32c0-.06.05-.18.08-.18.44 0 .34-.35.35-.61v-1.37a1.91 1.91 0 00-.25-.52z"/><path d="M19.66 8.7a1.57 1.57 0 00-1.5 1.13c.45.1.75.28.75.48s-.29.38-.73.48a1.57 1.57 0 101.48-2.09zM14.52 25h.84v5.7h-.84zm9.16 3.12a1.78 1.78 0 00-.92-1.5 2.49 2.49 0 00-1.72 0V25h-.79v5.59h.17a5.54 5.54 0 002.07 0 1.5 1.5 0 001-.95 3.72 3.72 0 00.19-1.52zM22 30a4.93 4.93 0 01-1 0v-2.65a1.36 1.36 0 011.18-.17c.63.25.67.79.67 1.38.03 1.07-.49 1.44-.85 1.44zm-2.92-.51a17.07 17.07 0 000-2.13c-.08-.88-.88-1-1.54-1a3.5 3.5 0 00-1.28.3l.22.77a1.7 1.7 0 011.1-.36.77.77 0 01.8 1.09h-1.23A1.24 1.24 0 0016 29.45c0 .29.09 1.33 1.17 1.33s1.35-.45 1.35-.45c0 .52 1 .49 1 .49v-.72c-.52.06-.44-.61-.44-.61zm-.7 0s-.12.58-1 .56-.6-.72-.6-.72.08-.39.66-.43l1-.06z" fill="#898989"/></svg>