<svg xmlns="http://www.w3.org/2000/svg" width="102" height="95"><g fill="none"><g fill="#FFBE02"><path d="M94.98 76.2c3.7 0 6.7-3 6.7-6.7V38.96c0-3.7-3-6.7-6.7-6.7H53.1v-.77c0-1.03-.36-1.98-.96-2.72.44-.55.76-1.2.9-1.93 1.7-1 2.78-2.84 2.78-4.86 0-.96-.24-1.9-.7-2.72.46-.83.7-1.76.7-2.7 0-2.02-1.07-3.85-2.75-4.85.03-.2.04-.4.04-.6 0-2.86-2.13-5.23-4.88-5.6-1-1.7-2.84-2.78-4.86-2.78-.25 0-.52.02-.78.06-1.12-.9-2.53-1.42-3.97-1.42-.18 0-.38 0-.57.03C36.83.5 35.36 0 33.86 0S30.9.5 29.7 1.4c-.2-.03-.4-.04-.6-.04-1.45 0-2.83.5-3.95 1.4-1.8.17-3.38 1.2-4.3 2.73-2.75.37-4.9 2.74-4.9 5.6 0 .2.02.4.05.6-1.68 1-2.76 2.83-2.76 4.84 0 .95.25 1.88.7 2.7-.45.84-.7 1.77-.7 2.73 0 2.02 1.1 3.86 2.8 4.86.07.4.2.78.38 1.14-1.1.78-1.8 2.06-1.8 3.5v2.73c0 2.37 1.92 4.3 4.3 4.3h.7l.12.73c.26 1.68 1.14 3.2 2.43 4.28l.6.5v4.5c0 .5-.34.92-.8 1.07l-11.92 3.66c-2.96.9-4.96 3.6-4.96 6.7V79.7c0 1.97.68 3.77 1.8 5.2H3.3C1.47 84.9 0 86.4 0 88.2v3.4c0 1.8 1.48 3.28 3.3 3.28h95.08c1.8 0 3.3-1.48 3.3-3.3v-3.4c0-1.8-1.5-3.27-3.3-3.27H81.1l-1.16-8.7h15.04zm3.5-37.25V69.5c0 1.94-1.56 3.52-3.5 3.52H79.7c-.06 0-.12 0-.2 0l-1.22-9.26c-.33-2.46-2.46-4.33-4.95-4.33H65.7c-2.5 0-4.62 1.87-4.95 4.33l-1.24 9.27c-.05 0-.1 0-.17 0h-15.3c-1.92 0-3.5-1.6-3.5-3.52V38.96c0-1.93 1.58-3.5 3.5-3.5H95c1.94 0 3.5 1.57 3.5 3.5zM54.13 84.9c0-.03 0-.07 0-.1v-8.6h4.97l-1.17 8.7h-3.8zM49.1 32.27l.27-1.74c.33.2.55.55.55.96v.78h-.83zM17.07 18.2c-.3-.34-.65-.9-.65-1.66 0-1.1.76-2.1 1.84-2.38.44-.12.8-.42 1-.83.2-.4.23-.88.06-1.3-.12-.3-.18-.62-.18-.93 0-1.35 1.08-2.45 2.42-2.48.07 0 .14.02.2.02.72.04 1.37-.4 1.6-1.06.35-1 1.26-1.66 2.28-1.68.04 0 .07 0 .1 0 .43 0 .83-.15 1.14-.45.6-.58 1.37-.9 2.2-.9.22 0 .44.02.7.07.5.12 1.05-.02 1.43-.38.73-.68 1.66-1.05 2.63-1.05.96 0 1.9.36 2.62 1.04.38.36.92.5 1.43.38.27-.05.5-.07.7-.07.9 0 1.73.37 2.34 1.05.43.46 1.1.64 1.7.43.25-.1.5-.13.72-.13 1.05 0 2 .68 2.34 1.68.23.67.88 1.1 1.6 1.06.06 0 .12 0 .2-.02 1.34.03 2.42 1.13 2.42 2.48 0 .3-.06.62-.18.93-.17.42-.15.9.05 1.3s.57.7 1 .83c1.08.3 1.84 1.27 1.84 2.38 0 .77-.35 1.32-.65 1.65-.55.6-.55 1.52 0 2.12.3.33.64.88.64 1.65 0 1.04-.67 1.98-1.67 2.33-.7.24-1.13.92-1.07 1.65 0 .04 0 .1.02.15-.02.48-.36.9-.84 1.02-.04 0-1.57.05-1.57.05l-.9-5.5c-.14-.8-.87-1.38-1.7-1.32-.07 0-.14.02-.2.03h-.02c-.82 0-1.57-.43-2.03-1.12-.3-.44-.8-.7-1.32-.7-.54 0-1.04.26-1.33.7-.46.7-1.24 1.12-2.07 1.12-.83 0-1.6-.42-2.07-1.12-.3-.44-.8-.7-1.33-.7s-1.03.26-1.32.7c-.45.7-1.23 1.12-2.06 1.12-.83 0-1.6-.42-2.07-1.12-.3-.44-.8-.7-1.33-.7s-1.03.26-1.32.7c-.46.7-1.2 1.1-2.03 1.12h-.02c-.07 0-.14-.02-.22-.03-.82-.06-1.55.5-1.68 1.33l-.92 5.5s-1.52-.05-1.57-.06c-.5-.12-.83-.54-.85-1.03 0-.06 0-.1.02-.15.06-.73-.38-1.4-1.07-1.65-1-.35-1.67-1.3-1.67-2.33 0-.77.35-1.32.65-1.65.54-.6.54-1.53 0-2.13zM18.9 35.3c-.6 0-1.1-.5-1.1-1.12v-2.72c0-.4.2-.77.54-.96l.77 4.8h-.2zm2.64-4.97h.22c1.44 0 2.67-1.03 2.9-2.46l.75-4.44c.86-.16 1.65-.5 2.34-1.03.97.72 2.15 1.13 3.4 1.13 1.24 0 2.43-.4 3.4-1.13.96.72 2.15 1.13 3.4 1.13 1.24 0 2.42-.4 3.4-1.13.67.52 1.47.87 2.33 1.03l.73 4.43c.18 1.03.88 1.86 1.8 2.24l-.33 2.12h-1.83c-3.68 0-6.68 3-6.68 6.7V46c-.3.1-.6.17-.9.17h-5.2c-.58 0-1.15-.2-1.6-.6l-5.44-4.53c-.72-.6-1.2-1.43-1.34-2.35l-1.34-8.37zM22.9 52.6c1.82-.55 3.04-2.2 3.04-4.1v-1.85l1.7 1.4c1 .86 2.3 1.32 3.6 1.32h5.2c.32 0 .62-.02.92-.07v10.24c-.94.16-1.88.23-2.84.23-5.3 0-10.32-2.43-13.6-6.55l1.98-.6zM8.28 79.7V59.94c0-1.7 1.1-3.17 2.7-3.67l6.7-2.06c3.86 5.5 10.15 8.76 16.84 8.76.96 0 1.9-.07 2.84-.2v6.75c0 3.7 3 6.7 6.68 6.7h6.9v8.6c0 .03 0 .07 0 .1h-8.7v-1.8c0-3.7-3-6.7-6.7-6.7H18.58c-.05 0-.1-.03-.1-.1V66.13c0-.88-.72-1.6-1.6-1.6-.87 0-1.58.72-1.58 1.6v10.2c0 1.8 1.46 3.28 3.27 3.28h10.3v5.3h-15.4c-2.85 0-5.2-2.33-5.2-5.2zm23.77 5.2v-5.3h3.5c1.93 0 3.5 1.57 3.5 3.5v1.8h-7zm66.44 3.3v3.4c0 .05-.06.1-.12.1H3.28c-.05 0-.1-.05-.1-.1v-3.4c0-.06.05-.1.1-.1h95.1c.06 0 .1.04.1.1zm-37.35-3.3L63.9 64.2c.13-.9.9-1.56 1.8-1.56h7.63c.9 0 1.68.67 1.8 1.56l2.75 20.73H61.15z"/></g></g></svg>