<svg xmlns="http://www.w3.org/2000/svg" width="100" height="96"><g fill="none"><g fill="#FFBE02"><g><path d="M20.46 16.34h32.86c0-2.3.13-4.53-.02-6.76-.4-6.04 4.47-9.75 9.52-9.57 9.24.33 18.5.1 27.75.1 5.33 0 8.83 3.45 8.83 8.8.02 21.66 0 43.32 0 64.98 0 4.46-2.55 6.96-6.4 8.33-.2 2.1-.22 4.2-.68 6.16-.95 3.95-4.06 6.5-8.1 7-.96.1-1.9.18-2.86.18-23.06 0-46.1 0-69.17.02-4.5 0-8.37-1.17-10.4-5.53-.7-1.54-1.06-3.4-1.07-5.1C.66 61.24.67 37.5.7 13.8c0-6.02 4-10.24 9.67-10.4 5.58-.12 9.76 4.02 10.1 10.02.04.93 0 1.87 0 2.92zm0 3.67v2.82c0 18.13 0 36.27 0 54.4 0 .73.1 1.53-.14 2.17-.2.5-.86 1.1-1.36 1.16-.5.05-1.2-.43-1.54-.88-.32-.4-.33-1.1-.42-1.67-.5-3.12-3.33-5.55-6.44-5.53-3.37.04-6.1 2.4-6.4 5.8-.2 2.03-.14 4.1-.13 6.15.03 5.4 2.42 7.8 7.8 7.8 23.26 0 46.53 0 69.8 0 6.04 0 8.9-3.7 7.46-9.9-.82 0-1.68 0-2.55 0-8 0-16 .04-24 0-6.04-.04-9.16-3.23-9.23-9.28-.02-1.8 0-3.6 0-5.5-7.42 0-14.46 0-21.5 0-1.6 0-3.24.1-4.83-.1-.6-.07-1.48-.92-1.5-1.45-.03-.55.72-1.32 1.32-1.66.5-.3 1.28-.14 1.94-.14 7.35 0 14.7 0 22.03 0 .77 0 1.55-.08 2.33-.12v-4.86c-3.27 0-6.34.07-9.4-.05-.63-.03-1.5-.67-1.74-1.25-.17-.38.4-1.35.9-1.7.46-.3 1.26-.2 1.9-.2 2.78-.03 5.55-.02 8.4-.02v-4.7c-.7-.05-1.27-.1-1.84-.12-6.76 0-13.5.03-20.26 0-3.76-.04-5.72-2.06-5.73-5.75-.02-5.06-.03-10.13 0-15.2.02-3.44 2.03-5.44 5.47-5.44 6.68-.03 13.36-.02 20.05-.02h2.3V20H20.46zm36.35 40.8h39.14V16.66H56.8V60.8zM17.05 71.52v-8.96c0-16.36.02-32.72-.02-49.1 0-4.9-4.17-7.9-8.66-6.35-2.92 1-4.33 3.36-4.33 7.37 0 18.27 0 36.54 0 54.8 0 .63.08 1.25.15 2.13 4.3-2.87 8.4-2.94 12.86.12zm39.7-7.15c0 3.6-.15 7.12.05 10.6.12 2.28 2.14 4 4.52 4 10.05.08 20.1.08 30.14.02 2.2-.02 4.08-1.37 4.28-3.43.38-3.67.1-7.4.1-11.2h-39.1zm-.08-51.25h39.4c0-1.63.06-3.16 0-4.68-.17-3.16-1.8-4.8-5-4.95-2.48-.13-4.98-.06-7.47-.06-7.13 0-14.25-.05-21.37.02-4 .04-5.54 1.7-5.57 5.72 0 1.24 0 2.48 0 3.94zM28.9 46.9c7.3-3.03 14.3-5.94 21.73-9-7.46-3.06-14.46-5.92-21.74-8.9v17.9zm24.3-6.38c-5.62 2.3-11.04 4.54-16.46 6.78.05.1.1.22.15.33h16.3v-7.1zM36.9 28.25c-.02.14-.03.3-.04.43 5.4 2.2 10.77 4.4 16.3 6.68v-7.1H36.9z"/><path d="M30.94 59.24c-1.3 0-2.65.16-3.94-.06-.6-.1-1.07-.93-1.6-1.42.53-.57 1.04-1.6 1.6-1.62 2.8-.17 5.58-.15 8.35 0 .52.03 1.38 1 1.38 1.53 0 .52-.84 1.4-1.4 1.5-1.43.2-2.92.07-4.4.07"/><path d="M76.22 41.16c-4.1 0-8.22.03-12.32 0-2.77-.03-3.9-1.06-3.94-3.85-.08-4.7-.06-9.38 0-14.07.02-2.08 1.17-3.3 3.28-3.33 8.73-.06 17.45-.06 26.17 0 2.3.02 3.35 1.17 3.38 3.46.05 4.77.05 9.54 0 14.3-.03 2.34-1.18 3.45-3.6 3.48-4.3.06-8.64.02-12.96.02zM63.35 24.6v11.82c3.32-2 6.4-3.87 9.77-5.9-3.4-2.06-6.44-3.9-9.77-5.92zm25.92 11.8V24.6c-3.3 2.03-6.32 3.88-9.65 5.93 3.37 2.05 6.4 3.9 9.65 5.88zM68.32 23.17c-.04.13-.08.26-.12.38 2.47 1.54 4.94 3.1 7.43 4.6.32.2.9.3 1.2.15 2.64-1.58 5.26-3.2 8.4-5.14h-16.9zm16.86 14.7c-3.05-1.86-5.53-3.4-8.05-4.85-.36-.2-1.04-.26-1.4-.06-2.54 1.48-5.04 3.05-8.1 4.9H85.2z"/><path d="M76.95 54.34c-4.33 0-8.66 0-13 0-1.22.02-2.36-.2-2.35-1.63 0-1.45 1.2-1.6 2.4-1.6 8.8.02 17.62 0 26.43 0 1.17 0 2.36.12 2.33 1.65-.02 1.5-1.2 1.6-2.37 1.6-4.5 0-8.97 0-13.45 0"/><path d="M83.7 47.75c-2.27 0-4.55.14-6.8-.07-.76-.07-1.44-1-2.15-1.55.72-.53 1.44-1.5 2.18-1.52 4.6-.13 9.23-.12 13.84 0 .68.03 1.34.95 2.02 1.45-.7.57-1.35 1.56-2.08 1.62-2.32.22-4.68.08-7.02.08"/><path d="M66.25 47.73c-1.02 0-2.1.18-3.06-.06-.63-.16-1.5-.9-1.53-1.44-.03-.52.82-1.54 1.34-1.57 2.34-.18 4.7-.16 7.03 0 .48.02 1.33.96 1.27 1.4-.08.6-.77 1.47-1.33 1.58-1.2.25-2.47.08-3.72.08"/><path d="M81.33 70.88c0 3.97-.98 4.98-4.9 4.98-4.07 0-5.02-.95-5-5.07 0-4 .96-4.98 4.9-5 4.05 0 5 .97 5 5.08zm-6.5 1.4h3v-2.84h-3v2.84z"/><path d="M76.26 9.87c-1.1 0-2.24.18-3.28-.07-.58-.14-1.4-1-1.38-1.52 0-.53.87-1.46 1.4-1.5 2.26-.17 4.55-.17 6.8 0 .54.04 1.4 1 1.4 1.53s-.85 1.37-1.45 1.5c-1.12.24-2.32.07-3.5.07"/></g></g></g></svg>