<svg xmlns="http://www.w3.org/2000/svg" width="102" height="102"><g fill="none"><g fill="#FFBE02"><g><path d="M2.82 36.16c-.74-.15-1.3-.27-1.92-.4V.24h9.65v32.2h2.94c3.25-6.24 1.54-12.93 1.9-19.4.15-2.62.03-5.24.03-7.96H25c.12.6.23 1.2.36 1.93 2.62-1.16 5.1-2.37 7.65-3.38C44.96-1.1 57-1.18 69 3.3c1.93.73 3.64 1.58 4.86-.78 4.62 2.52 4.82 2.44 5.98-2.42 2.3 0 4.7-.1 7.07.07.48.03 1.13 1 1.3 1.63.63 2.5 1.86 3.14 3.9 1.65 1.18-.86 1.92-.84 2.8.27.67.82 1.44 1.55 2.24 2.23 1.55 1.32 2.56 2.52.8 4.56-.98 1.12.03 2.87 1.72 3 1.8.15 2.22.96 2.1 2.6-.1 1.93-.02 3.88-.02 5.78-4.72 1.42-4.72 1.42-2.53 6.12-2.1 1.2-1.48 2.76-.76 4.68 8.66 22.8-.02 48.06-20.9 60.9-1.4.84-1.98 1.72-1.93 3.36.12 3-1.02 4.08-4 4.08-13.58.02-27.17.02-40.75 0-2.8 0-4.04-1.15-3.9-3.96.06-1.74-.58-2.63-2-3.56C8.2 82.72.28 67.26.88 47.43c.04-1.86.42-3.72.74-5.56.32-1.85.75-3.67 1.18-5.7zm27.32-6.36V14.85h9.83v17.6h3.07c.86-4.64 3.14-7.17 7.02-7.86 3.1-.57 6.27.92 8.07 3.75 2.26 3.56 1.78 9.95-.98 13.1-1.62 1.86-1.35 2.9.94 3.6 2.67.82 5.33 1.7 8.03 2.55 2.18-.74 4.7-1.66 7.23-2.45 2.8-.87 2.95-1.63 1.2-3.95-.98-1.32-2.1-3.12-1.97-4.58.36-3.74-1.1-6.3-3.86-8.43-.15-.13-.2-.38-.27-.54 2.53-4.12 2.47-4.26-2.57-5.78 0-2.25-.1-4.57.08-6.87.04-.5.96-1.18 1.6-1.34 2.65-.68 3.06-1.7 1.66-4.12-.4-.7-.38-1.67-.64-2.94-14.4-5.3-28.63-4.24-42.2 4-.62.37-1.13 1.4-1.16 2.14-.1 3.68-.08 7.36-.02 11.03 0 .6.26 1.3.65 1.72 1.37 1.5 2.84 2.88 4.27 4.3zm.02 67.83h42.2V86.28H58c-.18 1.4-.3 2.32-.43 3.28H44.92c-.14-1.08-.25-2.02-.4-3.35H30.15v11.43zM57.98 83c3.9 0 7.72.2 11.5-.1 1.04-.1 2.63-1.6 2.78-2.6.38-2.77.13-5.62.13-8.4H30.1c0 2.72-.04 5.26.03 7.8.05 1.75.9 3.2 2.75 3.26 3.87.14 7.75.04 11.7.04.13-1.12.23-2.06.34-3.06h12.7c.13 1.04.24 1.98.36 3.07zM31.83 53.9v14.43h3.2V56.7c0-6.67-.02-6.64-6.54-8.4-1.26-.35-2.1-.38-3.1.77-1.7 2-5.1 2.24-6.6.3-1.3-1.7-2.5-1.4-4.04-.87-.78.25-1.58.45-2.38.68-2.77.78-3.44 1.6-3.45 4.42 0 5.18.12 10.37-.04 15.54-.1 2.87 1.37 4.83 3.25 6.8V53.9h3.4v11.12h12.87V53.9h3.4zm58.55 22c2-2.03 3.45-4.13 3.3-7.1-.23-3.9-.07-7.8-.06-11.7.02-7.3.53-6.92-6.8-8.86-1.16-.32-1.82-.22-2.67.72-1.88 2.07-5.17 2.35-6.8.4-1.22-1.48-2.33-1.45-3.82-.93-1 .34-2.02.56-3.03.84-2 .54-3 1.83-2.97 3.93 0 4.66 0 9.3 0 13.97 0 .4.18.83.25 1.2h3V53.9h3.37v11.08h13V53.94h3.23V75.9zm-26.7-7.24c.2-.1.43-.2.64-.3 0-3.73-.02-7.47 0-11.2.03-7.44.5-7-6.94-8.96-1.1-.3-1.68-.16-2.47.7-2.2 2.4-5.24 2.26-7.48-.06-.4-.4-1.12-.87-1.57-.78-1.82.4-3.7.78-5.36 1.57-.94.44-2.1 1.66-2.12 2.57-.2 5.37-.1 10.76-.1 16.23.48 0 1 .06 1.02 0 1.3-4.76 2.9-9.46 2.03-14.52h3.48v7.84h12.93v-7.8h3.38c0 1.33 0 2.52 0 3.7.04 1.58-.47 3.5.26 4.63 1.08 1.67 1.24 3.26 1.33 5.05 0 .46.63.9 1 1.34zm18.95-65.2c-1.18 3.76-4.86 5.26-8.27 3.32-.56.6-1.6 1.27-1.58 1.78.1 1.36 1.76 2.1.72 3.64-.73 1.1-1.04 2.48-1.6 3.7-.08.2-.48.37-.74.37-2.2.03-2.07 1.4-1.78 2.9 3.36 1.05 4.77 4.2 3.58 7.63-.14.4.26 1 .35 1.32 1.9-1.35 3.57-2.54 5.2-3.72-3.86-4.96-3.6-10.3.78-13.12 4.2-2.72 9.4-1.38 11.73 3 2.44 4.62.34 9.32-5.32 11.8.8 1 1.6 1.95 2.52 3.1 1.7-1.43 3.46-1.6 5.05.2.7-.8 1.24-1.4 1.76-2-1.87-3.34-.33-7.06 3.35-8.2.42-1.57.36-2.8-1.76-2.9-.38-.03-1-.4-1.04-.68-.4-2.35-3.32-4.5-.38-6.97-.8-.76-1.4-1.3-2.08-1.94-1.47 1.58-2.95 1.6-4.56.4-.52-.4-1.3-.4-1.87-.73-.45-.27-1.05-.77-1.07-1.2-.1-2.02-1.35-2.03-2.97-1.7zM30.8 36.02c-1.13 2.06-1.87 3.87-2.98 5.4-1.46 1.98-1.3 2.92.97 3.63 2.67.83 5.33 1.7 8.04 2.55 2.86-1 6.08-2.12 9.53-3.33-.1-.68-.04-1.57-.4-2.2-1.1-1.97-2.34-3.84-3.72-6.05H30.8zm64.26-3.16c-.16.14-.3.27-.47.4-.88-.27-1.75-.6-2.63-.8-.8-.2-1.7-.57-2.37-.32-.47.18-.88 1.25-.85 1.9.13 3.07-.53 5.72-2.8 8-.9.9-1.05 2.33.9 2.8 1.73.44 3.44 1 5.15 1.53 3.25 1.03 4.77 3.05 4.8 6.45.06 2.76.02 5.5.02 8.27 2.7-9.64 1.8-19.03-1.76-28.24zm-89.9 28.3c.2-.02.38-.04.56-.06 0-2.7-.02-5.38 0-8.07.04-3.54 1.7-5.72 5.1-6.77 1.58-.5 3.17-.9 4.75-1.38 1.64-.5 1.94-1.57 1.03-2.96-1.2-1.82-2.28-3.7-3.65-5.97-1.28 0-3.14.07-5-.02-1.24-.06-1.82.45-1.96 1.6-.65 5.02-1.5 10.04-1.8 15.1-.16 2.8.62 5.68.97 8.54zM56.2 34.3c0-3.55-1.25-5.73-3.58-6.27-2.97-.7-5.5.86-6.14 3.77-.98 4.34.63 8.2 3.66 8.8.15.03.3.03.45.05 3.6.38 5.6-1.88 5.6-6.35zm-39.14-.1c0 4 1.5 6.24 4.4 6.46 2.76.2 4.8-1.34 5.33-4.06.8-4.06-.58-7.72-3.2-8.52-.22-.06-.45-.06-.68-.1-3.77-.57-5.86 1.65-5.86 6.23zm68.43.1c0-3.57-1.25-5.74-3.6-6.27-2.96-.68-5.47.87-6.12 3.78-.96 4.37.64 8.22 3.68 8.8.15.04.3.04.45.05 3.6.36 5.6-1.9 5.6-6.36zM4.17 32.4h2.9V3.44h-2.9V32.4zm79.74-9.64c2.8-.03 4.84-2.13 4.75-4.88-.08-2.57-2.23-4.68-4.8-4.7-2.7-.02-4.9 2.14-4.86 4.83.04 2.74 2.15 4.8 4.92 4.76zm-60.26 45.9c0 6.2.1 12.18-.06 18.16-.05 2.43 1.26 3.18 3.28 3.82 0-5.75-.05-11.3.04-16.83.03-1.68.47-3.37.74-5.14h-4zm52 22.03c2.4-.77 3.44-1.93 3.3-4.34-.24-3.36-.07-6.74-.07-10.1v-7.6h-4c.25 1.76.7 3.45.72 5.15.1 5.55.04 11.1.04 16.9zm6.72-5.3c.17.13.34.25.5.37 1.37-1.54 3.65-2.96 3.9-4.66.56-4.06.18-8.28.18-12.42h-4.58V85.4zM15.5 68.66c0 3.05.32 5.94-.08 8.72-.6 4.08 1.9 6.07 4.72 8.42V68.64H15.5zm6.33-44.3V8.38h-2.9v16.66c1.05-.25 1.9-.45 2.9-.7zM43.3 68.33h16v-2.95h-16v2.95zM33.48 32.4h2.93V18.17H33.5V32.4zm14.74 53.8h6.14v-2.98h-6.14v2.98zm4.58-41.94h-3.17c.1 1.45-.2 3.06 1.7 2.94 1.73-.1 1.67-1.55 1.47-2.94zm25.93-.12c.37 1.1.56 2.05 1.04 2.85.13.23 1.36.22 1.55-.05.52-.75.76-1.7 1.2-2.8h-3.8zm-58.7 0c.43 1.14.67 2.1 1.18 2.9.15.22 1.4.16 1.57-.12.48-.77.67-1.72 1.04-2.77h-3.77z"/></g></g></g></svg>