<svg xmlns="http://www.w3.org/2000/svg" width="98" height="93"><g fill="none"><g fill="#FFBE02"><g><path d="M3.6 63.22h7.2V27.36c-.94 0-1.8.08-2.63-.02-1.7-.2-2.26-1.4-1.1-2.57 2.85-2.82 5.74-5.6 8.75-8.24.48-.4 2.07-.4 2.55.04 2.96 2.6 5.8 5.34 8.58 8.1.4.4.64 1.27.5 1.8-.14.4-.97.75-1.55.86-.75.14-1.56.03-2.65.03v21.46h-3.07c-.03-.72-.1-1.44-.1-2.16-.02-6.5-.07-13 .03-19.5.03-1.1.75-2.16 1.3-3.65-1.04-.96-2.63-2.44-4.3-4.02-1.6 1.6-3.14 3.18-4.28 4.34.44 1.25 1.2 2.4 1.2 3.52.1 10.75.06 21.5.06 32.25v3.56h69.57c0-2.05 0-4 0-5.98 0-5.68 0-11.36 0-17.04 0-1.43-.03-2.8 1.7-2.83-1.5-1.58-3.03-3.2-4.7-5-1.64 1.75-3.16 3.38-4.53 4.86.38.44 1.42 1.08 1.44 1.75.13 5.2.06 10.38.06 15.67h-2.97V40.3c-1.17 0-2.1.07-3-.03-1.54-.18-2.12-1.4-1.04-2.46 2.9-2.86 5.85-5.67 8.9-8.38.43-.38 1.9-.37 2.35.02 3 2.65 5.9 5.44 8.74 8.24.37.37.68 1.25.48 1.6-.28.48-1.05.84-1.67.98-.74.16-1.55.04-2.5.04v22.9h7.25V11.7h-7.4v17.02H83.7V8.7H67.16V5.8h7.26c.04-.97.08-1.76.13-2.8H62.6V.2c.5-.05 1.04-.16 1.6-.16C70.8.04 77.44.08 84.07 0c1.98-.02 2.76.67 2.68 2.52-.1 1.96-.02 3.93-.02 6.14 2.87 0 5.53.05 8.17-.02 1.8-.05 2.43.67 2.43 2.33-.03 20.53-.04 41.07 0 61.6 0 1.73-.76 2.26-2.48 2.25-9.73-.04-19.46-.02-29.2-.02h-2.7c.78 2.94 1.5 5.67 2.3 8.62 1.1 0 2.17-.04 3.22 0 1.85.1 2.92 1.06 3.1 2.82.08.95.1 1.92.03 2.87-.14 1.86-1.24 2.93-3.2 2.93-13.05.03-26.1.03-39.14 0-1.85 0-2.93-1.04-3.1-2.8-.08-.82-.05-1.64-.02-2.47.07-2.33 1.12-3.3 3.6-3.34.87 0 1.73 0 2.74 0 .76-2.84 1.5-5.6 2.3-8.62h-2.6c-9.58 0-19.16 0-28.75 0-2.93 0-3-.07-3-2.92 0-20.13 0-40.26 0-60.38 0-2.67.17-2.84 2.9-2.85 2.44 0 4.88 0 7.64 0 0-2.22 0-4.3 0-6.4 0-1.34.4-2.23 2.08-2.23 7.13.03 14.27.02 21.4.03.2 0 .4.1.7.2v2.63H23.28v2.84h7.27v2.9H14.1c0 1.78 0 3.4 0 5 0 2.43 0 2.43-2.98 2.1-.07-1.3-.16-2.62-.25-4.07H3.6v51.57zm-.04 8.6h90.62v-5.5H3.56v5.5zM35.7 83.3h26.32c-.8-2.92-1.52-5.67-2.3-8.52-6.95 0-13.77 0-20.6.03-.44 0-1.18.37-1.28.7-.77 2.54-1.42 5.1-2.13 7.78zM29.3 89h39.1v-2.56h-39.1V89zM14.24 5.66h5.66V3.03h-5.66v2.64zm63.52 0h5.8V3.05h-5.8v2.62z"/><path d="M50.53 37.58v4.94c2.64-2.96 5.6-4.5 9.13-4.92.78-.1 1.57-.15 2.36-.18 1.34-.04 2.08.6 1.96 1.87-.55 6-3.5 11.93-10.86 13.42-2.45.5-3.02 1.48-2.7 3.5.04.33.06.68.1 1.27H62.4v2.77H35.33v-2.7h11.8c.08-.7.1-1.22.18-1.73.3-1.88-.34-2.64-2.5-3.05-7.25-1.38-10.54-7.24-11.08-13.48-.12-1.4.73-1.95 2.14-1.9 4.3.13 8.05 1.43 11.2 4.98v-4.94c-7.08-.98-12.7-4.3-16-10.74-2.03-3.98-2.48-8.13-1.36-12.4C32.07 5.3 40.75-.62 50.46.07 59.6.7 67.36 7.74 68.4 16.3c1.24 10.52-4.43 17.33-17.87 21.28M32.26 18.66c-.04 8.7 7.4 15.85 16.53 15.88 9.16.03 16.64-7.03 16.67-15.74.04-8.7-7.4-15.85-16.53-15.88-9.13-.05-16.65 7.05-16.68 15.74m18.6 31.28c4.9.3 9.86-4.55 9.55-9.34-5.4.44-9.6 4.52-9.55 9.34m-3.88.04c-.6-5.5-5.1-9.64-9.78-9.18.48 5.2 4.63 9.16 9.77 9.18"/><path d="M20.25 54.58h2.8v-2.65h-2.8z"/><path d="M74.7 60.33h2.8v-2.7h-2.8z"/><path d="M48.63 31.67c-7.32-.02-13.38-5.86-13.4-12.9-.04-7.2 6.13-13.02 13.75-13 7.38.05 13.54 5.87 13.54 12.8 0 7.35-6.12 13.12-13.9 13.1M59.4 18.82c.1-5.5-4.62-10.1-10.44-10.15-5.73-.06-10.48 4.3-10.64 9.75-.16 5.55 4.45 10.22 10.22 10.35 5.95.14 10.74-4.25 10.85-9.95"/><path d="M42.98 21.7c1.2-.08 2.1-.12 3.33.82 1.1.83 3.38.3 5.1.2.2 0 .5-1.08.4-1.6-.1-.38-.73-.85-1.17-.9-1.14-.14-2.3-.05-3.45-.06-2.34 0-4.16-1.3-4.37-3.07-.37-3.24 1.1-4.43 3.4-5.73 2.25-1.27 3.5-1.03 5.55.05 1.77.92 3.23 2.16 3 4.33-1.2.07-2.1.12-3.33-.82-1.1-.82-3.36-.28-5.1-.2-.17 0-.48 1.1-.36 1.62.07.37.73.83 1.18.88 1.13.13 2.3.05 3.45.06 2.26 0 4.12 1.34 4.32 3.1.36 3.26-.74 4.88-3.5 5.56-1 .25-1.86 1.3-2.8 1.3-.86.02-1.66-1.06-2.6-1.3-2.03-.54-3.27-2.1-3.04-4.26"/></g></g></g></svg>