<svg xmlns="http://www.w3.org/2000/svg" width="62" height="58"><g fill="none"><g fill="#9995B4" fill-rule="nonzero"><g><path d="M26 0c-2.2 0-5.35.7-7.3 2-3.73.14-6.28 2.76-6.7 6.9-.25 2.56-.02 4.4.14 5.6.05.43.1.9.1 1.04-.04.2-.07.37-.1.57-.16 0-.3.04-.44.07-.9.24-1.53 1.04-1.78 2.26-.2.98-.13 2.17.18 3.35.54 2 1.66 3.5 2.88 3.95.64 1.94 1.57 3.87 2.72 5.6l-9.22 5.34C2.48 38.97 0 43.3 0 47.92V55c0 1.65 1.35 3 3 3h46c1.65 0 3-1.35 3-3v-3h7c1.65 0 3-1.35 3-3v-3.56c0-3.75-1.88-7.2-5.02-9.24l-10.1-6.53c1.12-1.46 2.08-3.2 2.7-5.06.95-.4 1.78-1.54 2.2-3.07.24-.92.3-1.85.13-2.6-.2-1-.75-1.7-1.5-1.9-.06 0-.1-.02-.17-.03-.1-.66-.27-1.3-.55-2.08.18.04.37.1.54.17.35.14.74.08 1.03-.16.3-.24.4-.62.34-.98-1.24-5.63-5.42-9-11.2-9h-.73c-.37 0-.77.04-1.2.1C35.83 1.8 31.85 0 27 0h-1zm0 2h1c6.07 0 10.45 3.1 12.25 8.58-.7-.08-1.4 0-1.9.48-.38.37-.74 1.06-.28 2.3.6 1.68.84 2.67.9 4.07.02.36.23.68.54.85.33.16.7.14 1.02-.06.16-.1.24-.1.26-.1.04 0 .23.18.34.7.14.68.08 1.57-.15 2.44-.5 1.84-1.44 2.62-1.74 2.62-.44 0-.83.3-.95.7C35.58 30.3 31.18 36 26 36s-9.6-5.74-11.27-11.4c-.13-.43-.52-.72-.96-.72-.3 0-1.24-.78-1.73-2.62-.24-.87-.3-1.76-.16-2.43.12-.56.3-.72.33-.72.02 0 .1 0 .3.12.3.2.67.22 1 .06.3-.17.52-.5.53-.85.02-.52.08-1.04.17-1.54.08-.44 0-.92-.08-1.65-.14-1.12-.36-2.82-.12-5.15.32-3.2 2.2-5.1 5.02-5.1.2 0 .43-.07.6-.2C21 2.77 23.72 2 26 2zm13.8 4.97h.6c4.3 0 7.4 2.12 8.8 5.87-.46 0-.9.12-1.24.45-.34.3-.66.92-.28 1.97.45 1.23.6 1.94.66 2.96.02.36.23.68.55.85.3.15.67.14.96-.04.13.28.24 1-.02 1.97-.3 1.16-.9 1.73-1.05 1.78-.45 0-.84.3-.97.7-.93 3.14-2.87 5.95-5.06 7.35-.47.3-.6.92-.3 1.38.18.3.5.48.84.48.2 0 .38-.05.54-.16.6-.38 1.16-.84 1.7-1.37.05.04.08.1.13.12l10.22 6.6c2.56 1.68 4.1 4.5 4.1 7.57V49c0 .55-.45 1-1 1h-7v-2c.55 0 1-.45 1-1v-2c0-.55-.45-1-1-1-.2 0-.4.08-.56.2-.94-3.13-3.03-5.86-5.92-7.53l-9.22-5.34c1.15-1.73 2.08-3.66 2.72-5.6 1.22-.46 2.34-1.96 2.87-3.95.3-1.18.38-2.37.18-3.35-.25-1.22-.88-2.02-1.78-2.26-.13-.03-.28-.06-.44-.06-.14-1.06-.4-2.06-.92-3.43 0-.04-.02-.08-.03-.1.36.02.92.16 1.4.35.33.15.73.1 1-.15.3-.24.43-.62.34-.98-.4-1.8-1-3.4-1.83-4.83zM20.18 8.13c-.6.05-1.14.36-1.5.9l-1.6 2.42c-.3.46-.17 1.08.3 1.4.16.1.35.15.54.15.34 0 .65-.16.85-.45l1.6-2.43 1.57.76c2.85 1.4 6.02 2.12 9.2 2.12h2.55c.55 0 1-.45 1-1s-.45-1-1-1H31.1c-2.85 0-5.73-.66-8.3-1.92l-1.57-.76c-.34-.17-.7-.23-1.06-.2zm-3.26 24.8C19.35 35.92 22.5 38 26 38s6.66-2.1 9.1-5.05l9.4 5.45c3.4 1.96 5.5 5.6 5.5 9.52V55c0 .55-.45 1-1 1H3c-.55 0-1-.45-1-1v-7.08c0-3.9 2.1-7.56 5.5-9.52l9.4-5.46zM18.07 38c-.38-.02-.77.18-.95.55-.24.5-.04 1.1.45 1.34l8 4c.15.06.3.1.45.1.15 0 .3-.04.45-.1l8-4c.5-.25.7-.85.44-1.35-.25-.5-.85-.7-1.35-.44L26 41.9l-7.55-3.77c-.13-.06-.25-.1-.4-.1zM57 44c-.55 0-1 .45-1 1v2c0 .55.45 1 1 1s1-.45 1-1v-2c0-.55-.45-1-1-1zM6 50c-.55 0-1 .45-1 1v2c0 .55.45 1 1 1s1-.45 1-1v-2c0-.55-.45-1-1-1zm5 0c-.55 0-1 .45-1 1v2c0 .55.45 1 1 1s1-.45 1-1v-2c0-.55-.45-1-1-1zm5 0c-.55 0-1 .45-1 1v2c0 .55.45 1 1 1s1-.45 1-1v-2c0-.55-.45-1-1-1zm5 0c-.55 0-1 .45-1 1v2c0 .55.45 1 1 1s1-.45 1-1v-2c0-.55-.45-1-1-1zm5 0c-.55 0-1 .45-1 1v2c0 .55.45 1 1 1s1-.45 1-1v-2c0-.55-.45-1-1-1zm5 0c-.55 0-1 .45-1 1v2c0 .55.45 1 1 1s1-.45 1-1v-2c0-.55-.45-1-1-1zm5 0c-.55 0-1 .45-1 1v2c0 .55.45 1 1 1s1-.45 1-1v-2c0-.55-.45-1-1-1zm5 0c-.55 0-1 .45-1 1v2c0 .55.45 1 1 1s1-.45 1-1v-2c0-.55-.45-1-1-1zm5 0c-.55 0-1 .45-1 1v2c0 .55.45 1 1 1s1-.45 1-1v-2c0-.55-.45-1-1-1z"/></g></g></g></svg>