<svg xmlns="http://www.w3.org/2000/svg" width="64" height="59"><g fill="#9995B4" fill-rule="nonzero"><g><path d="M14.96 0c-.17 0-.34.06-.5.15-.28.18-.46.5-.46.85v32H5c-1.65 0-3 1.35-3 3 0 1.3.84 2.4 2 2.82V57H1c-.55 0-1 .45-1 1s.45 1 1 1h62c.55 0 1-.45 1-1s-.45-1-1-1h-3V24.82c1.16-.42 2-1.52 2-2.82 0-1.65-1.35-3-3-3H46v-3c0-.38-.2-.72-.55-.9l-30-15c-.16-.07-.33-.1-.5-.1zM16 2.62l28 14V57h-6v-6.7c2.36-1.1 4-3.52 4-6.3 0-3.86-3.14-7-7-7s-7 3.14-7 7c0 2.78 1.64 5.2 4 6.3V57h-6V38.82c1.16-.42 2-1.52 2-2.82 0-1.65-1.35-3-3-3h-9V2.62zM21 13c-.55 0-1 .45-1 1s.45 1 1 1h2c.55 0 1-.45 1-1s-.45-1-1-1h-2zm0 5c-.55 0-1 .45-1 1s.45 1 1 1h2c.55 0 1-.45 1-1s-.45-1-1-1h-2zm8 0c-.55 0-1 .45-1 1s.45 1 1 1h2c.55 0 1-.45 1-1s-.45-1-1-1h-2zm17 3h13c.55 0 1 .45 1 1s-.45 1-1 1H46v-2zm-25 2c-.55 0-1 .45-1 1s.45 1 1 1h2c.55 0 1-.45 1-1s-.45-1-1-1h-2zm8 0c-.55 0-1 .45-1 1s.45 1 1 1h2c.55 0 1-.45 1-1s-.45-1-1-1h-2zm8 0c-.55 0-1 .45-1 1s.45 1 1 1h2c.55 0 1-.45 1-1s-.45-1-1-1h-2zm9 2h12v23H46V25zm-25 3c-.55 0-1 .45-1 1s.45 1 1 1h2c.55 0 1-.45 1-1s-.45-1-1-1h-2zm8 0c-.55 0-1 .45-1 1s.45 1 1 1h2c.55 0 1-.45 1-1s-.45-1-1-1h-2zm8 0c-.55 0-1 .45-1 1s.45 1 1 1h2c.55 0 1-.45 1-1s-.45-1-1-1h-2zm14 0c-.55 0-1 .45-1 1s.45 1 1 1h2c.55 0 1-.45 1-1s-.45-1-1-1h-2zm-14 5c-.55 0-1 .45-1 1s.45 1 1 1h2c.55 0 1-.45 1-1s-.45-1-1-1h-2zm14 0c-.55 0-1 .45-1 1s.45 1 1 1h2c.55 0 1-.45 1-1s-.45-1-1-1h-2zM5 35h20c.55 0 1 .45 1 1s-.45 1-1 1H5c-.55 0-1-.45-1-1s.45-1 1-1zm46 3c-.55 0-1 .45-1 1s.45 1 1 1h2c.55 0 1-.45 1-1s-.45-1-1-1h-2zM6 39h18v18H6V39zm29 0c2.76 0 5 2.24 5 5s-2.24 5-5 5-5-2.24-5-5 2.24-5 5-5zm-24 2c-.55 0-1 .45-1 1s.45 1 1 1h2c.55 0 1-.45 1-1s-.45-1-1-1h-2zm6 0c-.55 0-1 .45-1 1s.45 1 1 1h2c.55 0 1-.45 1-1s-.45-1-1-1h-2zm34 2c-.55 0-1 .45-1 1s.45 1 1 1h2c.55 0 1-.45 1-1s-.45-1-1-1h-2zm-40 3c-.55 0-1 .45-1 1s.45 1 1 1h2c.55 0 1-.45 1-1s-.45-1-1-1h-2zm6 0c-.55 0-1 .45-1 1s.45 1 1 1h2c.55 0 1-.45 1-1s-.45-1-1-1h-2zm29 4h12v7H46v-7zm-35 1c-.55 0-1 .45-1 1s.45 1 1 1h2c.55 0 1-.45 1-1s-.45-1-1-1h-2zm6 0c-.55 0-1 .45-1 1s.45 1 1 1h2c.55 0 1-.45 1-1s-.45-1-1-1h-2zm17 0h2v6h-2v-6z"/></g></g></svg>