<svg xmlns="http://www.w3.org/2000/svg" width="64" height="52"><g fill="none"><g fill="#9995B4" fill-rule="nonzero"><g><path d="M26.07 0c-1 0-1.94.5-2.5 1.34L20.47 6H3C1.34 6 0 7.34 0 9v9.8c0 1.63.77 3.07 2 4V48c0 2.2 1.8 4 4 4h52c2.2 0 4-1.8 4-4V22.8c1.23-.93 2-2.37 2-4V9c0-1.66-1.34-3-3-3H43.54l-3.1-4.66C39.86.5 38.93 0 37.93 0H26.06zm0 2h11.86c.34 0 .64.17.83.45L41.13 6H22.87l2.37-3.55c.2-.28.5-.45.83-.45zM3 8h58c.55 0 1 .45 1 1v1c-.55 0-1 .45-1 1v2c0 .55.45 1 1 1v4.8c0 1.4-.96 2.62-2.34 2.93L36 27.07V27c0-1.1-.9-2-2-2h-4c-1.1 0-2 .9-2 2v.07L4.34 21.73C2.96 21.43 2 20.2 2 18.8V14c.55 0 1-.45 1-1v-2c0-.55-.45-1-1-1V9c0-.55.45-1 1-1zm4 2c-.55 0-1 .45-1 1v2c0 .55.45 1 1 1s1-.45 1-1v-2c0-.55-.45-1-1-1zm5 0c-.55 0-1 .45-1 1v2c0 .55.45 1 1 1s1-.45 1-1v-2c0-.55-.45-1-1-1zm5 0c-.55 0-1 .45-1 1v2c0 .55.45 1 1 1s1-.45 1-1v-2c0-.55-.45-1-1-1zm5 0c-.55 0-1 .45-1 1v2c0 .55.45 1 1 1s1-.45 1-1v-2c0-.55-.45-1-1-1zm5 0c-.55 0-1 .45-1 1v2c0 .55.45 1 1 1s1-.45 1-1v-2c0-.55-.45-1-1-1zm5 0c-.55 0-1 .45-1 1v2c0 .55.45 1 1 1s1-.45 1-1v-2c0-.55-.45-1-1-1zm5 0c-.55 0-1 .45-1 1v2c0 .55.45 1 1 1s1-.45 1-1v-2c0-.55-.45-1-1-1zm5 0c-.55 0-1 .45-1 1v2c0 .55.45 1 1 1s1-.45 1-1v-2c0-.55-.45-1-1-1zm5 0c-.55 0-1 .45-1 1v2c0 .55.45 1 1 1s1-.45 1-1v-2c0-.55-.45-1-1-1zm5 0c-.55 0-1 .45-1 1v2c0 .55.45 1 1 1s1-.45 1-1v-2c0-.55-.45-1-1-1zm5 0c-.55 0-1 .45-1 1v2c0 .55.45 1 1 1s1-.45 1-1v-2c0-.55-.45-1-1-1zm3 13.7V48c0 1.1-.9 2-2 2H6c-1.1 0-2-.9-2-2V23.7l24 5.43V33c0 1.1.9 2 2 2h4c1.1 0 2-.9 2-2v-3.88l24-5.42zM30 27h4v6h-4v-6zM7 44c-.55 0-1 .45-1 1s.45 1 1 1h42c.55 0 1-.45 1-1s-.45-1-1-1H7zm46 0c-.55 0-1 .45-1 1s.45 1 1 1h4c.55 0 1-.45 1-1s-.45-1-1-1h-4z"/></g></g></g></svg>