<svg xmlns="http://www.w3.org/2000/svg" width="249" height="65"><g fill="#fff"><g><path fill-rule="nonzero" d="M1.35 45.8h8.85v2.38H4.04v2.68h5.62v2.35H4.04V56h6.27v2.38H1.36V45.8zM15.63 58.4H12.5l4.5-6.52-4.24-6.05h3.14l2.8 4.14 2.76-4.13h3.16l-4.24 6.06 4.5 6.52h-3.16L18.7 53.8l-3.07 4.58zm12-12.57h4.74c3.03 0 5.42.98 5.42 4.23 0 3.25-2.4 4.22-5.43 4.22h-2.05v4.13h-2.7V45.8zm7.4 4.23c0-1.5-1.16-1.85-2.54-1.85H30.3v3.7h2.17c1.37 0 2.54-.38 2.54-1.85zm5.35 2.07c0-3.42 2.23-6.54 6.7-6.54 4.44 0 6.67 3.12 6.67 6.54 0 3.4-2.23 6.53-6.68 6.53-4.46 0-6.7-3.12-6.7-6.53zm10.6 0c0-2.2-1.3-4.05-3.9-4.05-2.64 0-3.95 1.84-3.95 4.05 0 2.2 1.3 4.04 3.94 4.04 2.6 0 3.9-1.83 3.9-4.04z"/><g><path d="M12.06 30.7c-2.36 0-4.52-.38-6.47-1.16-1.97-.78-3.83-1.97-5.6-3.58l2.07-2.46c1.54 1.4 3.1 2.47 4.68 3.16 1.57.7 3.4 1.04 5.44 1.04 2 0 3.58-.48 4.78-1.42 1.2-.95 1.8-2.16 1.8-3.63v-.1c0-.66-.12-1.28-.35-1.83-.22-.55-.62-1.05-1.18-1.5-.57-.46-1.35-.87-2.35-1.24-1-.36-2.27-.72-3.83-1.06-1.7-.36-3.16-.8-4.4-1.27-1.27-.48-2.3-1.06-3.12-1.74-.8-.62-1.4-1.44-1.82-2.36-.4-.9-.6-1.97-.6-3.18v-.1c0-1.15.25-2.22.72-3.2.48-1 1.16-1.86 2.03-2.58.92-.74 1.96-1.32 3.08-1.7 1.18-.4 2.47-.6 3.88-.6 2.17 0 4.06.3 5.67.9 1.63.6 3.2 1.52 4.72 2.74L19.28 6.4c-1.38-1.13-2.77-1.95-4.16-2.46-1.4-.5-2.87-.76-4.36-.76-1.94 0-3.48.46-4.6 1.38-1.13.92-1.7 2.06-1.7 3.4v.1c0 .7.12 1.33.35 1.9.23.54.64 1.05 1.23 1.5.6.48 1.4.9 2.45 1.3 1.04.37 2.37.73 4 1.07 3.3.73 5.72 1.75 7.28 3.05 1.56 1.3 2.34 3.08 2.34 5.35v.08c0 1.28-.25 2.44-.75 3.47-.5 1.02-1.2 1.92-2.06 2.65-.9.73-1.95 1.3-3.2 1.7-1.22.4-2.57.6-4.04.6zM26.46.6h3.37l10.75 16.2L51.34.6h3.38v29.68h-3.34V6.24l-10.75 15.9h-.17L29.7 6.28v24h-3.25V.58zM72.2.37h3.12l13.46 29.9h-3.58l-3.46-7.84H65.68l-3.5 7.84h-3.42L72.22.38zm8.23 19.05l-6.7-15.15-6.76 15.15h13.45zM92.85.6h12.7c1.82 0 3.45.26 4.87.78s2.6 1.25 3.52 2.18c.73.74 1.3 1.62 1.7 2.6.38.98.58 2.07.58 3.26v.08c0 1.25-.2 2.35-.6 3.33-.37.95-.94 1.82-1.66 2.55-.74.73-1.6 1.34-2.55 1.78-1 .47-2.08.8-3.2 1l9.07 12.12h-4.1l-8.55-11.53h-8.44v11.53h-3.33V.58zm12.43 15.14c1.1 0 2.1-.14 3.04-.43.87-.24 1.7-.65 2.4-1.2.7-.52 1.22-1.16 1.6-1.9.38-.75.57-1.6.57-2.57v-.1c0-1.82-.68-3.26-2-4.3-1.33-1.02-3.2-1.54-5.58-1.54h-9.14v12.04h9.1zM130.1 3.7h-9.9V.6h23.14v3.1h-9.9v26.58h-3.34V3.68zm29.75 27.18c-2.1 0-4.1-.38-5.95-1.15-1.8-.73-3.45-1.82-4.83-3.2-1.38-1.4-2.5-3.06-3.25-4.88-.8-1.88-1.2-3.92-1.2-6.13v-.08c0-2.15.4-4.16 1.18-6.05.76-1.84 1.86-3.5 3.25-4.93 1.4-1.4 3.07-2.53 4.92-3.28 1.9-.8 3.97-1.2 6.22-1.2 1.5 0 2.88.15 4.12.45 1.24.3 2.37.7 3.4 1.27 1 .54 1.94 1.2 2.78 1.97.82.75 1.57 1.58 2.22 2.5l-6.16 4.8c-.85-1.1-1.77-1.94-2.8-2.56-1-.62-2.22-.93-3.66-.93-1.04 0-2 .2-2.85.62-.84.4-1.6.97-2.2 1.68-.65.73-1.14 1.58-1.47 2.5-.35.98-.53 2-.52 3.05v.1c0 1.1.17 2.13.52 3.1.36.98.84 1.82 1.46 2.53.62.7 1.37 1.28 2.22 1.68.85.4 1.8.6 2.84.6.76 0 1.46-.07 2.1-.24.6-.16 1.18-.4 1.72-.75.53-.33 1.02-.7 1.48-1.14.46-.44.92-.93 1.37-1.47l6.16 4.42c-.7.96-1.47 1.85-2.3 2.67-.85.83-1.8 1.54-2.83 2.12-1.1.62-2.3 1.1-3.54 1.4-1.3.34-2.78.5-4.4.5zm16.9-.6h8.2V.58h-8.2v29.7zM197.86 7.8H189V.6h25.9v7.2h-8.85V30.3h-8.18V7.8zm31.62 11.37L218.25.6h9.33l6.06 10.8L239.78.6h9.15L237.7 19.03v11.24h-8.2v-11.1z"/></g><path d="M62.87 40.42h106.3v23.95H62.86V40.42zm18.44 5.4l-4.28 6.53-4.3-6.54h-2.5V58.4h2.68v-7.76l3.33 5.07h1.56l3.3-5.06v7.74h2.7V45.8h-2.5zm6 6.28c0 3.4 2.23 6.53 6.68 6.53 4.46 0 6.68-3.12 6.68-6.53 0-3.42-2.22-6.54-6.68-6.54-4.45 0-6.68 3.12-6.68 6.54zm10.6 0c0 2.2-1.3 4.04-3.92 4.04s-3.93-1.83-3.93-4.04c0-2.2 1.3-4.05 3.93-4.05 2.6 0 3.92 1.84 3.92 4.05zm5.7-2.97c0 4.46 6.88 3.58 6.88 5.93 0 .9-.9 1.2-2.35 1.2-1.44 0-3.02-.37-4.46-1.33v2.57c1.3.72 2.9 1.13 4.65 1.13 2.64 0 4.9-.88 4.9-3.7 0-4.47-6.87-3.66-6.87-5.83 0-.78.68-1.15 2.05-1.17 1.4-.02 2.82.36 3.88 1.1v-2.5c-1.08-.6-2.6-.97-4.08-.97-2.48 0-4.6 1.15-4.6 3.57zm12.24 3.1c0 4.4 3.43 6.4 6.8 6.4 1.32 0 2.56-.28 3.64-.8V55.2c-.76.67-1.94 1.03-3.24 1.03-2.2 0-4.45-1.22-4.44-4 0-3.03 2.23-4.28 4.44-4.28 1.17 0 2.34.36 3.15.98v-2.56c-1.1-.54-2.35-.8-3.6-.8-3.37 0-6.74 2.07-6.76 6.67zm13.1-.13c0 3.4 2.23 6.53 6.68 6.53 4.46 0 6.7-3.12 6.7-6.53 0-3.42-2.24-6.54-6.7-6.54-4.45 0-6.68 3.12-6.68 6.54zm10.6 0c0 2.2-1.3 4.04-3.92 4.04s-3.93-1.83-3.93-4.04c0-2.2 1.3-4.05 3.92-4.05 2.6 0 3.92 1.84 3.92 4.05zM160 45.8l-2.5 9.5-2.72-9.5h-2.37l-2.7 9.5-2.5-9.5h-2.9l3.87 12.58h2.93l2.5-8.57 2.5 8.58H159l3.88-12.57H160z"/></g></g></svg>